<?xml version="1.0" encoding="utf-8" standalone="no"?>
<!DOCTYPE svg PUBLIC "-//W3C//DTD SVG 1.1//EN"
  "http://www.w3.org/Graphics/SVG/1.1/DTD/svg11.dtd">
<svg xmlns:xlink="http://www.w3.org/1999/xlink" width="564.902686pt" height="244.558125pt" viewBox="0 0 564.902686 244.558125" xmlns="http://www.w3.org/2000/svg" version="1.1">
 <metadata>
  <rdf:RDF xmlns:dc="http://purl.org/dc/elements/1.1/" xmlns:cc="http://creativecommons.org/ns#" xmlns:rdf="http://www.w3.org/1999/02/22-rdf-syntax-ns#">
   <cc:Work>
    <dc:type rdf:resource="http://purl.org/dc/dcmitype/StillImage"/>
    <dc:date>2026-07-19T14:37:20.692149</dc:date>
    <dc:format>image/svg+xml</dc:format>
    <dc:creator>
     <cc:Agent>
      <dc:title>Matplotlib v3.11.1, https://matplotlib.org/</dc:title>
     </cc:Agent>
    </dc:creator>
   </cc:Work>
  </rdf:RDF>
 </metadata>
 <defs>
  <style type="text/css">*{stroke-linejoin: round; stroke-linecap: butt}</style>
 </defs>
 <g id="figure_1">
  <g id="patch_1">
   <path d="M 0 244.558125 
L 564.902686 244.558125 
L 564.902686 0 
L 0 0 
z
" style="fill: #0d1117"/>
  </g>
  <g id="axes_1">
   <g id="patch_2">
    <path d="M 34.56 222.358125 
L 554.050909 222.358125 
L 554.050909 22.318125 
L 34.56 22.318125 
z
" style="fill: #0d1117"/>
   </g>
   <g id="matplotlib.axis_1">
    <g id="xtick_1">
     <g id="line2d_1">
      <path d="M 58.173223 222.358125 
L 58.173223 22.318125 
" clip-path="url(#p1fb5434c5b)" style="fill: none; stroke: #21262d; stroke-opacity: 0.5; stroke-width: 0.5; stroke-linecap: square"/>
     </g>
     <g id="line2d_2">
      <defs>
       <path id="m52db583675" d="M 0 0 
L 0 3.5 
" style="stroke: #c9d1d9; stroke-width: 0.8"/>
      </defs>
      <g>
       <use xlink:href="#m52db583675" x="58.173223" y="222.358125" style="fill: #c9d1d9; stroke: #c9d1d9; stroke-width: 0.8"/>
      </g>
     </g>
     <g id="text_1">
      <!-- 0 -->
      <g style="fill: #c9d1d9" transform="translate(55.628223 235.43625) scale(0.08 -0.08)">
       <defs>
        <path id="DejaVuSans-13" d="M 2034 4250 
Q 1547 4250 1301 3770 
Q 1056 3291 1056 2328 
Q 1056 1369 1301 889 
Q 1547 409 2034 409 
Q 2525 409 2770 889 
Q 3016 1369 3016 2328 
Q 3016 3291 2770 3770 
Q 2525 4250 2034 4250 
z
M 2034 4750 
Q 2819 4750 3233 4129 
Q 3647 3509 3647 2328 
Q 3647 1150 3233 529 
Q 2819 -91 2034 -91 
Q 1250 -91 836 529 
Q 422 1150 422 2328 
Q 422 3509 836 4129 
Q 1250 4750 2034 4750 
z
" transform="scale(0.015625)"/>
       </defs>
       <use xlink:href="#DejaVuSans-13"/>
      </g>
     </g>
    </g>
    <g id="xtick_2">
     <g id="line2d_3">
      <path d="M 117.206281 222.358125 
L 117.206281 22.318125 
" clip-path="url(#p1fb5434c5b)" style="fill: none; stroke: #21262d; stroke-opacity: 0.5; stroke-width: 0.5; stroke-linecap: square"/>
     </g>
     <g id="line2d_4">
      <g>
       <use xlink:href="#m52db583675" x="117.206281" y="222.358125" style="fill: #c9d1d9; stroke: #c9d1d9; stroke-width: 0.8"/>
      </g>
     </g>
     <g id="text_2">
      <!-- 10 -->
      <g style="fill: #c9d1d9" transform="translate(112.116281 235.43625) scale(0.08 -0.08)">
       <defs>
        <path id="DejaVuSans-14" d="M 794 531 
L 1825 531 
L 1825 4091 
L 703 3866 
L 703 4441 
L 1819 4666 
L 2450 4666 
L 2450 531 
L 3481 531 
L 3481 0 
L 794 0 
L 794 531 
z
" transform="scale(0.015625)"/>
       </defs>
       <use xlink:href="#DejaVuSans-14"/>
       <use xlink:href="#DejaVuSans-13" transform="translate(63.625 0)"/>
      </g>
     </g>
    </g>
    <g id="xtick_3">
     <g id="line2d_5">
      <path d="M 176.239339 222.358125 
L 176.239339 22.318125 
" clip-path="url(#p1fb5434c5b)" style="fill: none; stroke: #21262d; stroke-opacity: 0.5; stroke-width: 0.5; stroke-linecap: square"/>
     </g>
     <g id="line2d_6">
      <g>
       <use xlink:href="#m52db583675" x="176.239339" y="222.358125" style="fill: #c9d1d9; stroke: #c9d1d9; stroke-width: 0.8"/>
      </g>
     </g>
     <g id="text_3">
      <!-- 20 -->
      <g style="fill: #c9d1d9" transform="translate(171.149339 235.43625) scale(0.08 -0.08)">
       <defs>
        <path id="DejaVuSans-15" d="M 1228 531 
L 3431 531 
L 3431 0 
L 469 0 
L 469 531 
Q 828 903 1448 1529 
Q 2069 2156 2228 2338 
Q 2531 2678 2651 2914 
Q 2772 3150 2772 3378 
Q 2772 3750 2511 3984 
Q 2250 4219 1831 4219 
Q 1534 4219 1204 4116 
Q 875 4013 500 3803 
L 500 4441 
Q 881 4594 1212 4672 
Q 1544 4750 1819 4750 
Q 2544 4750 2975 4387 
Q 3406 4025 3406 3419 
Q 3406 3131 3298 2873 
Q 3191 2616 2906 2266 
Q 2828 2175 2409 1742 
Q 1991 1309 1228 531 
z
" transform="scale(0.015625)"/>
       </defs>
       <use xlink:href="#DejaVuSans-15"/>
       <use xlink:href="#DejaVuSans-13" transform="translate(63.625 0)"/>
      </g>
     </g>
    </g>
    <g id="xtick_4">
     <g id="line2d_7">
      <path d="M 235.272397 222.358125 
L 235.272397 22.318125 
" clip-path="url(#p1fb5434c5b)" style="fill: none; stroke: #21262d; stroke-opacity: 0.5; stroke-width: 0.5; stroke-linecap: square"/>
     </g>
     <g id="line2d_8">
      <g>
       <use xlink:href="#m52db583675" x="235.272397" y="222.358125" style="fill: #c9d1d9; stroke: #c9d1d9; stroke-width: 0.8"/>
      </g>
     </g>
     <g id="text_4">
      <!-- 30 -->
      <g style="fill: #c9d1d9" transform="translate(230.182397 235.43625) scale(0.08 -0.08)">
       <defs>
        <path id="DejaVuSans-16" d="M 2597 2516 
Q 3050 2419 3304 2112 
Q 3559 1806 3559 1356 
Q 3559 666 3084 287 
Q 2609 -91 1734 -91 
Q 1441 -91 1130 -33 
Q 819 25 488 141 
L 488 750 
Q 750 597 1062 519 
Q 1375 441 1716 441 
Q 2309 441 2620 675 
Q 2931 909 2931 1356 
Q 2931 1769 2642 2001 
Q 2353 2234 1838 2234 
L 1294 2234 
L 1294 2753 
L 1863 2753 
Q 2328 2753 2575 2939 
Q 2822 3125 2822 3475 
Q 2822 3834 2567 4026 
Q 2313 4219 1838 4219 
Q 1578 4219 1281 4162 
Q 984 4106 628 3988 
L 628 4550 
Q 988 4650 1302 4700 
Q 1616 4750 1894 4750 
Q 2613 4750 3031 4423 
Q 3450 4097 3450 3541 
Q 3450 3153 3228 2886 
Q 3006 2619 2597 2516 
z
" transform="scale(0.015625)"/>
       </defs>
       <use xlink:href="#DejaVuSans-16"/>
       <use xlink:href="#DejaVuSans-13" transform="translate(63.625 0)"/>
      </g>
     </g>
    </g>
    <g id="xtick_5">
     <g id="line2d_9">
      <path d="M 294.305455 222.358125 
L 294.305455 22.318125 
" clip-path="url(#p1fb5434c5b)" style="fill: none; stroke: #21262d; stroke-opacity: 0.5; stroke-width: 0.5; stroke-linecap: square"/>
     </g>
     <g id="line2d_10">
      <g>
       <use xlink:href="#m52db583675" x="294.305455" y="222.358125" style="fill: #c9d1d9; stroke: #c9d1d9; stroke-width: 0.8"/>
      </g>
     </g>
     <g id="text_5">
      <!-- 40 -->
      <g style="fill: #c9d1d9" transform="translate(289.215455 235.43625) scale(0.08 -0.08)">
       <defs>
        <path id="DejaVuSans-17" d="M 2419 4116 
L 825 1625 
L 2419 1625 
L 2419 4116 
z
M 2253 4666 
L 3047 4666 
L 3047 1625 
L 3713 1625 
L 3713 1100 
L 3047 1100 
L 3047 0 
L 2419 0 
L 2419 1100 
L 313 1100 
L 313 1709 
L 2253 4666 
z
" transform="scale(0.015625)"/>
       </defs>
       <use xlink:href="#DejaVuSans-17"/>
       <use xlink:href="#DejaVuSans-13" transform="translate(63.625 0)"/>
      </g>
     </g>
    </g>
    <g id="xtick_6">
     <g id="line2d_11">
      <path d="M 353.338512 222.358125 
L 353.338512 22.318125 
" clip-path="url(#p1fb5434c5b)" style="fill: none; stroke: #21262d; stroke-opacity: 0.5; stroke-width: 0.5; stroke-linecap: square"/>
     </g>
     <g id="line2d_12">
      <g>
       <use xlink:href="#m52db583675" x="353.338512" y="222.358125" style="fill: #c9d1d9; stroke: #c9d1d9; stroke-width: 0.8"/>
      </g>
     </g>
     <g id="text_6">
      <!-- 50 -->
      <g style="fill: #c9d1d9" transform="translate(348.248512 235.43625) scale(0.08 -0.08)">
       <defs>
        <path id="DejaVuSans-18" d="M 691 4666 
L 3169 4666 
L 3169 4134 
L 1269 4134 
L 1269 2991 
Q 1406 3038 1543 3061 
Q 1681 3084 1819 3084 
Q 2600 3084 3056 2656 
Q 3513 2228 3513 1497 
Q 3513 744 3044 326 
Q 2575 -91 1722 -91 
Q 1428 -91 1123 -41 
Q 819 9 494 109 
L 494 744 
Q 775 591 1075 516 
Q 1375 441 1709 441 
Q 2250 441 2565 725 
Q 2881 1009 2881 1497 
Q 2881 1984 2565 2268 
Q 2250 2553 1709 2553 
Q 1456 2553 1204 2497 
Q 953 2441 691 2322 
L 691 4666 
z
" transform="scale(0.015625)"/>
       </defs>
       <use xlink:href="#DejaVuSans-18"/>
       <use xlink:href="#DejaVuSans-13" transform="translate(63.625 0)"/>
      </g>
     </g>
    </g>
    <g id="xtick_7">
     <g id="line2d_13">
      <path d="M 412.37157 222.358125 
L 412.37157 22.318125 
" clip-path="url(#p1fb5434c5b)" style="fill: none; stroke: #21262d; stroke-opacity: 0.5; stroke-width: 0.5; stroke-linecap: square"/>
     </g>
     <g id="line2d_14">
      <g>
       <use xlink:href="#m52db583675" x="412.37157" y="222.358125" style="fill: #c9d1d9; stroke: #c9d1d9; stroke-width: 0.8"/>
      </g>
     </g>
     <g id="text_7">
      <!-- 60 -->
      <g style="fill: #c9d1d9" transform="translate(407.28157 235.43625) scale(0.08 -0.08)">
       <defs>
        <path id="DejaVuSans-19" d="M 2113 2584 
Q 1688 2584 1439 2293 
Q 1191 2003 1191 1497 
Q 1191 994 1439 701 
Q 1688 409 2113 409 
Q 2538 409 2786 701 
Q 3034 994 3034 1497 
Q 3034 2003 2786 2293 
Q 2538 2584 2113 2584 
z
M 3366 4563 
L 3366 3988 
Q 3128 4100 2886 4159 
Q 2644 4219 2406 4219 
Q 1781 4219 1451 3797 
Q 1122 3375 1075 2522 
Q 1259 2794 1537 2939 
Q 1816 3084 2150 3084 
Q 2853 3084 3261 2657 
Q 3669 2231 3669 1497 
Q 3669 778 3244 343 
Q 2819 -91 2113 -91 
Q 1303 -91 875 529 
Q 447 1150 447 2328 
Q 447 3434 972 4092 
Q 1497 4750 2381 4750 
Q 2619 4750 2861 4703 
Q 3103 4656 3366 4563 
z
" transform="scale(0.015625)"/>
       </defs>
       <use xlink:href="#DejaVuSans-19"/>
       <use xlink:href="#DejaVuSans-13" transform="translate(63.625 0)"/>
      </g>
     </g>
    </g>
    <g id="xtick_8">
     <g id="line2d_15">
      <path d="M 471.404628 222.358125 
L 471.404628 22.318125 
" clip-path="url(#p1fb5434c5b)" style="fill: none; stroke: #21262d; stroke-opacity: 0.5; stroke-width: 0.5; stroke-linecap: square"/>
     </g>
     <g id="line2d_16">
      <g>
       <use xlink:href="#m52db583675" x="471.404628" y="222.358125" style="fill: #c9d1d9; stroke: #c9d1d9; stroke-width: 0.8"/>
      </g>
     </g>
     <g id="text_8">
      <!-- 70 -->
      <g style="fill: #c9d1d9" transform="translate(466.314628 235.43625) scale(0.08 -0.08)">
       <defs>
        <path id="DejaVuSans-1a" d="M 525 4666 
L 3525 4666 
L 3525 4397 
L 1831 0 
L 1172 0 
L 2766 4134 
L 525 4134 
L 525 4666 
z
" transform="scale(0.015625)"/>
       </defs>
       <use xlink:href="#DejaVuSans-1a"/>
       <use xlink:href="#DejaVuSans-13" transform="translate(63.625 0)"/>
      </g>
     </g>
    </g>
    <g id="xtick_9">
     <g id="line2d_17">
      <path d="M 530.437686 222.358125 
L 530.437686 22.318125 
" clip-path="url(#p1fb5434c5b)" style="fill: none; stroke: #21262d; stroke-opacity: 0.5; stroke-width: 0.5; stroke-linecap: square"/>
     </g>
     <g id="line2d_18">
      <g>
       <use xlink:href="#m52db583675" x="530.437686" y="222.358125" style="fill: #c9d1d9; stroke: #c9d1d9; stroke-width: 0.8"/>
      </g>
     </g>
     <g id="text_9">
      <!-- 80 -->
      <g style="fill: #c9d1d9" transform="translate(525.347686 235.43625) scale(0.08 -0.08)">
       <defs>
        <path id="DejaVuSans-1b" d="M 2034 2216 
Q 1584 2216 1326 1975 
Q 1069 1734 1069 1313 
Q 1069 891 1326 650 
Q 1584 409 2034 409 
Q 2484 409 2743 651 
Q 3003 894 3003 1313 
Q 3003 1734 2745 1975 
Q 2488 2216 2034 2216 
z
M 1403 2484 
Q 997 2584 770 2862 
Q 544 3141 544 3541 
Q 544 4100 942 4425 
Q 1341 4750 2034 4750 
Q 2731 4750 3128 4425 
Q 3525 4100 3525 3541 
Q 3525 3141 3298 2862 
Q 3072 2584 2669 2484 
Q 3125 2378 3379 2068 
Q 3634 1759 3634 1313 
Q 3634 634 3220 271 
Q 2806 -91 2034 -91 
Q 1263 -91 848 271 
Q 434 634 434 1313 
Q 434 1759 690 2068 
Q 947 2378 1403 2484 
z
M 1172 3481 
Q 1172 3119 1398 2916 
Q 1625 2713 2034 2713 
Q 2441 2713 2670 2916 
Q 2900 3119 2900 3481 
Q 2900 3844 2670 4047 
Q 2441 4250 2034 4250 
Q 1625 4250 1398 4047 
Q 1172 3844 1172 3481 
z
" transform="scale(0.015625)"/>
       </defs>
       <use xlink:href="#DejaVuSans-1b"/>
       <use xlink:href="#DejaVuSans-13" transform="translate(63.625 0)"/>
      </g>
     </g>
    </g>
   </g>
   <g id="matplotlib.axis_2">
    <g id="ytick_1">
     <g id="line2d_19">
      <path d="M 34.56 208.932815 
L 554.050909 208.932815 
" clip-path="url(#p1fb5434c5b)" style="fill: none; stroke: #21262d; stroke-opacity: 0.5; stroke-width: 0.5; stroke-linecap: square"/>
     </g>
     <g id="line2d_20">
      <defs>
       <path id="m151777935d" d="M 0 0 
L -3.5 0 
" style="stroke: #c9d1d9; stroke-width: 0.8"/>
      </defs>
      <g>
       <use xlink:href="#m151777935d" x="34.56" y="208.932815" style="fill: #c9d1d9; stroke: #c9d1d9; stroke-width: 0.8"/>
      </g>
     </g>
     <g id="text_10">
      <!-- $300 -->
      <g style="fill: #c9d1d9" transform="translate(7.2 211.97219) scale(0.08 -0.08)">
       <defs>
        <path id="DejaVuSans-7" d="M 2163 -941 
L 1850 -941 
L 1847 0 
Q 1519 6 1191 76 
Q 863 147 531 288 
L 531 850 
Q 850 650 1176 548 
Q 1503 447 1850 444 
L 1850 1869 
Q 1159 1981 845 2250 
Q 531 2519 531 2988 
Q 531 3497 872 3790 
Q 1213 4084 1850 4128 
L 1850 4863 
L 2163 4863 
L 2163 4138 
Q 2453 4125 2725 4076 
Q 2997 4028 3256 3944 
L 3256 3397 
Q 2997 3528 2723 3600 
Q 2450 3672 2163 3684 
L 2163 2350 
Q 2872 2241 3206 1959 
Q 3541 1678 3541 1191 
Q 3541 663 3186 358 
Q 2831 53 2163 6 
L 2163 -941 
z
M 1850 2406 
L 1850 3688 
Q 1488 3647 1297 3481 
Q 1106 3316 1106 3041 
Q 1106 2772 1282 2622 
Q 1459 2472 1850 2406 
z
M 2163 1806 
L 2163 453 
Q 2559 506 2761 678 
Q 2963 850 2963 1131 
Q 2963 1406 2770 1568 
Q 2578 1731 2163 1806 
z
" transform="scale(0.015625)"/>
       </defs>
       <use xlink:href="#DejaVuSans-7"/>
       <use xlink:href="#DejaVuSans-16" transform="translate(63.625 0)"/>
       <use xlink:href="#DejaVuSans-13" transform="translate(127.25 0)"/>
       <use xlink:href="#DejaVuSans-13" transform="translate(190.875 0)"/>
      </g>
     </g>
    </g>
    <g id="ytick_2">
     <g id="line2d_21">
      <path d="M 34.56 175.424828 
L 554.050909 175.424828 
" clip-path="url(#p1fb5434c5b)" style="fill: none; stroke: #21262d; stroke-opacity: 0.5; stroke-width: 0.5; stroke-linecap: square"/>
     </g>
     <g id="line2d_22">
      <g>
       <use xlink:href="#m151777935d" x="34.56" y="175.424828" style="fill: #c9d1d9; stroke: #c9d1d9; stroke-width: 0.8"/>
      </g>
     </g>
     <g id="text_11">
      <!-- $400 -->
      <g style="fill: #c9d1d9" transform="translate(7.2 178.464203) scale(0.08 -0.08)">
       <use xlink:href="#DejaVuSans-7"/>
       <use xlink:href="#DejaVuSans-17" transform="translate(63.625 0)"/>
       <use xlink:href="#DejaVuSans-13" transform="translate(127.25 0)"/>
       <use xlink:href="#DejaVuSans-13" transform="translate(190.875 0)"/>
      </g>
     </g>
    </g>
    <g id="ytick_3">
     <g id="line2d_23">
      <path d="M 34.56 141.916842 
L 554.050909 141.916842 
" clip-path="url(#p1fb5434c5b)" style="fill: none; stroke: #21262d; stroke-opacity: 0.5; stroke-width: 0.5; stroke-linecap: square"/>
     </g>
     <g id="line2d_24">
      <g>
       <use xlink:href="#m151777935d" x="34.56" y="141.916842" style="fill: #c9d1d9; stroke: #c9d1d9; stroke-width: 0.8"/>
      </g>
     </g>
     <g id="text_12">
      <!-- $500 -->
      <g style="fill: #c9d1d9" transform="translate(7.2 144.956217) scale(0.08 -0.08)">
       <use xlink:href="#DejaVuSans-7"/>
       <use xlink:href="#DejaVuSans-18" transform="translate(63.625 0)"/>
       <use xlink:href="#DejaVuSans-13" transform="translate(127.25 0)"/>
       <use xlink:href="#DejaVuSans-13" transform="translate(190.875 0)"/>
      </g>
     </g>
    </g>
    <g id="ytick_4">
     <g id="line2d_25">
      <path d="M 34.56 108.408855 
L 554.050909 108.408855 
" clip-path="url(#p1fb5434c5b)" style="fill: none; stroke: #21262d; stroke-opacity: 0.5; stroke-width: 0.5; stroke-linecap: square"/>
     </g>
     <g id="line2d_26">
      <g>
       <use xlink:href="#m151777935d" x="34.56" y="108.408855" style="fill: #c9d1d9; stroke: #c9d1d9; stroke-width: 0.8"/>
      </g>
     </g>
     <g id="text_13">
      <!-- $600 -->
      <g style="fill: #c9d1d9" transform="translate(7.2 111.44823) scale(0.08 -0.08)">
       <use xlink:href="#DejaVuSans-7"/>
       <use xlink:href="#DejaVuSans-19" transform="translate(63.625 0)"/>
       <use xlink:href="#DejaVuSans-13" transform="translate(127.25 0)"/>
       <use xlink:href="#DejaVuSans-13" transform="translate(190.875 0)"/>
      </g>
     </g>
    </g>
    <g id="ytick_5">
     <g id="line2d_27">
      <path d="M 34.56 74.900868 
L 554.050909 74.900868 
" clip-path="url(#p1fb5434c5b)" style="fill: none; stroke: #21262d; stroke-opacity: 0.5; stroke-width: 0.5; stroke-linecap: square"/>
     </g>
     <g id="line2d_28">
      <g>
       <use xlink:href="#m151777935d" x="34.56" y="74.900868" style="fill: #c9d1d9; stroke: #c9d1d9; stroke-width: 0.8"/>
      </g>
     </g>
     <g id="text_14">
      <!-- $700 -->
      <g style="fill: #c9d1d9" transform="translate(7.2 77.940243) scale(0.08 -0.08)">
       <use xlink:href="#DejaVuSans-7"/>
       <use xlink:href="#DejaVuSans-1a" transform="translate(63.625 0)"/>
       <use xlink:href="#DejaVuSans-13" transform="translate(127.25 0)"/>
       <use xlink:href="#DejaVuSans-13" transform="translate(190.875 0)"/>
      </g>
     </g>
    </g>
    <g id="ytick_6">
     <g id="line2d_29">
      <path d="M 34.56 41.392882 
L 554.050909 41.392882 
" clip-path="url(#p1fb5434c5b)" style="fill: none; stroke: #21262d; stroke-opacity: 0.5; stroke-width: 0.5; stroke-linecap: square"/>
     </g>
     <g id="line2d_30">
      <g>
       <use xlink:href="#m151777935d" x="34.56" y="41.392882" style="fill: #c9d1d9; stroke: #c9d1d9; stroke-width: 0.8"/>
      </g>
     </g>
     <g id="text_15">
      <!-- $800 -->
      <g style="fill: #c9d1d9" transform="translate(7.2 44.432257) scale(0.08 -0.08)">
       <use xlink:href="#DejaVuSans-7"/>
       <use xlink:href="#DejaVuSans-1b" transform="translate(63.625 0)"/>
       <use xlink:href="#DejaVuSans-13" transform="translate(127.25 0)"/>
       <use xlink:href="#DejaVuSans-13" transform="translate(190.875 0)"/>
      </g>
     </g>
    </g>
   </g>
   <g id="line2d_31">
    <path d="M 58.173223 115.737052 
L 64.076529 127.337517 
L 69.979835 116.236321 
L 75.88314 93.883143 
L 81.786446 70.655406 
L 87.689752 38.45088 
L 93.593058 46.643583 
L 99.496364 83.096922 
L 105.399669 35.914326 
L 111.302975 97.287554 
L 117.206281 42.257388 
L 123.109587 48.583695 
L 129.012893 75.41354 
L 134.916198 33.501751 
L 140.819504 57.640904 
L 146.72281 42.445032 
L 152.626116 57.03441 
L 158.529421 38.561457 
L 164.432727 99.036671 
L 170.336033 39.848163 
L 176.239339 68.983358 
L 182.142645 54.564871 
L 188.04595 41.228692 
L 193.949256 105.004443 
L 199.852562 83.713469 
L 205.755868 36.916214 
L 211.659174 106.740157 
L 217.562479 39.516434 
L 223.465785 92.264707 
L 229.369091 54.213037 
L 235.272397 34.721441 
L 241.175702 53.921518 
L 247.079008 31.410852 
L 252.982314 43.999803 
L 258.88562 35.250868 
L 264.788926 46.037088 
L 270.692231 43.812158 
L 276.595537 49.019299 
L 282.498843 47.404214 
L 288.402149 70.115928 
L 294.305455 69.750691 
L 300.20876 46.58997 
L 306.112066 52.024966 
L 312.015372 67.991521 
L 317.918678 47.916887 
L 323.821983 57.818497 
L 329.725289 37.931506 
L 335.628595 46.194576 
L 341.531901 44.602947 
L 347.435207 42.133408 
L 353.338512 46.951857 
L 359.241818 46.271644 
L 365.145124 63.390875 
L 371.04843 46.110806 
L 376.951736 41.929009 
L 382.855041 42.374666 
L 388.758347 43.661372 
L 394.661653 36.530873 
L 400.564959 57.473364 
L 406.468264 39.891724 
L 412.37157 55.992311 
L 418.274876 98.386616 
L 424.178182 84.507608 
L 430.081488 45.232897 
L 435.984793 60.988352 
L 441.888099 48.657413 
L 447.791405 44.646507 
L 453.694711 53.904764 
L 459.598017 41.912255 
L 465.501322 50.976166 
L 471.404628 48.148092 
L 477.307934 45.169232 
L 483.21124 45.886303 
L 489.114545 55.546655 
L 495.017851 51.890934 
L 500.921157 102.106003 
L 506.824463 86.082483 
L 512.727769 97.190381 
L 518.631074 96.8486 
L 524.53438 33.270546 
L 530.437686 48.104531 
" clip-path="url(#p1fb5434c5b)" style="fill: none; stroke: #58a6ff; stroke-width: 2; stroke-linecap: square"/>
   </g>
   <g id="line2d_32">
    <path d="M 58.173223 146.628065 
L 64.076529 129.133545 
L 69.979835 131.71701 
L 75.88314 133.828014 
L 81.786446 142.777997 
L 87.689752 131.596382 
L 93.593058 135.845194 
L 99.496364 136.776716 
L 105.399669 135.329171 
L 111.302975 127.659193 
L 117.206281 133.787804 
L 123.109587 138.733583 
L 129.012893 133.915134 
L 134.916198 136.83368 
L 140.819504 134.06592 
L 146.72281 134.481419 
L 152.626116 154.16066 
L 158.529421 132.229683 
L 164.432727 129.629463 
L 170.336033 134.521629 
L 176.239339 133.164556 
L 182.142645 137.42007 
L 188.04595 128.584014 
L 193.949256 135.061108 
L 199.852562 131.375229 
L 205.755868 137.255881 
L 211.659174 135.90886 
L 217.562479 140.060499 
L 223.465785 135.11472 
L 229.369091 133.499635 
L 235.272397 140.878094 
L 241.175702 159.143298 
L 247.079008 132.651883 
L 252.982314 137.550751 
L 258.88562 137.912637 
L 264.788926 131.335019 
L 270.692231 137.96625 
L 276.595537 134.173146 
L 282.498843 132.608323 
L 288.402149 135.185087 
L 294.305455 162.065194 
L 300.20876 132.578166 
L 306.112066 133.506337 
L 312.015372 161.013043 
L 317.918678 133.754296 
L 323.821983 139.929818 
L 329.725289 155.50433 
L 335.628595 128.838674 
L 341.531901 134.565189 
L 347.435207 152.233951 
L 353.338512 125.853113 
L 359.241818 137.29609 
L 365.145124 148.182835 
L 371.04843 130.410199 
L 376.951736 144.068054 
L 382.855041 141.025529 
L 388.758347 131.807482 
L 394.661653 136.991168 
L 400.564959 154.060136 
L 406.468264 132.484343 
L 412.37157 143.103024 
L 418.274876 120.659375 
L 424.178182 133.858171 
L 430.081488 142.426163 
L 435.984793 148.631842 
L 441.888099 132.434081 
L 447.791405 139.102171 
L 453.694711 150.501588 
L 459.598017 133.043927 
L 465.501322 144.858843 
L 471.404628 142.365849 
L 477.307934 141.126053 
L 483.21124 136.428233 
L 489.114545 149.459489 
L 495.017851 133.335446 
L 500.921157 134.769588 
L 506.824463 129.344645 
L 512.727769 141.595165 
L 518.631074 126.285366 
L 524.53438 151.563791 
L 530.437686 130.447058 
" clip-path="url(#p1fb5434c5b)" style="fill: none; stroke: #3fb950; stroke-width: 2; stroke-linecap: square"/>
   </g>
   <g id="line2d_33">
    <path d="M 58.173223 130.872609 
L 64.076529 131.696906 
L 69.979835 128.573961 
L 75.88314 85.030333 
L 81.786446 70.836349 
L 87.689752 135.942368 
L 93.593058 82.175452 
L 99.496364 43.949541 
L 105.399669 121.329535 
L 111.302975 79.427797 
L 117.206281 63.78962 
L 123.109587 125.859814 
L 129.012893 116.440719 
L 134.916198 78.114284 
L 140.819504 134.327283 
L 146.72281 121.346289 
L 152.626116 85.077244 
L 158.529421 140.204584 
L 164.432727 105.376382 
L 170.336033 144.21884 
L 176.239339 136.897345 
L 182.142645 138.287927 
L 188.04595 138.100282 
L 193.949256 112.955889 
L 199.852562 141.749302 
L 205.755868 138.110334 
L 211.659174 123.484098 
L 217.562479 145.790365 
L 223.465785 132.34361 
L 229.369091 136.773366 
L 235.272397 141.906789 
L 241.175702 85.73065 
L 247.079008 139.779032 
L 252.982314 139.360182 
L 258.88562 72.746305 
L 264.788926 144.252348 
L 270.692231 128.811868 
L 276.595537 73.027772 
L 282.498843 139.93987 
L 288.402149 132.692093 
L 294.305455 82.339641 
L 300.20876 143.518523 
L 306.112066 135.53357 
L 312.015372 118.327219 
L 317.918678 141.816318 
L 323.821983 135.975876 
L 329.725289 139.145731 
L 335.628595 137.061534 
L 341.531901 135.382784 
L 347.435207 135.054406 
L 353.338512 132.93 
L 359.241818 138.120387 
L 365.145124 131.75722 
L 371.04843 140.512857 
L 376.951736 134.086025 
L 382.855041 136.887293 
L 388.758347 130.07847 
L 394.661653 137.58761 
L 400.564959 79.327273 
L 406.468264 138.351592 
L 412.37157 134.893568 
L 418.274876 79.81649 
L 424.178182 106.96131 
L 430.081488 146.14555 
L 435.984793 102.645481 
L 441.888099 146.256126 
L 447.791405 133.610212 
L 453.694711 102.963807 
L 459.598017 139.323323 
L 465.501322 131.670099 
L 471.404628 101.827886 
L 477.307934 146.142199 
L 483.21124 126.365785 
L 489.114545 117.077371 
L 495.017851 139.789084 
L 500.921157 117.198 
L 506.824463 86.863219 
L 512.727769 132.095651 
L 518.631074 111.541852 
L 524.53438 125.29688 
L 530.437686 139.93652 
" clip-path="url(#p1fb5434c5b)" style="fill: none; stroke: #f85149; stroke-width: 2; stroke-linecap: square"/>
   </g>
   <g id="line2d_34">
    <path d="M 58.173223 173.414349 
L 64.076529 175.351111 
L 69.979835 194.631606 
L 75.88314 190.322479 
L 81.786446 212.387488 
L 87.689752 189.417764 
L 93.593058 185.741937 
L 99.496364 213.060999 
L 105.399669 184.16036 
L 111.302975 170.388578 
L 117.206281 196.836432 
L 123.109587 190.932325 
L 129.012893 194.966686 
L 134.916198 213.265398 
L 140.819504 195.080613 
L 146.72281 202.418862 
L 152.626116 212.926967 
L 158.529421 197.094443 
L 164.432727 198.019264 
L 170.336033 200.049848 
L 176.239339 198.196856 
L 182.142645 202.526088 
L 188.04595 170.435489 
L 193.949256 185.095233 
L 199.852562 206.912283 
L 205.755868 153.885894 
L 211.659174 188.821321 
L 217.562479 187.59828 
L 223.465785 150.062633 
L 229.369091 174.138122 
L 235.272397 143.702817 
L 241.175702 158.714395 
L 247.079008 145.9378 
L 252.982314 150.709337 
L 258.88562 152.843796 
L 264.788926 154.562756 
L 270.692231 154.365059 
L 276.595537 155.256371 
L 282.498843 156.97198 
L 288.402149 149.392473 
L 294.305455 162.715249 
L 300.20876 150.045879 
L 306.112066 157.343919 
L 312.015372 148.605036 
L 317.918678 152.760026 
L 323.821983 150.320645 
L 329.725289 151.952484 
L 335.628595 150.843369 
L 341.531901 157.705805 
L 347.435207 147.556236 
L 353.338512 159.347696 
L 359.241818 151.972588 
L 365.145124 153.966314 
L 371.04843 154.636473 
L 376.951736 153.242541 
L 382.855041 157.065802 
L 388.758347 146.815709 
L 394.661653 156.027055 
L 400.564959 157.970518 
L 406.468264 148.631842 
L 412.37157 152.585785 
L 418.274876 145.485442 
L 424.178182 155.038569 
L 430.081488 145.676438 
L 435.984793 156.037107 
L 441.888099 148.048803 
L 447.791405 156.915016 
L 453.694711 155.42056 
L 459.598017 151.969238 
L 465.501322 152.170286 
L 471.404628 156.439203 
L 477.307934 146.510787 
L 483.21124 159.243822 
L 489.114545 141.548254 
L 495.017851 152.032903 
L 500.921157 149.704098 
L 506.824463 144.768371 
L 512.727769 154.676683 
L 518.631074 148.588282 
L 524.53438 146.373404 
L 530.437686 151.945782 
" clip-path="url(#p1fb5434c5b)" style="fill: none; stroke: #d2a8ff; stroke-width: 2; stroke-linecap: square"/>
   </g>
   <g id="line2d_35">
    <path d="M 58.173223 131.877849 
L 64.076529 155.748939 
L 69.979835 149.184724 
L 75.88314 146.597907 
L 81.786446 117.858107 
L 87.689752 160.70477 
L 93.593058 126.097721 
L 99.496364 103.513338 
L 105.399669 135.603937 
L 111.302975 120.518641 
L 117.206281 173.484716 
L 123.109587 155.467471 
L 129.012893 162.581217 
L 134.916198 179.238037 
L 140.819504 154.582861 
L 146.72281 167.181864 
L 152.626116 121.607651 
L 158.529421 165.36238 
L 164.432727 166.444688 
L 170.336033 117.238209 
L 176.239339 165.700811 
L 182.142645 159.408011 
L 188.04595 112.758192 
L 193.949256 150.786406 
L 199.852562 160.316077 
L 205.755868 114.460397 
L 211.659174 158.158163 
L 217.562479 156.757529 
L 223.465785 120.652673 
L 229.369091 162.745406 
L 235.272397 159.803405 
L 241.175702 115.247835 
L 247.079008 155.939934 
L 252.982314 146.132146 
L 258.88562 179.194477 
L 264.788926 141.534851 
L 270.692231 158.292195 
L 276.595537 177.311328 
L 282.498843 141.943648 
L 288.402149 155.299932 
L 294.305455 120.743145 
L 300.20876 139.149082 
L 306.112066 134.263617 
L 312.015372 130.32978 
L 317.918678 133.238273 
L 323.821983 137.359755 
L 329.725289 124.743998 
L 335.628595 146.658222 
L 341.531901 143.059464 
L 347.435207 171.266487 
L 353.338512 137.741746 
L 359.241818 147.583042 
L 365.145124 174.020844 
L 371.04843 139.986782 
L 376.951736 165.891806 
L 382.855041 170.01999 
L 388.758347 151.205256 
L 394.661653 148.661999 
L 400.564959 180.229874 
L 406.468264 144.419888 
L 412.37157 148.209642 
L 418.274876 111.806565 
L 424.178182 140.345317 
L 430.081488 153.902648 
L 435.984793 123.685146 
L 441.888099 157.394181 
L 447.791405 154.438776 
L 453.694711 119.617276 
L 459.598017 160.527177 
L 465.501322 148.417391 
L 471.404628 118.149627 
L 477.307934 161.307914 
L 483.21124 149.114357 
L 489.114545 114.872546 
L 495.017851 150.350802 
L 500.921157 137.892532 
L 506.824463 112.101435 
L 512.727769 143.180093 
L 518.631074 141.745951 
L 524.53438 113.837149 
L 530.437686 154.770505 
" clip-path="url(#p1fb5434c5b)" style="fill: none; stroke: #f0883e; stroke-width: 2; stroke-linecap: square"/>
   </g>
   <g id="patch_3">
    <path d="M 34.56 222.358125 
L 34.56 22.318125 
" style="fill: none; stroke: #21262d; stroke-width: 0.8; stroke-linejoin: miter; stroke-linecap: square"/>
   </g>
   <g id="patch_4">
    <path d="M 34.56 222.358125 
L 554.050909 222.358125 
" style="fill: none; stroke: #21262d; stroke-width: 0.8; stroke-linejoin: miter; stroke-linecap: square"/>
   </g>
   <g id="text_16">
    <!-- $780 -->
    <g style="fill: #58a6ff" transform="translate(535.437686 50.182969) scale(0.08 -0.08)">
     <defs>
      <path id="DejaVuSans-Bold-7" d="M 2484 -941 
L 1978 -941 
L 1975 0 
Q 1584 16 1218 87 
Q 853 159 506 288 
L 506 1106 
Q 866 922 1233 823 
Q 1600 725 1978 713 
L 1978 1684 
L 1875 1703 
Q 1128 1834 814 2115 
Q 500 2397 500 2925 
Q 500 3484 883 3798 
Q 1266 4113 1975 4141 
L 1978 4863 
L 2484 4863 
L 2484 4153 
Q 2797 4128 3109 4075 
Q 3422 4022 3738 3938 
L 3738 3144 
Q 3425 3275 3112 3348 
Q 2800 3422 2484 3438 
L 2484 2541 
L 2584 2522 
Q 3378 2397 3698 2105 
Q 4019 1813 4019 1241 
Q 4019 666 3637 358 
Q 3256 50 2484 6 
L 2484 -941 
z
M 1978 2613 
L 1978 3428 
Q 1756 3416 1623 3308 
Q 1491 3200 1491 3034 
Q 1491 2850 1612 2745 
Q 1734 2641 1978 2613 
z
M 2484 1594 
L 2484 725 
Q 2756 728 2892 831 
Q 3028 934 3028 1141 
Q 3028 1353 2903 1458 
Q 2778 1563 2484 1594 
z
" transform="scale(0.015625)"/>
      <path id="DejaVuSans-Bold-1a" d="M 428 4666 
L 3944 4666 
L 3944 3988 
L 2125 0 
L 953 0 
L 2675 3781 
L 428 3781 
L 428 4666 
z
" transform="scale(0.015625)"/>
      <path id="DejaVuSans-Bold-1b" d="M 2228 2088 
Q 1891 2088 1709 1903 
Q 1528 1719 1528 1375 
Q 1528 1031 1709 848 
Q 1891 666 2228 666 
Q 2563 666 2741 848 
Q 2919 1031 2919 1375 
Q 2919 1722 2741 1905 
Q 2563 2088 2228 2088 
z
M 1350 2484 
Q 925 2613 709 2878 
Q 494 3144 494 3541 
Q 494 4131 934 4440 
Q 1375 4750 2228 4750 
Q 3075 4750 3515 4442 
Q 3956 4134 3956 3541 
Q 3956 3144 3739 2878 
Q 3522 2613 3097 2484 
Q 3572 2353 3814 2058 
Q 4056 1763 4056 1313 
Q 4056 619 3595 264 
Q 3134 -91 2228 -91 
Q 1319 -91 855 264 
Q 391 619 391 1313 
Q 391 1763 633 2058 
Q 875 2353 1350 2484 
z
M 1631 3419 
Q 1631 3141 1786 2991 
Q 1941 2841 2228 2841 
Q 2509 2841 2662 2991 
Q 2816 3141 2816 3419 
Q 2816 3697 2662 3845 
Q 2509 3994 2228 3994 
Q 1941 3994 1786 3844 
Q 1631 3694 1631 3419 
z
" transform="scale(0.015625)"/>
      <path id="DejaVuSans-Bold-13" d="M 2944 2338 
Q 2944 3213 2780 3570 
Q 2616 3928 2228 3928 
Q 1841 3928 1675 3570 
Q 1509 3213 1509 2338 
Q 1509 1453 1675 1090 
Q 1841 728 2228 728 
Q 2613 728 2778 1090 
Q 2944 1453 2944 2338 
z
M 4147 2328 
Q 4147 1169 3647 539 
Q 3147 -91 2228 -91 
Q 1306 -91 806 539 
Q 306 1169 306 2328 
Q 306 3491 806 4120 
Q 1306 4750 2228 4750 
Q 3147 4750 3647 4120 
Q 4147 3491 4147 2328 
z
" transform="scale(0.015625)"/>
     </defs>
     <use xlink:href="#DejaVuSans-Bold-7"/>
     <use xlink:href="#DejaVuSans-Bold-1a" transform="translate(69.578125 0)"/>
     <use xlink:href="#DejaVuSans-Bold-1b" transform="translate(139.15625 0)"/>
     <use xlink:href="#DejaVuSans-Bold-13" transform="translate(208.734375 0)"/>
    </g>
   </g>
   <g id="text_17">
    <!-- $534 -->
    <g style="fill: #3fb950" transform="translate(535.437686 132.525495) scale(0.08 -0.08)">
     <defs>
      <path id="DejaVuSans-Bold-18" d="M 678 4666 
L 3669 4666 
L 3669 3781 
L 1638 3781 
L 1638 3059 
Q 1775 3097 1914 3117 
Q 2053 3138 2203 3138 
Q 3056 3138 3531 2711 
Q 4006 2284 4006 1522 
Q 4006 766 3489 337 
Q 2972 -91 2053 -91 
Q 1656 -91 1267 -14 
Q 878 63 494 219 
L 494 1166 
Q 875 947 1217 837 
Q 1559 728 1863 728 
Q 2300 728 2551 942 
Q 2803 1156 2803 1522 
Q 2803 1891 2551 2103 
Q 2300 2316 1863 2316 
Q 1603 2316 1309 2248 
Q 1016 2181 678 2041 
L 678 4666 
z
" transform="scale(0.015625)"/>
      <path id="DejaVuSans-Bold-16" d="M 2981 2516 
Q 3453 2394 3698 2092 
Q 3944 1791 3944 1325 
Q 3944 631 3412 270 
Q 2881 -91 1863 -91 
Q 1503 -91 1142 -33 
Q 781 25 428 141 
L 428 1069 
Q 766 900 1098 814 
Q 1431 728 1753 728 
Q 2231 728 2486 893 
Q 2741 1059 2741 1369 
Q 2741 1688 2480 1852 
Q 2219 2016 1709 2016 
L 1228 2016 
L 1228 2791 
L 1734 2791 
Q 2188 2791 2409 2933 
Q 2631 3075 2631 3366 
Q 2631 3634 2415 3781 
Q 2200 3928 1806 3928 
Q 1516 3928 1219 3862 
Q 922 3797 628 3669 
L 628 4550 
Q 984 4650 1334 4700 
Q 1684 4750 2022 4750 
Q 2931 4750 3382 4451 
Q 3834 4153 3834 3553 
Q 3834 3144 3618 2883 
Q 3403 2622 2981 2516 
z
" transform="scale(0.015625)"/>
      <path id="DejaVuSans-Bold-17" d="M 2356 3675 
L 1038 1722 
L 2356 1722 
L 2356 3675 
z
M 2156 4666 
L 3494 4666 
L 3494 1722 
L 4159 1722 
L 4159 850 
L 3494 850 
L 3494 0 
L 2356 0 
L 2356 850 
L 288 850 
L 288 1881 
L 2156 4666 
z
" transform="scale(0.015625)"/>
     </defs>
     <use xlink:href="#DejaVuSans-Bold-7"/>
     <use xlink:href="#DejaVuSans-Bold-18" transform="translate(69.578125 0)"/>
     <use xlink:href="#DejaVuSans-Bold-16" transform="translate(139.15625 0)"/>
     <use xlink:href="#DejaVuSans-Bold-17" transform="translate(208.734375 0)"/>
    </g>
   </g>
   <g id="text_18">
    <!-- $506 -->
    <g style="fill: #f85149" transform="translate(535.437686 142.014957) scale(0.08 -0.08)">
     <defs>
      <path id="DejaVuSans-Bold-19" d="M 2316 2303 
Q 2000 2303 1842 2098 
Q 1684 1894 1684 1484 
Q 1684 1075 1842 870 
Q 2000 666 2316 666 
Q 2634 666 2792 870 
Q 2950 1075 2950 1484 
Q 2950 1894 2792 2098 
Q 2634 2303 2316 2303 
z
M 3803 4544 
L 3803 3681 
Q 3506 3822 3243 3889 
Q 2981 3956 2731 3956 
Q 2194 3956 1894 3657 
Q 1594 3359 1544 2772 
Q 1750 2925 1990 3001 
Q 2231 3078 2516 3078 
Q 3231 3078 3670 2659 
Q 4109 2241 4109 1563 
Q 4109 813 3618 361 
Q 3128 -91 2303 -91 
Q 1394 -91 895 523 
Q 397 1138 397 2266 
Q 397 3422 980 4083 
Q 1563 4744 2578 4744 
Q 2900 4744 3203 4694 
Q 3506 4644 3803 4544 
z
" transform="scale(0.015625)"/>
     </defs>
     <use xlink:href="#DejaVuSans-Bold-7"/>
     <use xlink:href="#DejaVuSans-Bold-18" transform="translate(69.578125 0)"/>
     <use xlink:href="#DejaVuSans-Bold-13" transform="translate(139.15625 0)"/>
     <use xlink:href="#DejaVuSans-Bold-19" transform="translate(208.734375 0)"/>
    </g>
   </g>
   <g id="text_19">
    <!-- $470 -->
    <g style="fill: #d2a8ff" transform="translate(535.437686 154.02422) scale(0.08 -0.08)">
     <use xlink:href="#DejaVuSans-Bold-7"/>
     <use xlink:href="#DejaVuSans-Bold-17" transform="translate(69.578125 0)"/>
     <use xlink:href="#DejaVuSans-Bold-1a" transform="translate(139.15625 0)"/>
     <use xlink:href="#DejaVuSans-Bold-13" transform="translate(208.734375 0)"/>
    </g>
   </g>
   <g id="text_20">
    <!-- $462 -->
    <g style="fill: #f0883e" transform="translate(535.437686 156.848943) scale(0.08 -0.08)">
     <defs>
      <path id="DejaVuSans-Bold-15" d="M 1844 884 
L 3897 884 
L 3897 0 
L 506 0 
L 506 884 
L 2209 2388 
Q 2438 2594 2547 2791 
Q 2656 2988 2656 3200 
Q 2656 3528 2436 3728 
Q 2216 3928 1850 3928 
Q 1569 3928 1234 3808 
Q 900 3688 519 3450 
L 519 4475 
Q 925 4609 1322 4679 
Q 1719 4750 2100 4750 
Q 2938 4750 3402 4381 
Q 3866 4013 3866 3353 
Q 3866 2972 3669 2642 
Q 3472 2313 2841 1759 
L 1844 884 
z
" transform="scale(0.015625)"/>
     </defs>
     <use xlink:href="#DejaVuSans-Bold-7"/>
     <use xlink:href="#DejaVuSans-Bold-17" transform="translate(69.578125 0)"/>
     <use xlink:href="#DejaVuSans-Bold-19" transform="translate(139.15625 0)"/>
     <use xlink:href="#DejaVuSans-Bold-15" transform="translate(208.734375 0)"/>
    </g>
   </g>
   <g id="text_21">
    <!-- Market Overview — Top 5 -->
    <g style="fill: #c9d1d9" transform="translate(208.695767 16.318125) scale(0.12 -0.12)">
     <defs>
      <path id="DejaVuSans-Bold-30" d="M 588 4666 
L 2119 4666 
L 3181 2169 
L 4250 4666 
L 5778 4666 
L 5778 0 
L 4641 0 
L 4641 3413 
L 3566 897 
L 2803 897 
L 1728 3413 
L 1728 0 
L 588 0 
L 588 4666 
z
" transform="scale(0.015625)"/>
      <path id="DejaVuSans-Bold-44" d="M 2106 1575 
Q 1756 1575 1579 1456 
Q 1403 1338 1403 1106 
Q 1403 894 1545 773 
Q 1688 653 1941 653 
Q 2256 653 2472 879 
Q 2688 1106 2688 1447 
L 2688 1575 
L 2106 1575 
z
M 3816 1997 
L 3816 0 
L 2688 0 
L 2688 519 
Q 2463 200 2181 54 
Q 1900 -91 1497 -91 
Q 953 -91 614 226 
Q 275 544 275 1050 
Q 275 1666 698 1953 
Q 1122 2241 2028 2241 
L 2688 2241 
L 2688 2328 
Q 2688 2594 2478 2717 
Q 2269 2841 1825 2841 
Q 1466 2841 1156 2769 
Q 847 2697 581 2553 
L 581 3406 
Q 941 3494 1303 3539 
Q 1666 3584 2028 3584 
Q 2975 3584 3395 3211 
Q 3816 2838 3816 1997 
z
" transform="scale(0.015625)"/>
      <path id="DejaVuSans-Bold-55" d="M 3138 2547 
Q 2991 2616 2845 2648 
Q 2700 2681 2553 2681 
Q 2122 2681 1889 2404 
Q 1656 2128 1656 1613 
L 1656 0 
L 538 0 
L 538 3500 
L 1656 3500 
L 1656 2925 
Q 1872 3269 2151 3426 
Q 2431 3584 2822 3584 
Q 2878 3584 2943 3579 
Q 3009 3575 3134 3559 
L 3138 2547 
z
" transform="scale(0.015625)"/>
      <path id="DejaVuSans-Bold-4e" d="M 538 4863 
L 1656 4863 
L 1656 2216 
L 2944 3500 
L 4244 3500 
L 2534 1894 
L 4378 0 
L 3022 0 
L 1656 1459 
L 1656 0 
L 538 0 
L 538 4863 
z
" transform="scale(0.015625)"/>
      <path id="DejaVuSans-Bold-48" d="M 4031 1759 
L 4031 1441 
L 1416 1441 
Q 1456 1047 1700 850 
Q 1944 653 2381 653 
Q 2734 653 3104 758 
Q 3475 863 3866 1075 
L 3866 213 
Q 3469 63 3072 -14 
Q 2675 -91 2278 -91 
Q 1328 -91 801 392 
Q 275 875 275 1747 
Q 275 2603 792 3093 
Q 1309 3584 2216 3584 
Q 3041 3584 3536 3087 
Q 4031 2591 4031 1759 
z
M 2881 2131 
Q 2881 2450 2695 2645 
Q 2509 2841 2209 2841 
Q 1884 2841 1681 2658 
Q 1478 2475 1428 2131 
L 2881 2131 
z
" transform="scale(0.015625)"/>
      <path id="DejaVuSans-Bold-57" d="M 1759 4494 
L 1759 3500 
L 2913 3500 
L 2913 2700 
L 1759 2700 
L 1759 1216 
Q 1759 972 1856 886 
Q 1953 800 2241 800 
L 2816 800 
L 2816 0 
L 1856 0 
Q 1194 0 917 276 
Q 641 553 641 1216 
L 641 2700 
L 84 2700 
L 84 3500 
L 641 3500 
L 641 4494 
L 1759 4494 
z
" transform="scale(0.015625)"/>
      <path id="DejaVuSans-Bold-3" transform="scale(0.015625)"/>
      <path id="DejaVuSans-Bold-32" d="M 2719 3878 
Q 2169 3878 1866 3472 
Q 1563 3066 1563 2328 
Q 1563 1594 1866 1187 
Q 2169 781 2719 781 
Q 3272 781 3575 1187 
Q 3878 1594 3878 2328 
Q 3878 3066 3575 3472 
Q 3272 3878 2719 3878 
z
M 2719 4750 
Q 3844 4750 4481 4106 
Q 5119 3463 5119 2328 
Q 5119 1197 4481 553 
Q 3844 -91 2719 -91 
Q 1597 -91 958 553 
Q 319 1197 319 2328 
Q 319 3463 958 4106 
Q 1597 4750 2719 4750 
z
" transform="scale(0.015625)"/>
      <path id="DejaVuSans-Bold-59" d="M 97 3500 
L 1216 3500 
L 2088 1081 
L 2956 3500 
L 4078 3500 
L 2700 0 
L 1472 0 
L 97 3500 
z
" transform="scale(0.015625)"/>
      <path id="DejaVuSans-Bold-4c" d="M 538 3500 
L 1656 3500 
L 1656 0 
L 538 0 
L 538 3500 
z
M 538 4863 
L 1656 4863 
L 1656 3950 
L 538 3950 
L 538 4863 
z
" transform="scale(0.015625)"/>
      <path id="DejaVuSans-Bold-5a" d="M 225 3500 
L 1313 3500 
L 1900 1088 
L 2491 3500 
L 3425 3500 
L 4013 1113 
L 4603 3500 
L 5691 3500 
L 4769 0 
L 3547 0 
L 2956 2406 
L 2369 0 
L 1147 0 
L 225 3500 
z
" transform="scale(0.015625)"/>
      <path id="DejaVuSans-Bold-af6" d="M 344 2156 
L 6056 2156 
L 6056 1350 
L 344 1350 
L 344 2156 
z
" transform="scale(0.015625)"/>
      <path id="DejaVuSans-Bold-37" d="M 31 4666 
L 4331 4666 
L 4331 3756 
L 2784 3756 
L 2784 0 
L 1581 0 
L 1581 3756 
L 31 3756 
L 31 4666 
z
" transform="scale(0.015625)"/>
      <path id="DejaVuSans-Bold-52" d="M 2203 2784 
Q 1831 2784 1636 2517 
Q 1441 2250 1441 1747 
Q 1441 1244 1636 976 
Q 1831 709 2203 709 
Q 2569 709 2762 976 
Q 2956 1244 2956 1747 
Q 2956 2250 2762 2517 
Q 2569 2784 2203 2784 
z
M 2203 3584 
Q 3106 3584 3614 3096 
Q 4122 2609 4122 1747 
Q 4122 884 3614 396 
Q 3106 -91 2203 -91 
Q 1297 -91 786 396 
Q 275 884 275 1747 
Q 275 2609 786 3096 
Q 1297 3584 2203 3584 
z
" transform="scale(0.015625)"/>
      <path id="DejaVuSans-Bold-53" d="M 1656 506 
L 1656 -1331 
L 538 -1331 
L 538 3500 
L 1656 3500 
L 1656 2988 
Q 1888 3294 2169 3439 
Q 2450 3584 2816 3584 
Q 3463 3584 3878 3070 
Q 4294 2556 4294 1747 
Q 4294 938 3878 423 
Q 3463 -91 2816 -91 
Q 2450 -91 2169 54 
Q 1888 200 1656 506 
z
M 2400 2772 
Q 2041 2772 1848 2508 
Q 1656 2244 1656 1747 
Q 1656 1250 1848 986 
Q 2041 722 2400 722 
Q 2759 722 2948 984 
Q 3138 1247 3138 1747 
Q 3138 2247 2948 2509 
Q 2759 2772 2400 2772 
z
" transform="scale(0.015625)"/>
     </defs>
     <use xlink:href="#DejaVuSans-Bold-30"/>
     <use xlink:href="#DejaVuSans-Bold-44" transform="translate(99.515625 0)"/>
     <use xlink:href="#DejaVuSans-Bold-55" transform="translate(167 0)"/>
     <use xlink:href="#DejaVuSans-Bold-4e" transform="translate(216.3125 0)"/>
     <use xlink:href="#DejaVuSans-Bold-48" transform="translate(280.125 0)"/>
     <use xlink:href="#DejaVuSans-Bold-57" transform="translate(347.953125 0)"/>
     <use xlink:href="#DejaVuSans-Bold-3" transform="translate(395.75 0)"/>
     <use xlink:href="#DejaVuSans-Bold-32" transform="translate(430.5625 0)"/>
     <use xlink:href="#DejaVuSans-Bold-59" transform="translate(515.578125 0)"/>
     <use xlink:href="#DejaVuSans-Bold-48" transform="translate(580.765625 0)"/>
     <use xlink:href="#DejaVuSans-Bold-55" transform="translate(648.59375 0)"/>
     <use xlink:href="#DejaVuSans-Bold-59" transform="translate(697.90625 0)"/>
     <use xlink:href="#DejaVuSans-Bold-4c" transform="translate(763.09375 0)"/>
     <use xlink:href="#DejaVuSans-Bold-48" transform="translate(797.375 0)"/>
     <use xlink:href="#DejaVuSans-Bold-5a" transform="translate(865.203125 0)"/>
     <use xlink:href="#DejaVuSans-Bold-3" transform="translate(957.59375 0)"/>
     <use xlink:href="#DejaVuSans-Bold-af6" transform="translate(992.40625 0)"/>
     <use xlink:href="#DejaVuSans-Bold-3" transform="translate(1092.40625 0)"/>
     <use xlink:href="#DejaVuSans-Bold-37" transform="translate(1127.21875 0)"/>
     <use xlink:href="#DejaVuSans-Bold-52" transform="translate(1182.15625 0)"/>
     <use xlink:href="#DejaVuSans-Bold-53" transform="translate(1250.859375 0)"/>
     <use xlink:href="#DejaVuSans-Bold-3" transform="translate(1322.4375 0)"/>
     <use xlink:href="#DejaVuSans-Bold-18" transform="translate(1357.25 0)"/>
    </g>
   </g>
   <g id="legend_1">
    <g id="patch_5">
     <path d="M 476.579659 88.72125 
L 548.450909 88.72125 
Q 550.050909 88.72125 550.050909 87.12125 
L 550.050909 27.918125 
Q 550.050909 26.318125 548.450909 26.318125 
L 476.579659 26.318125 
Q 474.979659 26.318125 474.979659 27.918125 
L 474.979659 87.12125 
Q 474.979659 88.72125 476.579659 88.72125 
z
" style="fill: #0d1117; opacity: 0.8; stroke: #21262d; stroke-linejoin: miter"/>
    </g>
    <g id="line2d_36">
     <path d="M 478.179659 32.796875 
L 486.179659 32.796875 
L 494.179659 32.796875 
" style="fill: none; stroke: #58a6ff; stroke-width: 2; stroke-linecap: square"/>
    </g>
    <g id="text_22">
     <!-- VSCODE -->
     <g style="fill: #c9d1d9" transform="translate(500.579659 35.596875) scale(0.08 -0.08)">
      <defs>
       <path id="DejaVuSans-39" d="M 1831 0 
L 50 4666 
L 709 4666 
L 2188 738 
L 3669 4666 
L 4325 4666 
L 2547 0 
L 1831 0 
z
" transform="scale(0.015625)"/>
       <path id="DejaVuSans-36" d="M 3425 4513 
L 3425 3897 
Q 3066 4069 2747 4153 
Q 2428 4238 2131 4238 
Q 1616 4238 1336 4038 
Q 1056 3838 1056 3469 
Q 1056 3159 1242 3001 
Q 1428 2844 1947 2747 
L 2328 2669 
Q 3034 2534 3370 2195 
Q 3706 1856 3706 1288 
Q 3706 609 3251 259 
Q 2797 -91 1919 -91 
Q 1588 -91 1214 -16 
Q 841 59 441 206 
L 441 856 
Q 825 641 1194 531 
Q 1563 422 1919 422 
Q 2459 422 2753 634 
Q 3047 847 3047 1241 
Q 3047 1584 2836 1778 
Q 2625 1972 2144 2069 
L 1759 2144 
Q 1053 2284 737 2584 
Q 422 2884 422 3419 
Q 422 4038 858 4394 
Q 1294 4750 2059 4750 
Q 2388 4750 2728 4690 
Q 3069 4631 3425 4513 
z
" transform="scale(0.015625)"/>
       <path id="DejaVuSans-26" d="M 4122 4306 
L 4122 3641 
Q 3803 3938 3442 4084 
Q 3081 4231 2675 4231 
Q 1875 4231 1450 3742 
Q 1025 3253 1025 2328 
Q 1025 1406 1450 917 
Q 1875 428 2675 428 
Q 3081 428 3442 575 
Q 3803 722 4122 1019 
L 4122 359 
Q 3791 134 3420 21 
Q 3050 -91 2638 -91 
Q 1578 -91 968 557 
Q 359 1206 359 2328 
Q 359 3453 968 4101 
Q 1578 4750 2638 4750 
Q 3056 4750 3426 4639 
Q 3797 4528 4122 4306 
z
" transform="scale(0.015625)"/>
       <path id="DejaVuSans-32" d="M 2522 4238 
Q 1834 4238 1429 3725 
Q 1025 3213 1025 2328 
Q 1025 1447 1429 934 
Q 1834 422 2522 422 
Q 3209 422 3611 934 
Q 4013 1447 4013 2328 
Q 4013 3213 3611 3725 
Q 3209 4238 2522 4238 
z
M 2522 4750 
Q 3503 4750 4090 4092 
Q 4678 3434 4678 2328 
Q 4678 1225 4090 567 
Q 3503 -91 2522 -91 
Q 1538 -91 948 565 
Q 359 1222 359 2328 
Q 359 3434 948 4092 
Q 1538 4750 2522 4750 
z
" transform="scale(0.015625)"/>
       <path id="DejaVuSans-27" d="M 1259 4147 
L 1259 519 
L 2022 519 
Q 2988 519 3436 956 
Q 3884 1394 3884 2338 
Q 3884 3275 3436 3711 
Q 2988 4147 2022 4147 
L 1259 4147 
z
M 628 4666 
L 1925 4666 
Q 3281 4666 3915 4102 
Q 4550 3538 4550 2338 
Q 4550 1131 3912 565 
Q 3275 0 1925 0 
L 628 0 
L 628 4666 
z
" transform="scale(0.015625)"/>
       <path id="DejaVuSans-28" d="M 628 4666 
L 3578 4666 
L 3578 4134 
L 1259 4134 
L 1259 2753 
L 3481 2753 
L 3481 2222 
L 1259 2222 
L 1259 531 
L 3634 531 
L 3634 0 
L 628 0 
L 628 4666 
z
" transform="scale(0.015625)"/>
      </defs>
      <use xlink:href="#DejaVuSans-39"/>
      <use xlink:href="#DejaVuSans-36" transform="translate(68.40625 0)"/>
      <use xlink:href="#DejaVuSans-26" transform="translate(131.890625 0)"/>
      <use xlink:href="#DejaVuSans-32" transform="translate(201.71875 0)"/>
      <use xlink:href="#DejaVuSans-27" transform="translate(280.4375 0)"/>
      <use xlink:href="#DejaVuSans-28" transform="translate(357.4375 0)"/>
     </g>
    </g>
    <g id="line2d_37">
     <path d="M 478.179659 44.7975 
L 486.179659 44.7975 
L 494.179659 44.7975 
" style="fill: none; stroke: #3fb950; stroke-width: 2; stroke-linecap: square"/>
    </g>
    <g id="text_23">
     <!-- CLAWCODE -->
     <g style="fill: #c9d1d9" transform="translate(500.579659 47.5975) scale(0.08 -0.08)">
      <defs>
       <path id="DejaVuSans-2f" d="M 628 4666 
L 1259 4666 
L 1259 531 
L 3531 531 
L 3531 0 
L 628 0 
L 628 4666 
z
" transform="scale(0.015625)"/>
       <path id="DejaVuSans-24" d="M 2188 4044 
L 1331 1722 
L 3047 1722 
L 2188 4044 
z
M 1831 4666 
L 2547 4666 
L 4325 0 
L 3669 0 
L 3244 1197 
L 1141 1197 
L 716 0 
L 50 0 
L 1831 4666 
z
" transform="scale(0.015625)"/>
       <path id="DejaVuSans-3a" d="M 213 4666 
L 850 4666 
L 1831 722 
L 2809 4666 
L 3519 4666 
L 4500 722 
L 5478 4666 
L 6119 4666 
L 4947 0 
L 4153 0 
L 3169 4050 
L 2175 0 
L 1381 0 
L 213 4666 
z
" transform="scale(0.015625)"/>
      </defs>
      <use xlink:href="#DejaVuSans-26"/>
      <use xlink:href="#DejaVuSans-2f" transform="translate(69.828125 0)"/>
      <use xlink:href="#DejaVuSans-24" transform="translate(127.84375 0)"/>
      <use xlink:href="#DejaVuSans-3a" transform="translate(190.78125 0)"/>
      <use xlink:href="#DejaVuSans-26" transform="translate(289.65625 0)"/>
      <use xlink:href="#DejaVuSans-32" transform="translate(359.484375 0)"/>
      <use xlink:href="#DejaVuSans-27" transform="translate(438.203125 0)"/>
      <use xlink:href="#DejaVuSans-28" transform="translate(515.203125 0)"/>
     </g>
    </g>
    <g id="line2d_38">
     <path d="M 478.179659 56.798125 
L 486.179659 56.798125 
L 494.179659 56.798125 
" style="fill: none; stroke: #f85149; stroke-width: 2; stroke-linecap: square"/>
    </g>
    <g id="text_24">
     <!-- REACT -->
     <g style="fill: #c9d1d9" transform="translate(500.579659 59.598125) scale(0.08 -0.08)">
      <defs>
       <path id="DejaVuSans-35" d="M 2841 2188 
Q 3044 2119 3236 1894 
Q 3428 1669 3622 1275 
L 4263 0 
L 3584 0 
L 2988 1197 
Q 2756 1666 2539 1819 
Q 2322 1972 1947 1972 
L 1259 1972 
L 1259 0 
L 628 0 
L 628 4666 
L 2053 4666 
Q 2853 4666 3247 4331 
Q 3641 3997 3641 3322 
Q 3641 2881 3436 2590 
Q 3231 2300 2841 2188 
z
M 1259 4147 
L 1259 2491 
L 2053 2491 
Q 2509 2491 2742 2702 
Q 2975 2913 2975 3322 
Q 2975 3731 2742 3939 
Q 2509 4147 2053 4147 
L 1259 4147 
z
" transform="scale(0.015625)"/>
       <path id="DejaVuSans-37" d="M -19 4666 
L 3928 4666 
L 3928 4134 
L 2272 4134 
L 2272 0 
L 1638 0 
L 1638 4134 
L -19 4134 
L -19 4666 
z
" transform="scale(0.015625)"/>
      </defs>
      <use xlink:href="#DejaVuSans-35"/>
      <use xlink:href="#DejaVuSans-28" transform="translate(69.484375 0)"/>
      <use xlink:href="#DejaVuSans-24" transform="translate(132.671875 0)"/>
      <use xlink:href="#DejaVuSans-26" transform="translate(199.328125 0)"/>
      <use xlink:href="#DejaVuSans-37" transform="translate(269.15625 0)"/>
     </g>
    </g>
    <g id="line2d_39">
     <path d="M 478.179659 68.79875 
L 486.179659 68.79875 
L 494.179659 68.79875 
" style="fill: none; stroke: #d2a8ff; stroke-width: 2; stroke-linecap: square"/>
    </g>
    <g id="text_25">
     <!-- DENO -->
     <g style="fill: #c9d1d9" transform="translate(500.579659 71.59875) scale(0.08 -0.08)">
      <defs>
       <path id="DejaVuSans-31" d="M 628 4666 
L 1478 4666 
L 3547 763 
L 3547 4666 
L 4159 4666 
L 4159 0 
L 3309 0 
L 1241 3903 
L 1241 0 
L 628 0 
L 628 4666 
z
" transform="scale(0.015625)"/>
      </defs>
      <use xlink:href="#DejaVuSans-27"/>
      <use xlink:href="#DejaVuSans-28" transform="translate(77 0)"/>
      <use xlink:href="#DejaVuSans-31" transform="translate(140.1875 0)"/>
      <use xlink:href="#DejaVuSans-32" transform="translate(215 0)"/>
     </g>
    </g>
    <g id="line2d_40">
     <path d="M 478.179659 80.799375 
L 486.179659 80.799375 
L 494.179659 80.799375 
" style="fill: none; stroke: #f0883e; stroke-width: 2; stroke-linecap: square"/>
    </g>
    <g id="text_26">
     <!-- NEXTJS -->
     <g style="fill: #c9d1d9" transform="translate(500.579659 83.599375) scale(0.08 -0.08)">
      <defs>
       <path id="DejaVuSans-3b" d="M 403 4666 
L 1081 4666 
L 2241 2931 
L 3406 4666 
L 4084 4666 
L 2584 2425 
L 4184 0 
L 3506 0 
L 2194 1984 
L 872 0 
L 191 0 
L 1856 2491 
L 403 4666 
z
" transform="scale(0.015625)"/>
       <path id="DejaVuSans-2d" d="M 628 4666 
L 1259 4666 
L 1259 325 
Q 1259 -519 939 -900 
Q 619 -1281 -91 -1281 
L -331 -1281 
L -331 -750 
L -134 -750 
Q 284 -750 456 -515 
Q 628 -281 628 325 
L 628 4666 
z
" transform="scale(0.015625)"/>
      </defs>
      <use xlink:href="#DejaVuSans-31"/>
      <use xlink:href="#DejaVuSans-28" transform="translate(74.8125 0)"/>
      <use xlink:href="#DejaVuSans-3b" transform="translate(138 0)"/>
      <use xlink:href="#DejaVuSans-37" transform="translate(204.75 0)"/>
      <use xlink:href="#DejaVuSans-2d" transform="translate(265.828125 0)"/>
      <use xlink:href="#DejaVuSans-36" transform="translate(295.328125 0)"/>
     </g>
    </g>
   </g>
  </g>
 </g>
 <defs>
  <clipPath id="p1fb5434c5b">
   <rect x="34.56" y="22.318125" width="519.490909" height="200.04"/>
  </clipPath>
 </defs>
</svg>
