<?xml version="1.0" encoding="utf-8" standalone="no"?>
<!DOCTYPE svg PUBLIC "-//W3C//DTD SVG 1.1//EN"
  "http://www.w3.org/Graphics/SVG/1.1/DTD/svg11.dtd">
<svg xmlns:xlink="http://www.w3.org/1999/xlink" width="425pt" height="172.518281pt" viewBox="0 0 425 172.518281" xmlns="http://www.w3.org/2000/svg" version="1.1">
 <metadata>
  <rdf:RDF xmlns:dc="http://purl.org/dc/elements/1.1/" xmlns:cc="http://creativecommons.org/ns#" xmlns:rdf="http://www.w3.org/1999/02/22-rdf-syntax-ns#">
   <cc:Work>
    <dc:type rdf:resource="http://purl.org/dc/dcmitype/StillImage"/>
    <dc:date>2026-06-23T21:23:42.588575</dc:date>
    <dc:format>image/svg+xml</dc:format>
    <dc:creator>
     <cc:Agent>
      <dc:title>Matplotlib v3.11.0, https://matplotlib.org/</dc:title>
     </cc:Agent>
    </dc:creator>
   </cc:Work>
  </rdf:RDF>
 </metadata>
 <defs>
  <style type="text/css">*{stroke-linejoin: round; stroke-linecap: butt}</style>
 </defs>
 <g id="figure_1">
  <g id="patch_1">
   <path d="M 0 172.518281 
L 425 172.518281 
L 425 0 
L 0 0 
z
" style="fill: #0d1117"/>
  </g>
  <g id="axes_1">
   <g id="patch_2">
    <path d="M 34.56 150.318281 
L 417.8 150.318281 
L 417.8 21.558281 
L 34.56 21.558281 
z
" style="fill: #0d1117"/>
   </g>
   <g id="FillBetweenPolyCollection_1">
    <defs>
     <path id="m32d77b2827" d="M 51.98 -28.052727 
L 51.98 -91.627884 
L 53.514802 -116.030135 
L 55.049604 -139.176631 
L 56.584405 -124.285787 
L 58.119207 -131.915635 
L 59.654009 -129.039419 
L 61.188811 -100.152923 
L 62.723612 -107.384908 
L 64.258414 -129.955332 
L 65.793216 -101.031537 
L 67.328018 -105.379016 
L 68.862819 -105.635969 
L 70.397621 -129.58648 
L 71.932423 -116.875593 
L 73.467225 -105.689847 
L 75.002026 -130.013354 
L 76.536828 -117.72934 
L 78.07163 -125.450365 
L 79.606432 -128.189816 
L 81.141233 -120.253282 
L 82.676035 -126.084459 
L 84.210837 -128.939953 
L 85.745639 -118.433889 
L 87.280441 -131.691837 
L 88.815242 -145.107273 
L 90.350044 -125.558119 
L 91.884846 -132.263765 
L 93.419648 -114.679059 
L 94.954449 -139.292674 
L 96.489251 -115.441629 
L 98.024053 -134.070725 
L 99.558855 -134.3111 
L 101.093656 -126.540343 
L 102.628458 -132.719649 
L 104.16326 -135.446667 
L 105.698062 -124.803838 
L 107.232863 -134.025137 
L 108.767665 -126.212935 
L 110.302467 -138.990132 
L 111.837269 -125.699029 
L 113.37207 -112.917687 
L 114.906872 -132.582884 
L 116.441674 -112.134395 
L 117.976476 -123.030033 
L 119.511278 -132.545584 
L 121.046079 -119.32908 
L 122.580881 -121.62508 
L 124.115683 -132.951736 
L 125.650485 -120.095795 
L 127.185286 -123.336719 
L 128.720088 -131.940501 
L 130.25489 -117.186423 
L 131.789692 -124.074423 
L 133.324493 -130.398783 
L 134.859295 -119.503145 
L 136.394097 -121.310105 
L 137.928899 -123.531506 
L 139.4637 -132.325931 
L 140.998502 -105.839045 
L 142.533304 -112.7602 
L 144.068106 -130.158408 
L 145.602907 -110.642409 
L 147.137709 -119.436835 
L 148.672511 -130.954133 
L 150.207313 -118.396589 
L 151.742115 -121.48417 
L 153.276916 -132.827404 
L 154.811718 -114.194164 
L 156.34652 -123.49835 
L 157.881322 -131.592371 
L 159.416123 -113.966221 
L 160.950925 -122.943 
L 162.485727 -128.289281 
L 164.020529 -118.657687 
L 165.55533 -128.239549 
L 167.090132 -122.731636 
L 168.624934 -133.125801 
L 170.159736 -118.272257 
L 171.694537 -136.321136 
L 173.229339 -130.780068 
L 174.764141 -126.880184 
L 176.298943 -128.227115 
L 177.833744 -128.844632 
L 179.368546 -127.970162 
L 180.903348 -125.744617 
L 182.43815 -136.304559 
L 183.972952 -119.096993 
L 185.507753 -115.180532 
L 187.042555 -135.256025 
L 188.577357 -113.597369 
L 190.112159 -120.112372 
L 191.64696 -117.687896 
L 193.181762 -135.666321 
L 194.716564 -110.949095 
L 196.251366 -118.330279 
L 197.786167 -137.448414 
L 199.320969 -111.740676 
L 200.855771 -120.82521 
L 202.390573 -134.766985 
L 203.925374 -115.408474 
L 205.460176 -118.255679 
L 206.994978 -132.906147 
L 208.52978 -112.13025 
L 210.064581 -126.308256 
L 211.599383 -122.172141 
L 213.134185 -136.039317 
L 214.668987 -122.797946 
L 216.203789 -124.895015 
L 217.73859 -134.833295 
L 219.273392 -123.303563 
L 220.808194 -126.200502 
L 222.342996 -137.05884 
L 223.877797 -123.146076 
L 225.412599 -123.548083 
L 226.947401 -130.688891 
L 228.482203 -127.095693 
L 230.017004 -120.16625 
L 231.551806 -126.69783 
L 233.086608 -135.977151 
L 234.62141 -118.007015 
L 236.156211 -129.399982 
L 237.691013 -133.987837 
L 239.225815 -124.426697 
L 240.760617 -129.565758 
L 242.295419 -134.03757 
L 243.83022 -122.976156 
L 245.365022 -130.361483 
L 246.899824 -137.983042 
L 248.434626 -119.32908 
L 249.969427 -140.419952 
L 251.504229 -114.380662 
L 253.039031 -134.76284 
L 254.573833 -114.687348 
L 256.108634 -121.8696 
L 257.643436 -138.886522 
L 259.178238 -115.325586 
L 260.71304 -121.620935 
L 262.247841 -136.300414 
L 263.782643 -116.320243 
L 265.317445 -120.294726 
L 266.852247 -135.164848 
L 268.387048 -116.154467 
L 269.92185 -137.278494 
L 271.456652 -113.962077 
L 272.991454 -123.150221 
L 274.526256 -134.742118 
L 276.061057 -117.596719 
L 277.595859 -117.302467 
L 279.130661 -136.78531 
L 280.665463 -123.407174 
L 282.200264 -134.605353 
L 283.735066 -119.532156 
L 285.269868 -126.357989 
L 286.80467 -132.806682 
L 288.339471 -118.363434 
L 289.874273 -129.047707 
L 291.409075 -132.74866 
L 292.943877 -120.970264 
L 294.478678 -126.523765 
L 296.01348 -130.912689 
L 297.548282 -112.627579 
L 299.083084 -119.992185 
L 300.617885 -132.276198 
L 302.152687 -113.945499 
L 303.687489 -119.631622 
L 305.222291 -119.072127 
L 306.757093 -137.871143 
L 308.291894 -113.800445 
L 309.826696 -120.609701 
L 311.361498 -136.151216 
L 312.8963 -122.574148 
L 314.431101 -131.235953 
L 315.965903 -128.985541 
L 317.500705 -112.954987 
L 319.035507 -134.066581 
L 320.570308 -114.231463 
L 322.10511 -120.609701 
L 323.639912 -135.546133 
L 325.174714 -116.995781 
L 326.709515 -120.332026 
L 328.244317 -135.865252 
L 329.779119 -115.57425 
L 331.313921 -118.753008 
L 332.848722 -118.330279 
L 334.383524 -137.216328 
L 335.918326 -113.249239 
L 337.453128 -121.911044 
L 338.98793 -137.539591 
L 340.522731 -116.121311 
L 342.057533 -120.854221 
L 343.592335 -136.6071 
L 345.127137 -113.091752 
L 346.661938 -119.967318 
L 348.19674 -139.383851 
L 349.731542 -114.782669 
L 351.266344 -123.390596 
L 352.801145 -134.522465 
L 354.335947 -112.727045 
L 355.870749 -118.060892 
L 357.405551 -132.383953 
L 358.940352 -113.253384 
L 360.475154 -120.808632 
L 362.009956 -117.940705 
L 363.544758 -130.842234 
L 365.079559 -114.542294 
L 366.614361 -124.795549 
L 368.149163 -133.374465 
L 369.683965 -115.163954 
L 371.218767 -119.304214 
L 372.753568 -130.821512 
L 374.28837 -111.483723 
L 375.823172 -133.531952 
L 377.357974 -110.580243 
L 378.892775 -119.880286 
L 380.427577 -133.842783 
L 381.962379 -112.58199 
L 383.497181 -118.330279 
L 385.031982 -131.816169 
L 386.566784 -110.091204 
L 388.101586 -116.738828 
L 389.636388 -133.337165 
L 391.171189 -111.6495 
L 392.705991 -117.72934 
L 394.240793 -135.63731 
L 395.775595 -110.675565 
L 397.310396 -121.799145 
L 398.845198 -134.28209 
L 400.38 -118.471188 
L 400.38 -28.052727 
L 400.38 -28.052727 
L 398.845198 -28.052727 
L 397.310396 -28.052727 
L 395.775595 -28.052727 
L 394.240793 -28.052727 
L 392.705991 -28.052727 
L 391.171189 -28.052727 
L 389.636388 -28.052727 
L 388.101586 -28.052727 
L 386.566784 -28.052727 
L 385.031982 -28.052727 
L 383.497181 -28.052727 
L 381.962379 -28.052727 
L 380.427577 -28.052727 
L 378.892775 -28.052727 
L 377.357974 -28.052727 
L 375.823172 -28.052727 
L 374.28837 -28.052727 
L 372.753568 -28.052727 
L 371.218767 -28.052727 
L 369.683965 -28.052727 
L 368.149163 -28.052727 
L 366.614361 -28.052727 
L 365.079559 -28.052727 
L 363.544758 -28.052727 
L 362.009956 -28.052727 
L 360.475154 -28.052727 
L 358.940352 -28.052727 
L 357.405551 -28.052727 
L 355.870749 -28.052727 
L 354.335947 -28.052727 
L 352.801145 -28.052727 
L 351.266344 -28.052727 
L 349.731542 -28.052727 
L 348.19674 -28.052727 
L 346.661938 -28.052727 
L 345.127137 -28.052727 
L 343.592335 -28.052727 
L 342.057533 -28.052727 
L 340.522731 -28.052727 
L 338.98793 -28.052727 
L 337.453128 -28.052727 
L 335.918326 -28.052727 
L 334.383524 -28.052727 
L 332.848722 -28.052727 
L 331.313921 -28.052727 
L 329.779119 -28.052727 
L 328.244317 -28.052727 
L 326.709515 -28.052727 
L 325.174714 -28.052727 
L 323.639912 -28.052727 
L 322.10511 -28.052727 
L 320.570308 -28.052727 
L 319.035507 -28.052727 
L 317.500705 -28.052727 
L 315.965903 -28.052727 
L 314.431101 -28.052727 
L 312.8963 -28.052727 
L 311.361498 -28.052727 
L 309.826696 -28.052727 
L 308.291894 -28.052727 
L 306.757093 -28.052727 
L 305.222291 -28.052727 
L 303.687489 -28.052727 
L 302.152687 -28.052727 
L 300.617885 -28.052727 
L 299.083084 -28.052727 
L 297.548282 -28.052727 
L 296.01348 -28.052727 
L 294.478678 -28.052727 
L 292.943877 -28.052727 
L 291.409075 -28.052727 
L 289.874273 -28.052727 
L 288.339471 -28.052727 
L 286.80467 -28.052727 
L 285.269868 -28.052727 
L 283.735066 -28.052727 
L 282.200264 -28.052727 
L 280.665463 -28.052727 
L 279.130661 -28.052727 
L 277.595859 -28.052727 
L 276.061057 -28.052727 
L 274.526256 -28.052727 
L 272.991454 -28.052727 
L 271.456652 -28.052727 
L 269.92185 -28.052727 
L 268.387048 -28.052727 
L 266.852247 -28.052727 
L 265.317445 -28.052727 
L 263.782643 -28.052727 
L 262.247841 -28.052727 
L 260.71304 -28.052727 
L 259.178238 -28.052727 
L 257.643436 -28.052727 
L 256.108634 -28.052727 
L 254.573833 -28.052727 
L 253.039031 -28.052727 
L 251.504229 -28.052727 
L 249.969427 -28.052727 
L 248.434626 -28.052727 
L 246.899824 -28.052727 
L 245.365022 -28.052727 
L 243.83022 -28.052727 
L 242.295419 -28.052727 
L 240.760617 -28.052727 
L 239.225815 -28.052727 
L 237.691013 -28.052727 
L 236.156211 -28.052727 
L 234.62141 -28.052727 
L 233.086608 -28.052727 
L 231.551806 -28.052727 
L 230.017004 -28.052727 
L 228.482203 -28.052727 
L 226.947401 -28.052727 
L 225.412599 -28.052727 
L 223.877797 -28.052727 
L 222.342996 -28.052727 
L 220.808194 -28.052727 
L 219.273392 -28.052727 
L 217.73859 -28.052727 
L 216.203789 -28.052727 
L 214.668987 -28.052727 
L 213.134185 -28.052727 
L 211.599383 -28.052727 
L 210.064581 -28.052727 
L 208.52978 -28.052727 
L 206.994978 -28.052727 
L 205.460176 -28.052727 
L 203.925374 -28.052727 
L 202.390573 -28.052727 
L 200.855771 -28.052727 
L 199.320969 -28.052727 
L 197.786167 -28.052727 
L 196.251366 -28.052727 
L 194.716564 -28.052727 
L 193.181762 -28.052727 
L 191.64696 -28.052727 
L 190.112159 -28.052727 
L 188.577357 -28.052727 
L 187.042555 -28.052727 
L 185.507753 -28.052727 
L 183.972952 -28.052727 
L 182.43815 -28.052727 
L 180.903348 -28.052727 
L 179.368546 -28.052727 
L 177.833744 -28.052727 
L 176.298943 -28.052727 
L 174.764141 -28.052727 
L 173.229339 -28.052727 
L 171.694537 -28.052727 
L 170.159736 -28.052727 
L 168.624934 -28.052727 
L 167.090132 -28.052727 
L 165.55533 -28.052727 
L 164.020529 -28.052727 
L 162.485727 -28.052727 
L 160.950925 -28.052727 
L 159.416123 -28.052727 
L 157.881322 -28.052727 
L 156.34652 -28.052727 
L 154.811718 -28.052727 
L 153.276916 -28.052727 
L 151.742115 -28.052727 
L 150.207313 -28.052727 
L 148.672511 -28.052727 
L 147.137709 -28.052727 
L 145.602907 -28.052727 
L 144.068106 -28.052727 
L 142.533304 -28.052727 
L 140.998502 -28.052727 
L 139.4637 -28.052727 
L 137.928899 -28.052727 
L 136.394097 -28.052727 
L 134.859295 -28.052727 
L 133.324493 -28.052727 
L 131.789692 -28.052727 
L 130.25489 -28.052727 
L 128.720088 -28.052727 
L 127.185286 -28.052727 
L 125.650485 -28.052727 
L 124.115683 -28.052727 
L 122.580881 -28.052727 
L 121.046079 -28.052727 
L 119.511278 -28.052727 
L 117.976476 -28.052727 
L 116.441674 -28.052727 
L 114.906872 -28.052727 
L 113.37207 -28.052727 
L 111.837269 -28.052727 
L 110.302467 -28.052727 
L 108.767665 -28.052727 
L 107.232863 -28.052727 
L 105.698062 -28.052727 
L 104.16326 -28.052727 
L 102.628458 -28.052727 
L 101.093656 -28.052727 
L 99.558855 -28.052727 
L 98.024053 -28.052727 
L 96.489251 -28.052727 
L 94.954449 -28.052727 
L 93.419648 -28.052727 
L 91.884846 -28.052727 
L 90.350044 -28.052727 
L 88.815242 -28.052727 
L 87.280441 -28.052727 
L 85.745639 -28.052727 
L 84.210837 -28.052727 
L 82.676035 -28.052727 
L 81.141233 -28.052727 
L 79.606432 -28.052727 
L 78.07163 -28.052727 
L 76.536828 -28.052727 
L 75.002026 -28.052727 
L 73.467225 -28.052727 
L 71.932423 -28.052727 
L 70.397621 -28.052727 
L 68.862819 -28.052727 
L 67.328018 -28.052727 
L 65.793216 -28.052727 
L 64.258414 -28.052727 
L 62.723612 -28.052727 
L 61.188811 -28.052727 
L 59.654009 -28.052727 
L 58.119207 -28.052727 
L 56.584405 -28.052727 
L 55.049604 -28.052727 
L 53.514802 -28.052727 
L 51.98 -28.052727 
z
" style="stroke: #3fb950; stroke-opacity: 0.15"/>
    </defs>
    <g clip-path="url(#p934d18ca93)">
     <use xlink:href="#m32d77b2827" x="0" y="172.518281" style="fill: #3fb950; fill-opacity: 0.15; stroke: #3fb950; stroke-opacity: 0.15"/>
    </g>
   </g>
   <g id="matplotlib.axis_1">
    <g id="xtick_1">
     <g id="line2d_1">
      <path d="M 51.98 150.318281 
L 51.98 21.558281 
" clip-path="url(#p934d18ca93)" style="fill: none; stroke: #21262d; stroke-opacity: 0.5; stroke-width: 0.5; stroke-linecap: square"/>
     </g>
     <g id="line2d_2">
      <defs>
       <path id="m1a077b6020" d="M 0 0 
L 0 3.5 
" style="stroke: #c9d1d9; stroke-width: 0.8"/>
      </defs>
      <g>
       <use xlink:href="#m1a077b6020" x="51.98" y="150.318281" style="fill: #c9d1d9; stroke: #c9d1d9; stroke-width: 0.8"/>
      </g>
     </g>
     <g id="text_1">
      <!-- 0 -->
      <g style="fill: #c9d1d9" transform="translate(49.435 163.396406) scale(0.08 -0.08)">
       <defs>
        <path id="DejaVuSans-13" d="M 2034 4250 
Q 1547 4250 1301 3770 
Q 1056 3291 1056 2328 
Q 1056 1369 1301 889 
Q 1547 409 2034 409 
Q 2525 409 2770 889 
Q 3016 1369 3016 2328 
Q 3016 3291 2770 3770 
Q 2525 4250 2034 4250 
z
M 2034 4750 
Q 2819 4750 3233 4129 
Q 3647 3509 3647 2328 
Q 3647 1150 3233 529 
Q 2819 -91 2034 -91 
Q 1250 -91 836 529 
Q 422 1150 422 2328 
Q 422 3509 836 4129 
Q 1250 4750 2034 4750 
z
" transform="scale(0.015625)"/>
       </defs>
       <use xlink:href="#DejaVuSans-13"/>
      </g>
     </g>
    </g>
    <g id="xtick_2">
     <g id="line2d_3">
      <path d="M 128.720088 150.318281 
L 128.720088 21.558281 
" clip-path="url(#p934d18ca93)" style="fill: none; stroke: #21262d; stroke-opacity: 0.5; stroke-width: 0.5; stroke-linecap: square"/>
     </g>
     <g id="line2d_4">
      <g>
       <use xlink:href="#m1a077b6020" x="128.720088" y="150.318281" style="fill: #c9d1d9; stroke: #c9d1d9; stroke-width: 0.8"/>
      </g>
     </g>
     <g id="text_2">
      <!-- 50 -->
      <g style="fill: #c9d1d9" transform="translate(123.630088 163.396406) scale(0.08 -0.08)">
       <defs>
        <path id="DejaVuSans-18" d="M 691 4666 
L 3169 4666 
L 3169 4134 
L 1269 4134 
L 1269 2991 
Q 1406 3038 1543 3061 
Q 1681 3084 1819 3084 
Q 2600 3084 3056 2656 
Q 3513 2228 3513 1497 
Q 3513 744 3044 326 
Q 2575 -91 1722 -91 
Q 1428 -91 1123 -41 
Q 819 9 494 109 
L 494 744 
Q 775 591 1075 516 
Q 1375 441 1709 441 
Q 2250 441 2565 725 
Q 2881 1009 2881 1497 
Q 2881 1984 2565 2268 
Q 2250 2553 1709 2553 
Q 1456 2553 1204 2497 
Q 953 2441 691 2322 
L 691 4666 
z
" transform="scale(0.015625)"/>
       </defs>
       <use xlink:href="#DejaVuSans-18"/>
       <use xlink:href="#DejaVuSans-13" transform="translate(63.625 0)"/>
      </g>
     </g>
    </g>
    <g id="xtick_3">
     <g id="line2d_5">
      <path d="M 205.460176 150.318281 
L 205.460176 21.558281 
" clip-path="url(#p934d18ca93)" style="fill: none; stroke: #21262d; stroke-opacity: 0.5; stroke-width: 0.5; stroke-linecap: square"/>
     </g>
     <g id="line2d_6">
      <g>
       <use xlink:href="#m1a077b6020" x="205.460176" y="150.318281" style="fill: #c9d1d9; stroke: #c9d1d9; stroke-width: 0.8"/>
      </g>
     </g>
     <g id="text_3">
      <!-- 100 -->
      <g style="fill: #c9d1d9" transform="translate(197.825176 163.396406) scale(0.08 -0.08)">
       <defs>
        <path id="DejaVuSans-14" d="M 794 531 
L 1825 531 
L 1825 4091 
L 703 3866 
L 703 4441 
L 1819 4666 
L 2450 4666 
L 2450 531 
L 3481 531 
L 3481 0 
L 794 0 
L 794 531 
z
" transform="scale(0.015625)"/>
       </defs>
       <use xlink:href="#DejaVuSans-14"/>
       <use xlink:href="#DejaVuSans-13" transform="translate(63.625 0)"/>
       <use xlink:href="#DejaVuSans-13" transform="translate(127.25 0)"/>
      </g>
     </g>
    </g>
    <g id="xtick_4">
     <g id="line2d_7">
      <path d="M 282.200264 150.318281 
L 282.200264 21.558281 
" clip-path="url(#p934d18ca93)" style="fill: none; stroke: #21262d; stroke-opacity: 0.5; stroke-width: 0.5; stroke-linecap: square"/>
     </g>
     <g id="line2d_8">
      <g>
       <use xlink:href="#m1a077b6020" x="282.200264" y="150.318281" style="fill: #c9d1d9; stroke: #c9d1d9; stroke-width: 0.8"/>
      </g>
     </g>
     <g id="text_4">
      <!-- 150 -->
      <g style="fill: #c9d1d9" transform="translate(274.565264 163.396406) scale(0.08 -0.08)">
       <use xlink:href="#DejaVuSans-14"/>
       <use xlink:href="#DejaVuSans-18" transform="translate(63.625 0)"/>
       <use xlink:href="#DejaVuSans-13" transform="translate(127.25 0)"/>
      </g>
     </g>
    </g>
    <g id="xtick_5">
     <g id="line2d_9">
      <path d="M 358.940352 150.318281 
L 358.940352 21.558281 
" clip-path="url(#p934d18ca93)" style="fill: none; stroke: #21262d; stroke-opacity: 0.5; stroke-width: 0.5; stroke-linecap: square"/>
     </g>
     <g id="line2d_10">
      <g>
       <use xlink:href="#m1a077b6020" x="358.940352" y="150.318281" style="fill: #c9d1d9; stroke: #c9d1d9; stroke-width: 0.8"/>
      </g>
     </g>
     <g id="text_5">
      <!-- 200 -->
      <g style="fill: #c9d1d9" transform="translate(351.305352 163.396406) scale(0.08 -0.08)">
       <defs>
        <path id="DejaVuSans-15" d="M 1228 531 
L 3431 531 
L 3431 0 
L 469 0 
L 469 531 
Q 828 903 1448 1529 
Q 2069 2156 2228 2338 
Q 2531 2678 2651 2914 
Q 2772 3150 2772 3378 
Q 2772 3750 2511 3984 
Q 2250 4219 1831 4219 
Q 1534 4219 1204 4116 
Q 875 4013 500 3803 
L 500 4441 
Q 881 4594 1212 4672 
Q 1544 4750 1819 4750 
Q 2544 4750 2975 4387 
Q 3406 4025 3406 3419 
Q 3406 3131 3298 2873 
Q 3191 2616 2906 2266 
Q 2828 2175 2409 1742 
Q 1991 1309 1228 531 
z
" transform="scale(0.015625)"/>
       </defs>
       <use xlink:href="#DejaVuSans-15"/>
       <use xlink:href="#DejaVuSans-13" transform="translate(63.625 0)"/>
       <use xlink:href="#DejaVuSans-13" transform="translate(127.25 0)"/>
      </g>
     </g>
    </g>
   </g>
   <g id="matplotlib.axis_2">
    <g id="ytick_1">
     <g id="line2d_11">
      <path d="M 34.56 144.465554 
L 417.8 144.465554 
" clip-path="url(#p934d18ca93)" style="fill: none; stroke: #21262d; stroke-opacity: 0.5; stroke-width: 0.5; stroke-linecap: square"/>
     </g>
     <g id="line2d_12">
      <defs>
       <path id="me6aad0d17a" d="M 0 0 
L -3.5 0 
" style="stroke: #c9d1d9; stroke-width: 0.8"/>
      </defs>
      <g>
       <use xlink:href="#me6aad0d17a" x="34.56" y="144.465554" style="fill: #c9d1d9; stroke: #c9d1d9; stroke-width: 0.8"/>
      </g>
     </g>
     <g id="text_6">
      <!-- $0 -->
      <g style="fill: #c9d1d9" transform="translate(17.38 147.504929) scale(0.08 -0.08)">
       <defs>
        <path id="DejaVuSans-7" d="M 2163 -941 
L 1850 -941 
L 1847 0 
Q 1519 6 1191 76 
Q 863 147 531 288 
L 531 850 
Q 850 650 1176 548 
Q 1503 447 1850 444 
L 1850 1869 
Q 1159 1981 845 2250 
Q 531 2519 531 2988 
Q 531 3497 872 3790 
Q 1213 4084 1850 4128 
L 1850 4863 
L 2163 4863 
L 2163 4138 
Q 2453 4125 2725 4076 
Q 2997 4028 3256 3944 
L 3256 3397 
Q 2997 3528 2723 3600 
Q 2450 3672 2163 3684 
L 2163 2350 
Q 2872 2241 3206 1959 
Q 3541 1678 3541 1191 
Q 3541 663 3186 358 
Q 2831 53 2163 6 
L 2163 -941 
z
M 1850 2406 
L 1850 3688 
Q 1488 3647 1297 3481 
Q 1106 3316 1106 3041 
Q 1106 2772 1282 2622 
Q 1459 2472 1850 2406 
z
M 2163 1806 
L 2163 453 
Q 2559 506 2761 678 
Q 2963 850 2963 1131 
Q 2963 1406 2770 1568 
Q 2578 1731 2163 1806 
z
" transform="scale(0.015625)"/>
       </defs>
       <use xlink:href="#DejaVuSans-7"/>
       <use xlink:href="#DejaVuSans-13" transform="translate(63.625 0)"/>
      </g>
     </g>
    </g>
    <g id="ytick_2">
     <g id="line2d_13">
      <path d="M 34.56 123.743534 
L 417.8 123.743534 
" clip-path="url(#p934d18ca93)" style="fill: none; stroke: #21262d; stroke-opacity: 0.5; stroke-width: 0.5; stroke-linecap: square"/>
     </g>
     <g id="line2d_14">
      <g>
       <use xlink:href="#me6aad0d17a" x="34.56" y="123.743534" style="fill: #c9d1d9; stroke: #c9d1d9; stroke-width: 0.8"/>
      </g>
     </g>
     <g id="text_7">
      <!-- $50 -->
      <g style="fill: #c9d1d9" transform="translate(12.29 126.782909) scale(0.08 -0.08)">
       <use xlink:href="#DejaVuSans-7"/>
       <use xlink:href="#DejaVuSans-18" transform="translate(63.625 0)"/>
       <use xlink:href="#DejaVuSans-13" transform="translate(127.25 0)"/>
      </g>
     </g>
    </g>
    <g id="ytick_3">
     <g id="line2d_15">
      <path d="M 34.56 103.021514 
L 417.8 103.021514 
" clip-path="url(#p934d18ca93)" style="fill: none; stroke: #21262d; stroke-opacity: 0.5; stroke-width: 0.5; stroke-linecap: square"/>
     </g>
     <g id="line2d_16">
      <g>
       <use xlink:href="#me6aad0d17a" x="34.56" y="103.021514" style="fill: #c9d1d9; stroke: #c9d1d9; stroke-width: 0.8"/>
      </g>
     </g>
     <g id="text_8">
      <!-- $100 -->
      <g style="fill: #c9d1d9" transform="translate(7.2 106.060889) scale(0.08 -0.08)">
       <use xlink:href="#DejaVuSans-7"/>
       <use xlink:href="#DejaVuSans-14" transform="translate(63.625 0)"/>
       <use xlink:href="#DejaVuSans-13" transform="translate(127.25 0)"/>
       <use xlink:href="#DejaVuSans-13" transform="translate(190.875 0)"/>
      </g>
     </g>
    </g>
    <g id="ytick_4">
     <g id="line2d_17">
      <path d="M 34.56 82.299495 
L 417.8 82.299495 
" clip-path="url(#p934d18ca93)" style="fill: none; stroke: #21262d; stroke-opacity: 0.5; stroke-width: 0.5; stroke-linecap: square"/>
     </g>
     <g id="line2d_18">
      <g>
       <use xlink:href="#me6aad0d17a" x="34.56" y="82.299495" style="fill: #c9d1d9; stroke: #c9d1d9; stroke-width: 0.8"/>
      </g>
     </g>
     <g id="text_9">
      <!-- $150 -->
      <g style="fill: #c9d1d9" transform="translate(7.2 85.33887) scale(0.08 -0.08)">
       <use xlink:href="#DejaVuSans-7"/>
       <use xlink:href="#DejaVuSans-14" transform="translate(63.625 0)"/>
       <use xlink:href="#DejaVuSans-18" transform="translate(127.25 0)"/>
       <use xlink:href="#DejaVuSans-13" transform="translate(190.875 0)"/>
      </g>
     </g>
    </g>
    <g id="ytick_5">
     <g id="line2d_19">
      <path d="M 34.56 61.577475 
L 417.8 61.577475 
" clip-path="url(#p934d18ca93)" style="fill: none; stroke: #21262d; stroke-opacity: 0.5; stroke-width: 0.5; stroke-linecap: square"/>
     </g>
     <g id="line2d_20">
      <g>
       <use xlink:href="#me6aad0d17a" x="34.56" y="61.577475" style="fill: #c9d1d9; stroke: #c9d1d9; stroke-width: 0.8"/>
      </g>
     </g>
     <g id="text_10">
      <!-- $200 -->
      <g style="fill: #c9d1d9" transform="translate(7.2 64.61685) scale(0.08 -0.08)">
       <use xlink:href="#DejaVuSans-7"/>
       <use xlink:href="#DejaVuSans-15" transform="translate(63.625 0)"/>
       <use xlink:href="#DejaVuSans-13" transform="translate(127.25 0)"/>
       <use xlink:href="#DejaVuSans-13" transform="translate(190.875 0)"/>
      </g>
     </g>
    </g>
    <g id="ytick_6">
     <g id="line2d_21">
      <path d="M 34.56 40.855455 
L 417.8 40.855455 
" clip-path="url(#p934d18ca93)" style="fill: none; stroke: #21262d; stroke-opacity: 0.5; stroke-width: 0.5; stroke-linecap: square"/>
     </g>
     <g id="line2d_22">
      <g>
       <use xlink:href="#me6aad0d17a" x="34.56" y="40.855455" style="fill: #c9d1d9; stroke: #c9d1d9; stroke-width: 0.8"/>
      </g>
     </g>
     <g id="text_11">
      <!-- $250 -->
      <g style="fill: #c9d1d9" transform="translate(7.2 43.89483) scale(0.08 -0.08)">
       <use xlink:href="#DejaVuSans-7"/>
       <use xlink:href="#DejaVuSans-15" transform="translate(63.625 0)"/>
       <use xlink:href="#DejaVuSans-18" transform="translate(127.25 0)"/>
       <use xlink:href="#DejaVuSans-13" transform="translate(190.875 0)"/>
      </g>
     </g>
    </g>
   </g>
   <g id="line2d_23">
    <path d="M 51.98 80.890397 
L 55.049604 33.341651 
L 56.584405 48.232494 
L 58.119207 40.602646 
L 59.654009 43.478863 
L 61.188811 72.365358 
L 62.723612 65.133373 
L 64.258414 42.562949 
L 65.793216 71.486745 
L 67.328018 67.139265 
L 68.862819 66.882312 
L 70.397621 42.931801 
L 71.932423 55.642688 
L 73.467225 66.828435 
L 75.002026 42.504928 
L 76.536828 54.788941 
L 78.07163 47.067917 
L 79.606432 44.328465 
L 81.141233 52.264999 
L 82.676035 46.433823 
L 84.210837 43.578328 
L 85.745639 54.084392 
L 88.815242 27.411009 
L 90.350044 46.960162 
L 91.884846 40.254516 
L 93.419648 57.839222 
L 94.954449 33.225607 
L 96.489251 57.076652 
L 98.024053 38.447556 
L 99.558855 38.207181 
L 101.093656 45.977938 
L 102.628458 39.798632 
L 104.16326 37.071614 
L 105.698062 47.714444 
L 107.232863 38.493145 
L 108.767665 46.305346 
L 110.302467 33.528149 
L 113.37207 59.600594 
L 114.906872 39.935397 
L 116.441674 60.383886 
L 117.976476 49.488248 
L 119.511278 39.972697 
L 121.046079 53.189201 
L 122.580881 50.893201 
L 124.115683 39.566545 
L 125.650485 52.422486 
L 127.185286 49.181563 
L 128.720088 40.57778 
L 130.25489 55.331858 
L 131.789692 48.443859 
L 133.324493 42.119498 
L 134.859295 53.015136 
L 136.394097 51.208176 
L 137.928899 48.986776 
L 139.4637 40.19235 
L 140.998502 66.679236 
L 142.533304 59.758081 
L 144.068106 42.359874 
L 145.602907 61.875872 
L 147.137709 53.081447 
L 148.672511 41.564148 
L 150.207313 54.121692 
L 151.742115 51.034111 
L 153.276916 39.690877 
L 154.811718 58.324118 
L 156.34652 49.019931 
L 157.881322 40.92591 
L 159.416123 58.55206 
L 160.950925 49.575281 
L 162.485727 44.229 
L 164.020529 53.860595 
L 165.55533 44.278733 
L 167.090132 49.786646 
L 168.624934 39.39248 
L 170.159736 54.246024 
L 171.694537 36.197145 
L 173.229339 41.738213 
L 174.764141 45.638097 
L 176.298943 44.291166 
L 177.833744 43.67365 
L 179.368546 44.548119 
L 180.903348 46.773664 
L 182.43815 36.213723 
L 183.972952 53.421288 
L 185.507753 57.33775 
L 187.042555 37.262257 
L 188.577357 58.920912 
L 190.112159 52.405909 
L 191.64696 54.830385 
L 193.181762 36.851961 
L 194.716564 61.569186 
L 196.251366 54.188003 
L 197.786167 35.069867 
L 199.320969 60.777605 
L 200.855771 51.693071 
L 202.390573 37.751296 
L 203.925374 57.109807 
L 205.460176 54.262602 
L 206.994978 39.612134 
L 208.52978 60.388031 
L 210.064581 46.210025 
L 211.599383 50.34614 
L 213.134185 36.478964 
L 214.668987 49.720335 
L 216.203789 47.623267 
L 217.73859 37.684986 
L 219.273392 49.214718 
L 220.808194 46.317779 
L 222.342996 35.459441 
L 223.877797 49.372205 
L 225.412599 48.970198 
L 226.947401 41.82939 
L 228.482203 45.422588 
L 230.017004 52.352032 
L 231.551806 45.820451 
L 233.086608 36.54113 
L 234.62141 54.511266 
L 236.156211 43.1183 
L 237.691013 38.530444 
L 239.225815 48.091584 
L 240.760617 42.952523 
L 242.295419 38.480712 
L 243.83022 49.542126 
L 246.899824 34.535239 
L 248.434626 53.189201 
L 249.969427 32.098329 
L 251.504229 58.137619 
L 253.039031 37.755441 
L 254.573833 57.830934 
L 256.108634 50.648682 
L 257.643436 33.631759 
L 259.178238 57.192695 
L 260.71304 50.897346 
L 262.247841 36.217867 
L 263.782643 56.198038 
L 265.317445 52.223555 
L 266.852247 37.353434 
L 268.387048 56.363815 
L 269.92185 35.239788 
L 271.456652 58.556204 
L 272.991454 49.368061 
L 274.526256 37.776163 
L 276.061057 54.921562 
L 277.595859 55.215815 
L 279.130661 35.732972 
L 280.665463 49.111108 
L 282.200264 37.912928 
L 283.735066 52.986125 
L 286.80467 39.711599 
L 288.339471 54.154847 
L 289.874273 43.470574 
L 291.409075 39.769621 
L 292.943877 51.548017 
L 294.478678 45.994516 
L 296.01348 41.605592 
L 297.548282 59.890702 
L 299.083084 52.526097 
L 300.617885 40.242083 
L 302.152687 58.572782 
L 303.687489 52.88666 
L 305.222291 53.446154 
L 306.757093 34.647138 
L 308.291894 58.717836 
L 309.826696 51.90858 
L 311.361498 36.367065 
L 312.8963 49.944133 
L 314.431101 41.282329 
L 315.965903 43.53274 
L 317.500705 59.563294 
L 319.035507 38.451701 
L 320.570308 58.286818 
L 322.10511 51.90858 
L 323.639912 36.972148 
L 325.174714 55.522501 
L 326.709515 52.186255 
L 328.244317 36.653029 
L 329.779119 56.944031 
L 331.313921 53.765273 
L 332.848722 54.188003 
L 334.383524 35.301954 
L 335.918326 59.269042 
L 337.453128 50.607237 
L 338.98793 34.97869 
L 340.522731 56.39697 
L 342.057533 51.66406 
L 343.592335 35.911181 
L 345.127137 59.426529 
L 346.661938 52.550963 
L 348.19674 33.13443 
L 349.731542 57.735612 
L 351.266344 49.127685 
L 352.801145 37.995816 
L 354.335947 59.791237 
L 355.870749 54.457389 
L 357.405551 40.134329 
L 358.940352 59.264897 
L 360.475154 51.709649 
L 362.009956 54.577576 
L 363.544758 41.676047 
L 365.079559 57.975988 
L 366.614361 47.722732 
L 368.149163 39.143816 
L 369.683965 57.354327 
L 371.218767 53.214068 
L 372.753568 41.696769 
L 374.28837 61.034558 
L 375.823172 38.986329 
L 377.357974 61.938038 
L 378.892775 52.637995 
L 380.427577 38.675498 
L 381.962379 59.936291 
L 383.497181 54.188003 
L 385.031982 40.702112 
L 386.566784 62.427078 
L 388.101586 55.779454 
L 389.636388 39.181116 
L 391.171189 60.868782 
L 392.705991 54.788941 
L 394.240793 36.880972 
L 395.775595 61.842717 
L 397.310396 50.719136 
L 398.845198 38.236192 
L 400.38 54.047093 
L 400.38 54.047093 
" clip-path="url(#p934d18ca93)" style="fill: none; stroke: #3fb950; stroke-width: 2; stroke-linecap: square"/>
   </g>
   <g id="patch_3">
    <path d="M 34.56 150.318281 
L 34.56 21.558281 
" style="fill: none; stroke: #21262d; stroke-width: 0.8; stroke-linejoin: miter; stroke-linecap: square"/>
   </g>
   <g id="patch_4">
    <path d="M 34.56 150.318281 
L 417.8 150.318281 
" style="fill: none; stroke: #21262d; stroke-width: 0.8; stroke-linejoin: miter; stroke-linecap: square"/>
   </g>
   <g id="text_12">
    <!-- CLIANYTHING (HKUDS/CLI-Anything) — $218.17 (-14.88%) -->
    <g style="fill: #c9d1d9" transform="translate(47.100859 15.558281) scale(0.11 -0.11)">
     <defs>
      <path id="DejaVuSans-Bold-26" d="M 4288 256 
Q 3956 84 3597 -3 
Q 3238 -91 2847 -91 
Q 1681 -91 1000 561 
Q 319 1213 319 2328 
Q 319 3447 1000 4098 
Q 1681 4750 2847 4750 
Q 3238 4750 3597 4662 
Q 3956 4575 4288 4403 
L 4288 3438 
Q 3953 3666 3628 3772 
Q 3303 3878 2944 3878 
Q 2300 3878 1931 3465 
Q 1563 3053 1563 2328 
Q 1563 1606 1931 1193 
Q 2300 781 2944 781 
Q 3303 781 3628 887 
Q 3953 994 4288 1222 
L 4288 256 
z
" transform="scale(0.015625)"/>
      <path id="DejaVuSans-Bold-2f" d="M 588 4666 
L 1791 4666 
L 1791 909 
L 3903 909 
L 3903 0 
L 588 0 
L 588 4666 
z
" transform="scale(0.015625)"/>
      <path id="DejaVuSans-Bold-2c" d="M 588 4666 
L 1791 4666 
L 1791 0 
L 588 0 
L 588 4666 
z
" transform="scale(0.015625)"/>
      <path id="DejaVuSans-Bold-24" d="M 3419 850 
L 1538 850 
L 1241 0 
L 31 0 
L 1759 4666 
L 3194 4666 
L 4922 0 
L 3713 0 
L 3419 850 
z
M 1838 1716 
L 3116 1716 
L 2478 3572 
L 1838 1716 
z
" transform="scale(0.015625)"/>
      <path id="DejaVuSans-Bold-31" d="M 588 4666 
L 1931 4666 
L 3628 1466 
L 3628 4666 
L 4769 4666 
L 4769 0 
L 3425 0 
L 1728 3200 
L 1728 0 
L 588 0 
L 588 4666 
z
" transform="scale(0.015625)"/>
      <path id="DejaVuSans-Bold-3c" d="M -63 4666 
L 1253 4666 
L 2316 3003 
L 3378 4666 
L 4697 4666 
L 2919 1966 
L 2919 0 
L 1716 0 
L 1716 1966 
L -63 4666 
z
" transform="scale(0.015625)"/>
      <path id="DejaVuSans-Bold-37" d="M 31 4666 
L 4331 4666 
L 4331 3756 
L 2784 3756 
L 2784 0 
L 1581 0 
L 1581 3756 
L 31 3756 
L 31 4666 
z
" transform="scale(0.015625)"/>
      <path id="DejaVuSans-Bold-2b" d="M 588 4666 
L 1791 4666 
L 1791 2888 
L 3566 2888 
L 3566 4666 
L 4769 4666 
L 4769 0 
L 3566 0 
L 3566 1978 
L 1791 1978 
L 1791 0 
L 588 0 
L 588 4666 
z
" transform="scale(0.015625)"/>
      <path id="DejaVuSans-Bold-2a" d="M 4781 347 
Q 4331 128 3847 18 
Q 3363 -91 2847 -91 
Q 1681 -91 1000 561 
Q 319 1213 319 2328 
Q 319 3456 1012 4103 
Q 1706 4750 2913 4750 
Q 3378 4750 3804 4662 
Q 4231 4575 4609 4403 
L 4609 3438 
Q 4219 3659 3833 3768 
Q 3447 3878 3059 3878 
Q 2341 3878 1952 3476 
Q 1563 3075 1563 2328 
Q 1563 1588 1938 1184 
Q 2313 781 3003 781 
Q 3191 781 3352 804 
Q 3513 828 3641 878 
L 3641 1784 
L 2906 1784 
L 2906 2591 
L 4781 2591 
L 4781 347 
z
" transform="scale(0.015625)"/>
      <path id="DejaVuSans-Bold-3" transform="scale(0.015625)"/>
      <path id="DejaVuSans-Bold-b" d="M 2413 -844 
L 1484 -844 
Q 1006 -72 778 623 
Q 550 1319 550 2003 
Q 550 2688 779 3389 
Q 1009 4091 1484 4856 
L 2413 4856 
Q 2013 4116 1813 3408 
Q 1613 2700 1613 2009 
Q 1613 1319 1811 609 
Q 2009 -100 2413 -844 
z
" transform="scale(0.015625)"/>
      <path id="DejaVuSans-Bold-2e" d="M 588 4666 
L 1791 4666 
L 1791 2963 
L 3525 4666 
L 4922 4666 
L 2675 2456 
L 5153 0 
L 3647 0 
L 1791 1838 
L 1791 0 
L 588 0 
L 588 4666 
z
" transform="scale(0.015625)"/>
      <path id="DejaVuSans-Bold-38" d="M 588 4666 
L 1791 4666 
L 1791 1869 
Q 1791 1291 1980 1042 
Q 2169 794 2597 794 
Q 3028 794 3217 1042 
Q 3406 1291 3406 1869 
L 3406 4666 
L 4609 4666 
L 4609 1869 
Q 4609 878 4112 393 
Q 3616 -91 2597 -91 
Q 1581 -91 1084 393 
Q 588 878 588 1869 
L 588 4666 
z
" transform="scale(0.015625)"/>
      <path id="DejaVuSans-Bold-27" d="M 1791 3756 
L 1791 909 
L 2222 909 
Q 2959 909 3348 1275 
Q 3738 1641 3738 2338 
Q 3738 3031 3350 3393 
Q 2963 3756 2222 3756 
L 1791 3756 
z
M 588 4666 
L 1856 4666 
Q 2919 4666 3439 4514 
Q 3959 4363 4331 4000 
Q 4659 3684 4818 3271 
Q 4978 2859 4978 2338 
Q 4978 1809 4818 1395 
Q 4659 981 4331 666 
Q 3956 303 3431 151 
Q 2906 0 1856 0 
L 588 0 
L 588 4666 
z
" transform="scale(0.015625)"/>
      <path id="DejaVuSans-Bold-36" d="M 3834 4519 
L 3834 3531 
Q 3450 3703 3084 3790 
Q 2719 3878 2394 3878 
Q 1963 3878 1756 3759 
Q 1550 3641 1550 3391 
Q 1550 3203 1689 3098 
Q 1828 2994 2194 2919 
L 2706 2816 
Q 3484 2659 3812 2340 
Q 4141 2022 4141 1434 
Q 4141 663 3683 286 
Q 3225 -91 2284 -91 
Q 1841 -91 1394 -6 
Q 947 78 500 244 
L 500 1259 
Q 947 1022 1364 901 
Q 1781 781 2169 781 
Q 2563 781 2772 912 
Q 2981 1044 2981 1288 
Q 2981 1506 2839 1625 
Q 2697 1744 2272 1838 
L 1806 1941 
Q 1106 2091 782 2419 
Q 459 2747 459 3303 
Q 459 4000 909 4375 
Q 1359 4750 2203 4750 
Q 2588 4750 2994 4692 
Q 3400 4634 3834 4519 
z
" transform="scale(0.015625)"/>
      <path id="DejaVuSans-Bold-12" d="M 1644 4666 
L 2338 4666 
L 691 -594 
L 0 -594 
L 1644 4666 
z
" transform="scale(0.015625)"/>
      <path id="DejaVuSans-Bold-10" d="M 347 2297 
L 2309 2297 
L 2309 1388 
L 347 1388 
L 347 2297 
z
" transform="scale(0.015625)"/>
      <path id="DejaVuSans-Bold-51" d="M 4056 2131 
L 4056 0 
L 2931 0 
L 2931 347 
L 2931 1631 
Q 2931 2084 2911 2256 
Q 2891 2428 2841 2509 
Q 2775 2619 2662 2680 
Q 2550 2741 2406 2741 
Q 2056 2741 1856 2470 
Q 1656 2200 1656 1722 
L 1656 0 
L 538 0 
L 538 3500 
L 1656 3500 
L 1656 2988 
Q 1909 3294 2193 3439 
Q 2478 3584 2822 3584 
Q 3428 3584 3742 3212 
Q 4056 2841 4056 2131 
z
" transform="scale(0.015625)"/>
      <path id="DejaVuSans-Bold-5c" d="M 78 3500 
L 1197 3500 
L 2138 1125 
L 2938 3500 
L 4056 3500 
L 2584 -331 
Q 2363 -916 2067 -1148 
Q 1772 -1381 1288 -1381 
L 641 -1381 
L 641 -647 
L 991 -647 
Q 1275 -647 1404 -556 
Q 1534 -466 1606 -231 
L 1638 -134 
L 78 3500 
z
" transform="scale(0.015625)"/>
      <path id="DejaVuSans-Bold-57" d="M 1759 4494 
L 1759 3500 
L 2913 3500 
L 2913 2700 
L 1759 2700 
L 1759 1216 
Q 1759 972 1856 886 
Q 1953 800 2241 800 
L 2816 800 
L 2816 0 
L 1856 0 
Q 1194 0 917 276 
Q 641 553 641 1216 
L 641 2700 
L 84 2700 
L 84 3500 
L 641 3500 
L 641 4494 
L 1759 4494 
z
" transform="scale(0.015625)"/>
      <path id="DejaVuSans-Bold-4b" d="M 4056 2131 
L 4056 0 
L 2931 0 
L 2931 347 
L 2931 1625 
Q 2931 2084 2911 2256 
Q 2891 2428 2841 2509 
Q 2775 2619 2662 2680 
Q 2550 2741 2406 2741 
Q 2056 2741 1856 2470 
Q 1656 2200 1656 1722 
L 1656 0 
L 538 0 
L 538 4863 
L 1656 4863 
L 1656 2988 
Q 1909 3294 2193 3439 
Q 2478 3584 2822 3584 
Q 3428 3584 3742 3212 
Q 4056 2841 4056 2131 
z
" transform="scale(0.015625)"/>
      <path id="DejaVuSans-Bold-4c" d="M 538 3500 
L 1656 3500 
L 1656 0 
L 538 0 
L 538 3500 
z
M 538 4863 
L 1656 4863 
L 1656 3950 
L 538 3950 
L 538 4863 
z
" transform="scale(0.015625)"/>
      <path id="DejaVuSans-Bold-4a" d="M 2919 594 
Q 2688 288 2409 144 
Q 2131 0 1766 0 
Q 1125 0 706 504 
Q 288 1009 288 1791 
Q 288 2575 706 3076 
Q 1125 3578 1766 3578 
Q 2131 3578 2409 3434 
Q 2688 3291 2919 2981 
L 2919 3500 
L 4044 3500 
L 4044 353 
Q 4044 -491 3511 -936 
Q 2978 -1381 1966 -1381 
Q 1638 -1381 1331 -1331 
Q 1025 -1281 716 -1178 
L 716 -306 
Q 1009 -475 1290 -558 
Q 1572 -641 1856 -641 
Q 2406 -641 2662 -400 
Q 2919 -159 2919 353 
L 2919 594 
z
M 2181 2772 
Q 1834 2772 1640 2515 
Q 1447 2259 1447 1791 
Q 1447 1309 1634 1061 
Q 1822 813 2181 813 
Q 2531 813 2725 1069 
Q 2919 1325 2919 1791 
Q 2919 2259 2725 2515 
Q 2531 2772 2181 2772 
z
" transform="scale(0.015625)"/>
      <path id="DejaVuSans-Bold-c" d="M 513 -844 
Q 913 -100 1113 609 
Q 1313 1319 1313 2009 
Q 1313 2700 1113 3408 
Q 913 4116 513 4856 
L 1441 4856 
Q 1916 4091 2145 3389 
Q 2375 2688 2375 2003 
Q 2375 1319 2147 623 
Q 1919 -72 1441 -844 
L 513 -844 
z
" transform="scale(0.015625)"/>
      <path id="DejaVuSans-Bold-af6" d="M 344 2156 
L 6056 2156 
L 6056 1350 
L 344 1350 
L 344 2156 
z
" transform="scale(0.015625)"/>
      <path id="DejaVuSans-Bold-7" d="M 2484 -941 
L 1978 -941 
L 1975 0 
Q 1584 16 1218 87 
Q 853 159 506 288 
L 506 1106 
Q 866 922 1233 823 
Q 1600 725 1978 713 
L 1978 1684 
L 1875 1703 
Q 1128 1834 814 2115 
Q 500 2397 500 2925 
Q 500 3484 883 3798 
Q 1266 4113 1975 4141 
L 1978 4863 
L 2484 4863 
L 2484 4153 
Q 2797 4128 3109 4075 
Q 3422 4022 3738 3938 
L 3738 3144 
Q 3425 3275 3112 3348 
Q 2800 3422 2484 3438 
L 2484 2541 
L 2584 2522 
Q 3378 2397 3698 2105 
Q 4019 1813 4019 1241 
Q 4019 666 3637 358 
Q 3256 50 2484 6 
L 2484 -941 
z
M 1978 2613 
L 1978 3428 
Q 1756 3416 1623 3308 
Q 1491 3200 1491 3034 
Q 1491 2850 1612 2745 
Q 1734 2641 1978 2613 
z
M 2484 1594 
L 2484 725 
Q 2756 728 2892 831 
Q 3028 934 3028 1141 
Q 3028 1353 2903 1458 
Q 2778 1563 2484 1594 
z
" transform="scale(0.015625)"/>
      <path id="DejaVuSans-Bold-15" d="M 1844 884 
L 3897 884 
L 3897 0 
L 506 0 
L 506 884 
L 2209 2388 
Q 2438 2594 2547 2791 
Q 2656 2988 2656 3200 
Q 2656 3528 2436 3728 
Q 2216 3928 1850 3928 
Q 1569 3928 1234 3808 
Q 900 3688 519 3450 
L 519 4475 
Q 925 4609 1322 4679 
Q 1719 4750 2100 4750 
Q 2938 4750 3402 4381 
Q 3866 4013 3866 3353 
Q 3866 2972 3669 2642 
Q 3472 2313 2841 1759 
L 1844 884 
z
" transform="scale(0.015625)"/>
      <path id="DejaVuSans-Bold-14" d="M 750 831 
L 1813 831 
L 1813 3847 
L 722 3622 
L 722 4441 
L 1806 4666 
L 2950 4666 
L 2950 831 
L 4013 831 
L 4013 0 
L 750 0 
L 750 831 
z
" transform="scale(0.015625)"/>
      <path id="DejaVuSans-Bold-1b" d="M 2228 2088 
Q 1891 2088 1709 1903 
Q 1528 1719 1528 1375 
Q 1528 1031 1709 848 
Q 1891 666 2228 666 
Q 2563 666 2741 848 
Q 2919 1031 2919 1375 
Q 2919 1722 2741 1905 
Q 2563 2088 2228 2088 
z
M 1350 2484 
Q 925 2613 709 2878 
Q 494 3144 494 3541 
Q 494 4131 934 4440 
Q 1375 4750 2228 4750 
Q 3075 4750 3515 4442 
Q 3956 4134 3956 3541 
Q 3956 3144 3739 2878 
Q 3522 2613 3097 2484 
Q 3572 2353 3814 2058 
Q 4056 1763 4056 1313 
Q 4056 619 3595 264 
Q 3134 -91 2228 -91 
Q 1319 -91 855 264 
Q 391 619 391 1313 
Q 391 1763 633 2058 
Q 875 2353 1350 2484 
z
M 1631 3419 
Q 1631 3141 1786 2991 
Q 1941 2841 2228 2841 
Q 2509 2841 2662 2991 
Q 2816 3141 2816 3419 
Q 2816 3697 2662 3845 
Q 2509 3994 2228 3994 
Q 1941 3994 1786 3844 
Q 1631 3694 1631 3419 
z
" transform="scale(0.015625)"/>
      <path id="DejaVuSans-Bold-11" d="M 653 1209 
L 1778 1209 
L 1778 0 
L 653 0 
L 653 1209 
z
" transform="scale(0.015625)"/>
      <path id="DejaVuSans-Bold-1a" d="M 428 4666 
L 3944 4666 
L 3944 3988 
L 2125 0 
L 953 0 
L 2675 3781 
L 428 3781 
L 428 4666 
z
" transform="scale(0.015625)"/>
      <path id="DejaVuSans-Bold-17" d="M 2356 3675 
L 1038 1722 
L 2356 1722 
L 2356 3675 
z
M 2156 4666 
L 3494 4666 
L 3494 1722 
L 4159 1722 
L 4159 850 
L 3494 850 
L 3494 0 
L 2356 0 
L 2356 850 
L 288 850 
L 288 1881 
L 2156 4666 
z
" transform="scale(0.015625)"/>
      <path id="DejaVuSans-Bold-8" d="M 4959 1925 
Q 4738 1925 4616 1733 
Q 4494 1541 4494 1184 
Q 4494 825 4614 633 
Q 4734 441 4959 441 
Q 5184 441 5303 633 
Q 5422 825 5422 1184 
Q 5422 1541 5301 1733 
Q 5181 1925 4959 1925 
z
M 4959 2450 
Q 5541 2450 5875 2112 
Q 6209 1775 6209 1184 
Q 6209 594 5875 251 
Q 5541 -91 4959 -91 
Q 4378 -91 4042 251 
Q 3706 594 3706 1184 
Q 3706 1772 4042 2111 
Q 4378 2450 4959 2450 
z
M 2094 -91 
L 1403 -91 
L 4319 4750 
L 5013 4750 
L 2094 -91 
z
M 1453 4750 
Q 2034 4750 2367 4411 
Q 2700 4072 2700 3481 
Q 2700 2891 2367 2550 
Q 2034 2209 1453 2209 
Q 872 2209 539 2550 
Q 206 2891 206 3481 
Q 206 4072 539 4411 
Q 872 4750 1453 4750 
z
M 1453 4225 
Q 1228 4225 1106 4031 
Q 984 3838 984 3481 
Q 984 3122 1106 2926 
Q 1228 2731 1453 2731 
Q 1678 2731 1798 2926 
Q 1919 3122 1919 3481 
Q 1919 3838 1797 4031 
Q 1675 4225 1453 4225 
z
" transform="scale(0.015625)"/>
     </defs>
     <use xlink:href="#DejaVuSans-Bold-26"/>
     <use xlink:href="#DejaVuSans-Bold-2f" transform="translate(73.390625 0)"/>
     <use xlink:href="#DejaVuSans-Bold-2c" transform="translate(137.109375 0)"/>
     <use xlink:href="#DejaVuSans-Bold-24" transform="translate(174.3125 0)"/>
     <use xlink:href="#DejaVuSans-Bold-31" transform="translate(251.703125 0)"/>
     <use xlink:href="#DejaVuSans-Bold-3c" transform="translate(335.390625 0)"/>
     <use xlink:href="#DejaVuSans-Bold-37" transform="translate(407.796875 0)"/>
     <use xlink:href="#DejaVuSans-Bold-2b" transform="translate(476.015625 0)"/>
     <use xlink:href="#DejaVuSans-Bold-2c" transform="translate(559.703125 0)"/>
     <use xlink:href="#DejaVuSans-Bold-31" transform="translate(596.90625 0)"/>
     <use xlink:href="#DejaVuSans-Bold-2a" transform="translate(680.59375 0)"/>
     <use xlink:href="#DejaVuSans-Bold-3" transform="translate(762.671875 0)"/>
     <use xlink:href="#DejaVuSans-Bold-b" transform="translate(797.484375 0)"/>
     <use xlink:href="#DejaVuSans-Bold-2b" transform="translate(843.1875 0)"/>
     <use xlink:href="#DejaVuSans-Bold-2e" transform="translate(926.875 0)"/>
     <use xlink:href="#DejaVuSans-Bold-38" transform="translate(1002.609375 0)"/>
     <use xlink:href="#DejaVuSans-Bold-27" transform="translate(1083.8125 0)"/>
     <use xlink:href="#DejaVuSans-Bold-36" transform="translate(1166.828125 0)"/>
     <use xlink:href="#DejaVuSans-Bold-12" transform="translate(1238.84375 0)"/>
     <use xlink:href="#DejaVuSans-Bold-26" transform="translate(1275.375 0)"/>
     <use xlink:href="#DejaVuSans-Bold-2f" transform="translate(1348.765625 0)"/>
     <use xlink:href="#DejaVuSans-Bold-2c" transform="translate(1412.484375 0)"/>
     <use xlink:href="#DejaVuSans-Bold-10" transform="translate(1449.6875 0)"/>
     <use xlink:href="#DejaVuSans-Bold-24" transform="translate(1491.1875 0)"/>
     <use xlink:href="#DejaVuSans-Bold-51" transform="translate(1568.578125 0)"/>
     <use xlink:href="#DejaVuSans-Bold-5c" transform="translate(1639.765625 0)"/>
     <use xlink:href="#DejaVuSans-Bold-57" transform="translate(1704.953125 0)"/>
     <use xlink:href="#DejaVuSans-Bold-4b" transform="translate(1752.75 0)"/>
     <use xlink:href="#DejaVuSans-Bold-4c" transform="translate(1823.9375 0)"/>
     <use xlink:href="#DejaVuSans-Bold-51" transform="translate(1858.21875 0)"/>
     <use xlink:href="#DejaVuSans-Bold-4a" transform="translate(1929.40625 0)"/>
     <use xlink:href="#DejaVuSans-Bold-c" transform="translate(2000.984375 0)"/>
     <use xlink:href="#DejaVuSans-Bold-3" transform="translate(2046.6875 0)"/>
     <use xlink:href="#DejaVuSans-Bold-af6" transform="translate(2081.5 0)"/>
     <use xlink:href="#DejaVuSans-Bold-3" transform="translate(2181.5 0)"/>
     <use xlink:href="#DejaVuSans-Bold-7" transform="translate(2216.3125 0)"/>
     <use xlink:href="#DejaVuSans-Bold-15" transform="translate(2285.890625 0)"/>
     <use xlink:href="#DejaVuSans-Bold-14" transform="translate(2355.46875 0)"/>
     <use xlink:href="#DejaVuSans-Bold-1b" transform="translate(2425.046875 0)"/>
     <use xlink:href="#DejaVuSans-Bold-11" transform="translate(2494.625 0)"/>
     <use xlink:href="#DejaVuSans-Bold-14" transform="translate(2532.609375 0)"/>
     <use xlink:href="#DejaVuSans-Bold-1a" transform="translate(2602.1875 0)"/>
     <use xlink:href="#DejaVuSans-Bold-3" transform="translate(2671.765625 0)"/>
     <use xlink:href="#DejaVuSans-Bold-b" transform="translate(2706.578125 0)"/>
     <use xlink:href="#DejaVuSans-Bold-10" transform="translate(2752.28125 0)"/>
     <use xlink:href="#DejaVuSans-Bold-14" transform="translate(2793.78125 0)"/>
     <use xlink:href="#DejaVuSans-Bold-17" transform="translate(2863.359375 0)"/>
     <use xlink:href="#DejaVuSans-Bold-11" transform="translate(2932.9375 0)"/>
     <use xlink:href="#DejaVuSans-Bold-1b" transform="translate(2970.921875 0)"/>
     <use xlink:href="#DejaVuSans-Bold-1b" transform="translate(3040.5 0)"/>
     <use xlink:href="#DejaVuSans-Bold-8" transform="translate(3110.078125 0)"/>
     <use xlink:href="#DejaVuSans-Bold-c" transform="translate(3210.28125 0)"/>
    </g>
   </g>
  </g>
 </g>
 <defs>
  <clipPath id="p934d18ca93">
   <rect x="34.56" y="21.558281" width="383.24" height="128.76"/>
  </clipPath>
 </defs>
</svg>
