<?xml version="1.0" encoding="utf-8" standalone="no"?>
<!DOCTYPE svg PUBLIC "-//W3C//DTD SVG 1.1//EN"
  "http://www.w3.org/Graphics/SVG/1.1/DTD/svg11.dtd">
<svg xmlns:xlink="http://www.w3.org/1999/xlink" width="424.746088pt" height="172.518281pt" viewBox="0 0 424.746088 172.518281" xmlns="http://www.w3.org/2000/svg" version="1.1">
 <metadata>
  <rdf:RDF xmlns:dc="http://purl.org/dc/elements/1.1/" xmlns:cc="http://creativecommons.org/ns#" xmlns:rdf="http://www.w3.org/1999/02/22-rdf-syntax-ns#">
   <cc:Work>
    <dc:type rdf:resource="http://purl.org/dc/dcmitype/StillImage"/>
    <dc:date>2026-06-29T01:06:41.744487</dc:date>
    <dc:format>image/svg+xml</dc:format>
    <dc:creator>
     <cc:Agent>
      <dc:title>Matplotlib v3.11.0, https://matplotlib.org/</dc:title>
     </cc:Agent>
    </dc:creator>
   </cc:Work>
  </rdf:RDF>
 </metadata>
 <defs>
  <style type="text/css">*{stroke-linejoin: round; stroke-linecap: butt}</style>
 </defs>
 <g id="figure_1">
  <g id="patch_1">
   <path d="M 0 172.518281 
L 424.746088 172.518281 
L 424.746088 0 
L 0 0 
z
" style="fill: #0d1117"/>
  </g>
  <g id="axes_1">
   <g id="patch_2">
    <path d="M 34.56 150.318281 
L 412.776364 150.318281 
L 412.776364 21.558281 
L 34.56 21.558281 
z
" style="fill: #0d1117"/>
   </g>
   <g id="FillBetweenPolyCollection_1">
    <defs>
     <path id="md925da1885" d="M 51.751653 -28.052727 
L 51.751653 -86.048095 
L 52.945518 -80.383308 
L 54.139382 -83.838473 
L 55.333247 -81.750746 
L 56.527112 -80.099625 
L 57.720977 -81.167867 
L 58.914842 -81.529119 
L 60.108706 -80.604935 
L 61.302571 -78.630238 
L 62.496436 -79.534476 
L 63.690301 -86.174422 
L 64.884166 -81.839397 
L 66.07803 -79.563287 
L 67.271895 -83.588035 
L 68.46576 -82.951965 
L 69.659625 -81.325223 
L 70.853489 -81.670961 
L 72.047354 -83.534844 
L 73.241219 -83.060562 
L 74.435084 -83.528195 
L 75.628949 -81.959076 
L 76.822813 -84.716116 
L 78.016678 -83.5969 
L 79.210543 -83.33538 
L 80.404408 -84.370378 
L 81.598272 -81.367332 
L 82.792137 -84.795902 
L 83.986002 -80.183843 
L 85.179867 -86.617677 
L 86.373732 -82.180703 
L 87.567596 -84.41692 
L 88.761461 -84.454597 
L 89.955326 -84.392541 
L 91.149191 -85.019746 
L 92.343056 -83.909394 
L 93.53692 -84.51222 
L 94.730785 -85.01088 
L 95.92465 -82.276003 
L 97.118515 -84.168698 
L 98.312379 -84.004694 
L 99.506244 -85.075152 
L 100.700109 -84.02464 
L 101.893974 -86.95455 
L 103.087839 -85.757764 
L 104.281703 -85.55165 
L 105.475568 -87.340181 
L 106.669433 -83.769769 
L 107.863298 -84.935527 
L 109.057163 -86.41378 
L 110.251027 -83.113753 
L 111.444892 -85.482946 
L 112.638757 -85.188182 
L 113.832622 -84.270646 
L 115.026486 -86.407131 
L 116.220351 -85.677978 
L 117.414216 -94.977449 
L 118.608081 -78.33769 
L 119.801946 -90.768751 
L 120.99581 -87.978467 
L 122.189675 -87.90533 
L 123.38354 -88.814001 
L 124.577405 -89.740402 
L 125.77127 -89.653967 
L 126.965134 -91.358279 
L 128.158999 -93.275353 
L 129.352864 -87.772354 
L 130.546729 -90.343227 
L 131.740593 -93.55682 
L 132.934458 -87.043201 
L 134.128323 -90.640208 
L 135.322188 -93.173405 
L 136.516053 -90.27009 
L 137.709917 -89.585263 
L 138.903782 -92.741232 
L 140.097647 -99.693673 
L 141.291512 -94.613981 
L 142.485376 -97.218099 
L 143.679241 -94.633927 
L 144.873106 -95.863957 
L 146.066971 -95.941527 
L 147.260836 -94.669388 
L 148.4547 -96.333807 
L 149.648565 -96.537704 
L 150.84243 -93.27757 
L 152.036295 -97.732273 
L 153.23016 -94.425598 
L 154.424024 -95.276646 
L 155.617889 -92.191597 
L 156.811754 -95.640114 
L 158.005619 -92.672528 
L 159.199483 -96.125477 
L 160.393348 -91.504553 
L 161.587213 -94.157429 
L 162.781078 -96.841333 
L 163.974943 -93.430492 
L 165.168807 -96.484513 
L 166.362672 -94.352461 
L 167.556537 -92.247004 
L 168.750402 -95.923797 
L 169.944267 -94.802364 
L 171.138131 -92.413224 
L 172.331996 -93.621092 
L 173.525861 -93.341841 
L 174.719726 -94.392354 
L 175.91359 -95.402973 
L 177.107455 -95.08383 
L 178.30132 -94.396786 
L 179.495185 -93.840502 
L 180.68905 -94.141915 
L 181.882914 -98.19769 
L 183.076779 -95.49384 
L 184.270644 -97.515079 
L 185.464509 -108.84687 
L 186.658374 -102.122705 
L 187.852238 -103.346087 
L 189.046103 -102.410821 
L 190.239968 -102.437416 
L 191.433833 -103.233057 
L 192.627697 -119.57362 
L 193.821562 -113.210707 
L 195.015427 -118.636137 
L 196.209292 -119.883898 
L 197.403157 -122.027031 
L 198.597021 -121.535019 
L 199.790886 -145.107273 
L 200.984751 -139.555515 
L 202.178616 -144.0213 
L 203.37248 -121.681293 
L 204.566345 -122.228712 
L 205.76021 -123.48977 
L 206.954075 -85.412025 
L 208.14794 -91.564392 
L 209.341804 -87.82776 
L 210.535669 -91.11449 
L 211.729534 -89.060007 
L 212.923399 -88.031657 
L 214.117264 -90.196954 
L 215.311128 -87.298072 
L 216.504993 -88.946977 
L 217.698858 -87.863221 
L 218.892723 -90.423013 
L 220.086587 -88.452749 
L 221.280452 -89.784727 
L 222.474317 -88.138038 
L 223.668182 -89.456719 
L 224.862047 -89.583047 
L 226.055911 -90.396418 
L 227.249776 -88.658862 
L 228.443641 -92.078567 
L 229.637506 -90.919458 
L 230.831371 -90.790914 
L 232.025235 -91.925645 
L 233.2191 -88.4461 
L 234.412965 -88.997951 
L 235.60683 -91.336117 
L 236.800694 -89.744834 
L 237.994559 -88.652213 
L 239.188424 -90.94162 
L 240.382289 -90.325497 
L 241.576154 -90.168142 
L 242.770018 -88.208959 
L 243.963883 -91.630881 
L 245.157748 -89.899973 
L 246.351613 -92.089649 
L 247.545478 -90.40085 
L 248.739342 -91.865805 
L 249.933207 -90.524962 
L 251.127072 -95.212374 
L 252.320937 -91.172113 
L 253.514801 -92.88529 
L 254.708666 -90.564854 
L 255.902531 -93.563469 
L 257.096396 -92.532903 
L 258.290261 -91.14995 
L 259.484125 -90.247928 
L 260.67799 -94.618413 
L 261.871855 -89.0046 
L 263.06572 -93.315246 
L 264.259584 -91.189843 
L 265.453449 -93.047077 
L 266.647314 -89.119846 
L 267.841179 -91.717315 
L 269.035044 -92.227057 
L 270.228908 -91.418119 
L 271.422773 -91.686287 
L 272.616638 -93.175621 
L 273.810503 -90.314416 
L 275.004368 -93.528008 
L 276.198232 -91.034704 
L 277.392097 -92.204895 
L 278.585962 -91.599853 
L 279.779827 -103.725069 
L 280.973691 -99.895353 
L 282.167556 -100.196766 
L 283.361421 -103.986589 
L 284.555286 -101.072193 
L 285.749151 -98.687486 
L 286.943015 -103.769394 
L 288.13688 -101.036733 
L 289.330745 -101.138681 
L 290.52461 -101.249495 
L 291.718475 -101.657289 
L 292.912339 -101.227332 
L 294.106204 -101.712695 
L 295.300069 -101.493285 
L 296.493934 -119.327614 
L 297.687798 -115.329462 
L 298.881663 -119.498267 
L 300.075528 -142.556345 
L 301.269393 -130.187339 
L 302.463258 -131.335368 
L 303.657122 -117.341835 
L 304.850987 -113.749261 
L 306.044852 -101.635126 
L 307.238717 -106.222806 
L 308.432581 -101.772535 
L 309.626446 -99.119659 
L 310.820311 -102.537148 
L 312.014176 -91.535581 
L 313.208041 -100.704292 
L 314.401905 -82.865531 
L 315.59577 -94.995179 
L 316.789635 -93.680931 
L 317.9835 -91.533365 
L 319.177365 -95.099344 
L 320.371229 -91.597637 
L 321.565094 -91.336117 
L 322.758959 -92.189381 
L 323.952824 -91.03692 
L 325.146688 -91.630881 
L 326.340553 -92.242571 
L 327.534418 -95.285511 
L 328.728283 -92.7368 
L 329.922148 -92.5462 
L 331.116012 -91.974403 
L 332.309877 -91.956672 
L 333.503742 -93.009401 
L 334.697607 -89.877811 
L 335.891472 -94.29927 
L 337.085336 -88.051604 
L 338.279201 -93.807258 
L 339.473066 -86.322913 
L 340.666931 -92.13619 
L 341.860795 -87.309153 
L 343.05466 -93.614443 
L 344.248525 -88.348584 
L 345.44239 -94.248296 
L 346.636255 -87.344613 
L 347.830119 -78.947164 
L 349.023984 -86.939036 
L 350.217849 -85.028611 
L 351.411714 -82.23611 
L 352.605579 -89.044493 
L 353.799443 -85.232508 
L 354.993308 -81.925832 
L 356.187173 -81.930264 
L 357.381038 -90.675668 
L 358.574902 -94.372407 
L 359.768767 -82.094268 
L 360.962632 -82.247191 
L 362.156497 -63.247104 
L 363.350362 -84.802551 
L 364.544226 -84.170914 
L 365.738091 -77.763676 
L 366.931956 -86.212099 
L 368.125821 -83.661172 
L 369.319685 -85.482946 
L 370.51355 -84.193077 
L 371.707415 -84.552112 
L 372.90128 -87.577322 
L 374.095145 -85.494027 
L 375.289009 -85.18375 
L 376.482874 -94.682685 
L 377.676739 -81.606689 
L 378.870604 -86.460321 
L 380.064469 -107.882793 
L 381.258333 -104.624875 
L 382.452198 -102.175896 
L 383.646063 -96.896739 
L 384.839928 -119.593566 
L 386.033792 -105.624413 
L 387.227657 -109.236934 
L 388.421522 -119.480536 
L 389.615387 -129.733004 
L 390.809252 -82.315895 
L 392.003116 -97.118366 
L 393.196981 -91.557744 
L 394.390846 -93.57455 
L 395.584711 -97.991577 
L 395.584711 -28.052727 
L 395.584711 -28.052727 
L 394.390846 -28.052727 
L 393.196981 -28.052727 
L 392.003116 -28.052727 
L 390.809252 -28.052727 
L 389.615387 -28.052727 
L 388.421522 -28.052727 
L 387.227657 -28.052727 
L 386.033792 -28.052727 
L 384.839928 -28.052727 
L 383.646063 -28.052727 
L 382.452198 -28.052727 
L 381.258333 -28.052727 
L 380.064469 -28.052727 
L 378.870604 -28.052727 
L 377.676739 -28.052727 
L 376.482874 -28.052727 
L 375.289009 -28.052727 
L 374.095145 -28.052727 
L 372.90128 -28.052727 
L 371.707415 -28.052727 
L 370.51355 -28.052727 
L 369.319685 -28.052727 
L 368.125821 -28.052727 
L 366.931956 -28.052727 
L 365.738091 -28.052727 
L 364.544226 -28.052727 
L 363.350362 -28.052727 
L 362.156497 -28.052727 
L 360.962632 -28.052727 
L 359.768767 -28.052727 
L 358.574902 -28.052727 
L 357.381038 -28.052727 
L 356.187173 -28.052727 
L 354.993308 -28.052727 
L 353.799443 -28.052727 
L 352.605579 -28.052727 
L 351.411714 -28.052727 
L 350.217849 -28.052727 
L 349.023984 -28.052727 
L 347.830119 -28.052727 
L 346.636255 -28.052727 
L 345.44239 -28.052727 
L 344.248525 -28.052727 
L 343.05466 -28.052727 
L 341.860795 -28.052727 
L 340.666931 -28.052727 
L 339.473066 -28.052727 
L 338.279201 -28.052727 
L 337.085336 -28.052727 
L 335.891472 -28.052727 
L 334.697607 -28.052727 
L 333.503742 -28.052727 
L 332.309877 -28.052727 
L 331.116012 -28.052727 
L 329.922148 -28.052727 
L 328.728283 -28.052727 
L 327.534418 -28.052727 
L 326.340553 -28.052727 
L 325.146688 -28.052727 
L 323.952824 -28.052727 
L 322.758959 -28.052727 
L 321.565094 -28.052727 
L 320.371229 -28.052727 
L 319.177365 -28.052727 
L 317.9835 -28.052727 
L 316.789635 -28.052727 
L 315.59577 -28.052727 
L 314.401905 -28.052727 
L 313.208041 -28.052727 
L 312.014176 -28.052727 
L 310.820311 -28.052727 
L 309.626446 -28.052727 
L 308.432581 -28.052727 
L 307.238717 -28.052727 
L 306.044852 -28.052727 
L 304.850987 -28.052727 
L 303.657122 -28.052727 
L 302.463258 -28.052727 
L 301.269393 -28.052727 
L 300.075528 -28.052727 
L 298.881663 -28.052727 
L 297.687798 -28.052727 
L 296.493934 -28.052727 
L 295.300069 -28.052727 
L 294.106204 -28.052727 
L 292.912339 -28.052727 
L 291.718475 -28.052727 
L 290.52461 -28.052727 
L 289.330745 -28.052727 
L 288.13688 -28.052727 
L 286.943015 -28.052727 
L 285.749151 -28.052727 
L 284.555286 -28.052727 
L 283.361421 -28.052727 
L 282.167556 -28.052727 
L 280.973691 -28.052727 
L 279.779827 -28.052727 
L 278.585962 -28.052727 
L 277.392097 -28.052727 
L 276.198232 -28.052727 
L 275.004368 -28.052727 
L 273.810503 -28.052727 
L 272.616638 -28.052727 
L 271.422773 -28.052727 
L 270.228908 -28.052727 
L 269.035044 -28.052727 
L 267.841179 -28.052727 
L 266.647314 -28.052727 
L 265.453449 -28.052727 
L 264.259584 -28.052727 
L 263.06572 -28.052727 
L 261.871855 -28.052727 
L 260.67799 -28.052727 
L 259.484125 -28.052727 
L 258.290261 -28.052727 
L 257.096396 -28.052727 
L 255.902531 -28.052727 
L 254.708666 -28.052727 
L 253.514801 -28.052727 
L 252.320937 -28.052727 
L 251.127072 -28.052727 
L 249.933207 -28.052727 
L 248.739342 -28.052727 
L 247.545478 -28.052727 
L 246.351613 -28.052727 
L 245.157748 -28.052727 
L 243.963883 -28.052727 
L 242.770018 -28.052727 
L 241.576154 -28.052727 
L 240.382289 -28.052727 
L 239.188424 -28.052727 
L 237.994559 -28.052727 
L 236.800694 -28.052727 
L 235.60683 -28.052727 
L 234.412965 -28.052727 
L 233.2191 -28.052727 
L 232.025235 -28.052727 
L 230.831371 -28.052727 
L 229.637506 -28.052727 
L 228.443641 -28.052727 
L 227.249776 -28.052727 
L 226.055911 -28.052727 
L 224.862047 -28.052727 
L 223.668182 -28.052727 
L 222.474317 -28.052727 
L 221.280452 -28.052727 
L 220.086587 -28.052727 
L 218.892723 -28.052727 
L 217.698858 -28.052727 
L 216.504993 -28.052727 
L 215.311128 -28.052727 
L 214.117264 -28.052727 
L 212.923399 -28.052727 
L 211.729534 -28.052727 
L 210.535669 -28.052727 
L 209.341804 -28.052727 
L 208.14794 -28.052727 
L 206.954075 -28.052727 
L 205.76021 -28.052727 
L 204.566345 -28.052727 
L 203.37248 -28.052727 
L 202.178616 -28.052727 
L 200.984751 -28.052727 
L 199.790886 -28.052727 
L 198.597021 -28.052727 
L 197.403157 -28.052727 
L 196.209292 -28.052727 
L 195.015427 -28.052727 
L 193.821562 -28.052727 
L 192.627697 -28.052727 
L 191.433833 -28.052727 
L 190.239968 -28.052727 
L 189.046103 -28.052727 
L 187.852238 -28.052727 
L 186.658374 -28.052727 
L 185.464509 -28.052727 
L 184.270644 -28.052727 
L 183.076779 -28.052727 
L 181.882914 -28.052727 
L 180.68905 -28.052727 
L 179.495185 -28.052727 
L 178.30132 -28.052727 
L 177.107455 -28.052727 
L 175.91359 -28.052727 
L 174.719726 -28.052727 
L 173.525861 -28.052727 
L 172.331996 -28.052727 
L 171.138131 -28.052727 
L 169.944267 -28.052727 
L 168.750402 -28.052727 
L 167.556537 -28.052727 
L 166.362672 -28.052727 
L 165.168807 -28.052727 
L 163.974943 -28.052727 
L 162.781078 -28.052727 
L 161.587213 -28.052727 
L 160.393348 -28.052727 
L 159.199483 -28.052727 
L 158.005619 -28.052727 
L 156.811754 -28.052727 
L 155.617889 -28.052727 
L 154.424024 -28.052727 
L 153.23016 -28.052727 
L 152.036295 -28.052727 
L 150.84243 -28.052727 
L 149.648565 -28.052727 
L 148.4547 -28.052727 
L 147.260836 -28.052727 
L 146.066971 -28.052727 
L 144.873106 -28.052727 
L 143.679241 -28.052727 
L 142.485376 -28.052727 
L 141.291512 -28.052727 
L 140.097647 -28.052727 
L 138.903782 -28.052727 
L 137.709917 -28.052727 
L 136.516053 -28.052727 
L 135.322188 -28.052727 
L 134.128323 -28.052727 
L 132.934458 -28.052727 
L 131.740593 -28.052727 
L 130.546729 -28.052727 
L 129.352864 -28.052727 
L 128.158999 -28.052727 
L 126.965134 -28.052727 
L 125.77127 -28.052727 
L 124.577405 -28.052727 
L 123.38354 -28.052727 
L 122.189675 -28.052727 
L 120.99581 -28.052727 
L 119.801946 -28.052727 
L 118.608081 -28.052727 
L 117.414216 -28.052727 
L 116.220351 -28.052727 
L 115.026486 -28.052727 
L 113.832622 -28.052727 
L 112.638757 -28.052727 
L 111.444892 -28.052727 
L 110.251027 -28.052727 
L 109.057163 -28.052727 
L 107.863298 -28.052727 
L 106.669433 -28.052727 
L 105.475568 -28.052727 
L 104.281703 -28.052727 
L 103.087839 -28.052727 
L 101.893974 -28.052727 
L 100.700109 -28.052727 
L 99.506244 -28.052727 
L 98.312379 -28.052727 
L 97.118515 -28.052727 
L 95.92465 -28.052727 
L 94.730785 -28.052727 
L 93.53692 -28.052727 
L 92.343056 -28.052727 
L 91.149191 -28.052727 
L 89.955326 -28.052727 
L 88.761461 -28.052727 
L 87.567596 -28.052727 
L 86.373732 -28.052727 
L 85.179867 -28.052727 
L 83.986002 -28.052727 
L 82.792137 -28.052727 
L 81.598272 -28.052727 
L 80.404408 -28.052727 
L 79.210543 -28.052727 
L 78.016678 -28.052727 
L 76.822813 -28.052727 
L 75.628949 -28.052727 
L 74.435084 -28.052727 
L 73.241219 -28.052727 
L 72.047354 -28.052727 
L 70.853489 -28.052727 
L 69.659625 -28.052727 
L 68.46576 -28.052727 
L 67.271895 -28.052727 
L 66.07803 -28.052727 
L 64.884166 -28.052727 
L 63.690301 -28.052727 
L 62.496436 -28.052727 
L 61.302571 -28.052727 
L 60.108706 -28.052727 
L 58.914842 -28.052727 
L 57.720977 -28.052727 
L 56.527112 -28.052727 
L 55.333247 -28.052727 
L 54.139382 -28.052727 
L 52.945518 -28.052727 
L 51.751653 -28.052727 
z
" style="stroke: #3fb950; stroke-opacity: 0.15"/>
    </defs>
    <g clip-path="url(#pe19b865c3f)">
     <use xlink:href="#md925da1885" x="0" y="172.518281" style="fill: #3fb950; fill-opacity: 0.15; stroke: #3fb950; stroke-opacity: 0.15"/>
    </g>
   </g>
   <g id="matplotlib.axis_1">
    <g id="xtick_1">
     <g id="line2d_1">
      <path d="M 51.751653 150.318281 
L 51.751653 21.558281 
" clip-path="url(#pe19b865c3f)" style="fill: none; stroke: #21262d; stroke-opacity: 0.5; stroke-width: 0.5; stroke-linecap: square"/>
     </g>
     <g id="line2d_2">
      <defs>
       <path id="m8ba2c3331a" d="M 0 0 
L 0 3.5 
" style="stroke: #c9d1d9; stroke-width: 0.8"/>
      </defs>
      <g>
       <use xlink:href="#m8ba2c3331a" x="51.751653" y="150.318281" style="fill: #c9d1d9; stroke: #c9d1d9; stroke-width: 0.8"/>
      </g>
     </g>
     <g id="text_1">
      <!-- 0 -->
      <g style="fill: #c9d1d9" transform="translate(49.206653 163.396406) scale(0.08 -0.08)">
       <defs>
        <path id="DejaVuSans-13" d="M 2034 4250 
Q 1547 4250 1301 3770 
Q 1056 3291 1056 2328 
Q 1056 1369 1301 889 
Q 1547 409 2034 409 
Q 2525 409 2770 889 
Q 3016 1369 3016 2328 
Q 3016 3291 2770 3770 
Q 2525 4250 2034 4250 
z
M 2034 4750 
Q 2819 4750 3233 4129 
Q 3647 3509 3647 2328 
Q 3647 1150 3233 529 
Q 2819 -91 2034 -91 
Q 1250 -91 836 529 
Q 422 1150 422 2328 
Q 422 3509 836 4129 
Q 1250 4750 2034 4750 
z
" transform="scale(0.015625)"/>
       </defs>
       <use xlink:href="#DejaVuSans-13"/>
      </g>
     </g>
    </g>
    <g id="xtick_2">
     <g id="line2d_3">
      <path d="M 111.444892 150.318281 
L 111.444892 21.558281 
" clip-path="url(#pe19b865c3f)" style="fill: none; stroke: #21262d; stroke-opacity: 0.5; stroke-width: 0.5; stroke-linecap: square"/>
     </g>
     <g id="line2d_4">
      <g>
       <use xlink:href="#m8ba2c3331a" x="111.444892" y="150.318281" style="fill: #c9d1d9; stroke: #c9d1d9; stroke-width: 0.8"/>
      </g>
     </g>
     <g id="text_2">
      <!-- 50 -->
      <g style="fill: #c9d1d9" transform="translate(106.354892 163.396406) scale(0.08 -0.08)">
       <defs>
        <path id="DejaVuSans-18" d="M 691 4666 
L 3169 4666 
L 3169 4134 
L 1269 4134 
L 1269 2991 
Q 1406 3038 1543 3061 
Q 1681 3084 1819 3084 
Q 2600 3084 3056 2656 
Q 3513 2228 3513 1497 
Q 3513 744 3044 326 
Q 2575 -91 1722 -91 
Q 1428 -91 1123 -41 
Q 819 9 494 109 
L 494 744 
Q 775 591 1075 516 
Q 1375 441 1709 441 
Q 2250 441 2565 725 
Q 2881 1009 2881 1497 
Q 2881 1984 2565 2268 
Q 2250 2553 1709 2553 
Q 1456 2553 1204 2497 
Q 953 2441 691 2322 
L 691 4666 
z
" transform="scale(0.015625)"/>
       </defs>
       <use xlink:href="#DejaVuSans-18"/>
       <use xlink:href="#DejaVuSans-13" transform="translate(63.625 0)"/>
      </g>
     </g>
    </g>
    <g id="xtick_3">
     <g id="line2d_5">
      <path d="M 171.138131 150.318281 
L 171.138131 21.558281 
" clip-path="url(#pe19b865c3f)" style="fill: none; stroke: #21262d; stroke-opacity: 0.5; stroke-width: 0.5; stroke-linecap: square"/>
     </g>
     <g id="line2d_6">
      <g>
       <use xlink:href="#m8ba2c3331a" x="171.138131" y="150.318281" style="fill: #c9d1d9; stroke: #c9d1d9; stroke-width: 0.8"/>
      </g>
     </g>
     <g id="text_3">
      <!-- 100 -->
      <g style="fill: #c9d1d9" transform="translate(163.503131 163.396406) scale(0.08 -0.08)">
       <defs>
        <path id="DejaVuSans-14" d="M 794 531 
L 1825 531 
L 1825 4091 
L 703 3866 
L 703 4441 
L 1819 4666 
L 2450 4666 
L 2450 531 
L 3481 531 
L 3481 0 
L 794 0 
L 794 531 
z
" transform="scale(0.015625)"/>
       </defs>
       <use xlink:href="#DejaVuSans-14"/>
       <use xlink:href="#DejaVuSans-13" transform="translate(63.625 0)"/>
       <use xlink:href="#DejaVuSans-13" transform="translate(127.25 0)"/>
      </g>
     </g>
    </g>
    <g id="xtick_4">
     <g id="line2d_7">
      <path d="M 230.831371 150.318281 
L 230.831371 21.558281 
" clip-path="url(#pe19b865c3f)" style="fill: none; stroke: #21262d; stroke-opacity: 0.5; stroke-width: 0.5; stroke-linecap: square"/>
     </g>
     <g id="line2d_8">
      <g>
       <use xlink:href="#m8ba2c3331a" x="230.831371" y="150.318281" style="fill: #c9d1d9; stroke: #c9d1d9; stroke-width: 0.8"/>
      </g>
     </g>
     <g id="text_4">
      <!-- 150 -->
      <g style="fill: #c9d1d9" transform="translate(223.196371 163.396406) scale(0.08 -0.08)">
       <use xlink:href="#DejaVuSans-14"/>
       <use xlink:href="#DejaVuSans-18" transform="translate(63.625 0)"/>
       <use xlink:href="#DejaVuSans-13" transform="translate(127.25 0)"/>
      </g>
     </g>
    </g>
    <g id="xtick_5">
     <g id="line2d_9">
      <path d="M 290.52461 150.318281 
L 290.52461 21.558281 
" clip-path="url(#pe19b865c3f)" style="fill: none; stroke: #21262d; stroke-opacity: 0.5; stroke-width: 0.5; stroke-linecap: square"/>
     </g>
     <g id="line2d_10">
      <g>
       <use xlink:href="#m8ba2c3331a" x="290.52461" y="150.318281" style="fill: #c9d1d9; stroke: #c9d1d9; stroke-width: 0.8"/>
      </g>
     </g>
     <g id="text_5">
      <!-- 200 -->
      <g style="fill: #c9d1d9" transform="translate(282.88961 163.396406) scale(0.08 -0.08)">
       <defs>
        <path id="DejaVuSans-15" d="M 1228 531 
L 3431 531 
L 3431 0 
L 469 0 
L 469 531 
Q 828 903 1448 1529 
Q 2069 2156 2228 2338 
Q 2531 2678 2651 2914 
Q 2772 3150 2772 3378 
Q 2772 3750 2511 3984 
Q 2250 4219 1831 4219 
Q 1534 4219 1204 4116 
Q 875 4013 500 3803 
L 500 4441 
Q 881 4594 1212 4672 
Q 1544 4750 1819 4750 
Q 2544 4750 2975 4387 
Q 3406 4025 3406 3419 
Q 3406 3131 3298 2873 
Q 3191 2616 2906 2266 
Q 2828 2175 2409 1742 
Q 1991 1309 1228 531 
z
" transform="scale(0.015625)"/>
       </defs>
       <use xlink:href="#DejaVuSans-15"/>
       <use xlink:href="#DejaVuSans-13" transform="translate(63.625 0)"/>
       <use xlink:href="#DejaVuSans-13" transform="translate(127.25 0)"/>
      </g>
     </g>
    </g>
    <g id="xtick_6">
     <g id="line2d_11">
      <path d="M 350.217849 150.318281 
L 350.217849 21.558281 
" clip-path="url(#pe19b865c3f)" style="fill: none; stroke: #21262d; stroke-opacity: 0.5; stroke-width: 0.5; stroke-linecap: square"/>
     </g>
     <g id="line2d_12">
      <g>
       <use xlink:href="#m8ba2c3331a" x="350.217849" y="150.318281" style="fill: #c9d1d9; stroke: #c9d1d9; stroke-width: 0.8"/>
      </g>
     </g>
     <g id="text_6">
      <!-- 250 -->
      <g style="fill: #c9d1d9" transform="translate(342.582849 163.396406) scale(0.08 -0.08)">
       <use xlink:href="#DejaVuSans-15"/>
       <use xlink:href="#DejaVuSans-18" transform="translate(63.625 0)"/>
       <use xlink:href="#DejaVuSans-13" transform="translate(127.25 0)"/>
      </g>
     </g>
    </g>
    <g id="xtick_7">
     <g id="line2d_13">
      <path d="M 409.911088 150.318281 
L 409.911088 21.558281 
" clip-path="url(#pe19b865c3f)" style="fill: none; stroke: #21262d; stroke-opacity: 0.5; stroke-width: 0.5; stroke-linecap: square"/>
     </g>
     <g id="line2d_14">
      <g>
       <use xlink:href="#m8ba2c3331a" x="409.911088" y="150.318281" style="fill: #c9d1d9; stroke: #c9d1d9; stroke-width: 0.8"/>
      </g>
     </g>
     <g id="text_7">
      <!-- 300 -->
      <g style="fill: #c9d1d9" transform="translate(402.276088 163.396406) scale(0.08 -0.08)">
       <defs>
        <path id="DejaVuSans-16" d="M 2597 2516 
Q 3050 2419 3304 2112 
Q 3559 1806 3559 1356 
Q 3559 666 3084 287 
Q 2609 -91 1734 -91 
Q 1441 -91 1130 -33 
Q 819 25 488 141 
L 488 750 
Q 750 597 1062 519 
Q 1375 441 1716 441 
Q 2309 441 2620 675 
Q 2931 909 2931 1356 
Q 2931 1769 2642 2001 
Q 2353 2234 1838 2234 
L 1294 2234 
L 1294 2753 
L 1863 2753 
Q 2328 2753 2575 2939 
Q 2822 3125 2822 3475 
Q 2822 3834 2567 4026 
Q 2313 4219 1838 4219 
Q 1578 4219 1281 4162 
Q 984 4106 628 3988 
L 628 4550 
Q 988 4650 1302 4700 
Q 1616 4750 1894 4750 
Q 2613 4750 3031 4423 
Q 3450 4097 3450 3541 
Q 3450 3153 3228 2886 
Q 3006 2619 2597 2516 
z
" transform="scale(0.015625)"/>
       </defs>
       <use xlink:href="#DejaVuSans-16"/>
       <use xlink:href="#DejaVuSans-13" transform="translate(63.625 0)"/>
       <use xlink:href="#DejaVuSans-13" transform="translate(127.25 0)"/>
      </g>
     </g>
    </g>
   </g>
   <g id="matplotlib.axis_2">
    <g id="ytick_1">
     <g id="line2d_15">
      <path d="M 34.56 144.465554 
L 412.776364 144.465554 
" clip-path="url(#pe19b865c3f)" style="fill: none; stroke: #21262d; stroke-opacity: 0.5; stroke-width: 0.5; stroke-linecap: square"/>
     </g>
     <g id="line2d_16">
      <defs>
       <path id="mf11f679b98" d="M 0 0 
L -3.5 0 
" style="stroke: #c9d1d9; stroke-width: 0.8"/>
      </defs>
      <g>
       <use xlink:href="#mf11f679b98" x="34.56" y="144.465554" style="fill: #c9d1d9; stroke: #c9d1d9; stroke-width: 0.8"/>
      </g>
     </g>
     <g id="text_8">
      <!-- $0 -->
      <g style="fill: #c9d1d9" transform="translate(17.38 147.504929) scale(0.08 -0.08)">
       <defs>
        <path id="DejaVuSans-7" d="M 2163 -941 
L 1850 -941 
L 1847 0 
Q 1519 6 1191 76 
Q 863 147 531 288 
L 531 850 
Q 850 650 1176 548 
Q 1503 447 1850 444 
L 1850 1869 
Q 1159 1981 845 2250 
Q 531 2519 531 2988 
Q 531 3497 872 3790 
Q 1213 4084 1850 4128 
L 1850 4863 
L 2163 4863 
L 2163 4138 
Q 2453 4125 2725 4076 
Q 2997 4028 3256 3944 
L 3256 3397 
Q 2997 3528 2723 3600 
Q 2450 3672 2163 3684 
L 2163 2350 
Q 2872 2241 3206 1959 
Q 3541 1678 3541 1191 
Q 3541 663 3186 358 
Q 2831 53 2163 6 
L 2163 -941 
z
M 1850 2406 
L 1850 3688 
Q 1488 3647 1297 3481 
Q 1106 3316 1106 3041 
Q 1106 2772 1282 2622 
Q 1459 2472 1850 2406 
z
M 2163 1806 
L 2163 453 
Q 2559 506 2761 678 
Q 2963 850 2963 1131 
Q 2963 1406 2770 1568 
Q 2578 1731 2163 1806 
z
" transform="scale(0.015625)"/>
       </defs>
       <use xlink:href="#DejaVuSans-7"/>
       <use xlink:href="#DejaVuSans-13" transform="translate(63.625 0)"/>
      </g>
     </g>
    </g>
    <g id="ytick_2">
     <g id="line2d_17">
      <path d="M 34.56 122.302848 
L 412.776364 122.302848 
" clip-path="url(#pe19b865c3f)" style="fill: none; stroke: #21262d; stroke-opacity: 0.5; stroke-width: 0.5; stroke-linecap: square"/>
     </g>
     <g id="line2d_18">
      <g>
       <use xlink:href="#mf11f679b98" x="34.56" y="122.302848" style="fill: #c9d1d9; stroke: #c9d1d9; stroke-width: 0.8"/>
      </g>
     </g>
     <g id="text_9">
      <!-- $100 -->
      <g style="fill: #c9d1d9" transform="translate(7.2 125.342223) scale(0.08 -0.08)">
       <use xlink:href="#DejaVuSans-7"/>
       <use xlink:href="#DejaVuSans-14" transform="translate(63.625 0)"/>
       <use xlink:href="#DejaVuSans-13" transform="translate(127.25 0)"/>
       <use xlink:href="#DejaVuSans-13" transform="translate(190.875 0)"/>
      </g>
     </g>
    </g>
    <g id="ytick_3">
     <g id="line2d_19">
      <path d="M 34.56 100.140143 
L 412.776364 100.140143 
" clip-path="url(#pe19b865c3f)" style="fill: none; stroke: #21262d; stroke-opacity: 0.5; stroke-width: 0.5; stroke-linecap: square"/>
     </g>
     <g id="line2d_20">
      <g>
       <use xlink:href="#mf11f679b98" x="34.56" y="100.140143" style="fill: #c9d1d9; stroke: #c9d1d9; stroke-width: 0.8"/>
      </g>
     </g>
     <g id="text_10">
      <!-- $200 -->
      <g style="fill: #c9d1d9" transform="translate(7.2 103.179518) scale(0.08 -0.08)">
       <use xlink:href="#DejaVuSans-7"/>
       <use xlink:href="#DejaVuSans-15" transform="translate(63.625 0)"/>
       <use xlink:href="#DejaVuSans-13" transform="translate(127.25 0)"/>
       <use xlink:href="#DejaVuSans-13" transform="translate(190.875 0)"/>
      </g>
     </g>
    </g>
    <g id="ytick_4">
     <g id="line2d_21">
      <path d="M 34.56 77.977437 
L 412.776364 77.977437 
" clip-path="url(#pe19b865c3f)" style="fill: none; stroke: #21262d; stroke-opacity: 0.5; stroke-width: 0.5; stroke-linecap: square"/>
     </g>
     <g id="line2d_22">
      <g>
       <use xlink:href="#mf11f679b98" x="34.56" y="77.977437" style="fill: #c9d1d9; stroke: #c9d1d9; stroke-width: 0.8"/>
      </g>
     </g>
     <g id="text_11">
      <!-- $300 -->
      <g style="fill: #c9d1d9" transform="translate(7.2 81.016812) scale(0.08 -0.08)">
       <use xlink:href="#DejaVuSans-7"/>
       <use xlink:href="#DejaVuSans-16" transform="translate(63.625 0)"/>
       <use xlink:href="#DejaVuSans-13" transform="translate(127.25 0)"/>
       <use xlink:href="#DejaVuSans-13" transform="translate(190.875 0)"/>
      </g>
     </g>
    </g>
    <g id="ytick_5">
     <g id="line2d_23">
      <path d="M 34.56 55.814732 
L 412.776364 55.814732 
" clip-path="url(#pe19b865c3f)" style="fill: none; stroke: #21262d; stroke-opacity: 0.5; stroke-width: 0.5; stroke-linecap: square"/>
     </g>
     <g id="line2d_24">
      <g>
       <use xlink:href="#mf11f679b98" x="34.56" y="55.814732" style="fill: #c9d1d9; stroke: #c9d1d9; stroke-width: 0.8"/>
      </g>
     </g>
     <g id="text_12">
      <!-- $400 -->
      <g style="fill: #c9d1d9" transform="translate(7.2 58.854107) scale(0.08 -0.08)">
       <defs>
        <path id="DejaVuSans-17" d="M 2419 4116 
L 825 1625 
L 2419 1625 
L 2419 4116 
z
M 2253 4666 
L 3047 4666 
L 3047 1625 
L 3713 1625 
L 3713 1100 
L 3047 1100 
L 3047 0 
L 2419 0 
L 2419 1100 
L 313 1100 
L 313 1709 
L 2253 4666 
z
" transform="scale(0.015625)"/>
       </defs>
       <use xlink:href="#DejaVuSans-7"/>
       <use xlink:href="#DejaVuSans-17" transform="translate(63.625 0)"/>
       <use xlink:href="#DejaVuSans-13" transform="translate(127.25 0)"/>
       <use xlink:href="#DejaVuSans-13" transform="translate(190.875 0)"/>
      </g>
     </g>
    </g>
    <g id="ytick_6">
     <g id="line2d_25">
      <path d="M 34.56 33.652026 
L 412.776364 33.652026 
" clip-path="url(#pe19b865c3f)" style="fill: none; stroke: #21262d; stroke-opacity: 0.5; stroke-width: 0.5; stroke-linecap: square"/>
     </g>
     <g id="line2d_26">
      <g>
       <use xlink:href="#mf11f679b98" x="34.56" y="33.652026" style="fill: #c9d1d9; stroke: #c9d1d9; stroke-width: 0.8"/>
      </g>
     </g>
     <g id="text_13">
      <!-- $500 -->
      <g style="fill: #c9d1d9" transform="translate(7.2 36.691401) scale(0.08 -0.08)">
       <use xlink:href="#DejaVuSans-7"/>
       <use xlink:href="#DejaVuSans-18" transform="translate(63.625 0)"/>
       <use xlink:href="#DejaVuSans-13" transform="translate(127.25 0)"/>
       <use xlink:href="#DejaVuSans-13" transform="translate(190.875 0)"/>
      </g>
     </g>
    </g>
   </g>
   <g id="line2d_27">
    <path d="M 51.751653 86.470186 
L 52.945518 92.134974 
L 54.139382 88.679808 
L 55.333247 90.767535 
L 56.527112 92.418656 
L 57.720977 91.350414 
L 58.914842 90.989162 
L 60.108706 91.913347 
L 61.302571 93.888044 
L 62.496436 92.983805 
L 63.690301 86.343859 
L 64.884166 90.678884 
L 66.07803 92.954994 
L 67.271895 88.930246 
L 68.46576 89.566316 
L 69.659625 91.193059 
L 70.853489 90.847321 
L 72.047354 88.983437 
L 73.241219 89.457719 
L 74.435084 88.990086 
L 75.628949 90.559205 
L 76.822813 87.802165 
L 78.016678 88.921381 
L 79.210543 89.182901 
L 80.404408 88.147903 
L 81.598272 91.15095 
L 82.792137 87.722379 
L 83.986002 92.334438 
L 85.179867 85.900605 
L 86.373732 90.337578 
L 87.567596 88.101361 
L 89.955326 88.12574 
L 91.149191 87.498536 
L 92.343056 88.608887 
L 94.730785 87.507401 
L 95.92465 90.242279 
L 97.118515 88.349584 
L 98.312379 88.513588 
L 99.506244 87.443129 
L 100.700109 88.493641 
L 101.893974 85.563732 
L 103.087839 86.760518 
L 104.281703 86.966631 
L 105.475568 85.1781 
L 106.669433 88.748512 
L 107.863298 87.582754 
L 109.057163 86.104502 
L 110.251027 89.404528 
L 111.444892 87.035335 
L 112.638757 87.330099 
L 113.832622 88.247635 
L 115.026486 86.11115 
L 116.220351 86.840303 
L 117.414216 77.540832 
L 118.608081 94.180591 
L 119.801946 81.74953 
L 120.99581 84.539815 
L 122.189675 84.612951 
L 124.577405 82.777879 
L 125.77127 82.864314 
L 126.965134 81.160002 
L 128.158999 79.242928 
L 129.352864 84.745928 
L 130.546729 82.175054 
L 131.740593 78.961462 
L 132.934458 85.475081 
L 134.128323 81.878074 
L 135.322188 79.344876 
L 136.516053 82.248191 
L 137.709917 82.933018 
L 138.903782 79.777049 
L 140.097647 72.824608 
L 141.291512 77.904301 
L 142.485376 75.300183 
L 143.679241 77.884354 
L 144.873106 76.654324 
L 146.066971 76.576754 
L 147.260836 77.848894 
L 148.4547 76.184475 
L 149.648565 75.980578 
L 150.84243 79.240712 
L 152.036295 74.786008 
L 153.23016 78.092683 
L 154.424024 77.241636 
L 155.617889 80.326684 
L 156.811754 76.878167 
L 158.005619 79.845754 
L 159.199483 76.392804 
L 160.393348 81.013728 
L 162.781078 75.676949 
L 163.974943 79.087789 
L 165.168807 76.033768 
L 167.556537 80.271277 
L 168.750402 76.594485 
L 169.944267 77.715918 
L 171.138131 80.105057 
L 172.331996 78.89719 
L 173.525861 79.17644 
L 175.91359 77.115308 
L 177.107455 77.434451 
L 178.30132 78.121495 
L 179.495185 78.677779 
L 180.68905 78.376366 
L 181.882914 74.320591 
L 183.076779 77.024441 
L 184.270644 75.003202 
L 185.464509 63.671411 
L 186.658374 70.395576 
L 187.852238 69.172195 
L 189.046103 70.107461 
L 190.239968 70.080865 
L 191.433833 69.285224 
L 192.627697 52.944662 
L 193.821562 59.307574 
L 195.015427 53.882144 
L 196.209292 52.634384 
L 197.403157 50.49125 
L 198.597021 50.983262 
L 199.790886 27.411009 
L 200.984751 32.962766 
L 202.178616 28.496981 
L 203.37248 50.836988 
L 204.566345 50.289569 
L 205.76021 49.028511 
L 206.954075 87.106256 
L 208.14794 80.953889 
L 209.341804 84.690521 
L 210.535669 81.403792 
L 211.729534 83.458275 
L 212.923399 84.486624 
L 214.117264 82.321328 
L 215.311128 85.22021 
L 216.504993 83.571304 
L 217.698858 84.655061 
L 218.892723 82.095268 
L 220.086587 84.065533 
L 221.280452 82.733554 
L 222.474317 84.380243 
L 223.668182 83.061562 
L 224.862047 82.935235 
L 226.055911 82.121863 
L 227.249776 83.859419 
L 228.443641 80.439714 
L 229.637506 81.598824 
L 230.831371 81.727367 
L 232.025235 80.592637 
L 233.2191 84.072181 
L 234.412965 83.52033 
L 235.60683 81.182165 
L 236.800694 82.773447 
L 237.994559 83.866068 
L 239.188424 81.576661 
L 240.382289 82.192784 
L 241.576154 82.350139 
L 242.770018 84.309322 
L 243.963883 80.887401 
L 245.157748 82.618308 
L 246.351613 80.428633 
L 247.545478 82.117431 
L 248.739342 80.652476 
L 249.933207 81.99332 
L 251.127072 77.305907 
L 252.320937 81.346169 
L 253.514801 79.632992 
L 254.708666 81.953427 
L 255.902531 78.954813 
L 257.096396 79.985379 
L 258.290261 81.368331 
L 259.484125 82.270353 
L 260.67799 77.899868 
L 261.871855 83.513681 
L 263.06572 79.203035 
L 264.259584 81.328439 
L 265.453449 79.471204 
L 266.647314 83.398435 
L 267.841179 80.800966 
L 269.035044 80.291224 
L 270.228908 81.100163 
L 271.422773 80.831994 
L 272.616638 79.34266 
L 273.810503 82.203865 
L 275.004368 78.990273 
L 276.198232 81.483577 
L 277.392097 80.313387 
L 278.585962 80.918428 
L 279.779827 68.793212 
L 280.973691 72.622928 
L 282.167556 72.321515 
L 283.361421 68.531692 
L 284.555286 71.446088 
L 285.749151 73.830795 
L 286.943015 68.748887 
L 288.13688 71.481548 
L 290.52461 71.268786 
L 291.718475 70.860993 
L 292.912339 71.290949 
L 294.106204 70.805586 
L 295.300069 71.024997 
L 296.493934 53.190668 
L 297.687798 57.18882 
L 298.881663 53.020015 
L 300.075528 29.961936 
L 301.269393 42.330942 
L 302.463258 41.182914 
L 303.657122 55.176446 
L 304.850987 58.769021 
L 306.044852 70.883155 
L 307.238717 66.295475 
L 308.432581 70.745747 
L 309.626446 73.398622 
L 310.820311 69.981133 
L 312.014176 80.9827 
L 313.208041 71.813989 
L 314.401905 89.652751 
L 315.59577 77.523102 
L 316.789635 78.83735 
L 317.9835 80.984917 
L 319.177365 77.418937 
L 320.371229 80.920645 
L 321.565094 81.182165 
L 322.758959 80.3289 
L 323.952824 81.481361 
L 326.340553 80.27571 
L 327.534418 77.232771 
L 328.728283 79.781482 
L 329.922148 79.972081 
L 331.116012 80.543879 
L 332.309877 80.561609 
L 333.503742 79.50888 
L 334.697607 82.640471 
L 335.891472 78.219011 
L 337.085336 84.466678 
L 338.279201 78.711023 
L 339.473066 86.195369 
L 340.666931 80.382091 
L 341.860795 85.209128 
L 343.05466 78.903839 
L 344.248525 84.169697 
L 345.44239 78.269985 
L 346.636255 85.173668 
L 347.830119 93.571117 
L 349.023984 85.579245 
L 350.217849 87.489671 
L 351.411714 90.282172 
L 352.605579 83.473788 
L 353.799443 87.285774 
L 354.993308 90.592449 
L 356.187173 90.588017 
L 357.381038 81.842613 
L 358.574902 78.145874 
L 359.768767 90.424013 
L 360.962632 90.27109 
L 362.156497 109.271178 
L 363.350362 87.71573 
L 364.544226 88.347367 
L 365.738091 94.754606 
L 366.931956 86.306182 
L 368.125821 88.85711 
L 369.319685 87.035335 
L 370.51355 88.325205 
L 371.707415 87.966169 
L 372.90128 84.94096 
L 374.095145 87.024254 
L 375.289009 87.334532 
L 376.482874 77.835596 
L 377.676739 90.911592 
L 378.870604 86.05796 
L 380.064469 64.635489 
L 381.258333 67.893406 
L 382.452198 70.342385 
L 383.646063 75.621542 
L 384.839928 52.924715 
L 386.033792 66.893868 
L 387.227657 63.281347 
L 389.615387 42.785277 
L 390.809252 90.202386 
L 392.003116 75.399915 
L 393.196981 80.960538 
L 394.390846 78.943731 
L 395.584711 74.526704 
L 395.584711 74.526704 
" clip-path="url(#pe19b865c3f)" style="fill: none; stroke: #3fb950; stroke-width: 2; stroke-linecap: square"/>
   </g>
   <g id="patch_3">
    <path d="M 34.56 150.318281 
L 34.56 21.558281 
" style="fill: none; stroke: #21262d; stroke-width: 0.8; stroke-linejoin: miter; stroke-linecap: square"/>
   </g>
   <g id="patch_4">
    <path d="M 34.56 150.318281 
L 412.776364 150.318281 
" style="fill: none; stroke: #21262d; stroke-width: 0.8; stroke-linejoin: miter; stroke-linecap: square"/>
   </g>
   <g id="text_14">
    <!-- CAREEROPS (santifer/career-ops) — $315.57 (+6.74%) -->
    <g style="fill: #c9d1d9" transform="translate(55.381932 15.558281) scale(0.11 -0.11)">
     <defs>
      <path id="DejaVuSans-Bold-26" d="M 4288 256 
Q 3956 84 3597 -3 
Q 3238 -91 2847 -91 
Q 1681 -91 1000 561 
Q 319 1213 319 2328 
Q 319 3447 1000 4098 
Q 1681 4750 2847 4750 
Q 3238 4750 3597 4662 
Q 3956 4575 4288 4403 
L 4288 3438 
Q 3953 3666 3628 3772 
Q 3303 3878 2944 3878 
Q 2300 3878 1931 3465 
Q 1563 3053 1563 2328 
Q 1563 1606 1931 1193 
Q 2300 781 2944 781 
Q 3303 781 3628 887 
Q 3953 994 4288 1222 
L 4288 256 
z
" transform="scale(0.015625)"/>
      <path id="DejaVuSans-Bold-24" d="M 3419 850 
L 1538 850 
L 1241 0 
L 31 0 
L 1759 4666 
L 3194 4666 
L 4922 0 
L 3713 0 
L 3419 850 
z
M 1838 1716 
L 3116 1716 
L 2478 3572 
L 1838 1716 
z
" transform="scale(0.015625)"/>
      <path id="DejaVuSans-Bold-35" d="M 2297 2597 
Q 2675 2597 2839 2737 
Q 3003 2878 3003 3200 
Q 3003 3519 2839 3656 
Q 2675 3794 2297 3794 
L 1791 3794 
L 1791 2597 
L 2297 2597 
z
M 1791 1766 
L 1791 0 
L 588 0 
L 588 4666 
L 2425 4666 
Q 3347 4666 3776 4356 
Q 4206 4047 4206 3378 
Q 4206 2916 3982 2619 
Q 3759 2322 3309 2181 
Q 3556 2125 3751 1926 
Q 3947 1728 4147 1325 
L 4800 0 
L 3519 0 
L 2950 1159 
Q 2778 1509 2601 1637 
Q 2425 1766 2131 1766 
L 1791 1766 
z
" transform="scale(0.015625)"/>
      <path id="DejaVuSans-Bold-28" d="M 588 4666 
L 3834 4666 
L 3834 3756 
L 1791 3756 
L 1791 2888 
L 3713 2888 
L 3713 1978 
L 1791 1978 
L 1791 909 
L 3903 909 
L 3903 0 
L 588 0 
L 588 4666 
z
" transform="scale(0.015625)"/>
      <path id="DejaVuSans-Bold-32" d="M 2719 3878 
Q 2169 3878 1866 3472 
Q 1563 3066 1563 2328 
Q 1563 1594 1866 1187 
Q 2169 781 2719 781 
Q 3272 781 3575 1187 
Q 3878 1594 3878 2328 
Q 3878 3066 3575 3472 
Q 3272 3878 2719 3878 
z
M 2719 4750 
Q 3844 4750 4481 4106 
Q 5119 3463 5119 2328 
Q 5119 1197 4481 553 
Q 3844 -91 2719 -91 
Q 1597 -91 958 553 
Q 319 1197 319 2328 
Q 319 3463 958 4106 
Q 1597 4750 2719 4750 
z
" transform="scale(0.015625)"/>
      <path id="DejaVuSans-Bold-33" d="M 588 4666 
L 2584 4666 
Q 3475 4666 3951 4270 
Q 4428 3875 4428 3144 
Q 4428 2409 3951 2014 
Q 3475 1619 2584 1619 
L 1791 1619 
L 1791 0 
L 588 0 
L 588 4666 
z
M 1791 3794 
L 1791 2491 
L 2456 2491 
Q 2806 2491 2997 2661 
Q 3188 2831 3188 3144 
Q 3188 3456 2997 3625 
Q 2806 3794 2456 3794 
L 1791 3794 
z
" transform="scale(0.015625)"/>
      <path id="DejaVuSans-Bold-36" d="M 3834 4519 
L 3834 3531 
Q 3450 3703 3084 3790 
Q 2719 3878 2394 3878 
Q 1963 3878 1756 3759 
Q 1550 3641 1550 3391 
Q 1550 3203 1689 3098 
Q 1828 2994 2194 2919 
L 2706 2816 
Q 3484 2659 3812 2340 
Q 4141 2022 4141 1434 
Q 4141 663 3683 286 
Q 3225 -91 2284 -91 
Q 1841 -91 1394 -6 
Q 947 78 500 244 
L 500 1259 
Q 947 1022 1364 901 
Q 1781 781 2169 781 
Q 2563 781 2772 912 
Q 2981 1044 2981 1288 
Q 2981 1506 2839 1625 
Q 2697 1744 2272 1838 
L 1806 1941 
Q 1106 2091 782 2419 
Q 459 2747 459 3303 
Q 459 4000 909 4375 
Q 1359 4750 2203 4750 
Q 2588 4750 2994 4692 
Q 3400 4634 3834 4519 
z
" transform="scale(0.015625)"/>
      <path id="DejaVuSans-Bold-3" transform="scale(0.015625)"/>
      <path id="DejaVuSans-Bold-b" d="M 2413 -844 
L 1484 -844 
Q 1006 -72 778 623 
Q 550 1319 550 2003 
Q 550 2688 779 3389 
Q 1009 4091 1484 4856 
L 2413 4856 
Q 2013 4116 1813 3408 
Q 1613 2700 1613 2009 
Q 1613 1319 1811 609 
Q 2009 -100 2413 -844 
z
" transform="scale(0.015625)"/>
      <path id="DejaVuSans-Bold-56" d="M 3272 3391 
L 3272 2541 
Q 2913 2691 2578 2766 
Q 2244 2841 1947 2841 
Q 1628 2841 1473 2761 
Q 1319 2681 1319 2516 
Q 1319 2381 1436 2309 
Q 1553 2238 1856 2203 
L 2053 2175 
Q 2913 2066 3209 1816 
Q 3506 1566 3506 1031 
Q 3506 472 3093 190 
Q 2681 -91 1863 -91 
Q 1516 -91 1145 -36 
Q 775 19 384 128 
L 384 978 
Q 719 816 1070 734 
Q 1422 653 1784 653 
Q 2113 653 2278 743 
Q 2444 834 2444 1013 
Q 2444 1163 2330 1236 
Q 2216 1309 1875 1350 
L 1678 1375 
Q 931 1469 631 1722 
Q 331 1975 331 2491 
Q 331 3047 712 3315 
Q 1094 3584 1881 3584 
Q 2191 3584 2531 3537 
Q 2872 3491 3272 3391 
z
" transform="scale(0.015625)"/>
      <path id="DejaVuSans-Bold-44" d="M 2106 1575 
Q 1756 1575 1579 1456 
Q 1403 1338 1403 1106 
Q 1403 894 1545 773 
Q 1688 653 1941 653 
Q 2256 653 2472 879 
Q 2688 1106 2688 1447 
L 2688 1575 
L 2106 1575 
z
M 3816 1997 
L 3816 0 
L 2688 0 
L 2688 519 
Q 2463 200 2181 54 
Q 1900 -91 1497 -91 
Q 953 -91 614 226 
Q 275 544 275 1050 
Q 275 1666 698 1953 
Q 1122 2241 2028 2241 
L 2688 2241 
L 2688 2328 
Q 2688 2594 2478 2717 
Q 2269 2841 1825 2841 
Q 1466 2841 1156 2769 
Q 847 2697 581 2553 
L 581 3406 
Q 941 3494 1303 3539 
Q 1666 3584 2028 3584 
Q 2975 3584 3395 3211 
Q 3816 2838 3816 1997 
z
" transform="scale(0.015625)"/>
      <path id="DejaVuSans-Bold-51" d="M 4056 2131 
L 4056 0 
L 2931 0 
L 2931 347 
L 2931 1631 
Q 2931 2084 2911 2256 
Q 2891 2428 2841 2509 
Q 2775 2619 2662 2680 
Q 2550 2741 2406 2741 
Q 2056 2741 1856 2470 
Q 1656 2200 1656 1722 
L 1656 0 
L 538 0 
L 538 3500 
L 1656 3500 
L 1656 2988 
Q 1909 3294 2193 3439 
Q 2478 3584 2822 3584 
Q 3428 3584 3742 3212 
Q 4056 2841 4056 2131 
z
" transform="scale(0.015625)"/>
      <path id="DejaVuSans-Bold-57" d="M 1759 4494 
L 1759 3500 
L 2913 3500 
L 2913 2700 
L 1759 2700 
L 1759 1216 
Q 1759 972 1856 886 
Q 1953 800 2241 800 
L 2816 800 
L 2816 0 
L 1856 0 
Q 1194 0 917 276 
Q 641 553 641 1216 
L 641 2700 
L 84 2700 
L 84 3500 
L 641 3500 
L 641 4494 
L 1759 4494 
z
" transform="scale(0.015625)"/>
      <path id="DejaVuSans-Bold-4c" d="M 538 3500 
L 1656 3500 
L 1656 0 
L 538 0 
L 538 3500 
z
M 538 4863 
L 1656 4863 
L 1656 3950 
L 538 3950 
L 538 4863 
z
" transform="scale(0.015625)"/>
      <path id="DejaVuSans-Bold-49" d="M 2841 4863 
L 2841 4128 
L 2222 4128 
Q 1984 4128 1890 4042 
Q 1797 3956 1797 3744 
L 1797 3500 
L 2753 3500 
L 2753 2700 
L 1797 2700 
L 1797 0 
L 678 0 
L 678 2700 
L 122 2700 
L 122 3500 
L 678 3500 
L 678 3744 
Q 678 4316 997 4589 
Q 1316 4863 1984 4863 
L 2841 4863 
z
" transform="scale(0.015625)"/>
      <path id="DejaVuSans-Bold-48" d="M 4031 1759 
L 4031 1441 
L 1416 1441 
Q 1456 1047 1700 850 
Q 1944 653 2381 653 
Q 2734 653 3104 758 
Q 3475 863 3866 1075 
L 3866 213 
Q 3469 63 3072 -14 
Q 2675 -91 2278 -91 
Q 1328 -91 801 392 
Q 275 875 275 1747 
Q 275 2603 792 3093 
Q 1309 3584 2216 3584 
Q 3041 3584 3536 3087 
Q 4031 2591 4031 1759 
z
M 2881 2131 
Q 2881 2450 2695 2645 
Q 2509 2841 2209 2841 
Q 1884 2841 1681 2658 
Q 1478 2475 1428 2131 
L 2881 2131 
z
" transform="scale(0.015625)"/>
      <path id="DejaVuSans-Bold-55" d="M 3138 2547 
Q 2991 2616 2845 2648 
Q 2700 2681 2553 2681 
Q 2122 2681 1889 2404 
Q 1656 2128 1656 1613 
L 1656 0 
L 538 0 
L 538 3500 
L 1656 3500 
L 1656 2925 
Q 1872 3269 2151 3426 
Q 2431 3584 2822 3584 
Q 2878 3584 2943 3579 
Q 3009 3575 3134 3559 
L 3138 2547 
z
" transform="scale(0.015625)"/>
      <path id="DejaVuSans-Bold-12" d="M 1644 4666 
L 2338 4666 
L 691 -594 
L 0 -594 
L 1644 4666 
z
" transform="scale(0.015625)"/>
      <path id="DejaVuSans-Bold-46" d="M 3366 3391 
L 3366 2478 
Q 3138 2634 2908 2709 
Q 2678 2784 2431 2784 
Q 1963 2784 1702 2511 
Q 1441 2238 1441 1747 
Q 1441 1256 1702 982 
Q 1963 709 2431 709 
Q 2694 709 2930 787 
Q 3166 866 3366 1019 
L 3366 103 
Q 3103 6 2833 -42 
Q 2563 -91 2291 -91 
Q 1344 -91 809 395 
Q 275 881 275 1747 
Q 275 2613 809 3098 
Q 1344 3584 2291 3584 
Q 2566 3584 2833 3536 
Q 3100 3488 3366 3391 
z
" transform="scale(0.015625)"/>
      <path id="DejaVuSans-Bold-10" d="M 347 2297 
L 2309 2297 
L 2309 1388 
L 347 1388 
L 347 2297 
z
" transform="scale(0.015625)"/>
      <path id="DejaVuSans-Bold-52" d="M 2203 2784 
Q 1831 2784 1636 2517 
Q 1441 2250 1441 1747 
Q 1441 1244 1636 976 
Q 1831 709 2203 709 
Q 2569 709 2762 976 
Q 2956 1244 2956 1747 
Q 2956 2250 2762 2517 
Q 2569 2784 2203 2784 
z
M 2203 3584 
Q 3106 3584 3614 3096 
Q 4122 2609 4122 1747 
Q 4122 884 3614 396 
Q 3106 -91 2203 -91 
Q 1297 -91 786 396 
Q 275 884 275 1747 
Q 275 2609 786 3096 
Q 1297 3584 2203 3584 
z
" transform="scale(0.015625)"/>
      <path id="DejaVuSans-Bold-53" d="M 1656 506 
L 1656 -1331 
L 538 -1331 
L 538 3500 
L 1656 3500 
L 1656 2988 
Q 1888 3294 2169 3439 
Q 2450 3584 2816 3584 
Q 3463 3584 3878 3070 
Q 4294 2556 4294 1747 
Q 4294 938 3878 423 
Q 3463 -91 2816 -91 
Q 2450 -91 2169 54 
Q 1888 200 1656 506 
z
M 2400 2772 
Q 2041 2772 1848 2508 
Q 1656 2244 1656 1747 
Q 1656 1250 1848 986 
Q 2041 722 2400 722 
Q 2759 722 2948 984 
Q 3138 1247 3138 1747 
Q 3138 2247 2948 2509 
Q 2759 2772 2400 2772 
z
" transform="scale(0.015625)"/>
      <path id="DejaVuSans-Bold-c" d="M 513 -844 
Q 913 -100 1113 609 
Q 1313 1319 1313 2009 
Q 1313 2700 1113 3408 
Q 913 4116 513 4856 
L 1441 4856 
Q 1916 4091 2145 3389 
Q 2375 2688 2375 2003 
Q 2375 1319 2147 623 
Q 1919 -72 1441 -844 
L 513 -844 
z
" transform="scale(0.015625)"/>
      <path id="DejaVuSans-Bold-af6" d="M 344 2156 
L 6056 2156 
L 6056 1350 
L 344 1350 
L 344 2156 
z
" transform="scale(0.015625)"/>
      <path id="DejaVuSans-Bold-7" d="M 2484 -941 
L 1978 -941 
L 1975 0 
Q 1584 16 1218 87 
Q 853 159 506 288 
L 506 1106 
Q 866 922 1233 823 
Q 1600 725 1978 713 
L 1978 1684 
L 1875 1703 
Q 1128 1834 814 2115 
Q 500 2397 500 2925 
Q 500 3484 883 3798 
Q 1266 4113 1975 4141 
L 1978 4863 
L 2484 4863 
L 2484 4153 
Q 2797 4128 3109 4075 
Q 3422 4022 3738 3938 
L 3738 3144 
Q 3425 3275 3112 3348 
Q 2800 3422 2484 3438 
L 2484 2541 
L 2584 2522 
Q 3378 2397 3698 2105 
Q 4019 1813 4019 1241 
Q 4019 666 3637 358 
Q 3256 50 2484 6 
L 2484 -941 
z
M 1978 2613 
L 1978 3428 
Q 1756 3416 1623 3308 
Q 1491 3200 1491 3034 
Q 1491 2850 1612 2745 
Q 1734 2641 1978 2613 
z
M 2484 1594 
L 2484 725 
Q 2756 728 2892 831 
Q 3028 934 3028 1141 
Q 3028 1353 2903 1458 
Q 2778 1563 2484 1594 
z
" transform="scale(0.015625)"/>
      <path id="DejaVuSans-Bold-16" d="M 2981 2516 
Q 3453 2394 3698 2092 
Q 3944 1791 3944 1325 
Q 3944 631 3412 270 
Q 2881 -91 1863 -91 
Q 1503 -91 1142 -33 
Q 781 25 428 141 
L 428 1069 
Q 766 900 1098 814 
Q 1431 728 1753 728 
Q 2231 728 2486 893 
Q 2741 1059 2741 1369 
Q 2741 1688 2480 1852 
Q 2219 2016 1709 2016 
L 1228 2016 
L 1228 2791 
L 1734 2791 
Q 2188 2791 2409 2933 
Q 2631 3075 2631 3366 
Q 2631 3634 2415 3781 
Q 2200 3928 1806 3928 
Q 1516 3928 1219 3862 
Q 922 3797 628 3669 
L 628 4550 
Q 984 4650 1334 4700 
Q 1684 4750 2022 4750 
Q 2931 4750 3382 4451 
Q 3834 4153 3834 3553 
Q 3834 3144 3618 2883 
Q 3403 2622 2981 2516 
z
" transform="scale(0.015625)"/>
      <path id="DejaVuSans-Bold-14" d="M 750 831 
L 1813 831 
L 1813 3847 
L 722 3622 
L 722 4441 
L 1806 4666 
L 2950 4666 
L 2950 831 
L 4013 831 
L 4013 0 
L 750 0 
L 750 831 
z
" transform="scale(0.015625)"/>
      <path id="DejaVuSans-Bold-18" d="M 678 4666 
L 3669 4666 
L 3669 3781 
L 1638 3781 
L 1638 3059 
Q 1775 3097 1914 3117 
Q 2053 3138 2203 3138 
Q 3056 3138 3531 2711 
Q 4006 2284 4006 1522 
Q 4006 766 3489 337 
Q 2972 -91 2053 -91 
Q 1656 -91 1267 -14 
Q 878 63 494 219 
L 494 1166 
Q 875 947 1217 837 
Q 1559 728 1863 728 
Q 2300 728 2551 942 
Q 2803 1156 2803 1522 
Q 2803 1891 2551 2103 
Q 2300 2316 1863 2316 
Q 1603 2316 1309 2248 
Q 1016 2181 678 2041 
L 678 4666 
z
" transform="scale(0.015625)"/>
      <path id="DejaVuSans-Bold-11" d="M 653 1209 
L 1778 1209 
L 1778 0 
L 653 0 
L 653 1209 
z
" transform="scale(0.015625)"/>
      <path id="DejaVuSans-Bold-1a" d="M 428 4666 
L 3944 4666 
L 3944 3988 
L 2125 0 
L 953 0 
L 2675 3781 
L 428 3781 
L 428 4666 
z
" transform="scale(0.015625)"/>
      <path id="DejaVuSans-Bold-e" d="M 3053 4013 
L 3053 2375 
L 4684 2375 
L 4684 1638 
L 3053 1638 
L 3053 0 
L 2309 0 
L 2309 1638 
L 678 1638 
L 678 2375 
L 2309 2375 
L 2309 4013 
L 3053 4013 
z
" transform="scale(0.015625)"/>
      <path id="DejaVuSans-Bold-19" d="M 2316 2303 
Q 2000 2303 1842 2098 
Q 1684 1894 1684 1484 
Q 1684 1075 1842 870 
Q 2000 666 2316 666 
Q 2634 666 2792 870 
Q 2950 1075 2950 1484 
Q 2950 1894 2792 2098 
Q 2634 2303 2316 2303 
z
M 3803 4544 
L 3803 3681 
Q 3506 3822 3243 3889 
Q 2981 3956 2731 3956 
Q 2194 3956 1894 3657 
Q 1594 3359 1544 2772 
Q 1750 2925 1990 3001 
Q 2231 3078 2516 3078 
Q 3231 3078 3670 2659 
Q 4109 2241 4109 1563 
Q 4109 813 3618 361 
Q 3128 -91 2303 -91 
Q 1394 -91 895 523 
Q 397 1138 397 2266 
Q 397 3422 980 4083 
Q 1563 4744 2578 4744 
Q 2900 4744 3203 4694 
Q 3506 4644 3803 4544 
z
" transform="scale(0.015625)"/>
      <path id="DejaVuSans-Bold-17" d="M 2356 3675 
L 1038 1722 
L 2356 1722 
L 2356 3675 
z
M 2156 4666 
L 3494 4666 
L 3494 1722 
L 4159 1722 
L 4159 850 
L 3494 850 
L 3494 0 
L 2356 0 
L 2356 850 
L 288 850 
L 288 1881 
L 2156 4666 
z
" transform="scale(0.015625)"/>
      <path id="DejaVuSans-Bold-8" d="M 4959 1925 
Q 4738 1925 4616 1733 
Q 4494 1541 4494 1184 
Q 4494 825 4614 633 
Q 4734 441 4959 441 
Q 5184 441 5303 633 
Q 5422 825 5422 1184 
Q 5422 1541 5301 1733 
Q 5181 1925 4959 1925 
z
M 4959 2450 
Q 5541 2450 5875 2112 
Q 6209 1775 6209 1184 
Q 6209 594 5875 251 
Q 5541 -91 4959 -91 
Q 4378 -91 4042 251 
Q 3706 594 3706 1184 
Q 3706 1772 4042 2111 
Q 4378 2450 4959 2450 
z
M 2094 -91 
L 1403 -91 
L 4319 4750 
L 5013 4750 
L 2094 -91 
z
M 1453 4750 
Q 2034 4750 2367 4411 
Q 2700 4072 2700 3481 
Q 2700 2891 2367 2550 
Q 2034 2209 1453 2209 
Q 872 2209 539 2550 
Q 206 2891 206 3481 
Q 206 4072 539 4411 
Q 872 4750 1453 4750 
z
M 1453 4225 
Q 1228 4225 1106 4031 
Q 984 3838 984 3481 
Q 984 3122 1106 2926 
Q 1228 2731 1453 2731 
Q 1678 2731 1798 2926 
Q 1919 3122 1919 3481 
Q 1919 3838 1797 4031 
Q 1675 4225 1453 4225 
z
" transform="scale(0.015625)"/>
     </defs>
     <use xlink:href="#DejaVuSans-Bold-26"/>
     <use xlink:href="#DejaVuSans-Bold-24" transform="translate(73.390625 0)"/>
     <use xlink:href="#DejaVuSans-Bold-35" transform="translate(150.78125 0)"/>
     <use xlink:href="#DejaVuSans-Bold-28" transform="translate(227.78125 0)"/>
     <use xlink:href="#DejaVuSans-Bold-28" transform="translate(296.09375 0)"/>
     <use xlink:href="#DejaVuSans-Bold-35" transform="translate(364.40625 0)"/>
     <use xlink:href="#DejaVuSans-Bold-32" transform="translate(441.40625 0)"/>
     <use xlink:href="#DejaVuSans-Bold-33" transform="translate(526.421875 0)"/>
     <use xlink:href="#DejaVuSans-Bold-36" transform="translate(599.71875 0)"/>
     <use xlink:href="#DejaVuSans-Bold-3" transform="translate(671.734375 0)"/>
     <use xlink:href="#DejaVuSans-Bold-b" transform="translate(706.546875 0)"/>
     <use xlink:href="#DejaVuSans-Bold-56" transform="translate(752.25 0)"/>
     <use xlink:href="#DejaVuSans-Bold-44" transform="translate(811.765625 0)"/>
     <use xlink:href="#DejaVuSans-Bold-51" transform="translate(879.25 0)"/>
     <use xlink:href="#DejaVuSans-Bold-57" transform="translate(950.4375 0)"/>
     <use xlink:href="#DejaVuSans-Bold-4c" transform="translate(998.234375 0)"/>
     <use xlink:href="#DejaVuSans-Bold-49" transform="translate(1032.515625 0)"/>
     <use xlink:href="#DejaVuSans-Bold-48" transform="translate(1076.015625 0)"/>
     <use xlink:href="#DejaVuSans-Bold-55" transform="translate(1143.84375 0)"/>
     <use xlink:href="#DejaVuSans-Bold-12" transform="translate(1193.15625 0)"/>
     <use xlink:href="#DejaVuSans-Bold-46" transform="translate(1229.6875 0)"/>
     <use xlink:href="#DejaVuSans-Bold-44" transform="translate(1288.96875 0)"/>
     <use xlink:href="#DejaVuSans-Bold-55" transform="translate(1356.453125 0)"/>
     <use xlink:href="#DejaVuSans-Bold-48" transform="translate(1405.765625 0)"/>
     <use xlink:href="#DejaVuSans-Bold-48" transform="translate(1473.59375 0)"/>
     <use xlink:href="#DejaVuSans-Bold-55" transform="translate(1541.421875 0)"/>
     <use xlink:href="#DejaVuSans-Bold-10" transform="translate(1590.734375 0)"/>
     <use xlink:href="#DejaVuSans-Bold-52" transform="translate(1632.234375 0)"/>
     <use xlink:href="#DejaVuSans-Bold-53" transform="translate(1700.9375 0)"/>
     <use xlink:href="#DejaVuSans-Bold-56" transform="translate(1772.515625 0)"/>
     <use xlink:href="#DejaVuSans-Bold-c" transform="translate(1832.03125 0)"/>
     <use xlink:href="#DejaVuSans-Bold-3" transform="translate(1877.734375 0)"/>
     <use xlink:href="#DejaVuSans-Bold-af6" transform="translate(1912.546875 0)"/>
     <use xlink:href="#DejaVuSans-Bold-3" transform="translate(2012.546875 0)"/>
     <use xlink:href="#DejaVuSans-Bold-7" transform="translate(2047.359375 0)"/>
     <use xlink:href="#DejaVuSans-Bold-16" transform="translate(2116.9375 0)"/>
     <use xlink:href="#DejaVuSans-Bold-14" transform="translate(2186.515625 0)"/>
     <use xlink:href="#DejaVuSans-Bold-18" transform="translate(2256.09375 0)"/>
     <use xlink:href="#DejaVuSans-Bold-11" transform="translate(2325.671875 0)"/>
     <use xlink:href="#DejaVuSans-Bold-18" transform="translate(2363.65625 0)"/>
     <use xlink:href="#DejaVuSans-Bold-1a" transform="translate(2433.234375 0)"/>
     <use xlink:href="#DejaVuSans-Bold-3" transform="translate(2502.8125 0)"/>
     <use xlink:href="#DejaVuSans-Bold-b" transform="translate(2537.625 0)"/>
     <use xlink:href="#DejaVuSans-Bold-e" transform="translate(2583.328125 0)"/>
     <use xlink:href="#DejaVuSans-Bold-19" transform="translate(2667.125 0)"/>
     <use xlink:href="#DejaVuSans-Bold-11" transform="translate(2736.703125 0)"/>
     <use xlink:href="#DejaVuSans-Bold-1a" transform="translate(2774.6875 0)"/>
     <use xlink:href="#DejaVuSans-Bold-17" transform="translate(2844.265625 0)"/>
     <use xlink:href="#DejaVuSans-Bold-8" transform="translate(2913.84375 0)"/>
     <use xlink:href="#DejaVuSans-Bold-c" transform="translate(3014.046875 0)"/>
    </g>
   </g>
  </g>
 </g>
 <defs>
  <clipPath id="pe19b865c3f">
   <rect x="34.56" y="21.558281" width="378.216364" height="128.76"/>
  </clipPath>
 </defs>
</svg>
