<?xml version="1.0" encoding="utf-8" standalone="no"?>
<!DOCTYPE svg PUBLIC "-//W3C//DTD SVG 1.1//EN"
  "http://www.w3.org/Graphics/SVG/1.1/DTD/svg11.dtd">
<svg xmlns:xlink="http://www.w3.org/1999/xlink" width="425pt" height="172.518281pt" viewBox="0 0 425 172.518281" xmlns="http://www.w3.org/2000/svg" version="1.1">
 <metadata>
  <rdf:RDF xmlns:dc="http://purl.org/dc/elements/1.1/" xmlns:cc="http://creativecommons.org/ns#" xmlns:rdf="http://www.w3.org/1999/02/22-rdf-syntax-ns#">
   <cc:Work>
    <dc:type rdf:resource="http://purl.org/dc/dcmitype/StillImage"/>
    <dc:date>2026-08-31T10:49:57.113773</dc:date>
    <dc:format>image/svg+xml</dc:format>
    <dc:creator>
     <cc:Agent>
      <dc:title>Matplotlib v3.11.1, https://matplotlib.org/</dc:title>
     </cc:Agent>
    </dc:creator>
   </cc:Work>
  </rdf:RDF>
 </metadata>
 <defs>
  <style type="text/css">*{stroke-linejoin: round; stroke-linecap: butt}</style>
 </defs>
 <g id="figure_1">
  <g id="patch_1">
   <path d="M 0 172.518281 
L 425 172.518281 
L 425 0 
L 0 0 
z
" style="fill: #0d1117"/>
  </g>
  <g id="axes_1">
   <g id="patch_2">
    <path d="M 34.56 150.318281 
L 417.8 150.318281 
L 417.8 21.558281 
L 34.56 21.558281 
z
" style="fill: #0d1117"/>
   </g>
   <g id="FillBetweenPolyCollection_1">
    <defs>
     <path id="m51b9b5c742" d="M 51.98 -28.052727 
L 51.98 -117.170264 
L 52.995743 -144.539124 
L 54.011487 -136.932749 
L 55.02723 -123.624433 
L 56.042974 -78.827043 
L 57.058717 -83.360869 
L 58.074461 -81.726874 
L 59.090204 -83.101794 
L 60.105948 -82.247298 
L 61.121691 -80.249687 
L 62.137434 -82.385926 
L 63.153178 -81.976859 
L 64.168921 -80.551942 
L 65.184665 -84.719881 
L 66.200408 -80.815563 
L 67.216152 -83.581311 
L 68.231895 -83.290419 
L 69.247638 -83.683578 
L 70.263382 -80.358771 
L 71.279125 -87.167466 
L 72.294869 -82.422288 
L 73.310612 -73.031926 
L 74.326356 -89.444606 
L 75.342099 -84.956231 
L 76.357843 -87.590168 
L 77.373586 -89.119625 
L 78.389329 -78.797499 
L 79.405073 -95.446529 
L 80.420816 -78.399795 
L 81.43656 -98.884965 
L 82.452303 -93.830714 
L 83.468047 -102.652927 
L 84.48379 -104.852799 
L 85.499534 -103.130172 
L 86.515277 -106.450433 
L 87.53102 -109.061645 
L 88.546764 -104.230108 
L 89.562507 -112.031927 
L 90.578251 -102.123413 
L 91.593994 -103.309707 
L 92.609738 -114.722679 
L 93.625481 -109.332084 
L 94.641224 -113.511386 
L 95.656968 -119.958738 
L 96.672711 -114.402243 
L 97.688455 -113.084138 
L 98.704198 -103.752863 
L 99.719942 -109.77524 
L 100.735685 -103.805133 
L 101.751429 -106.29817 
L 102.767172 -101.468905 
L 103.782915 -107.977617 
L 104.798659 -103.971032 
L 105.814402 -107.125394 
L 106.830146 -101.896153 
L 107.845889 -105.366406 
L 108.861633 -102.346127 
L 109.877376 -112.925056 
L 110.89312 -77.245316 
L 111.908863 -111.331967 
L 112.924606 -101.114381 
L 113.94035 -107.420832 
L 114.956093 -103.611962 
L 115.971837 -107.145848 
L 116.98758 -102.368853 
L 118.003324 -108.398047 
L 119.019067 -102.675653 
L 120.03481 -106.7186 
L 121.050554 -103.914218 
L 122.066297 -104.966429 
L 123.082041 -108.795751 
L 124.097784 -101.39391 
L 125.113528 -107.120849 
L 126.129271 -78.836133 
L 127.145015 -107.45492 
L 128.160758 -103.814223 
L 129.176501 -106.42089 
L 130.192245 -101.602989 
L 131.207988 -105.570939 
L 132.223732 -106.823139 
L 133.239475 -103.546057 
L 134.255219 -109.023011 
L 135.270962 -102.659745 
L 136.286706 -121.408653 
L 137.302449 -117.783864 
L 138.318192 -141.764286 
L 139.333936 -140.407546 
L 140.349679 -134.285176 
L 141.365423 -79.679266 
L 142.381166 -83.54495 
L 143.39691 -79.440643 
L 144.412653 -81.256446 
L 145.428397 -81.081457 
L 146.44414 -84.838056 
L 147.459883 -80.674662 
L 148.475627 -83.290419 
L 149.49137 -96.239665 
L 150.507114 -100.530324 
L 151.522857 -98.95087 
L 152.538601 -107.639001 
L 153.554344 -108.518495 
L 154.570087 -110.550195 
L 155.585831 -107.863988 
L 156.601574 -107.527643 
L 157.617318 -75.66359 
L 158.633061 -107.884441 
L 159.648805 -97.673672 
L 160.664548 -103.596054 
L 161.680292 -100.496235 
L 162.696035 -102.812009 
L 163.711778 -78.897493 
L 164.727522 -102.95291 
L 165.743265 -100.391695 
L 166.759009 -77.036238 
L 167.774752 -105.984552 
L 168.790496 -94.935195 
L 169.806239 -96.816904 
L 170.821983 -77.963456 
L 171.837726 -99.5372 
L 172.853469 -95.29881 
L 173.869213 -99.528109 
L 174.884956 -99.621286 
L 175.9007 -99.007685 
L 176.916443 -101.168923 
L 177.932187 -98.060013 
L 178.94793 -100.146255 
L 179.963673 -100.305337 
L 180.979417 -100.689405 
L 181.99516 -101.562082 
L 183.010904 -81.372349 
L 184.026647 -102.52339 
L 185.042391 -95.966953 
L 186.058134 -102.187045 
L 187.073878 -101.600716 
L 188.089621 -100.548505 
L 189.105364 -106.082273 
L 190.121108 -102.464302 
L 191.136851 -102.727923 
L 192.152595 -103.277891 
L 193.168338 -80.770111 
L 194.184082 -106.925406 
L 195.199825 -100.834852 
L 196.215569 -106.577699 
L 197.231312 -99.496293 
L 198.247055 -103.60969 
L 199.262799 -99.007685 
L 200.278542 -105.411858 
L 201.294286 -100.307609 
L 202.310029 -104.982337 
L 203.325773 -99.241762 
L 204.341516 -102.902913 
L 205.357259 -102.909731 
L 206.373003 -104.927795 
L 207.388746 -102.155229 
L 208.40449 -102.22568 
L 209.420233 -102.682471 
L 210.435977 -102.607476 
L 211.45172 -99.66901 
L 212.467464 -104.411916 
L 213.483207 -105.693659 
L 214.49895 -88.378759 
L 215.514694 -105.743656 
L 216.530437 -101.627987 
L 217.546181 -105.357315 
L 218.561924 -101.21892 
L 219.577668 -106.114089 
L 220.593411 -119.929194 
L 221.609155 -116.188503 
L 222.624898 -118.890618 
L 223.640641 -120.808688 
L 224.656385 -82.442741 
L 225.672128 -83.731302 
L 226.687872 -82.992709 
L 227.703615 -85.281212 
L 228.719359 -83.269966 
L 229.735102 -78.706595 
L 230.750845 -93.964797 
L 231.766589 -90.26274 
L 232.782332 -81.117818 
L 233.798076 -97.603222 
L 234.813819 -79.154296 
L 235.829563 -102.630201 
L 236.845306 -99.937177 
L 237.86105 -97.553224 
L 238.876793 -99.65992 
L 239.892536 -98.769063 
L 240.90828 -137.896329 
L 241.924023 -124.231216 
L 242.939767 -134.339718 
L 243.95551 -129.099114 
L 244.971254 -118.824713 
L 245.986997 -124.669827 
L 247.002741 -116.518029 
L 248.018484 -120.672332 
L 249.034227 -132.05576 
L 250.049971 -123.156279 
L 251.065714 -80.676935 
L 252.081458 -128.515057 
L 253.097201 -118.774716 
L 254.112945 -118.004306 
L 255.128688 -124.008502 
L 256.144431 -117.21117 
L 257.160175 -121.717726 
L 258.175918 -122.606311 
L 259.191662 -118.506549 
L 260.207405 -120.513251 
L 261.223149 -121.34502 
L 262.238892 -120.817778 
L 263.254636 -120.306445 
L 264.270379 -121.415471 
L 265.286122 -116.306678 
L 266.301866 -123.435808 
L 267.317609 -114.793129 
L 268.333353 -116.088508 
L 269.349096 -118.590635 
L 270.36484 -117.522516 
L 271.380583 -119.640574 
L 272.396327 -118.888345 
L 273.41207 -119.156512 
L 274.427813 -119.504219 
L 275.443557 -120.545067 
L 276.4593 -119.929194 
L 277.475044 -117.513425 
L 278.490787 -120.874593 
L 279.506531 -119.381498 
L 280.522274 -115.715803 
L 281.538017 -120.899592 
L 282.553761 -115.422638 
L 283.569504 -117.388433 
L 284.585248 -118.749717 
L 285.600991 -119.599668 
L 286.616735 -118.39292 
L 287.632478 -116.206683 
L 288.648222 -119.183783 
L 289.663965 -116.229409 
L 290.679708 -118.233838 
L 291.695452 -116.249863 
L 292.711195 -118.029305 
L 293.726939 -118.847439 
L 294.742682 -119.283777 
L 295.758426 -119.288322 
L 296.774169 -116.872554 
L 297.789913 -116.874826 
L 298.805656 -115.781708 
L 299.821399 -117.765683 
L 300.837143 -80.149693 
L 301.852886 -121.417744 
L 302.86863 -117.974762 
L 303.884373 -115.411275 
L 304.900117 -119.186055 
L 305.91586 -140.49845 
L 306.931603 -136.273696 
L 307.947347 -79.965613 
L 308.96309 -145.107273 
L 309.978834 -133.821566 
L 310.994577 -82.258661 
L 312.010321 -89.103717 
L 313.026064 -85.197126 
L 314.041808 -88.210587 
L 315.057551 -92.589877 
L 316.073294 -90.803618 
L 317.089038 -91.989912 
L 318.104781 -92.928494 
L 319.120525 -102.068871 
L 320.136268 -78.840678 
L 321.152012 -105.264139 
L 322.167755 -103.300617 
L 323.183499 -104.836891 
L 324.199242 -102.984726 
L 325.214985 -106.77996 
L 326.230729 -106.370893 
L 327.246472 -80.872378 
L 328.262216 -112.70916 
L 329.277959 -110.929718 
L 330.293703 -111.918297 
L 331.309446 -118.924707 
L 332.32519 -112.947782 
L 333.340933 -116.136233 
L 334.356676 -112.347817 
L 335.37242 -118.017942 
L 336.388163 -80.486037 
L 337.403907 -123.363085 
L 338.41965 -119.445131 
L 339.435394 -117.031635 
L 340.451137 -118.904254 
L 341.46688 -81.197359 
L 342.482624 -121.829083 
L 343.498367 -116.695291 
L 344.514111 -122.804026 
L 345.529854 -115.624899 
L 346.545598 -122.083614 
L 347.561341 -113.956814 
L 348.577085 -79.029303 
L 349.592828 -120.481434 
L 350.608571 -115.022661 
L 351.624315 -116.343039 
L 352.640058 -113.665922 
L 353.655802 -81.315534 
L 354.671545 -118.440644 
L 355.687289 -114.088625 
L 356.703032 -115.577175 
L 357.718776 -113.988631 
L 358.734519 -110.368387 
L 359.750262 -109.582069 
L 360.766006 -109.338902 
L 361.781749 -101.975694 
L 362.797493 -111.811485 
L 363.813236 -102.318856 
L 364.82898 -109.838872 
L 365.844723 -94.451132 
L 366.860466 -103.261983 
L 367.87621 -103.275618 
L 368.891953 -94.980647 
L 369.907697 -101.439362 
L 370.92344 -102.384761 
L 371.939184 -99.389481 
L 372.954927 -101.28937 
L 373.970671 -104.007394 
L 374.986414 -101.689347 
L 376.002157 -103.514241 
L 377.017901 -102.462029 
L 378.033644 -102.837008 
L 379.049388 -96.864628 
L 380.065131 -99.675828 
L 381.080875 -97.923657 
L 382.096618 -101.621169 
L 383.112362 -80.272413 
L 384.128105 -81.349623 
L 385.143848 -80.663299 
L 386.159592 -82.420015 
L 387.175335 -81.149634 
L 388.191079 -83.25633 
L 389.206822 -80.363317 
L 390.222566 -82.645002 
L 391.238309 -82.883624 
L 392.254052 -80.861015 
L 393.269796 -84.51762 
L 394.285539 -85.1744 
L 395.301283 -84.788059 
L 396.317026 -81.158725 
L 397.33277 -86.153888 
L 398.348513 -88.237858 
L 399.364257 -102.705197 
L 400.38 -84.653976 
L 400.38 -28.052727 
L 400.38 -28.052727 
L 399.364257 -28.052727 
L 398.348513 -28.052727 
L 397.33277 -28.052727 
L 396.317026 -28.052727 
L 395.301283 -28.052727 
L 394.285539 -28.052727 
L 393.269796 -28.052727 
L 392.254052 -28.052727 
L 391.238309 -28.052727 
L 390.222566 -28.052727 
L 389.206822 -28.052727 
L 388.191079 -28.052727 
L 387.175335 -28.052727 
L 386.159592 -28.052727 
L 385.143848 -28.052727 
L 384.128105 -28.052727 
L 383.112362 -28.052727 
L 382.096618 -28.052727 
L 381.080875 -28.052727 
L 380.065131 -28.052727 
L 379.049388 -28.052727 
L 378.033644 -28.052727 
L 377.017901 -28.052727 
L 376.002157 -28.052727 
L 374.986414 -28.052727 
L 373.970671 -28.052727 
L 372.954927 -28.052727 
L 371.939184 -28.052727 
L 370.92344 -28.052727 
L 369.907697 -28.052727 
L 368.891953 -28.052727 
L 367.87621 -28.052727 
L 366.860466 -28.052727 
L 365.844723 -28.052727 
L 364.82898 -28.052727 
L 363.813236 -28.052727 
L 362.797493 -28.052727 
L 361.781749 -28.052727 
L 360.766006 -28.052727 
L 359.750262 -28.052727 
L 358.734519 -28.052727 
L 357.718776 -28.052727 
L 356.703032 -28.052727 
L 355.687289 -28.052727 
L 354.671545 -28.052727 
L 353.655802 -28.052727 
L 352.640058 -28.052727 
L 351.624315 -28.052727 
L 350.608571 -28.052727 
L 349.592828 -28.052727 
L 348.577085 -28.052727 
L 347.561341 -28.052727 
L 346.545598 -28.052727 
L 345.529854 -28.052727 
L 344.514111 -28.052727 
L 343.498367 -28.052727 
L 342.482624 -28.052727 
L 341.46688 -28.052727 
L 340.451137 -28.052727 
L 339.435394 -28.052727 
L 338.41965 -28.052727 
L 337.403907 -28.052727 
L 336.388163 -28.052727 
L 335.37242 -28.052727 
L 334.356676 -28.052727 
L 333.340933 -28.052727 
L 332.32519 -28.052727 
L 331.309446 -28.052727 
L 330.293703 -28.052727 
L 329.277959 -28.052727 
L 328.262216 -28.052727 
L 327.246472 -28.052727 
L 326.230729 -28.052727 
L 325.214985 -28.052727 
L 324.199242 -28.052727 
L 323.183499 -28.052727 
L 322.167755 -28.052727 
L 321.152012 -28.052727 
L 320.136268 -28.052727 
L 319.120525 -28.052727 
L 318.104781 -28.052727 
L 317.089038 -28.052727 
L 316.073294 -28.052727 
L 315.057551 -28.052727 
L 314.041808 -28.052727 
L 313.026064 -28.052727 
L 312.010321 -28.052727 
L 310.994577 -28.052727 
L 309.978834 -28.052727 
L 308.96309 -28.052727 
L 307.947347 -28.052727 
L 306.931603 -28.052727 
L 305.91586 -28.052727 
L 304.900117 -28.052727 
L 303.884373 -28.052727 
L 302.86863 -28.052727 
L 301.852886 -28.052727 
L 300.837143 -28.052727 
L 299.821399 -28.052727 
L 298.805656 -28.052727 
L 297.789913 -28.052727 
L 296.774169 -28.052727 
L 295.758426 -28.052727 
L 294.742682 -28.052727 
L 293.726939 -28.052727 
L 292.711195 -28.052727 
L 291.695452 -28.052727 
L 290.679708 -28.052727 
L 289.663965 -28.052727 
L 288.648222 -28.052727 
L 287.632478 -28.052727 
L 286.616735 -28.052727 
L 285.600991 -28.052727 
L 284.585248 -28.052727 
L 283.569504 -28.052727 
L 282.553761 -28.052727 
L 281.538017 -28.052727 
L 280.522274 -28.052727 
L 279.506531 -28.052727 
L 278.490787 -28.052727 
L 277.475044 -28.052727 
L 276.4593 -28.052727 
L 275.443557 -28.052727 
L 274.427813 -28.052727 
L 273.41207 -28.052727 
L 272.396327 -28.052727 
L 271.380583 -28.052727 
L 270.36484 -28.052727 
L 269.349096 -28.052727 
L 268.333353 -28.052727 
L 267.317609 -28.052727 
L 266.301866 -28.052727 
L 265.286122 -28.052727 
L 264.270379 -28.052727 
L 263.254636 -28.052727 
L 262.238892 -28.052727 
L 261.223149 -28.052727 
L 260.207405 -28.052727 
L 259.191662 -28.052727 
L 258.175918 -28.052727 
L 257.160175 -28.052727 
L 256.144431 -28.052727 
L 255.128688 -28.052727 
L 254.112945 -28.052727 
L 253.097201 -28.052727 
L 252.081458 -28.052727 
L 251.065714 -28.052727 
L 250.049971 -28.052727 
L 249.034227 -28.052727 
L 248.018484 -28.052727 
L 247.002741 -28.052727 
L 245.986997 -28.052727 
L 244.971254 -28.052727 
L 243.95551 -28.052727 
L 242.939767 -28.052727 
L 241.924023 -28.052727 
L 240.90828 -28.052727 
L 239.892536 -28.052727 
L 238.876793 -28.052727 
L 237.86105 -28.052727 
L 236.845306 -28.052727 
L 235.829563 -28.052727 
L 234.813819 -28.052727 
L 233.798076 -28.052727 
L 232.782332 -28.052727 
L 231.766589 -28.052727 
L 230.750845 -28.052727 
L 229.735102 -28.052727 
L 228.719359 -28.052727 
L 227.703615 -28.052727 
L 226.687872 -28.052727 
L 225.672128 -28.052727 
L 224.656385 -28.052727 
L 223.640641 -28.052727 
L 222.624898 -28.052727 
L 221.609155 -28.052727 
L 220.593411 -28.052727 
L 219.577668 -28.052727 
L 218.561924 -28.052727 
L 217.546181 -28.052727 
L 216.530437 -28.052727 
L 215.514694 -28.052727 
L 214.49895 -28.052727 
L 213.483207 -28.052727 
L 212.467464 -28.052727 
L 211.45172 -28.052727 
L 210.435977 -28.052727 
L 209.420233 -28.052727 
L 208.40449 -28.052727 
L 207.388746 -28.052727 
L 206.373003 -28.052727 
L 205.357259 -28.052727 
L 204.341516 -28.052727 
L 203.325773 -28.052727 
L 202.310029 -28.052727 
L 201.294286 -28.052727 
L 200.278542 -28.052727 
L 199.262799 -28.052727 
L 198.247055 -28.052727 
L 197.231312 -28.052727 
L 196.215569 -28.052727 
L 195.199825 -28.052727 
L 194.184082 -28.052727 
L 193.168338 -28.052727 
L 192.152595 -28.052727 
L 191.136851 -28.052727 
L 190.121108 -28.052727 
L 189.105364 -28.052727 
L 188.089621 -28.052727 
L 187.073878 -28.052727 
L 186.058134 -28.052727 
L 185.042391 -28.052727 
L 184.026647 -28.052727 
L 183.010904 -28.052727 
L 181.99516 -28.052727 
L 180.979417 -28.052727 
L 179.963673 -28.052727 
L 178.94793 -28.052727 
L 177.932187 -28.052727 
L 176.916443 -28.052727 
L 175.9007 -28.052727 
L 174.884956 -28.052727 
L 173.869213 -28.052727 
L 172.853469 -28.052727 
L 171.837726 -28.052727 
L 170.821983 -28.052727 
L 169.806239 -28.052727 
L 168.790496 -28.052727 
L 167.774752 -28.052727 
L 166.759009 -28.052727 
L 165.743265 -28.052727 
L 164.727522 -28.052727 
L 163.711778 -28.052727 
L 162.696035 -28.052727 
L 161.680292 -28.052727 
L 160.664548 -28.052727 
L 159.648805 -28.052727 
L 158.633061 -28.052727 
L 157.617318 -28.052727 
L 156.601574 -28.052727 
L 155.585831 -28.052727 
L 154.570087 -28.052727 
L 153.554344 -28.052727 
L 152.538601 -28.052727 
L 151.522857 -28.052727 
L 150.507114 -28.052727 
L 149.49137 -28.052727 
L 148.475627 -28.052727 
L 147.459883 -28.052727 
L 146.44414 -28.052727 
L 145.428397 -28.052727 
L 144.412653 -28.052727 
L 143.39691 -28.052727 
L 142.381166 -28.052727 
L 141.365423 -28.052727 
L 140.349679 -28.052727 
L 139.333936 -28.052727 
L 138.318192 -28.052727 
L 137.302449 -28.052727 
L 136.286706 -28.052727 
L 135.270962 -28.052727 
L 134.255219 -28.052727 
L 133.239475 -28.052727 
L 132.223732 -28.052727 
L 131.207988 -28.052727 
L 130.192245 -28.052727 
L 129.176501 -28.052727 
L 128.160758 -28.052727 
L 127.145015 -28.052727 
L 126.129271 -28.052727 
L 125.113528 -28.052727 
L 124.097784 -28.052727 
L 123.082041 -28.052727 
L 122.066297 -28.052727 
L 121.050554 -28.052727 
L 120.03481 -28.052727 
L 119.019067 -28.052727 
L 118.003324 -28.052727 
L 116.98758 -28.052727 
L 115.971837 -28.052727 
L 114.956093 -28.052727 
L 113.94035 -28.052727 
L 112.924606 -28.052727 
L 111.908863 -28.052727 
L 110.89312 -28.052727 
L 109.877376 -28.052727 
L 108.861633 -28.052727 
L 107.845889 -28.052727 
L 106.830146 -28.052727 
L 105.814402 -28.052727 
L 104.798659 -28.052727 
L 103.782915 -28.052727 
L 102.767172 -28.052727 
L 101.751429 -28.052727 
L 100.735685 -28.052727 
L 99.719942 -28.052727 
L 98.704198 -28.052727 
L 97.688455 -28.052727 
L 96.672711 -28.052727 
L 95.656968 -28.052727 
L 94.641224 -28.052727 
L 93.625481 -28.052727 
L 92.609738 -28.052727 
L 91.593994 -28.052727 
L 90.578251 -28.052727 
L 89.562507 -28.052727 
L 88.546764 -28.052727 
L 87.53102 -28.052727 
L 86.515277 -28.052727 
L 85.499534 -28.052727 
L 84.48379 -28.052727 
L 83.468047 -28.052727 
L 82.452303 -28.052727 
L 81.43656 -28.052727 
L 80.420816 -28.052727 
L 79.405073 -28.052727 
L 78.389329 -28.052727 
L 77.373586 -28.052727 
L 76.357843 -28.052727 
L 75.342099 -28.052727 
L 74.326356 -28.052727 
L 73.310612 -28.052727 
L 72.294869 -28.052727 
L 71.279125 -28.052727 
L 70.263382 -28.052727 
L 69.247638 -28.052727 
L 68.231895 -28.052727 
L 67.216152 -28.052727 
L 66.200408 -28.052727 
L 65.184665 -28.052727 
L 64.168921 -28.052727 
L 63.153178 -28.052727 
L 62.137434 -28.052727 
L 61.121691 -28.052727 
L 60.105948 -28.052727 
L 59.090204 -28.052727 
L 58.074461 -28.052727 
L 57.058717 -28.052727 
L 56.042974 -28.052727 
L 55.02723 -28.052727 
L 54.011487 -28.052727 
L 52.995743 -28.052727 
L 51.98 -28.052727 
z
" style="stroke: #f85149; stroke-opacity: 0.15"/>
    </defs>
    <g clip-path="url(#pe117da237c)">
     <use xlink:href="#m51b9b5c742" x="0" y="172.518281" style="fill: #f85149; fill-opacity: 0.15; stroke: #f85149; stroke-opacity: 0.15"/>
    </g>
   </g>
   <g id="matplotlib.axis_1">
    <g id="xtick_1">
     <g id="line2d_1">
      <path d="M 51.98 150.318281 
L 51.98 21.558281 
" clip-path="url(#pe117da237c)" style="fill: none; stroke: #21262d; stroke-opacity: 0.5; stroke-width: 0.5; stroke-linecap: square"/>
     </g>
     <g id="line2d_2">
      <defs>
       <path id="m41f7ec1950" d="M 0 0 
L 0 3.5 
" style="stroke: #c9d1d9; stroke-width: 0.8"/>
      </defs>
      <g>
       <use xlink:href="#m41f7ec1950" x="51.98" y="150.318281" style="fill: #c9d1d9; stroke: #c9d1d9; stroke-width: 0.8"/>
      </g>
     </g>
     <g id="text_1">
      <!-- 0 -->
      <g style="fill: #c9d1d9" transform="translate(49.435 163.396406) scale(0.08 -0.08)">
       <defs>
        <path id="DejaVuSans-13" d="M 2034 4250 
Q 1547 4250 1301 3770 
Q 1056 3291 1056 2328 
Q 1056 1369 1301 889 
Q 1547 409 2034 409 
Q 2525 409 2770 889 
Q 3016 1369 3016 2328 
Q 3016 3291 2770 3770 
Q 2525 4250 2034 4250 
z
M 2034 4750 
Q 2819 4750 3233 4129 
Q 3647 3509 3647 2328 
Q 3647 1150 3233 529 
Q 2819 -91 2034 -91 
Q 1250 -91 836 529 
Q 422 1150 422 2328 
Q 422 3509 836 4129 
Q 1250 4750 2034 4750 
z
" transform="scale(0.015625)"/>
       </defs>
       <use xlink:href="#DejaVuSans-13"/>
      </g>
     </g>
    </g>
    <g id="xtick_2">
     <g id="line2d_3">
      <path d="M 102.767172 150.318281 
L 102.767172 21.558281 
" clip-path="url(#pe117da237c)" style="fill: none; stroke: #21262d; stroke-opacity: 0.5; stroke-width: 0.5; stroke-linecap: square"/>
     </g>
     <g id="line2d_4">
      <g>
       <use xlink:href="#m41f7ec1950" x="102.767172" y="150.318281" style="fill: #c9d1d9; stroke: #c9d1d9; stroke-width: 0.8"/>
      </g>
     </g>
     <g id="text_2">
      <!-- 50 -->
      <g style="fill: #c9d1d9" transform="translate(97.677172 163.396406) scale(0.08 -0.08)">
       <defs>
        <path id="DejaVuSans-18" d="M 691 4666 
L 3169 4666 
L 3169 4134 
L 1269 4134 
L 1269 2991 
Q 1406 3038 1543 3061 
Q 1681 3084 1819 3084 
Q 2600 3084 3056 2656 
Q 3513 2228 3513 1497 
Q 3513 744 3044 326 
Q 2575 -91 1722 -91 
Q 1428 -91 1123 -41 
Q 819 9 494 109 
L 494 744 
Q 775 591 1075 516 
Q 1375 441 1709 441 
Q 2250 441 2565 725 
Q 2881 1009 2881 1497 
Q 2881 1984 2565 2268 
Q 2250 2553 1709 2553 
Q 1456 2553 1204 2497 
Q 953 2441 691 2322 
L 691 4666 
z
" transform="scale(0.015625)"/>
       </defs>
       <use xlink:href="#DejaVuSans-18"/>
       <use xlink:href="#DejaVuSans-13" transform="translate(63.625 0)"/>
      </g>
     </g>
    </g>
    <g id="xtick_3">
     <g id="line2d_5">
      <path d="M 153.554344 150.318281 
L 153.554344 21.558281 
" clip-path="url(#pe117da237c)" style="fill: none; stroke: #21262d; stroke-opacity: 0.5; stroke-width: 0.5; stroke-linecap: square"/>
     </g>
     <g id="line2d_6">
      <g>
       <use xlink:href="#m41f7ec1950" x="153.554344" y="150.318281" style="fill: #c9d1d9; stroke: #c9d1d9; stroke-width: 0.8"/>
      </g>
     </g>
     <g id="text_3">
      <!-- 100 -->
      <g style="fill: #c9d1d9" transform="translate(145.919344 163.396406) scale(0.08 -0.08)">
       <defs>
        <path id="DejaVuSans-14" d="M 794 531 
L 1825 531 
L 1825 4091 
L 703 3866 
L 703 4441 
L 1819 4666 
L 2450 4666 
L 2450 531 
L 3481 531 
L 3481 0 
L 794 0 
L 794 531 
z
" transform="scale(0.015625)"/>
       </defs>
       <use xlink:href="#DejaVuSans-14"/>
       <use xlink:href="#DejaVuSans-13" transform="translate(63.625 0)"/>
       <use xlink:href="#DejaVuSans-13" transform="translate(127.25 0)"/>
      </g>
     </g>
    </g>
    <g id="xtick_4">
     <g id="line2d_7">
      <path d="M 204.341516 150.318281 
L 204.341516 21.558281 
" clip-path="url(#pe117da237c)" style="fill: none; stroke: #21262d; stroke-opacity: 0.5; stroke-width: 0.5; stroke-linecap: square"/>
     </g>
     <g id="line2d_8">
      <g>
       <use xlink:href="#m41f7ec1950" x="204.341516" y="150.318281" style="fill: #c9d1d9; stroke: #c9d1d9; stroke-width: 0.8"/>
      </g>
     </g>
     <g id="text_4">
      <!-- 150 -->
      <g style="fill: #c9d1d9" transform="translate(196.706516 163.396406) scale(0.08 -0.08)">
       <use xlink:href="#DejaVuSans-14"/>
       <use xlink:href="#DejaVuSans-18" transform="translate(63.625 0)"/>
       <use xlink:href="#DejaVuSans-13" transform="translate(127.25 0)"/>
      </g>
     </g>
    </g>
    <g id="xtick_5">
     <g id="line2d_9">
      <path d="M 255.128688 150.318281 
L 255.128688 21.558281 
" clip-path="url(#pe117da237c)" style="fill: none; stroke: #21262d; stroke-opacity: 0.5; stroke-width: 0.5; stroke-linecap: square"/>
     </g>
     <g id="line2d_10">
      <g>
       <use xlink:href="#m41f7ec1950" x="255.128688" y="150.318281" style="fill: #c9d1d9; stroke: #c9d1d9; stroke-width: 0.8"/>
      </g>
     </g>
     <g id="text_5">
      <!-- 200 -->
      <g style="fill: #c9d1d9" transform="translate(247.493688 163.396406) scale(0.08 -0.08)">
       <defs>
        <path id="DejaVuSans-15" d="M 1228 531 
L 3431 531 
L 3431 0 
L 469 0 
L 469 531 
Q 828 903 1448 1529 
Q 2069 2156 2228 2338 
Q 2531 2678 2651 2914 
Q 2772 3150 2772 3378 
Q 2772 3750 2511 3984 
Q 2250 4219 1831 4219 
Q 1534 4219 1204 4116 
Q 875 4013 500 3803 
L 500 4441 
Q 881 4594 1212 4672 
Q 1544 4750 1819 4750 
Q 2544 4750 2975 4387 
Q 3406 4025 3406 3419 
Q 3406 3131 3298 2873 
Q 3191 2616 2906 2266 
Q 2828 2175 2409 1742 
Q 1991 1309 1228 531 
z
" transform="scale(0.015625)"/>
       </defs>
       <use xlink:href="#DejaVuSans-15"/>
       <use xlink:href="#DejaVuSans-13" transform="translate(63.625 0)"/>
       <use xlink:href="#DejaVuSans-13" transform="translate(127.25 0)"/>
      </g>
     </g>
    </g>
    <g id="xtick_6">
     <g id="line2d_11">
      <path d="M 305.91586 150.318281 
L 305.91586 21.558281 
" clip-path="url(#pe117da237c)" style="fill: none; stroke: #21262d; stroke-opacity: 0.5; stroke-width: 0.5; stroke-linecap: square"/>
     </g>
     <g id="line2d_12">
      <g>
       <use xlink:href="#m41f7ec1950" x="305.91586" y="150.318281" style="fill: #c9d1d9; stroke: #c9d1d9; stroke-width: 0.8"/>
      </g>
     </g>
     <g id="text_6">
      <!-- 250 -->
      <g style="fill: #c9d1d9" transform="translate(298.28086 163.396406) scale(0.08 -0.08)">
       <use xlink:href="#DejaVuSans-15"/>
       <use xlink:href="#DejaVuSans-18" transform="translate(63.625 0)"/>
       <use xlink:href="#DejaVuSans-13" transform="translate(127.25 0)"/>
      </g>
     </g>
    </g>
    <g id="xtick_7">
     <g id="line2d_13">
      <path d="M 356.703032 150.318281 
L 356.703032 21.558281 
" clip-path="url(#pe117da237c)" style="fill: none; stroke: #21262d; stroke-opacity: 0.5; stroke-width: 0.5; stroke-linecap: square"/>
     </g>
     <g id="line2d_14">
      <g>
       <use xlink:href="#m41f7ec1950" x="356.703032" y="150.318281" style="fill: #c9d1d9; stroke: #c9d1d9; stroke-width: 0.8"/>
      </g>
     </g>
     <g id="text_7">
      <!-- 300 -->
      <g style="fill: #c9d1d9" transform="translate(349.068032 163.396406) scale(0.08 -0.08)">
       <defs>
        <path id="DejaVuSans-16" d="M 2597 2516 
Q 3050 2419 3304 2112 
Q 3559 1806 3559 1356 
Q 3559 666 3084 287 
Q 2609 -91 1734 -91 
Q 1441 -91 1130 -33 
Q 819 25 488 141 
L 488 750 
Q 750 597 1062 519 
Q 1375 441 1716 441 
Q 2309 441 2620 675 
Q 2931 909 2931 1356 
Q 2931 1769 2642 2001 
Q 2353 2234 1838 2234 
L 1294 2234 
L 1294 2753 
L 1863 2753 
Q 2328 2753 2575 2939 
Q 2822 3125 2822 3475 
Q 2822 3834 2567 4026 
Q 2313 4219 1838 4219 
Q 1578 4219 1281 4162 
Q 984 4106 628 3988 
L 628 4550 
Q 988 4650 1302 4700 
Q 1616 4750 1894 4750 
Q 2613 4750 3031 4423 
Q 3450 4097 3450 3541 
Q 3450 3153 3228 2886 
Q 3006 2619 2597 2516 
z
" transform="scale(0.015625)"/>
       </defs>
       <use xlink:href="#DejaVuSans-16"/>
       <use xlink:href="#DejaVuSans-13" transform="translate(63.625 0)"/>
       <use xlink:href="#DejaVuSans-13" transform="translate(127.25 0)"/>
      </g>
     </g>
    </g>
    <g id="xtick_8">
     <g id="line2d_15">
      <path d="M 407.490204 150.318281 
L 407.490204 21.558281 
" clip-path="url(#pe117da237c)" style="fill: none; stroke: #21262d; stroke-opacity: 0.5; stroke-width: 0.5; stroke-linecap: square"/>
     </g>
     <g id="line2d_16">
      <g>
       <use xlink:href="#m41f7ec1950" x="407.490204" y="150.318281" style="fill: #c9d1d9; stroke: #c9d1d9; stroke-width: 0.8"/>
      </g>
     </g>
     <g id="text_8">
      <!-- 350 -->
      <g style="fill: #c9d1d9" transform="translate(399.855204 163.396406) scale(0.08 -0.08)">
       <use xlink:href="#DejaVuSans-16"/>
       <use xlink:href="#DejaVuSans-18" transform="translate(63.625 0)"/>
       <use xlink:href="#DejaVuSans-13" transform="translate(127.25 0)"/>
      </g>
     </g>
    </g>
   </g>
   <g id="matplotlib.axis_2">
    <g id="ytick_1">
     <g id="line2d_17">
      <path d="M 34.56 144.465554 
L 417.8 144.465554 
" clip-path="url(#pe117da237c)" style="fill: none; stroke: #21262d; stroke-opacity: 0.5; stroke-width: 0.5; stroke-linecap: square"/>
     </g>
     <g id="line2d_18">
      <defs>
       <path id="m6f22d5d1ea" d="M 0 0 
L -3.5 0 
" style="stroke: #c9d1d9; stroke-width: 0.8"/>
      </defs>
      <g>
       <use xlink:href="#m6f22d5d1ea" x="34.56" y="144.465554" style="fill: #c9d1d9; stroke: #c9d1d9; stroke-width: 0.8"/>
      </g>
     </g>
     <g id="text_9">
      <!-- $0 -->
      <g style="fill: #c9d1d9" transform="translate(17.38 147.504929) scale(0.08 -0.08)">
       <defs>
        <path id="DejaVuSans-7" d="M 2163 -941 
L 1850 -941 
L 1847 0 
Q 1519 6 1191 76 
Q 863 147 531 288 
L 531 850 
Q 850 650 1176 548 
Q 1503 447 1850 444 
L 1850 1869 
Q 1159 1981 845 2250 
Q 531 2519 531 2988 
Q 531 3497 872 3790 
Q 1213 4084 1850 4128 
L 1850 4863 
L 2163 4863 
L 2163 4138 
Q 2453 4125 2725 4076 
Q 2997 4028 3256 3944 
L 3256 3397 
Q 2997 3528 2723 3600 
Q 2450 3672 2163 3684 
L 2163 2350 
Q 2872 2241 3206 1959 
Q 3541 1678 3541 1191 
Q 3541 663 3186 358 
Q 2831 53 2163 6 
L 2163 -941 
z
M 1850 2406 
L 1850 3688 
Q 1488 3647 1297 3481 
Q 1106 3316 1106 3041 
Q 1106 2772 1282 2622 
Q 1459 2472 1850 2406 
z
M 2163 1806 
L 2163 453 
Q 2559 506 2761 678 
Q 2963 850 2963 1131 
Q 2963 1406 2770 1568 
Q 2578 1731 2163 1806 
z
" transform="scale(0.015625)"/>
       </defs>
       <use xlink:href="#DejaVuSans-7"/>
       <use xlink:href="#DejaVuSans-13" transform="translate(63.625 0)"/>
      </g>
     </g>
    </g>
    <g id="ytick_2">
     <g id="line2d_19">
      <path d="M 34.56 121.739605 
L 417.8 121.739605 
" clip-path="url(#pe117da237c)" style="fill: none; stroke: #21262d; stroke-opacity: 0.5; stroke-width: 0.5; stroke-linecap: square"/>
     </g>
     <g id="line2d_20">
      <g>
       <use xlink:href="#m6f22d5d1ea" x="34.56" y="121.739605" style="fill: #c9d1d9; stroke: #c9d1d9; stroke-width: 0.8"/>
      </g>
     </g>
     <g id="text_10">
      <!-- $100 -->
      <g style="fill: #c9d1d9" transform="translate(7.2 124.77898) scale(0.08 -0.08)">
       <use xlink:href="#DejaVuSans-7"/>
       <use xlink:href="#DejaVuSans-14" transform="translate(63.625 0)"/>
       <use xlink:href="#DejaVuSans-13" transform="translate(127.25 0)"/>
       <use xlink:href="#DejaVuSans-13" transform="translate(190.875 0)"/>
      </g>
     </g>
    </g>
    <g id="ytick_3">
     <g id="line2d_21">
      <path d="M 34.56 99.013656 
L 417.8 99.013656 
" clip-path="url(#pe117da237c)" style="fill: none; stroke: #21262d; stroke-opacity: 0.5; stroke-width: 0.5; stroke-linecap: square"/>
     </g>
     <g id="line2d_22">
      <g>
       <use xlink:href="#m6f22d5d1ea" x="34.56" y="99.013656" style="fill: #c9d1d9; stroke: #c9d1d9; stroke-width: 0.8"/>
      </g>
     </g>
     <g id="text_11">
      <!-- $200 -->
      <g style="fill: #c9d1d9" transform="translate(7.2 102.053031) scale(0.08 -0.08)">
       <use xlink:href="#DejaVuSans-7"/>
       <use xlink:href="#DejaVuSans-15" transform="translate(63.625 0)"/>
       <use xlink:href="#DejaVuSans-13" transform="translate(127.25 0)"/>
       <use xlink:href="#DejaVuSans-13" transform="translate(190.875 0)"/>
      </g>
     </g>
    </g>
    <g id="ytick_4">
     <g id="line2d_23">
      <path d="M 34.56 76.287707 
L 417.8 76.287707 
" clip-path="url(#pe117da237c)" style="fill: none; stroke: #21262d; stroke-opacity: 0.5; stroke-width: 0.5; stroke-linecap: square"/>
     </g>
     <g id="line2d_24">
      <g>
       <use xlink:href="#m6f22d5d1ea" x="34.56" y="76.287707" style="fill: #c9d1d9; stroke: #c9d1d9; stroke-width: 0.8"/>
      </g>
     </g>
     <g id="text_12">
      <!-- $300 -->
      <g style="fill: #c9d1d9" transform="translate(7.2 79.327082) scale(0.08 -0.08)">
       <use xlink:href="#DejaVuSans-7"/>
       <use xlink:href="#DejaVuSans-16" transform="translate(63.625 0)"/>
       <use xlink:href="#DejaVuSans-13" transform="translate(127.25 0)"/>
       <use xlink:href="#DejaVuSans-13" transform="translate(190.875 0)"/>
      </g>
     </g>
    </g>
    <g id="ytick_5">
     <g id="line2d_25">
      <path d="M 34.56 53.561758 
L 417.8 53.561758 
" clip-path="url(#pe117da237c)" style="fill: none; stroke: #21262d; stroke-opacity: 0.5; stroke-width: 0.5; stroke-linecap: square"/>
     </g>
     <g id="line2d_26">
      <g>
       <use xlink:href="#m6f22d5d1ea" x="34.56" y="53.561758" style="fill: #c9d1d9; stroke: #c9d1d9; stroke-width: 0.8"/>
      </g>
     </g>
     <g id="text_13">
      <!-- $400 -->
      <g style="fill: #c9d1d9" transform="translate(7.2 56.601133) scale(0.08 -0.08)">
       <defs>
        <path id="DejaVuSans-17" d="M 2419 4116 
L 825 1625 
L 2419 1625 
L 2419 4116 
z
M 2253 4666 
L 3047 4666 
L 3047 1625 
L 3713 1625 
L 3713 1100 
L 3047 1100 
L 3047 0 
L 2419 0 
L 2419 1100 
L 313 1100 
L 313 1709 
L 2253 4666 
z
" transform="scale(0.015625)"/>
       </defs>
       <use xlink:href="#DejaVuSans-7"/>
       <use xlink:href="#DejaVuSans-17" transform="translate(63.625 0)"/>
       <use xlink:href="#DejaVuSans-13" transform="translate(127.25 0)"/>
       <use xlink:href="#DejaVuSans-13" transform="translate(190.875 0)"/>
      </g>
     </g>
    </g>
    <g id="ytick_6">
     <g id="line2d_27">
      <path d="M 34.56 30.835809 
L 417.8 30.835809 
" clip-path="url(#pe117da237c)" style="fill: none; stroke: #21262d; stroke-opacity: 0.5; stroke-width: 0.5; stroke-linecap: square"/>
     </g>
     <g id="line2d_28">
      <g>
       <use xlink:href="#m6f22d5d1ea" x="34.56" y="30.835809" style="fill: #c9d1d9; stroke: #c9d1d9; stroke-width: 0.8"/>
      </g>
     </g>
     <g id="text_14">
      <!-- $500 -->
      <g style="fill: #c9d1d9" transform="translate(7.2 33.875184) scale(0.08 -0.08)">
       <use xlink:href="#DejaVuSans-7"/>
       <use xlink:href="#DejaVuSans-18" transform="translate(63.625 0)"/>
       <use xlink:href="#DejaVuSans-13" transform="translate(127.25 0)"/>
       <use xlink:href="#DejaVuSans-13" transform="translate(190.875 0)"/>
      </g>
     </g>
    </g>
   </g>
   <g id="line2d_29">
    <path d="M 51.98 55.348018 
L 52.995743 27.979157 
L 54.011487 35.585532 
L 55.02723 48.893848 
L 56.042974 93.691239 
L 57.058717 89.157412 
L 58.074461 90.791408 
L 59.090204 89.416488 
L 60.105948 90.270983 
L 61.121691 92.268594 
L 62.137434 90.132355 
L 63.153178 90.541422 
L 64.168921 91.966339 
L 65.184665 87.7984 
L 66.200408 91.702718 
L 67.216152 88.93697 
L 68.231895 89.227862 
L 69.247638 88.834703 
L 70.263382 92.15951 
L 71.279125 85.350815 
L 72.294869 90.095994 
L 73.310612 99.486356 
L 74.326356 83.073675 
L 75.342099 87.56205 
L 76.357843 84.928113 
L 77.373586 83.398656 
L 78.389329 93.720782 
L 79.405073 77.071752 
L 80.420816 94.118487 
L 81.43656 73.633316 
L 82.452303 78.687567 
L 83.468047 69.865354 
L 84.48379 67.665482 
L 85.499534 69.388109 
L 86.515277 66.067848 
L 87.53102 63.456636 
L 88.546764 68.288173 
L 89.562507 60.486355 
L 90.578251 70.394868 
L 91.593994 69.208574 
L 92.609738 57.795602 
L 93.625481 63.186197 
L 94.641224 59.006895 
L 95.656968 52.559544 
L 96.672711 58.116038 
L 97.688455 59.434143 
L 98.704198 68.765418 
L 99.719942 62.743041 
L 100.735685 68.713148 
L 101.751429 66.220112 
L 102.767172 71.049376 
L 103.782915 64.540664 
L 104.798659 68.547249 
L 105.814402 65.392887 
L 106.830146 70.622128 
L 107.845889 67.151876 
L 108.861633 70.172154 
L 109.877376 59.593225 
L 110.89312 95.272965 
L 111.908863 61.186314 
L 112.924606 71.403901 
L 113.94035 65.09745 
L 114.956093 68.906319 
L 115.971837 65.372434 
L 116.98758 70.149428 
L 118.003324 64.120234 
L 119.019067 69.842628 
L 120.03481 65.799682 
L 121.050554 68.604064 
L 122.066297 67.551852 
L 123.082041 63.72253 
L 124.097784 71.124371 
L 125.113528 65.397432 
L 126.129271 93.682148 
L 127.145015 65.063361 
L 128.160758 68.704058 
L 129.176501 66.097391 
L 130.192245 70.915293 
L 131.207988 66.947342 
L 132.223732 65.695142 
L 133.239475 68.972224 
L 134.255219 63.49527 
L 135.270962 69.858536 
L 136.286706 51.109628 
L 137.302449 54.734417 
L 138.318192 30.753996 
L 139.333936 32.110735 
L 140.349679 38.233105 
L 141.365423 92.839016 
L 142.381166 88.973332 
L 143.39691 93.077638 
L 144.412653 91.261835 
L 145.428397 91.436825 
L 146.44414 87.680225 
L 147.459883 91.843619 
L 148.475627 89.227862 
L 149.49137 76.278617 
L 150.507114 71.987957 
L 151.522857 73.567411 
L 152.538601 64.879281 
L 153.554344 63.999786 
L 154.570087 61.968087 
L 155.585831 64.654294 
L 156.601574 64.990638 
L 157.617318 96.854691 
L 158.633061 64.63384 
L 159.648805 74.844609 
L 160.664548 68.922227 
L 161.680292 72.022046 
L 162.696035 69.706272 
L 163.711778 93.620788 
L 164.727522 69.565371 
L 165.743265 72.126586 
L 166.759009 95.482044 
L 167.774752 66.53373 
L 168.790496 77.583086 
L 169.806239 75.701378 
L 170.821983 94.554825 
L 171.837726 72.981081 
L 172.853469 77.219471 
L 173.869213 72.990172 
L 174.884956 72.896995 
L 175.9007 73.510596 
L 176.916443 71.349358 
L 177.932187 74.458268 
L 178.94793 72.372026 
L 179.963673 72.212944 
L 180.979417 71.828876 
L 181.99516 70.956199 
L 183.010904 91.145932 
L 184.026647 69.994892 
L 185.042391 76.551328 
L 186.058134 70.331236 
L 187.073878 70.917565 
L 188.089621 71.969777 
L 189.105364 66.436008 
L 190.121108 70.053979 
L 191.136851 69.790358 
L 192.152595 69.24039 
L 193.168338 91.74817 
L 194.184082 65.592875 
L 195.199825 71.68343 
L 196.215569 65.940582 
L 197.231312 73.021988 
L 198.247055 68.908591 
L 199.262799 73.510596 
L 200.278542 67.106424 
L 201.294286 72.210672 
L 202.310029 67.535944 
L 203.325773 73.276519 
L 204.341516 69.615368 
L 205.357259 69.608551 
L 206.373003 67.590486 
L 207.388746 70.363052 
L 208.40449 70.292602 
L 209.420233 69.83581 
L 210.435977 69.910806 
L 211.45172 72.849271 
L 212.467464 68.106365 
L 213.483207 66.824622 
L 214.49895 84.139522 
L 215.514694 66.774625 
L 216.530437 70.890294 
L 217.546181 67.160966 
L 218.561924 71.299361 
L 219.577668 66.404192 
L 220.593411 52.589087 
L 221.609155 56.329779 
L 222.624898 53.627663 
L 223.640641 51.709593 
L 224.656385 90.07554 
L 225.672128 88.786979 
L 226.687872 89.525572 
L 227.703615 87.237069 
L 228.719359 89.248316 
L 229.735102 93.811686 
L 230.750845 78.553484 
L 231.766589 82.255541 
L 232.782332 91.400463 
L 233.798076 74.91506 
L 234.813819 93.363985 
L 235.829563 69.88808 
L 237.86105 74.965057 
L 238.876793 72.858361 
L 239.892536 73.749219 
L 240.90828 34.621952 
L 241.924023 48.287065 
L 242.939767 38.178563 
L 243.95551 43.419167 
L 244.971254 53.693569 
L 245.986997 47.848454 
L 247.002741 56.000252 
L 248.018484 51.845949 
L 249.034227 40.462521 
L 250.049971 49.362003 
L 251.065714 91.841346 
L 252.081458 44.003224 
L 253.097201 53.743566 
L 254.112945 54.513975 
L 255.128688 48.50978 
L 256.144431 55.307111 
L 257.160175 50.800555 
L 258.175918 49.911971 
L 259.191662 54.011732 
L 260.207405 52.005031 
L 261.223149 51.173261 
L 263.254636 52.211837 
L 264.270379 51.10281 
L 265.286122 56.211604 
L 266.301866 49.082473 
L 267.317609 57.725152 
L 268.333353 56.429773 
L 269.349096 53.927646 
L 270.36484 54.995765 
L 271.380583 52.877707 
L 272.396327 53.629936 
L 274.427813 53.014063 
L 275.443557 51.973214 
L 276.4593 52.589087 
L 277.475044 55.004856 
L 278.490787 51.643688 
L 279.506531 53.136783 
L 280.522274 56.802478 
L 281.538017 51.618689 
L 282.553761 57.095643 
L 283.569504 55.129849 
L 284.585248 53.768564 
L 285.600991 52.918614 
L 286.616735 54.125362 
L 287.632478 56.311598 
L 288.648222 53.334499 
L 289.663965 56.288872 
L 290.679708 54.284443 
L 291.695452 56.268419 
L 292.711195 54.488977 
L 293.726939 53.670843 
L 294.742682 53.234504 
L 295.758426 53.229959 
L 296.774169 55.645728 
L 297.789913 55.643455 
L 298.805656 56.736573 
L 299.821399 54.752598 
L 300.837143 92.368589 
L 301.852886 51.100538 
L 302.86863 54.543519 
L 303.884373 57.107006 
L 304.900117 53.332226 
L 305.91586 32.019831 
L 306.931603 36.244585 
L 307.947347 92.552669 
L 308.96309 27.411009 
L 309.978834 38.696715 
L 310.994577 90.25962 
L 312.010321 83.414565 
L 313.026064 87.321155 
L 314.041808 84.307694 
L 315.057551 79.928404 
L 316.073294 81.714664 
L 317.089038 80.528369 
L 318.104781 79.589787 
L 319.120525 70.449411 
L 320.136268 93.677603 
L 321.152012 67.254142 
L 322.167755 69.217664 
L 323.183499 67.68139 
L 324.199242 69.533555 
L 325.214985 65.738321 
L 326.230729 66.147389 
L 327.246472 91.645903 
L 328.262216 59.809121 
L 329.277959 61.588563 
L 330.293703 60.599984 
L 331.309446 53.593574 
L 332.32519 59.570499 
L 333.340933 56.382048 
L 334.356676 60.170464 
L 335.37242 54.50034 
L 336.388163 92.032244 
L 337.403907 49.155197 
L 338.41965 53.07315 
L 339.435394 55.486646 
L 340.451137 53.614028 
L 341.46688 91.320922 
L 342.482624 50.689198 
L 343.498367 55.82299 
L 344.514111 49.714255 
L 345.529854 56.893382 
L 346.545598 50.434667 
L 347.561341 58.561467 
L 348.577085 93.488978 
L 349.592828 52.036847 
L 350.608571 57.49562 
L 351.624315 56.175242 
L 352.640058 58.852359 
L 353.655802 91.202747 
L 354.671545 54.077637 
L 355.687289 58.429656 
L 356.703032 56.941107 
L 357.718776 58.52965 
L 358.734519 62.149894 
L 359.750262 62.936212 
L 360.766006 63.17938 
L 361.781749 70.542587 
L 362.797493 60.706796 
L 363.813236 70.199425 
L 364.82898 62.679409 
L 365.844723 78.067149 
L 366.860466 69.256298 
L 367.87621 69.242663 
L 368.891953 77.537634 
L 369.907697 71.07892 
L 370.92344 70.13352 
L 371.939184 73.1288 
L 372.954927 71.228911 
L 373.970671 68.510887 
L 374.986414 70.828934 
L 376.002157 69.00404 
L 377.017901 70.056252 
L 378.033644 69.681274 
L 379.049388 75.653653 
L 380.065131 72.842453 
L 381.080875 74.594624 
L 382.096618 70.897112 
L 383.112362 92.245868 
L 384.128105 91.168658 
L 385.143848 91.854982 
L 386.159592 90.098266 
L 387.175335 91.368647 
L 388.191079 89.261951 
L 389.206822 92.154965 
L 390.222566 89.873279 
L 391.238309 89.634657 
L 392.254052 91.657266 
L 393.269796 88.000661 
L 394.285539 87.343881 
L 395.301283 87.730222 
L 396.317026 91.359556 
L 397.33277 86.364393 
L 398.348513 84.280423 
L 399.364257 69.813084 
L 400.38 87.864305 
L 400.38 87.864305 
" clip-path="url(#pe117da237c)" style="fill: none; stroke: #f85149; stroke-width: 2; stroke-linecap: square"/>
   </g>
   <g id="patch_3">
    <path d="M 34.56 150.318281 
L 34.56 21.558281 
" style="fill: none; stroke: #21262d; stroke-width: 0.8; stroke-linejoin: miter; stroke-linecap: square"/>
   </g>
   <g id="patch_4">
    <path d="M 34.56 150.318281 
L 417.8 150.318281 
" style="fill: none; stroke: #21262d; stroke-width: 0.8; stroke-linejoin: miter; stroke-linecap: square"/>
   </g>
   <g id="text_15">
    <!-- NEMOCLAW (NVIDIA/NemoClaw) — $249.06 (-24.18%) -->
    <g style="fill: #c9d1d9" transform="translate(60.25875 15.558281) scale(0.11 -0.11)">
     <defs>
      <path id="DejaVuSans-Bold-31" d="M 588 4666 
L 1931 4666 
L 3628 1466 
L 3628 4666 
L 4769 4666 
L 4769 0 
L 3425 0 
L 1728 3200 
L 1728 0 
L 588 0 
L 588 4666 
z
" transform="scale(0.015625)"/>
      <path id="DejaVuSans-Bold-28" d="M 588 4666 
L 3834 4666 
L 3834 3756 
L 1791 3756 
L 1791 2888 
L 3713 2888 
L 3713 1978 
L 1791 1978 
L 1791 909 
L 3903 909 
L 3903 0 
L 588 0 
L 588 4666 
z
" transform="scale(0.015625)"/>
      <path id="DejaVuSans-Bold-30" d="M 588 4666 
L 2119 4666 
L 3181 2169 
L 4250 4666 
L 5778 4666 
L 5778 0 
L 4641 0 
L 4641 3413 
L 3566 897 
L 2803 897 
L 1728 3413 
L 1728 0 
L 588 0 
L 588 4666 
z
" transform="scale(0.015625)"/>
      <path id="DejaVuSans-Bold-32" d="M 2719 3878 
Q 2169 3878 1866 3472 
Q 1563 3066 1563 2328 
Q 1563 1594 1866 1187 
Q 2169 781 2719 781 
Q 3272 781 3575 1187 
Q 3878 1594 3878 2328 
Q 3878 3066 3575 3472 
Q 3272 3878 2719 3878 
z
M 2719 4750 
Q 3844 4750 4481 4106 
Q 5119 3463 5119 2328 
Q 5119 1197 4481 553 
Q 3844 -91 2719 -91 
Q 1597 -91 958 553 
Q 319 1197 319 2328 
Q 319 3463 958 4106 
Q 1597 4750 2719 4750 
z
" transform="scale(0.015625)"/>
      <path id="DejaVuSans-Bold-26" d="M 4288 256 
Q 3956 84 3597 -3 
Q 3238 -91 2847 -91 
Q 1681 -91 1000 561 
Q 319 1213 319 2328 
Q 319 3447 1000 4098 
Q 1681 4750 2847 4750 
Q 3238 4750 3597 4662 
Q 3956 4575 4288 4403 
L 4288 3438 
Q 3953 3666 3628 3772 
Q 3303 3878 2944 3878 
Q 2300 3878 1931 3465 
Q 1563 3053 1563 2328 
Q 1563 1606 1931 1193 
Q 2300 781 2944 781 
Q 3303 781 3628 887 
Q 3953 994 4288 1222 
L 4288 256 
z
" transform="scale(0.015625)"/>
      <path id="DejaVuSans-Bold-2f" d="M 588 4666 
L 1791 4666 
L 1791 909 
L 3903 909 
L 3903 0 
L 588 0 
L 588 4666 
z
" transform="scale(0.015625)"/>
      <path id="DejaVuSans-Bold-24" d="M 3419 850 
L 1538 850 
L 1241 0 
L 31 0 
L 1759 4666 
L 3194 4666 
L 4922 0 
L 3713 0 
L 3419 850 
z
M 1838 1716 
L 3116 1716 
L 2478 3572 
L 1838 1716 
z
" transform="scale(0.015625)"/>
      <path id="DejaVuSans-Bold-3a" d="M 191 4666 
L 1344 4666 
L 2150 1275 
L 2950 4666 
L 4109 4666 
L 4909 1275 
L 5716 4666 
L 6859 4666 
L 5759 0 
L 4372 0 
L 3525 3547 
L 2688 0 
L 1300 0 
L 191 4666 
z
" transform="scale(0.015625)"/>
      <path id="DejaVuSans-Bold-3" transform="scale(0.015625)"/>
      <path id="DejaVuSans-Bold-b" d="M 2413 -844 
L 1484 -844 
Q 1006 -72 778 623 
Q 550 1319 550 2003 
Q 550 2688 779 3389 
Q 1009 4091 1484 4856 
L 2413 4856 
Q 2013 4116 1813 3408 
Q 1613 2700 1613 2009 
Q 1613 1319 1811 609 
Q 2009 -100 2413 -844 
z
" transform="scale(0.015625)"/>
      <path id="DejaVuSans-Bold-39" d="M 31 4666 
L 1241 4666 
L 2478 1222 
L 3713 4666 
L 4922 4666 
L 3194 0 
L 1759 0 
L 31 4666 
z
" transform="scale(0.015625)"/>
      <path id="DejaVuSans-Bold-2c" d="M 588 4666 
L 1791 4666 
L 1791 0 
L 588 0 
L 588 4666 
z
" transform="scale(0.015625)"/>
      <path id="DejaVuSans-Bold-27" d="M 1791 3756 
L 1791 909 
L 2222 909 
Q 2959 909 3348 1275 
Q 3738 1641 3738 2338 
Q 3738 3031 3350 3393 
Q 2963 3756 2222 3756 
L 1791 3756 
z
M 588 4666 
L 1856 4666 
Q 2919 4666 3439 4514 
Q 3959 4363 4331 4000 
Q 4659 3684 4818 3271 
Q 4978 2859 4978 2338 
Q 4978 1809 4818 1395 
Q 4659 981 4331 666 
Q 3956 303 3431 151 
Q 2906 0 1856 0 
L 588 0 
L 588 4666 
z
" transform="scale(0.015625)"/>
      <path id="DejaVuSans-Bold-12" d="M 1644 4666 
L 2338 4666 
L 691 -594 
L 0 -594 
L 1644 4666 
z
" transform="scale(0.015625)"/>
      <path id="DejaVuSans-Bold-48" d="M 4031 1759 
L 4031 1441 
L 1416 1441 
Q 1456 1047 1700 850 
Q 1944 653 2381 653 
Q 2734 653 3104 758 
Q 3475 863 3866 1075 
L 3866 213 
Q 3469 63 3072 -14 
Q 2675 -91 2278 -91 
Q 1328 -91 801 392 
Q 275 875 275 1747 
Q 275 2603 792 3093 
Q 1309 3584 2216 3584 
Q 3041 3584 3536 3087 
Q 4031 2591 4031 1759 
z
M 2881 2131 
Q 2881 2450 2695 2645 
Q 2509 2841 2209 2841 
Q 1884 2841 1681 2658 
Q 1478 2475 1428 2131 
L 2881 2131 
z
" transform="scale(0.015625)"/>
      <path id="DejaVuSans-Bold-50" d="M 3781 2919 
Q 3994 3244 4286 3414 
Q 4578 3584 4928 3584 
Q 5531 3584 5847 3212 
Q 6163 2841 6163 2131 
L 6163 0 
L 5038 0 
L 5038 1825 
Q 5041 1866 5042 1909 
Q 5044 1953 5044 2034 
Q 5044 2406 4934 2573 
Q 4825 2741 4581 2741 
Q 4263 2741 4089 2478 
Q 3916 2216 3909 1719 
L 3909 0 
L 2784 0 
L 2784 1825 
Q 2784 2406 2684 2573 
Q 2584 2741 2328 2741 
Q 2006 2741 1831 2477 
Q 1656 2213 1656 1722 
L 1656 0 
L 531 0 
L 531 3500 
L 1656 3500 
L 1656 2988 
Q 1863 3284 2130 3434 
Q 2397 3584 2719 3584 
Q 3081 3584 3359 3409 
Q 3638 3234 3781 2919 
z
" transform="scale(0.015625)"/>
      <path id="DejaVuSans-Bold-52" d="M 2203 2784 
Q 1831 2784 1636 2517 
Q 1441 2250 1441 1747 
Q 1441 1244 1636 976 
Q 1831 709 2203 709 
Q 2569 709 2762 976 
Q 2956 1244 2956 1747 
Q 2956 2250 2762 2517 
Q 2569 2784 2203 2784 
z
M 2203 3584 
Q 3106 3584 3614 3096 
Q 4122 2609 4122 1747 
Q 4122 884 3614 396 
Q 3106 -91 2203 -91 
Q 1297 -91 786 396 
Q 275 884 275 1747 
Q 275 2609 786 3096 
Q 1297 3584 2203 3584 
z
" transform="scale(0.015625)"/>
      <path id="DejaVuSans-Bold-4f" d="M 538 4863 
L 1656 4863 
L 1656 0 
L 538 0 
L 538 4863 
z
" transform="scale(0.015625)"/>
      <path id="DejaVuSans-Bold-44" d="M 2106 1575 
Q 1756 1575 1579 1456 
Q 1403 1338 1403 1106 
Q 1403 894 1545 773 
Q 1688 653 1941 653 
Q 2256 653 2472 879 
Q 2688 1106 2688 1447 
L 2688 1575 
L 2106 1575 
z
M 3816 1997 
L 3816 0 
L 2688 0 
L 2688 519 
Q 2463 200 2181 54 
Q 1900 -91 1497 -91 
Q 953 -91 614 226 
Q 275 544 275 1050 
Q 275 1666 698 1953 
Q 1122 2241 2028 2241 
L 2688 2241 
L 2688 2328 
Q 2688 2594 2478 2717 
Q 2269 2841 1825 2841 
Q 1466 2841 1156 2769 
Q 847 2697 581 2553 
L 581 3406 
Q 941 3494 1303 3539 
Q 1666 3584 2028 3584 
Q 2975 3584 3395 3211 
Q 3816 2838 3816 1997 
z
" transform="scale(0.015625)"/>
      <path id="DejaVuSans-Bold-5a" d="M 225 3500 
L 1313 3500 
L 1900 1088 
L 2491 3500 
L 3425 3500 
L 4013 1113 
L 4603 3500 
L 5691 3500 
L 4769 0 
L 3547 0 
L 2956 2406 
L 2369 0 
L 1147 0 
L 225 3500 
z
" transform="scale(0.015625)"/>
      <path id="DejaVuSans-Bold-c" d="M 513 -844 
Q 913 -100 1113 609 
Q 1313 1319 1313 2009 
Q 1313 2700 1113 3408 
Q 913 4116 513 4856 
L 1441 4856 
Q 1916 4091 2145 3389 
Q 2375 2688 2375 2003 
Q 2375 1319 2147 623 
Q 1919 -72 1441 -844 
L 513 -844 
z
" transform="scale(0.015625)"/>
      <path id="DejaVuSans-Bold-af6" d="M 344 2156 
L 6056 2156 
L 6056 1350 
L 344 1350 
L 344 2156 
z
" transform="scale(0.015625)"/>
      <path id="DejaVuSans-Bold-7" d="M 2484 -941 
L 1978 -941 
L 1975 0 
Q 1584 16 1218 87 
Q 853 159 506 288 
L 506 1106 
Q 866 922 1233 823 
Q 1600 725 1978 713 
L 1978 1684 
L 1875 1703 
Q 1128 1834 814 2115 
Q 500 2397 500 2925 
Q 500 3484 883 3798 
Q 1266 4113 1975 4141 
L 1978 4863 
L 2484 4863 
L 2484 4153 
Q 2797 4128 3109 4075 
Q 3422 4022 3738 3938 
L 3738 3144 
Q 3425 3275 3112 3348 
Q 2800 3422 2484 3438 
L 2484 2541 
L 2584 2522 
Q 3378 2397 3698 2105 
Q 4019 1813 4019 1241 
Q 4019 666 3637 358 
Q 3256 50 2484 6 
L 2484 -941 
z
M 1978 2613 
L 1978 3428 
Q 1756 3416 1623 3308 
Q 1491 3200 1491 3034 
Q 1491 2850 1612 2745 
Q 1734 2641 1978 2613 
z
M 2484 1594 
L 2484 725 
Q 2756 728 2892 831 
Q 3028 934 3028 1141 
Q 3028 1353 2903 1458 
Q 2778 1563 2484 1594 
z
" transform="scale(0.015625)"/>
      <path id="DejaVuSans-Bold-15" d="M 1844 884 
L 3897 884 
L 3897 0 
L 506 0 
L 506 884 
L 2209 2388 
Q 2438 2594 2547 2791 
Q 2656 2988 2656 3200 
Q 2656 3528 2436 3728 
Q 2216 3928 1850 3928 
Q 1569 3928 1234 3808 
Q 900 3688 519 3450 
L 519 4475 
Q 925 4609 1322 4679 
Q 1719 4750 2100 4750 
Q 2938 4750 3402 4381 
Q 3866 4013 3866 3353 
Q 3866 2972 3669 2642 
Q 3472 2313 2841 1759 
L 1844 884 
z
" transform="scale(0.015625)"/>
      <path id="DejaVuSans-Bold-17" d="M 2356 3675 
L 1038 1722 
L 2356 1722 
L 2356 3675 
z
M 2156 4666 
L 3494 4666 
L 3494 1722 
L 4159 1722 
L 4159 850 
L 3494 850 
L 3494 0 
L 2356 0 
L 2356 850 
L 288 850 
L 288 1881 
L 2156 4666 
z
" transform="scale(0.015625)"/>
      <path id="DejaVuSans-Bold-1c" d="M 641 103 
L 641 966 
Q 928 831 1190 764 
Q 1453 697 1709 697 
Q 2247 697 2547 995 
Q 2847 1294 2900 1881 
Q 2688 1725 2447 1647 
Q 2206 1569 1925 1569 
Q 1209 1569 770 1986 
Q 331 2403 331 3084 
Q 331 3838 820 4291 
Q 1309 4744 2131 4744 
Q 3044 4744 3544 4128 
Q 4044 3513 4044 2388 
Q 4044 1231 3459 570 
Q 2875 -91 1856 -91 
Q 1528 -91 1228 -42 
Q 928 6 641 103 
z
M 2125 2350 
Q 2441 2350 2600 2554 
Q 2759 2759 2759 3169 
Q 2759 3575 2600 3781 
Q 2441 3988 2125 3988 
Q 1809 3988 1650 3781 
Q 1491 3575 1491 3169 
Q 1491 2759 1650 2554 
Q 1809 2350 2125 2350 
z
" transform="scale(0.015625)"/>
      <path id="DejaVuSans-Bold-11" d="M 653 1209 
L 1778 1209 
L 1778 0 
L 653 0 
L 653 1209 
z
" transform="scale(0.015625)"/>
      <path id="DejaVuSans-Bold-13" d="M 2944 2338 
Q 2944 3213 2780 3570 
Q 2616 3928 2228 3928 
Q 1841 3928 1675 3570 
Q 1509 3213 1509 2338 
Q 1509 1453 1675 1090 
Q 1841 728 2228 728 
Q 2613 728 2778 1090 
Q 2944 1453 2944 2338 
z
M 4147 2328 
Q 4147 1169 3647 539 
Q 3147 -91 2228 -91 
Q 1306 -91 806 539 
Q 306 1169 306 2328 
Q 306 3491 806 4120 
Q 1306 4750 2228 4750 
Q 3147 4750 3647 4120 
Q 4147 3491 4147 2328 
z
" transform="scale(0.015625)"/>
      <path id="DejaVuSans-Bold-19" d="M 2316 2303 
Q 2000 2303 1842 2098 
Q 1684 1894 1684 1484 
Q 1684 1075 1842 870 
Q 2000 666 2316 666 
Q 2634 666 2792 870 
Q 2950 1075 2950 1484 
Q 2950 1894 2792 2098 
Q 2634 2303 2316 2303 
z
M 3803 4544 
L 3803 3681 
Q 3506 3822 3243 3889 
Q 2981 3956 2731 3956 
Q 2194 3956 1894 3657 
Q 1594 3359 1544 2772 
Q 1750 2925 1990 3001 
Q 2231 3078 2516 3078 
Q 3231 3078 3670 2659 
Q 4109 2241 4109 1563 
Q 4109 813 3618 361 
Q 3128 -91 2303 -91 
Q 1394 -91 895 523 
Q 397 1138 397 2266 
Q 397 3422 980 4083 
Q 1563 4744 2578 4744 
Q 2900 4744 3203 4694 
Q 3506 4644 3803 4544 
z
" transform="scale(0.015625)"/>
      <path id="DejaVuSans-Bold-10" d="M 347 2297 
L 2309 2297 
L 2309 1388 
L 347 1388 
L 347 2297 
z
" transform="scale(0.015625)"/>
      <path id="DejaVuSans-Bold-14" d="M 750 831 
L 1813 831 
L 1813 3847 
L 722 3622 
L 722 4441 
L 1806 4666 
L 2950 4666 
L 2950 831 
L 4013 831 
L 4013 0 
L 750 0 
L 750 831 
z
" transform="scale(0.015625)"/>
      <path id="DejaVuSans-Bold-1b" d="M 2228 2088 
Q 1891 2088 1709 1903 
Q 1528 1719 1528 1375 
Q 1528 1031 1709 848 
Q 1891 666 2228 666 
Q 2563 666 2741 848 
Q 2919 1031 2919 1375 
Q 2919 1722 2741 1905 
Q 2563 2088 2228 2088 
z
M 1350 2484 
Q 925 2613 709 2878 
Q 494 3144 494 3541 
Q 494 4131 934 4440 
Q 1375 4750 2228 4750 
Q 3075 4750 3515 4442 
Q 3956 4134 3956 3541 
Q 3956 3144 3739 2878 
Q 3522 2613 3097 2484 
Q 3572 2353 3814 2058 
Q 4056 1763 4056 1313 
Q 4056 619 3595 264 
Q 3134 -91 2228 -91 
Q 1319 -91 855 264 
Q 391 619 391 1313 
Q 391 1763 633 2058 
Q 875 2353 1350 2484 
z
M 1631 3419 
Q 1631 3141 1786 2991 
Q 1941 2841 2228 2841 
Q 2509 2841 2662 2991 
Q 2816 3141 2816 3419 
Q 2816 3697 2662 3845 
Q 2509 3994 2228 3994 
Q 1941 3994 1786 3844 
Q 1631 3694 1631 3419 
z
" transform="scale(0.015625)"/>
      <path id="DejaVuSans-Bold-8" d="M 4959 1925 
Q 4738 1925 4616 1733 
Q 4494 1541 4494 1184 
Q 4494 825 4614 633 
Q 4734 441 4959 441 
Q 5184 441 5303 633 
Q 5422 825 5422 1184 
Q 5422 1541 5301 1733 
Q 5181 1925 4959 1925 
z
M 4959 2450 
Q 5541 2450 5875 2112 
Q 6209 1775 6209 1184 
Q 6209 594 5875 251 
Q 5541 -91 4959 -91 
Q 4378 -91 4042 251 
Q 3706 594 3706 1184 
Q 3706 1772 4042 2111 
Q 4378 2450 4959 2450 
z
M 2094 -91 
L 1403 -91 
L 4319 4750 
L 5013 4750 
L 2094 -91 
z
M 1453 4750 
Q 2034 4750 2367 4411 
Q 2700 4072 2700 3481 
Q 2700 2891 2367 2550 
Q 2034 2209 1453 2209 
Q 872 2209 539 2550 
Q 206 2891 206 3481 
Q 206 4072 539 4411 
Q 872 4750 1453 4750 
z
M 1453 4225 
Q 1228 4225 1106 4031 
Q 984 3838 984 3481 
Q 984 3122 1106 2926 
Q 1228 2731 1453 2731 
Q 1678 2731 1798 2926 
Q 1919 3122 1919 3481 
Q 1919 3838 1797 4031 
Q 1675 4225 1453 4225 
z
" transform="scale(0.015625)"/>
     </defs>
     <use xlink:href="#DejaVuSans-Bold-31"/>
     <use xlink:href="#DejaVuSans-Bold-28" transform="translate(83.6875 0)"/>
     <use xlink:href="#DejaVuSans-Bold-30" transform="translate(152 0)"/>
     <use xlink:href="#DejaVuSans-Bold-32" transform="translate(251.515625 0)"/>
     <use xlink:href="#DejaVuSans-Bold-26" transform="translate(336.53125 0)"/>
     <use xlink:href="#DejaVuSans-Bold-2f" transform="translate(409.921875 0)"/>
     <use xlink:href="#DejaVuSans-Bold-24" transform="translate(473.640625 0)"/>
     <use xlink:href="#DejaVuSans-Bold-3a" transform="translate(546.546875 0)"/>
     <use xlink:href="#DejaVuSans-Bold-3" transform="translate(656.84375 0)"/>
     <use xlink:href="#DejaVuSans-Bold-b" transform="translate(691.65625 0)"/>
     <use xlink:href="#DejaVuSans-Bold-31" transform="translate(737.359375 0)"/>
     <use xlink:href="#DejaVuSans-Bold-39" transform="translate(821.046875 0)"/>
     <use xlink:href="#DejaVuSans-Bold-2c" transform="translate(898.4375 0)"/>
     <use xlink:href="#DejaVuSans-Bold-27" transform="translate(935.640625 0)"/>
     <use xlink:href="#DejaVuSans-Bold-2c" transform="translate(1018.65625 0)"/>
     <use xlink:href="#DejaVuSans-Bold-24" transform="translate(1055.859375 0)"/>
     <use xlink:href="#DejaVuSans-Bold-12" transform="translate(1133.25 0)"/>
     <use xlink:href="#DejaVuSans-Bold-31" transform="translate(1169.78125 0)"/>
     <use xlink:href="#DejaVuSans-Bold-48" transform="translate(1253.46875 0)"/>
     <use xlink:href="#DejaVuSans-Bold-50" transform="translate(1321.296875 0)"/>
     <use xlink:href="#DejaVuSans-Bold-52" transform="translate(1425.5 0)"/>
     <use xlink:href="#DejaVuSans-Bold-26" transform="translate(1494.203125 0)"/>
     <use xlink:href="#DejaVuSans-Bold-4f" transform="translate(1567.59375 0)"/>
     <use xlink:href="#DejaVuSans-Bold-44" transform="translate(1601.875 0)"/>
     <use xlink:href="#DejaVuSans-Bold-5a" transform="translate(1669.359375 0)"/>
     <use xlink:href="#DejaVuSans-Bold-c" transform="translate(1761.75 0)"/>
     <use xlink:href="#DejaVuSans-Bold-3" transform="translate(1807.453125 0)"/>
     <use xlink:href="#DejaVuSans-Bold-af6" transform="translate(1842.265625 0)"/>
     <use xlink:href="#DejaVuSans-Bold-3" transform="translate(1942.265625 0)"/>
     <use xlink:href="#DejaVuSans-Bold-7" transform="translate(1977.078125 0)"/>
     <use xlink:href="#DejaVuSans-Bold-15" transform="translate(2046.65625 0)"/>
     <use xlink:href="#DejaVuSans-Bold-17" transform="translate(2116.234375 0)"/>
     <use xlink:href="#DejaVuSans-Bold-1c" transform="translate(2185.8125 0)"/>
     <use xlink:href="#DejaVuSans-Bold-11" transform="translate(2255.390625 0)"/>
     <use xlink:href="#DejaVuSans-Bold-13" transform="translate(2293.375 0)"/>
     <use xlink:href="#DejaVuSans-Bold-19" transform="translate(2362.953125 0)"/>
     <use xlink:href="#DejaVuSans-Bold-3" transform="translate(2432.53125 0)"/>
     <use xlink:href="#DejaVuSans-Bold-b" transform="translate(2467.34375 0)"/>
     <use xlink:href="#DejaVuSans-Bold-10" transform="translate(2513.046875 0)"/>
     <use xlink:href="#DejaVuSans-Bold-15" transform="translate(2554.546875 0)"/>
     <use xlink:href="#DejaVuSans-Bold-17" transform="translate(2624.125 0)"/>
     <use xlink:href="#DejaVuSans-Bold-11" transform="translate(2693.703125 0)"/>
     <use xlink:href="#DejaVuSans-Bold-14" transform="translate(2731.6875 0)"/>
     <use xlink:href="#DejaVuSans-Bold-1b" transform="translate(2801.265625 0)"/>
     <use xlink:href="#DejaVuSans-Bold-8" transform="translate(2870.84375 0)"/>
     <use xlink:href="#DejaVuSans-Bold-c" transform="translate(2971.046875 0)"/>
    </g>
   </g>
  </g>
 </g>
 <defs>
  <clipPath id="pe117da237c">
   <rect x="34.56" y="21.558281" width="383.24" height="128.76"/>
  </clipPath>
 </defs>
</svg>
