<?xml version="1.0" encoding="utf-8" standalone="no"?>
<!DOCTYPE svg PUBLIC "-//W3C//DTD SVG 1.1//EN"
  "http://www.w3.org/Graphics/SVG/1.1/DTD/svg11.dtd">
<svg xmlns:xlink="http://www.w3.org/1999/xlink" width="425pt" height="172.518281pt" viewBox="0 0 425 172.518281" xmlns="http://www.w3.org/2000/svg" version="1.1">
 <metadata>
  <rdf:RDF xmlns:dc="http://purl.org/dc/elements/1.1/" xmlns:cc="http://creativecommons.org/ns#" xmlns:rdf="http://www.w3.org/1999/02/22-rdf-syntax-ns#">
   <cc:Work>
    <dc:type rdf:resource="http://purl.org/dc/dcmitype/StillImage"/>
    <dc:date>2026-07-23T07:32:13.397772</dc:date>
    <dc:format>image/svg+xml</dc:format>
    <dc:creator>
     <cc:Agent>
      <dc:title>Matplotlib v3.11.1, https://matplotlib.org/</dc:title>
     </cc:Agent>
    </dc:creator>
   </cc:Work>
  </rdf:RDF>
 </metadata>
 <defs>
  <style type="text/css">*{stroke-linejoin: round; stroke-linecap: butt}</style>
 </defs>
 <g id="figure_1">
  <g id="patch_1">
   <path d="M 0 172.518281 
L 425 172.518281 
L 425 0 
L 0 0 
z
" style="fill: #0d1117"/>
  </g>
  <g id="axes_1">
   <g id="patch_2">
    <path d="M 34.56 150.318281 
L 417.8 150.318281 
L 417.8 21.558281 
L 34.56 21.558281 
z
" style="fill: #0d1117"/>
   </g>
   <g id="FillBetweenPolyCollection_1">
    <defs>
     <path id="m35ba8aa091" d="M 51.98 -28.052727 
L 51.98 -92.061676 
L 53.713333 -106.907796 
L 55.446667 -97.225191 
L 57.18 -86.825206 
L 58.913333 -105.286598 
L 60.646667 -107.073969 
L 62.38 -101.841552 
L 64.113333 -105.035312 
L 65.846667 -105.955342 
L 67.58 -105.481142 
L 69.313333 -102.254958 
L 71.046667 -103.162829 
L 72.78 -104.22066 
L 74.513333 -101.9064 
L 76.246667 -103.478962 
L 77.98 -99.085516 
L 79.713333 -102.307647 
L 81.446667 -101.659167 
L 83.18 -104.921828 
L 84.913333 -103.312789 
L 86.646667 -100.998529 
L 88.38 -103.158776 
L 90.113333 -99.126046 
L 91.846667 -101.27008 
L 93.58 -103.778884 
L 95.313333 -101.492995 
L 97.046667 -101.768598 
L 98.78 -91.17407 
L 100.513333 -105.266333 
L 102.246667 -100.021758 
L 103.98 -99.219265 
L 105.713333 -101.719962 
L 107.446667 -99.985281 
L 109.18 -98.031737 
L 110.913333 -99.6732 
L 112.646667 -98.643739 
L 114.38 -97.208979 
L 116.113333 -99.008509 
L 117.846667 -100.001493 
L 119.58 -104.042328 
L 121.313333 -97.679127 
L 123.046667 -102.396813 
L 124.78 -102.157686 
L 126.513333 -104.147706 
L 128.246667 -101.205232 
L 129.98 -101.934771 
L 131.713333 -101.586214 
L 133.446667 -100.718873 
L 135.18 -102.567038 
L 136.913333 -99.300324 
L 138.646667 -100.722926 
L 140.38 -101.355193 
L 142.113333 -101.886135 
L 143.846667 -101.014741 
L 145.58 -104.431416 
L 147.313333 -102.490031 
L 149.046667 -102.376548 
L 150.78 -102.125262 
L 152.513333 -102.441396 
L 154.246667 -102.023937 
L 155.98 -102.615674 
L 157.713333 -104.224713 
L 159.446667 -101.9064 
L 161.18 -104.293614 
L 162.913333 -103.661347 
L 164.646667 -102.672416 
L 166.38 -119.382914 
L 168.113333 -119.516663 
L 169.846667 -94.586691 
L 171.58 -99.276006 
L 173.313333 -99.924486 
L 175.046667 -99.701571 
L 176.78 -96.710461 
L 178.513333 -99.705624 
L 180.246667 -97.589961 
L 181.98 -103.207412 
L 183.713333 -97.379205 
L 185.446667 -103.211465 
L 187.18 -98.453249 
L 188.913333 -98.980138 
L 190.646667 -99.774525 
L 192.38 -114.669281 
L 194.113333 -111.641694 
L 195.846667 -94.023325 
L 197.58 -113.514178 
L 199.313333 -111.682224 
L 201.046667 -110.494696 
L 202.78 -124.080335 
L 204.513333 -113.299369 
L 206.246667 -116.322903 
L 207.98 -118.094062 
L 209.713333 -112.24559 
L 211.446667 -112.821115 
L 213.18 -115.617682 
L 214.913333 -103.535704 
L 216.646667 -114.985415 
L 218.38 -109.080201 
L 220.113333 -111.086434 
L 221.846667 -110.782459 
L 223.58 -107.017227 
L 225.313333 -110.502802 
L 227.046667 -110.839201 
L 228.78 -94.671804 
L 230.513333 -109.521978 
L 232.246667 -108.472252 
L 233.98 -109.124784 
L 235.713333 -106.514655 
L 237.446667 -109.521978 
L 239.18 -107.604911 
L 240.913333 -100.386527 
L 242.646667 -111.824079 
L 244.38 -105.347393 
L 246.113333 -108.038581 
L 247.846667 -109.574667 
L 249.58 -107.430632 
L 251.313333 -108.435775 
L 253.046667 -106.992909 
L 254.78 -108.828915 
L 256.513333 -93.950371 
L 258.246667 -111.957828 
L 259.98 -106.360642 
L 261.713333 -92.280537 
L 263.446667 -109.8908 
L 265.18 -106.437648 
L 266.913333 -108.634372 
L 268.646667 -103.430326 
L 270.38 -106.753782 
L 272.113333 -108.17233 
L 273.846667 -105.756745 
L 275.58 -106.842948 
L 277.313333 -106.563291 
L 279.046667 -102.364389 
L 280.78 -105.294704 
L 282.513333 -106.660563 
L 284.246667 -105.894547 
L 285.98 -106.798365 
L 287.713333 -104.528688 
L 289.446667 -106.684881 
L 291.18 -103.30063 
L 292.913333 -111.025639 
L 294.646667 -105.570308 
L 296.38 -105.849964 
L 298.113333 -98.161433 
L 299.846667 -109.124784 
L 301.58 -103.243888 
L 303.313333 -102.267117 
L 305.046667 -107.138817 
L 306.78 -101.667273 
L 308.513333 -99.174682 
L 310.246667 -107.548169 
L 311.98 -101.367352 
L 313.713333 -104.176077 
L 315.446667 -110.604127 
L 317.18 -107.33336 
L 318.913333 -107.823773 
L 320.646667 -106.94022 
L 322.38 -110.600074 
L 324.113333 -103.089875 
L 325.846667 -109.696256 
L 327.58 -104.66649 
L 329.313333 -131.533793 
L 331.046667 -122.38213 
L 332.78 -127.45648 
L 334.513333 -66.604815 
L 336.246667 -113.396641 
L 337.98 -112.853539 
L 339.713333 -112.172636 
L 341.446667 -115.131323 
L 343.18 -113.485807 
L 344.913333 -109.992125 
L 346.646667 -115.31776 
L 348.38 -123.091404 
L 350.113333 -145.107273 
L 351.846667 -133.422488 
L 353.58 -122.742847 
L 355.313333 -122.649628 
L 357.046667 -116.882216 
L 358.78 -120.481276 
L 360.513333 -122.730688 
L 362.246667 -111.236394 
L 363.98 -121.490471 
L 365.713333 -117.295622 
L 367.446667 -112.869751 
L 369.18 -114.661175 
L 370.913333 -121.591796 
L 372.646667 -110.713558 
L 374.38 -114.811136 
L 376.113333 -116.805209 
L 377.846667 -110.154245 
L 379.58 -110.640604 
L 381.313333 -116.959223 
L 383.046667 -109.874588 
L 384.78 -110.664922 
L 386.513333 -112.225325 
L 388.246667 -108.192595 
L 389.98 -104.917775 
L 391.713333 -108.982929 
L 393.446667 -108.926187 
L 395.18 -98.047949 
L 396.913333 -109.93133 
L 398.646667 -108.135853 
L 400.38 -114.936779 
L 400.38 -28.052727 
L 400.38 -28.052727 
L 398.646667 -28.052727 
L 396.913333 -28.052727 
L 395.18 -28.052727 
L 393.446667 -28.052727 
L 391.713333 -28.052727 
L 389.98 -28.052727 
L 388.246667 -28.052727 
L 386.513333 -28.052727 
L 384.78 -28.052727 
L 383.046667 -28.052727 
L 381.313333 -28.052727 
L 379.58 -28.052727 
L 377.846667 -28.052727 
L 376.113333 -28.052727 
L 374.38 -28.052727 
L 372.646667 -28.052727 
L 370.913333 -28.052727 
L 369.18 -28.052727 
L 367.446667 -28.052727 
L 365.713333 -28.052727 
L 363.98 -28.052727 
L 362.246667 -28.052727 
L 360.513333 -28.052727 
L 358.78 -28.052727 
L 357.046667 -28.052727 
L 355.313333 -28.052727 
L 353.58 -28.052727 
L 351.846667 -28.052727 
L 350.113333 -28.052727 
L 348.38 -28.052727 
L 346.646667 -28.052727 
L 344.913333 -28.052727 
L 343.18 -28.052727 
L 341.446667 -28.052727 
L 339.713333 -28.052727 
L 337.98 -28.052727 
L 336.246667 -28.052727 
L 334.513333 -28.052727 
L 332.78 -28.052727 
L 331.046667 -28.052727 
L 329.313333 -28.052727 
L 327.58 -28.052727 
L 325.846667 -28.052727 
L 324.113333 -28.052727 
L 322.38 -28.052727 
L 320.646667 -28.052727 
L 318.913333 -28.052727 
L 317.18 -28.052727 
L 315.446667 -28.052727 
L 313.713333 -28.052727 
L 311.98 -28.052727 
L 310.246667 -28.052727 
L 308.513333 -28.052727 
L 306.78 -28.052727 
L 305.046667 -28.052727 
L 303.313333 -28.052727 
L 301.58 -28.052727 
L 299.846667 -28.052727 
L 298.113333 -28.052727 
L 296.38 -28.052727 
L 294.646667 -28.052727 
L 292.913333 -28.052727 
L 291.18 -28.052727 
L 289.446667 -28.052727 
L 287.713333 -28.052727 
L 285.98 -28.052727 
L 284.246667 -28.052727 
L 282.513333 -28.052727 
L 280.78 -28.052727 
L 279.046667 -28.052727 
L 277.313333 -28.052727 
L 275.58 -28.052727 
L 273.846667 -28.052727 
L 272.113333 -28.052727 
L 270.38 -28.052727 
L 268.646667 -28.052727 
L 266.913333 -28.052727 
L 265.18 -28.052727 
L 263.446667 -28.052727 
L 261.713333 -28.052727 
L 259.98 -28.052727 
L 258.246667 -28.052727 
L 256.513333 -28.052727 
L 254.78 -28.052727 
L 253.046667 -28.052727 
L 251.313333 -28.052727 
L 249.58 -28.052727 
L 247.846667 -28.052727 
L 246.113333 -28.052727 
L 244.38 -28.052727 
L 242.646667 -28.052727 
L 240.913333 -28.052727 
L 239.18 -28.052727 
L 237.446667 -28.052727 
L 235.713333 -28.052727 
L 233.98 -28.052727 
L 232.246667 -28.052727 
L 230.513333 -28.052727 
L 228.78 -28.052727 
L 227.046667 -28.052727 
L 225.313333 -28.052727 
L 223.58 -28.052727 
L 221.846667 -28.052727 
L 220.113333 -28.052727 
L 218.38 -28.052727 
L 216.646667 -28.052727 
L 214.913333 -28.052727 
L 213.18 -28.052727 
L 211.446667 -28.052727 
L 209.713333 -28.052727 
L 207.98 -28.052727 
L 206.246667 -28.052727 
L 204.513333 -28.052727 
L 202.78 -28.052727 
L 201.046667 -28.052727 
L 199.313333 -28.052727 
L 197.58 -28.052727 
L 195.846667 -28.052727 
L 194.113333 -28.052727 
L 192.38 -28.052727 
L 190.646667 -28.052727 
L 188.913333 -28.052727 
L 187.18 -28.052727 
L 185.446667 -28.052727 
L 183.713333 -28.052727 
L 181.98 -28.052727 
L 180.246667 -28.052727 
L 178.513333 -28.052727 
L 176.78 -28.052727 
L 175.046667 -28.052727 
L 173.313333 -28.052727 
L 171.58 -28.052727 
L 169.846667 -28.052727 
L 168.113333 -28.052727 
L 166.38 -28.052727 
L 164.646667 -28.052727 
L 162.913333 -28.052727 
L 161.18 -28.052727 
L 159.446667 -28.052727 
L 157.713333 -28.052727 
L 155.98 -28.052727 
L 154.246667 -28.052727 
L 152.513333 -28.052727 
L 150.78 -28.052727 
L 149.046667 -28.052727 
L 147.313333 -28.052727 
L 145.58 -28.052727 
L 143.846667 -28.052727 
L 142.113333 -28.052727 
L 140.38 -28.052727 
L 138.646667 -28.052727 
L 136.913333 -28.052727 
L 135.18 -28.052727 
L 133.446667 -28.052727 
L 131.713333 -28.052727 
L 129.98 -28.052727 
L 128.246667 -28.052727 
L 126.513333 -28.052727 
L 124.78 -28.052727 
L 123.046667 -28.052727 
L 121.313333 -28.052727 
L 119.58 -28.052727 
L 117.846667 -28.052727 
L 116.113333 -28.052727 
L 114.38 -28.052727 
L 112.646667 -28.052727 
L 110.913333 -28.052727 
L 109.18 -28.052727 
L 107.446667 -28.052727 
L 105.713333 -28.052727 
L 103.98 -28.052727 
L 102.246667 -28.052727 
L 100.513333 -28.052727 
L 98.78 -28.052727 
L 97.046667 -28.052727 
L 95.313333 -28.052727 
L 93.58 -28.052727 
L 91.846667 -28.052727 
L 90.113333 -28.052727 
L 88.38 -28.052727 
L 86.646667 -28.052727 
L 84.913333 -28.052727 
L 83.18 -28.052727 
L 81.446667 -28.052727 
L 79.713333 -28.052727 
L 77.98 -28.052727 
L 76.246667 -28.052727 
L 74.513333 -28.052727 
L 72.78 -28.052727 
L 71.046667 -28.052727 
L 69.313333 -28.052727 
L 67.58 -28.052727 
L 65.846667 -28.052727 
L 64.113333 -28.052727 
L 62.38 -28.052727 
L 60.646667 -28.052727 
L 58.913333 -28.052727 
L 57.18 -28.052727 
L 55.446667 -28.052727 
L 53.713333 -28.052727 
L 51.98 -28.052727 
z
" style="stroke: #3fb950; stroke-opacity: 0.15"/>
    </defs>
    <g clip-path="url(#p93fed3f713)">
     <use xlink:href="#m35ba8aa091" x="0" y="172.518281" style="fill: #3fb950; fill-opacity: 0.15; stroke: #3fb950; stroke-opacity: 0.15"/>
    </g>
   </g>
   <g id="matplotlib.axis_1">
    <g id="xtick_1">
     <g id="line2d_1">
      <path d="M 51.98 150.318281 
L 51.98 21.558281 
" clip-path="url(#p93fed3f713)" style="fill: none; stroke: #21262d; stroke-opacity: 0.5; stroke-width: 0.5; stroke-linecap: square"/>
     </g>
     <g id="line2d_2">
      <defs>
       <path id="m786623f645" d="M 0 0 
L 0 3.5 
" style="stroke: #c9d1d9; stroke-width: 0.8"/>
      </defs>
      <g>
       <use xlink:href="#m786623f645" x="51.98" y="150.318281" style="fill: #c9d1d9; stroke: #c9d1d9; stroke-width: 0.8"/>
      </g>
     </g>
     <g id="text_1">
      <!-- 0 -->
      <g style="fill: #c9d1d9" transform="translate(49.435 163.396406) scale(0.08 -0.08)">
       <defs>
        <path id="DejaVuSans-13" d="M 2034 4250 
Q 1547 4250 1301 3770 
Q 1056 3291 1056 2328 
Q 1056 1369 1301 889 
Q 1547 409 2034 409 
Q 2525 409 2770 889 
Q 3016 1369 3016 2328 
Q 3016 3291 2770 3770 
Q 2525 4250 2034 4250 
z
M 2034 4750 
Q 2819 4750 3233 4129 
Q 3647 3509 3647 2328 
Q 3647 1150 3233 529 
Q 2819 -91 2034 -91 
Q 1250 -91 836 529 
Q 422 1150 422 2328 
Q 422 3509 836 4129 
Q 1250 4750 2034 4750 
z
" transform="scale(0.015625)"/>
       </defs>
       <use xlink:href="#DejaVuSans-13"/>
      </g>
     </g>
    </g>
    <g id="xtick_2">
     <g id="line2d_3">
      <path d="M 95.313333 150.318281 
L 95.313333 21.558281 
" clip-path="url(#p93fed3f713)" style="fill: none; stroke: #21262d; stroke-opacity: 0.5; stroke-width: 0.5; stroke-linecap: square"/>
     </g>
     <g id="line2d_4">
      <g>
       <use xlink:href="#m786623f645" x="95.313333" y="150.318281" style="fill: #c9d1d9; stroke: #c9d1d9; stroke-width: 0.8"/>
      </g>
     </g>
     <g id="text_2">
      <!-- 25 -->
      <g style="fill: #c9d1d9" transform="translate(90.223333 163.396406) scale(0.08 -0.08)">
       <defs>
        <path id="DejaVuSans-15" d="M 1228 531 
L 3431 531 
L 3431 0 
L 469 0 
L 469 531 
Q 828 903 1448 1529 
Q 2069 2156 2228 2338 
Q 2531 2678 2651 2914 
Q 2772 3150 2772 3378 
Q 2772 3750 2511 3984 
Q 2250 4219 1831 4219 
Q 1534 4219 1204 4116 
Q 875 4013 500 3803 
L 500 4441 
Q 881 4594 1212 4672 
Q 1544 4750 1819 4750 
Q 2544 4750 2975 4387 
Q 3406 4025 3406 3419 
Q 3406 3131 3298 2873 
Q 3191 2616 2906 2266 
Q 2828 2175 2409 1742 
Q 1991 1309 1228 531 
z
" transform="scale(0.015625)"/>
        <path id="DejaVuSans-18" d="M 691 4666 
L 3169 4666 
L 3169 4134 
L 1269 4134 
L 1269 2991 
Q 1406 3038 1543 3061 
Q 1681 3084 1819 3084 
Q 2600 3084 3056 2656 
Q 3513 2228 3513 1497 
Q 3513 744 3044 326 
Q 2575 -91 1722 -91 
Q 1428 -91 1123 -41 
Q 819 9 494 109 
L 494 744 
Q 775 591 1075 516 
Q 1375 441 1709 441 
Q 2250 441 2565 725 
Q 2881 1009 2881 1497 
Q 2881 1984 2565 2268 
Q 2250 2553 1709 2553 
Q 1456 2553 1204 2497 
Q 953 2441 691 2322 
L 691 4666 
z
" transform="scale(0.015625)"/>
       </defs>
       <use xlink:href="#DejaVuSans-15"/>
       <use xlink:href="#DejaVuSans-18" transform="translate(63.625 0)"/>
      </g>
     </g>
    </g>
    <g id="xtick_3">
     <g id="line2d_5">
      <path d="M 138.646667 150.318281 
L 138.646667 21.558281 
" clip-path="url(#p93fed3f713)" style="fill: none; stroke: #21262d; stroke-opacity: 0.5; stroke-width: 0.5; stroke-linecap: square"/>
     </g>
     <g id="line2d_6">
      <g>
       <use xlink:href="#m786623f645" x="138.646667" y="150.318281" style="fill: #c9d1d9; stroke: #c9d1d9; stroke-width: 0.8"/>
      </g>
     </g>
     <g id="text_3">
      <!-- 50 -->
      <g style="fill: #c9d1d9" transform="translate(133.556667 163.396406) scale(0.08 -0.08)">
       <use xlink:href="#DejaVuSans-18"/>
       <use xlink:href="#DejaVuSans-13" transform="translate(63.625 0)"/>
      </g>
     </g>
    </g>
    <g id="xtick_4">
     <g id="line2d_7">
      <path d="M 181.98 150.318281 
L 181.98 21.558281 
" clip-path="url(#p93fed3f713)" style="fill: none; stroke: #21262d; stroke-opacity: 0.5; stroke-width: 0.5; stroke-linecap: square"/>
     </g>
     <g id="line2d_8">
      <g>
       <use xlink:href="#m786623f645" x="181.98" y="150.318281" style="fill: #c9d1d9; stroke: #c9d1d9; stroke-width: 0.8"/>
      </g>
     </g>
     <g id="text_4">
      <!-- 75 -->
      <g style="fill: #c9d1d9" transform="translate(176.89 163.396406) scale(0.08 -0.08)">
       <defs>
        <path id="DejaVuSans-1a" d="M 525 4666 
L 3525 4666 
L 3525 4397 
L 1831 0 
L 1172 0 
L 2766 4134 
L 525 4134 
L 525 4666 
z
" transform="scale(0.015625)"/>
       </defs>
       <use xlink:href="#DejaVuSans-1a"/>
       <use xlink:href="#DejaVuSans-18" transform="translate(63.625 0)"/>
      </g>
     </g>
    </g>
    <g id="xtick_5">
     <g id="line2d_9">
      <path d="M 225.313333 150.318281 
L 225.313333 21.558281 
" clip-path="url(#p93fed3f713)" style="fill: none; stroke: #21262d; stroke-opacity: 0.5; stroke-width: 0.5; stroke-linecap: square"/>
     </g>
     <g id="line2d_10">
      <g>
       <use xlink:href="#m786623f645" x="225.313333" y="150.318281" style="fill: #c9d1d9; stroke: #c9d1d9; stroke-width: 0.8"/>
      </g>
     </g>
     <g id="text_5">
      <!-- 100 -->
      <g style="fill: #c9d1d9" transform="translate(217.678333 163.396406) scale(0.08 -0.08)">
       <defs>
        <path id="DejaVuSans-14" d="M 794 531 
L 1825 531 
L 1825 4091 
L 703 3866 
L 703 4441 
L 1819 4666 
L 2450 4666 
L 2450 531 
L 3481 531 
L 3481 0 
L 794 0 
L 794 531 
z
" transform="scale(0.015625)"/>
       </defs>
       <use xlink:href="#DejaVuSans-14"/>
       <use xlink:href="#DejaVuSans-13" transform="translate(63.625 0)"/>
       <use xlink:href="#DejaVuSans-13" transform="translate(127.25 0)"/>
      </g>
     </g>
    </g>
    <g id="xtick_6">
     <g id="line2d_11">
      <path d="M 268.646667 150.318281 
L 268.646667 21.558281 
" clip-path="url(#p93fed3f713)" style="fill: none; stroke: #21262d; stroke-opacity: 0.5; stroke-width: 0.5; stroke-linecap: square"/>
     </g>
     <g id="line2d_12">
      <g>
       <use xlink:href="#m786623f645" x="268.646667" y="150.318281" style="fill: #c9d1d9; stroke: #c9d1d9; stroke-width: 0.8"/>
      </g>
     </g>
     <g id="text_6">
      <!-- 125 -->
      <g style="fill: #c9d1d9" transform="translate(261.011667 163.396406) scale(0.08 -0.08)">
       <use xlink:href="#DejaVuSans-14"/>
       <use xlink:href="#DejaVuSans-15" transform="translate(63.625 0)"/>
       <use xlink:href="#DejaVuSans-18" transform="translate(127.25 0)"/>
      </g>
     </g>
    </g>
    <g id="xtick_7">
     <g id="line2d_13">
      <path d="M 311.98 150.318281 
L 311.98 21.558281 
" clip-path="url(#p93fed3f713)" style="fill: none; stroke: #21262d; stroke-opacity: 0.5; stroke-width: 0.5; stroke-linecap: square"/>
     </g>
     <g id="line2d_14">
      <g>
       <use xlink:href="#m786623f645" x="311.98" y="150.318281" style="fill: #c9d1d9; stroke: #c9d1d9; stroke-width: 0.8"/>
      </g>
     </g>
     <g id="text_7">
      <!-- 150 -->
      <g style="fill: #c9d1d9" transform="translate(304.345 163.396406) scale(0.08 -0.08)">
       <use xlink:href="#DejaVuSans-14"/>
       <use xlink:href="#DejaVuSans-18" transform="translate(63.625 0)"/>
       <use xlink:href="#DejaVuSans-13" transform="translate(127.25 0)"/>
      </g>
     </g>
    </g>
    <g id="xtick_8">
     <g id="line2d_15">
      <path d="M 355.313333 150.318281 
L 355.313333 21.558281 
" clip-path="url(#p93fed3f713)" style="fill: none; stroke: #21262d; stroke-opacity: 0.5; stroke-width: 0.5; stroke-linecap: square"/>
     </g>
     <g id="line2d_16">
      <g>
       <use xlink:href="#m786623f645" x="355.313333" y="150.318281" style="fill: #c9d1d9; stroke: #c9d1d9; stroke-width: 0.8"/>
      </g>
     </g>
     <g id="text_8">
      <!-- 175 -->
      <g style="fill: #c9d1d9" transform="translate(347.678333 163.396406) scale(0.08 -0.08)">
       <use xlink:href="#DejaVuSans-14"/>
       <use xlink:href="#DejaVuSans-1a" transform="translate(63.625 0)"/>
       <use xlink:href="#DejaVuSans-18" transform="translate(127.25 0)"/>
      </g>
     </g>
    </g>
    <g id="xtick_9">
     <g id="line2d_17">
      <path d="M 398.646667 150.318281 
L 398.646667 21.558281 
" clip-path="url(#p93fed3f713)" style="fill: none; stroke: #21262d; stroke-opacity: 0.5; stroke-width: 0.5; stroke-linecap: square"/>
     </g>
     <g id="line2d_18">
      <g>
       <use xlink:href="#m786623f645" x="398.646667" y="150.318281" style="fill: #c9d1d9; stroke: #c9d1d9; stroke-width: 0.8"/>
      </g>
     </g>
     <g id="text_9">
      <!-- 200 -->
      <g style="fill: #c9d1d9" transform="translate(391.011667 163.396406) scale(0.08 -0.08)">
       <use xlink:href="#DejaVuSans-15"/>
       <use xlink:href="#DejaVuSans-13" transform="translate(63.625 0)"/>
       <use xlink:href="#DejaVuSans-13" transform="translate(127.25 0)"/>
      </g>
     </g>
    </g>
   </g>
   <g id="matplotlib.axis_2">
    <g id="ytick_1">
     <g id="line2d_19">
      <path d="M 34.56 144.465554 
L 417.8 144.465554 
" clip-path="url(#p93fed3f713)" style="fill: none; stroke: #21262d; stroke-opacity: 0.5; stroke-width: 0.5; stroke-linecap: square"/>
     </g>
     <g id="line2d_20">
      <defs>
       <path id="me358ec38f2" d="M 0 0 
L -3.5 0 
" style="stroke: #c9d1d9; stroke-width: 0.8"/>
      </defs>
      <g>
       <use xlink:href="#me358ec38f2" x="34.56" y="144.465554" style="fill: #c9d1d9; stroke: #c9d1d9; stroke-width: 0.8"/>
      </g>
     </g>
     <g id="text_10">
      <!-- $0 -->
      <g style="fill: #c9d1d9" transform="translate(17.38 147.504929) scale(0.08 -0.08)">
       <defs>
        <path id="DejaVuSans-7" d="M 2163 -941 
L 1850 -941 
L 1847 0 
Q 1519 6 1191 76 
Q 863 147 531 288 
L 531 850 
Q 850 650 1176 548 
Q 1503 447 1850 444 
L 1850 1869 
Q 1159 1981 845 2250 
Q 531 2519 531 2988 
Q 531 3497 872 3790 
Q 1213 4084 1850 4128 
L 1850 4863 
L 2163 4863 
L 2163 4138 
Q 2453 4125 2725 4076 
Q 2997 4028 3256 3944 
L 3256 3397 
Q 2997 3528 2723 3600 
Q 2450 3672 2163 3684 
L 2163 2350 
Q 2872 2241 3206 1959 
Q 3541 1678 3541 1191 
Q 3541 663 3186 358 
Q 2831 53 2163 6 
L 2163 -941 
z
M 1850 2406 
L 1850 3688 
Q 1488 3647 1297 3481 
Q 1106 3316 1106 3041 
Q 1106 2772 1282 2622 
Q 1459 2472 1850 2406 
z
M 2163 1806 
L 2163 453 
Q 2559 506 2761 678 
Q 2963 850 2963 1131 
Q 2963 1406 2770 1568 
Q 2578 1731 2163 1806 
z
" transform="scale(0.015625)"/>
       </defs>
       <use xlink:href="#DejaVuSans-7"/>
       <use xlink:href="#DejaVuSans-13" transform="translate(63.625 0)"/>
      </g>
     </g>
    </g>
    <g id="ytick_2">
     <g id="line2d_21">
      <path d="M 34.56 124.20058 
L 417.8 124.20058 
" clip-path="url(#p93fed3f713)" style="fill: none; stroke: #21262d; stroke-opacity: 0.5; stroke-width: 0.5; stroke-linecap: square"/>
     </g>
     <g id="line2d_22">
      <g>
       <use xlink:href="#me358ec38f2" x="34.56" y="124.20058" style="fill: #c9d1d9; stroke: #c9d1d9; stroke-width: 0.8"/>
      </g>
     </g>
     <g id="text_11">
      <!-- $50 -->
      <g style="fill: #c9d1d9" transform="translate(12.29 127.239955) scale(0.08 -0.08)">
       <use xlink:href="#DejaVuSans-7"/>
       <use xlink:href="#DejaVuSans-18" transform="translate(63.625 0)"/>
       <use xlink:href="#DejaVuSans-13" transform="translate(127.25 0)"/>
      </g>
     </g>
    </g>
    <g id="ytick_3">
     <g id="line2d_23">
      <path d="M 34.56 103.935605 
L 417.8 103.935605 
" clip-path="url(#p93fed3f713)" style="fill: none; stroke: #21262d; stroke-opacity: 0.5; stroke-width: 0.5; stroke-linecap: square"/>
     </g>
     <g id="line2d_24">
      <g>
       <use xlink:href="#me358ec38f2" x="34.56" y="103.935605" style="fill: #c9d1d9; stroke: #c9d1d9; stroke-width: 0.8"/>
      </g>
     </g>
     <g id="text_12">
      <!-- $100 -->
      <g style="fill: #c9d1d9" transform="translate(7.2 106.97498) scale(0.08 -0.08)">
       <use xlink:href="#DejaVuSans-7"/>
       <use xlink:href="#DejaVuSans-14" transform="translate(63.625 0)"/>
       <use xlink:href="#DejaVuSans-13" transform="translate(127.25 0)"/>
       <use xlink:href="#DejaVuSans-13" transform="translate(190.875 0)"/>
      </g>
     </g>
    </g>
    <g id="ytick_4">
     <g id="line2d_25">
      <path d="M 34.56 83.670631 
L 417.8 83.670631 
" clip-path="url(#p93fed3f713)" style="fill: none; stroke: #21262d; stroke-opacity: 0.5; stroke-width: 0.5; stroke-linecap: square"/>
     </g>
     <g id="line2d_26">
      <g>
       <use xlink:href="#me358ec38f2" x="34.56" y="83.670631" style="fill: #c9d1d9; stroke: #c9d1d9; stroke-width: 0.8"/>
      </g>
     </g>
     <g id="text_13">
      <!-- $150 -->
      <g style="fill: #c9d1d9" transform="translate(7.2 86.710006) scale(0.08 -0.08)">
       <use xlink:href="#DejaVuSans-7"/>
       <use xlink:href="#DejaVuSans-14" transform="translate(63.625 0)"/>
       <use xlink:href="#DejaVuSans-18" transform="translate(127.25 0)"/>
       <use xlink:href="#DejaVuSans-13" transform="translate(190.875 0)"/>
      </g>
     </g>
    </g>
    <g id="ytick_5">
     <g id="line2d_27">
      <path d="M 34.56 63.405656 
L 417.8 63.405656 
" clip-path="url(#p93fed3f713)" style="fill: none; stroke: #21262d; stroke-opacity: 0.5; stroke-width: 0.5; stroke-linecap: square"/>
     </g>
     <g id="line2d_28">
      <g>
       <use xlink:href="#me358ec38f2" x="34.56" y="63.405656" style="fill: #c9d1d9; stroke: #c9d1d9; stroke-width: 0.8"/>
      </g>
     </g>
     <g id="text_14">
      <!-- $200 -->
      <g style="fill: #c9d1d9" transform="translate(7.2 66.445031) scale(0.08 -0.08)">
       <use xlink:href="#DejaVuSans-7"/>
       <use xlink:href="#DejaVuSans-15" transform="translate(63.625 0)"/>
       <use xlink:href="#DejaVuSans-13" transform="translate(127.25 0)"/>
       <use xlink:href="#DejaVuSans-13" transform="translate(190.875 0)"/>
      </g>
     </g>
    </g>
    <g id="ytick_6">
     <g id="line2d_29">
      <path d="M 34.56 43.140682 
L 417.8 43.140682 
" clip-path="url(#p93fed3f713)" style="fill: none; stroke: #21262d; stroke-opacity: 0.5; stroke-width: 0.5; stroke-linecap: square"/>
     </g>
     <g id="line2d_30">
      <g>
       <use xlink:href="#me358ec38f2" x="34.56" y="43.140682" style="fill: #c9d1d9; stroke: #c9d1d9; stroke-width: 0.8"/>
      </g>
     </g>
     <g id="text_15">
      <!-- $250 -->
      <g style="fill: #c9d1d9" transform="translate(7.2 46.180057) scale(0.08 -0.08)">
       <use xlink:href="#DejaVuSans-7"/>
       <use xlink:href="#DejaVuSans-15" transform="translate(63.625 0)"/>
       <use xlink:href="#DejaVuSans-18" transform="translate(127.25 0)"/>
       <use xlink:href="#DejaVuSans-13" transform="translate(190.875 0)"/>
      </g>
     </g>
    </g>
    <g id="ytick_7">
     <g id="line2d_31">
      <path d="M 34.56 22.875707 
L 417.8 22.875707 
" clip-path="url(#p93fed3f713)" style="fill: none; stroke: #21262d; stroke-opacity: 0.5; stroke-width: 0.5; stroke-linecap: square"/>
     </g>
     <g id="line2d_32">
      <g>
       <use xlink:href="#me358ec38f2" x="34.56" y="22.875707" style="fill: #c9d1d9; stroke: #c9d1d9; stroke-width: 0.8"/>
      </g>
     </g>
     <g id="text_16">
      <!-- $300 -->
      <g style="fill: #c9d1d9" transform="translate(7.2 25.915082) scale(0.08 -0.08)">
       <defs>
        <path id="DejaVuSans-16" d="M 2597 2516 
Q 3050 2419 3304 2112 
Q 3559 1806 3559 1356 
Q 3559 666 3084 287 
Q 2609 -91 1734 -91 
Q 1441 -91 1130 -33 
Q 819 25 488 141 
L 488 750 
Q 750 597 1062 519 
Q 1375 441 1716 441 
Q 2309 441 2620 675 
Q 2931 909 2931 1356 
Q 2931 1769 2642 2001 
Q 2353 2234 1838 2234 
L 1294 2234 
L 1294 2753 
L 1863 2753 
Q 2328 2753 2575 2939 
Q 2822 3125 2822 3475 
Q 2822 3834 2567 4026 
Q 2313 4219 1838 4219 
Q 1578 4219 1281 4162 
Q 984 4106 628 3988 
L 628 4550 
Q 988 4650 1302 4700 
Q 1616 4750 1894 4750 
Q 2613 4750 3031 4423 
Q 3450 4097 3450 3541 
Q 3450 3153 3228 2886 
Q 3006 2619 2597 2516 
z
" transform="scale(0.015625)"/>
       </defs>
       <use xlink:href="#DejaVuSans-7"/>
       <use xlink:href="#DejaVuSans-16" transform="translate(63.625 0)"/>
       <use xlink:href="#DejaVuSans-13" transform="translate(127.25 0)"/>
       <use xlink:href="#DejaVuSans-13" transform="translate(190.875 0)"/>
      </g>
     </g>
    </g>
   </g>
   <g id="line2d_33">
    <path d="M 51.98 80.456606 
L 53.713333 65.610485 
L 55.446667 75.29309 
L 57.18 85.693075 
L 58.913333 67.231683 
L 60.646667 65.444313 
L 62.38 70.676729 
L 64.113333 67.482969 
L 65.846667 66.562939 
L 67.58 67.03714 
L 69.313333 70.263324 
L 71.046667 69.355453 
L 72.78 68.297621 
L 74.513333 70.611881 
L 76.246667 69.039319 
L 77.98 73.432766 
L 79.713333 70.210635 
L 81.446667 70.859114 
L 83.18 67.596453 
L 84.913333 69.205492 
L 86.646667 71.519752 
L 88.38 69.359506 
L 90.113333 73.392236 
L 91.846667 71.248201 
L 93.58 68.739397 
L 95.313333 71.025287 
L 97.046667 70.749683 
L 98.78 81.344212 
L 100.513333 67.251948 
L 102.246667 72.496524 
L 103.98 73.299017 
L 105.713333 70.798319 
L 107.446667 72.533001 
L 109.18 74.486544 
L 110.913333 72.845081 
L 112.646667 73.874542 
L 114.38 75.309302 
L 116.113333 73.509772 
L 117.846667 72.516789 
L 119.58 68.475953 
L 121.313333 74.839155 
L 123.046667 70.121469 
L 124.78 70.360595 
L 126.513333 68.370575 
L 128.246667 71.313049 
L 129.98 70.58351 
L 131.713333 70.932068 
L 133.446667 71.799409 
L 135.18 69.951243 
L 136.913333 73.217957 
L 138.646667 71.795356 
L 142.113333 70.632146 
L 143.846667 71.50354 
L 145.58 68.086865 
L 147.313333 70.02825 
L 149.046667 70.141734 
L 150.78 70.393019 
L 152.513333 70.076886 
L 154.246667 70.494344 
L 155.98 69.902607 
L 157.713333 68.293568 
L 159.446667 70.611881 
L 161.18 68.224667 
L 162.913333 68.856934 
L 164.646667 69.845865 
L 166.38 53.135367 
L 168.113333 53.001618 
L 169.846667 77.93159 
L 171.58 73.242275 
L 173.313333 72.593796 
L 175.046667 72.81671 
L 176.78 75.807821 
L 178.513333 72.812657 
L 180.246667 74.928321 
L 181.98 69.31087 
L 183.713333 75.139076 
L 185.446667 69.306817 
L 187.18 74.065033 
L 188.913333 73.538143 
L 190.646667 72.743756 
L 192.38 57.849 
L 194.113333 60.876587 
L 195.846667 78.494956 
L 197.58 59.004104 
L 199.313333 60.836057 
L 201.046667 62.023585 
L 202.78 48.437946 
L 204.513333 59.218912 
L 206.246667 56.195378 
L 207.98 54.424219 
L 209.713333 60.272691 
L 211.446667 59.697166 
L 213.18 56.900599 
L 214.913333 68.982577 
L 216.646667 57.532867 
L 218.38 63.43808 
L 220.113333 61.431848 
L 221.846667 61.735822 
L 223.58 65.501055 
L 225.313333 62.015479 
L 227.046667 61.67908 
L 228.78 77.846477 
L 230.513333 62.996304 
L 232.246667 64.046029 
L 233.98 63.393497 
L 235.713333 66.003626 
L 237.446667 62.996304 
L 239.18 64.91337 
L 240.913333 72.131754 
L 242.646667 60.694203 
L 244.38 67.170888 
L 246.113333 64.4797 
L 247.846667 62.943615 
L 249.58 65.087649 
L 251.313333 64.082506 
L 253.046667 65.525372 
L 254.78 63.689366 
L 256.513333 78.56791 
L 258.246667 60.560454 
L 259.98 66.15764 
L 261.713333 80.237744 
L 263.446667 62.627481 
L 265.18 66.080633 
L 266.913333 63.88391 
L 268.646667 69.087955 
L 270.38 65.764499 
L 272.113333 64.345951 
L 273.846667 66.761536 
L 275.58 65.675333 
L 277.313333 65.95499 
L 279.046667 70.153893 
L 280.78 67.223577 
L 282.513333 65.857718 
L 284.246667 66.623734 
L 285.98 65.719916 
L 287.713333 67.989593 
L 289.446667 65.8334 
L 291.18 69.217651 
L 292.913333 61.492643 
L 294.646667 66.947974 
L 296.38 66.668317 
L 298.113333 74.356848 
L 299.846667 63.393497 
L 301.58 69.274393 
L 303.313333 70.251165 
L 305.046667 65.379465 
L 306.78 70.851008 
L 308.513333 73.3436 
L 310.246667 64.970112 
L 311.98 71.150929 
L 313.713333 68.342204 
L 315.446667 61.914154 
L 317.18 65.184921 
L 318.913333 64.694509 
L 320.646667 65.578061 
L 322.38 61.918207 
L 324.113333 69.428407 
L 325.846667 62.822025 
L 327.58 67.851792 
L 329.313333 40.984488 
L 331.046667 50.136151 
L 332.78 45.061801 
L 334.513333 105.913467 
L 336.246667 59.121641 
L 337.98 59.664742 
L 339.713333 60.345645 
L 341.446667 57.386959 
L 343.18 59.032475 
L 344.913333 62.526156 
L 346.646667 57.200521 
L 348.38 49.426877 
L 350.113333 27.411009 
L 351.846667 39.095793 
L 353.58 49.775434 
L 355.313333 49.868653 
L 357.046667 55.636065 
L 358.78 52.037005 
L 360.513333 49.787593 
L 362.246667 61.281887 
L 363.98 51.02781 
L 367.446667 59.64853 
L 369.18 57.857106 
L 370.913333 50.926485 
L 372.646667 61.804723 
L 374.38 57.707145 
L 376.113333 55.713072 
L 377.846667 62.364036 
L 379.58 61.877677 
L 381.313333 55.559058 
L 383.046667 62.643693 
L 384.78 61.853359 
L 386.513333 60.292956 
L 388.246667 64.325686 
L 389.98 67.600506 
L 391.713333 63.535352 
L 393.446667 63.592094 
L 395.18 74.470332 
L 396.913333 62.586951 
L 398.646667 64.382428 
L 400.38 57.581502 
L 400.38 57.581502 
" clip-path="url(#p93fed3f713)" style="fill: none; stroke: #3fb950; stroke-width: 2; stroke-linecap: square"/>
   </g>
   <g id="patch_3">
    <path d="M 34.56 150.318281 
L 34.56 21.558281 
" style="fill: none; stroke: #21262d; stroke-width: 0.8; stroke-linejoin: miter; stroke-linecap: square"/>
   </g>
   <g id="patch_4">
    <path d="M 34.56 150.318281 
L 417.8 150.318281 
" style="fill: none; stroke: #21262d; stroke-width: 0.8; stroke-linejoin: miter; stroke-linecap: square"/>
   </g>
   <g id="text_17">
    <!-- OPENWIKI (langchain-ai/openwiki) — $214.37 (+8.49%) -->
    <g style="fill: #c9d1d9" transform="translate(54.842109 15.558281) scale(0.11 -0.11)">
     <defs>
      <path id="DejaVuSans-Bold-32" d="M 2719 3878 
Q 2169 3878 1866 3472 
Q 1563 3066 1563 2328 
Q 1563 1594 1866 1187 
Q 2169 781 2719 781 
Q 3272 781 3575 1187 
Q 3878 1594 3878 2328 
Q 3878 3066 3575 3472 
Q 3272 3878 2719 3878 
z
M 2719 4750 
Q 3844 4750 4481 4106 
Q 5119 3463 5119 2328 
Q 5119 1197 4481 553 
Q 3844 -91 2719 -91 
Q 1597 -91 958 553 
Q 319 1197 319 2328 
Q 319 3463 958 4106 
Q 1597 4750 2719 4750 
z
" transform="scale(0.015625)"/>
      <path id="DejaVuSans-Bold-33" d="M 588 4666 
L 2584 4666 
Q 3475 4666 3951 4270 
Q 4428 3875 4428 3144 
Q 4428 2409 3951 2014 
Q 3475 1619 2584 1619 
L 1791 1619 
L 1791 0 
L 588 0 
L 588 4666 
z
M 1791 3794 
L 1791 2491 
L 2456 2491 
Q 2806 2491 2997 2661 
Q 3188 2831 3188 3144 
Q 3188 3456 2997 3625 
Q 2806 3794 2456 3794 
L 1791 3794 
z
" transform="scale(0.015625)"/>
      <path id="DejaVuSans-Bold-28" d="M 588 4666 
L 3834 4666 
L 3834 3756 
L 1791 3756 
L 1791 2888 
L 3713 2888 
L 3713 1978 
L 1791 1978 
L 1791 909 
L 3903 909 
L 3903 0 
L 588 0 
L 588 4666 
z
" transform="scale(0.015625)"/>
      <path id="DejaVuSans-Bold-31" d="M 588 4666 
L 1931 4666 
L 3628 1466 
L 3628 4666 
L 4769 4666 
L 4769 0 
L 3425 0 
L 1728 3200 
L 1728 0 
L 588 0 
L 588 4666 
z
" transform="scale(0.015625)"/>
      <path id="DejaVuSans-Bold-3a" d="M 191 4666 
L 1344 4666 
L 2150 1275 
L 2950 4666 
L 4109 4666 
L 4909 1275 
L 5716 4666 
L 6859 4666 
L 5759 0 
L 4372 0 
L 3525 3547 
L 2688 0 
L 1300 0 
L 191 4666 
z
" transform="scale(0.015625)"/>
      <path id="DejaVuSans-Bold-2c" d="M 588 4666 
L 1791 4666 
L 1791 0 
L 588 0 
L 588 4666 
z
" transform="scale(0.015625)"/>
      <path id="DejaVuSans-Bold-2e" d="M 588 4666 
L 1791 4666 
L 1791 2963 
L 3525 4666 
L 4922 4666 
L 2675 2456 
L 5153 0 
L 3647 0 
L 1791 1838 
L 1791 0 
L 588 0 
L 588 4666 
z
" transform="scale(0.015625)"/>
      <path id="DejaVuSans-Bold-3" transform="scale(0.015625)"/>
      <path id="DejaVuSans-Bold-b" d="M 2413 -844 
L 1484 -844 
Q 1006 -72 778 623 
Q 550 1319 550 2003 
Q 550 2688 779 3389 
Q 1009 4091 1484 4856 
L 2413 4856 
Q 2013 4116 1813 3408 
Q 1613 2700 1613 2009 
Q 1613 1319 1811 609 
Q 2009 -100 2413 -844 
z
" transform="scale(0.015625)"/>
      <path id="DejaVuSans-Bold-4f" d="M 538 4863 
L 1656 4863 
L 1656 0 
L 538 0 
L 538 4863 
z
" transform="scale(0.015625)"/>
      <path id="DejaVuSans-Bold-44" d="M 2106 1575 
Q 1756 1575 1579 1456 
Q 1403 1338 1403 1106 
Q 1403 894 1545 773 
Q 1688 653 1941 653 
Q 2256 653 2472 879 
Q 2688 1106 2688 1447 
L 2688 1575 
L 2106 1575 
z
M 3816 1997 
L 3816 0 
L 2688 0 
L 2688 519 
Q 2463 200 2181 54 
Q 1900 -91 1497 -91 
Q 953 -91 614 226 
Q 275 544 275 1050 
Q 275 1666 698 1953 
Q 1122 2241 2028 2241 
L 2688 2241 
L 2688 2328 
Q 2688 2594 2478 2717 
Q 2269 2841 1825 2841 
Q 1466 2841 1156 2769 
Q 847 2697 581 2553 
L 581 3406 
Q 941 3494 1303 3539 
Q 1666 3584 2028 3584 
Q 2975 3584 3395 3211 
Q 3816 2838 3816 1997 
z
" transform="scale(0.015625)"/>
      <path id="DejaVuSans-Bold-51" d="M 4056 2131 
L 4056 0 
L 2931 0 
L 2931 347 
L 2931 1631 
Q 2931 2084 2911 2256 
Q 2891 2428 2841 2509 
Q 2775 2619 2662 2680 
Q 2550 2741 2406 2741 
Q 2056 2741 1856 2470 
Q 1656 2200 1656 1722 
L 1656 0 
L 538 0 
L 538 3500 
L 1656 3500 
L 1656 2988 
Q 1909 3294 2193 3439 
Q 2478 3584 2822 3584 
Q 3428 3584 3742 3212 
Q 4056 2841 4056 2131 
z
" transform="scale(0.015625)"/>
      <path id="DejaVuSans-Bold-4a" d="M 2919 594 
Q 2688 288 2409 144 
Q 2131 0 1766 0 
Q 1125 0 706 504 
Q 288 1009 288 1791 
Q 288 2575 706 3076 
Q 1125 3578 1766 3578 
Q 2131 3578 2409 3434 
Q 2688 3291 2919 2981 
L 2919 3500 
L 4044 3500 
L 4044 353 
Q 4044 -491 3511 -936 
Q 2978 -1381 1966 -1381 
Q 1638 -1381 1331 -1331 
Q 1025 -1281 716 -1178 
L 716 -306 
Q 1009 -475 1290 -558 
Q 1572 -641 1856 -641 
Q 2406 -641 2662 -400 
Q 2919 -159 2919 353 
L 2919 594 
z
M 2181 2772 
Q 1834 2772 1640 2515 
Q 1447 2259 1447 1791 
Q 1447 1309 1634 1061 
Q 1822 813 2181 813 
Q 2531 813 2725 1069 
Q 2919 1325 2919 1791 
Q 2919 2259 2725 2515 
Q 2531 2772 2181 2772 
z
" transform="scale(0.015625)"/>
      <path id="DejaVuSans-Bold-46" d="M 3366 3391 
L 3366 2478 
Q 3138 2634 2908 2709 
Q 2678 2784 2431 2784 
Q 1963 2784 1702 2511 
Q 1441 2238 1441 1747 
Q 1441 1256 1702 982 
Q 1963 709 2431 709 
Q 2694 709 2930 787 
Q 3166 866 3366 1019 
L 3366 103 
Q 3103 6 2833 -42 
Q 2563 -91 2291 -91 
Q 1344 -91 809 395 
Q 275 881 275 1747 
Q 275 2613 809 3098 
Q 1344 3584 2291 3584 
Q 2566 3584 2833 3536 
Q 3100 3488 3366 3391 
z
" transform="scale(0.015625)"/>
      <path id="DejaVuSans-Bold-4b" d="M 4056 2131 
L 4056 0 
L 2931 0 
L 2931 347 
L 2931 1625 
Q 2931 2084 2911 2256 
Q 2891 2428 2841 2509 
Q 2775 2619 2662 2680 
Q 2550 2741 2406 2741 
Q 2056 2741 1856 2470 
Q 1656 2200 1656 1722 
L 1656 0 
L 538 0 
L 538 4863 
L 1656 4863 
L 1656 2988 
Q 1909 3294 2193 3439 
Q 2478 3584 2822 3584 
Q 3428 3584 3742 3212 
Q 4056 2841 4056 2131 
z
" transform="scale(0.015625)"/>
      <path id="DejaVuSans-Bold-4c" d="M 538 3500 
L 1656 3500 
L 1656 0 
L 538 0 
L 538 3500 
z
M 538 4863 
L 1656 4863 
L 1656 3950 
L 538 3950 
L 538 4863 
z
" transform="scale(0.015625)"/>
      <path id="DejaVuSans-Bold-10" d="M 347 2297 
L 2309 2297 
L 2309 1388 
L 347 1388 
L 347 2297 
z
" transform="scale(0.015625)"/>
      <path id="DejaVuSans-Bold-12" d="M 1644 4666 
L 2338 4666 
L 691 -594 
L 0 -594 
L 1644 4666 
z
" transform="scale(0.015625)"/>
      <path id="DejaVuSans-Bold-52" d="M 2203 2784 
Q 1831 2784 1636 2517 
Q 1441 2250 1441 1747 
Q 1441 1244 1636 976 
Q 1831 709 2203 709 
Q 2569 709 2762 976 
Q 2956 1244 2956 1747 
Q 2956 2250 2762 2517 
Q 2569 2784 2203 2784 
z
M 2203 3584 
Q 3106 3584 3614 3096 
Q 4122 2609 4122 1747 
Q 4122 884 3614 396 
Q 3106 -91 2203 -91 
Q 1297 -91 786 396 
Q 275 884 275 1747 
Q 275 2609 786 3096 
Q 1297 3584 2203 3584 
z
" transform="scale(0.015625)"/>
      <path id="DejaVuSans-Bold-53" d="M 1656 506 
L 1656 -1331 
L 538 -1331 
L 538 3500 
L 1656 3500 
L 1656 2988 
Q 1888 3294 2169 3439 
Q 2450 3584 2816 3584 
Q 3463 3584 3878 3070 
Q 4294 2556 4294 1747 
Q 4294 938 3878 423 
Q 3463 -91 2816 -91 
Q 2450 -91 2169 54 
Q 1888 200 1656 506 
z
M 2400 2772 
Q 2041 2772 1848 2508 
Q 1656 2244 1656 1747 
Q 1656 1250 1848 986 
Q 2041 722 2400 722 
Q 2759 722 2948 984 
Q 3138 1247 3138 1747 
Q 3138 2247 2948 2509 
Q 2759 2772 2400 2772 
z
" transform="scale(0.015625)"/>
      <path id="DejaVuSans-Bold-48" d="M 4031 1759 
L 4031 1441 
L 1416 1441 
Q 1456 1047 1700 850 
Q 1944 653 2381 653 
Q 2734 653 3104 758 
Q 3475 863 3866 1075 
L 3866 213 
Q 3469 63 3072 -14 
Q 2675 -91 2278 -91 
Q 1328 -91 801 392 
Q 275 875 275 1747 
Q 275 2603 792 3093 
Q 1309 3584 2216 3584 
Q 3041 3584 3536 3087 
Q 4031 2591 4031 1759 
z
M 2881 2131 
Q 2881 2450 2695 2645 
Q 2509 2841 2209 2841 
Q 1884 2841 1681 2658 
Q 1478 2475 1428 2131 
L 2881 2131 
z
" transform="scale(0.015625)"/>
      <path id="DejaVuSans-Bold-5a" d="M 225 3500 
L 1313 3500 
L 1900 1088 
L 2491 3500 
L 3425 3500 
L 4013 1113 
L 4603 3500 
L 5691 3500 
L 4769 0 
L 3547 0 
L 2956 2406 
L 2369 0 
L 1147 0 
L 225 3500 
z
" transform="scale(0.015625)"/>
      <path id="DejaVuSans-Bold-4e" d="M 538 4863 
L 1656 4863 
L 1656 2216 
L 2944 3500 
L 4244 3500 
L 2534 1894 
L 4378 0 
L 3022 0 
L 1656 1459 
L 1656 0 
L 538 0 
L 538 4863 
z
" transform="scale(0.015625)"/>
      <path id="DejaVuSans-Bold-c" d="M 513 -844 
Q 913 -100 1113 609 
Q 1313 1319 1313 2009 
Q 1313 2700 1113 3408 
Q 913 4116 513 4856 
L 1441 4856 
Q 1916 4091 2145 3389 
Q 2375 2688 2375 2003 
Q 2375 1319 2147 623 
Q 1919 -72 1441 -844 
L 513 -844 
z
" transform="scale(0.015625)"/>
      <path id="DejaVuSans-Bold-af6" d="M 344 2156 
L 6056 2156 
L 6056 1350 
L 344 1350 
L 344 2156 
z
" transform="scale(0.015625)"/>
      <path id="DejaVuSans-Bold-7" d="M 2484 -941 
L 1978 -941 
L 1975 0 
Q 1584 16 1218 87 
Q 853 159 506 288 
L 506 1106 
Q 866 922 1233 823 
Q 1600 725 1978 713 
L 1978 1684 
L 1875 1703 
Q 1128 1834 814 2115 
Q 500 2397 500 2925 
Q 500 3484 883 3798 
Q 1266 4113 1975 4141 
L 1978 4863 
L 2484 4863 
L 2484 4153 
Q 2797 4128 3109 4075 
Q 3422 4022 3738 3938 
L 3738 3144 
Q 3425 3275 3112 3348 
Q 2800 3422 2484 3438 
L 2484 2541 
L 2584 2522 
Q 3378 2397 3698 2105 
Q 4019 1813 4019 1241 
Q 4019 666 3637 358 
Q 3256 50 2484 6 
L 2484 -941 
z
M 1978 2613 
L 1978 3428 
Q 1756 3416 1623 3308 
Q 1491 3200 1491 3034 
Q 1491 2850 1612 2745 
Q 1734 2641 1978 2613 
z
M 2484 1594 
L 2484 725 
Q 2756 728 2892 831 
Q 3028 934 3028 1141 
Q 3028 1353 2903 1458 
Q 2778 1563 2484 1594 
z
" transform="scale(0.015625)"/>
      <path id="DejaVuSans-Bold-15" d="M 1844 884 
L 3897 884 
L 3897 0 
L 506 0 
L 506 884 
L 2209 2388 
Q 2438 2594 2547 2791 
Q 2656 2988 2656 3200 
Q 2656 3528 2436 3728 
Q 2216 3928 1850 3928 
Q 1569 3928 1234 3808 
Q 900 3688 519 3450 
L 519 4475 
Q 925 4609 1322 4679 
Q 1719 4750 2100 4750 
Q 2938 4750 3402 4381 
Q 3866 4013 3866 3353 
Q 3866 2972 3669 2642 
Q 3472 2313 2841 1759 
L 1844 884 
z
" transform="scale(0.015625)"/>
      <path id="DejaVuSans-Bold-14" d="M 750 831 
L 1813 831 
L 1813 3847 
L 722 3622 
L 722 4441 
L 1806 4666 
L 2950 4666 
L 2950 831 
L 4013 831 
L 4013 0 
L 750 0 
L 750 831 
z
" transform="scale(0.015625)"/>
      <path id="DejaVuSans-Bold-17" d="M 2356 3675 
L 1038 1722 
L 2356 1722 
L 2356 3675 
z
M 2156 4666 
L 3494 4666 
L 3494 1722 
L 4159 1722 
L 4159 850 
L 3494 850 
L 3494 0 
L 2356 0 
L 2356 850 
L 288 850 
L 288 1881 
L 2156 4666 
z
" transform="scale(0.015625)"/>
      <path id="DejaVuSans-Bold-11" d="M 653 1209 
L 1778 1209 
L 1778 0 
L 653 0 
L 653 1209 
z
" transform="scale(0.015625)"/>
      <path id="DejaVuSans-Bold-16" d="M 2981 2516 
Q 3453 2394 3698 2092 
Q 3944 1791 3944 1325 
Q 3944 631 3412 270 
Q 2881 -91 1863 -91 
Q 1503 -91 1142 -33 
Q 781 25 428 141 
L 428 1069 
Q 766 900 1098 814 
Q 1431 728 1753 728 
Q 2231 728 2486 893 
Q 2741 1059 2741 1369 
Q 2741 1688 2480 1852 
Q 2219 2016 1709 2016 
L 1228 2016 
L 1228 2791 
L 1734 2791 
Q 2188 2791 2409 2933 
Q 2631 3075 2631 3366 
Q 2631 3634 2415 3781 
Q 2200 3928 1806 3928 
Q 1516 3928 1219 3862 
Q 922 3797 628 3669 
L 628 4550 
Q 984 4650 1334 4700 
Q 1684 4750 2022 4750 
Q 2931 4750 3382 4451 
Q 3834 4153 3834 3553 
Q 3834 3144 3618 2883 
Q 3403 2622 2981 2516 
z
" transform="scale(0.015625)"/>
      <path id="DejaVuSans-Bold-1a" d="M 428 4666 
L 3944 4666 
L 3944 3988 
L 2125 0 
L 953 0 
L 2675 3781 
L 428 3781 
L 428 4666 
z
" transform="scale(0.015625)"/>
      <path id="DejaVuSans-Bold-e" d="M 3053 4013 
L 3053 2375 
L 4684 2375 
L 4684 1638 
L 3053 1638 
L 3053 0 
L 2309 0 
L 2309 1638 
L 678 1638 
L 678 2375 
L 2309 2375 
L 2309 4013 
L 3053 4013 
z
" transform="scale(0.015625)"/>
      <path id="DejaVuSans-Bold-1b" d="M 2228 2088 
Q 1891 2088 1709 1903 
Q 1528 1719 1528 1375 
Q 1528 1031 1709 848 
Q 1891 666 2228 666 
Q 2563 666 2741 848 
Q 2919 1031 2919 1375 
Q 2919 1722 2741 1905 
Q 2563 2088 2228 2088 
z
M 1350 2484 
Q 925 2613 709 2878 
Q 494 3144 494 3541 
Q 494 4131 934 4440 
Q 1375 4750 2228 4750 
Q 3075 4750 3515 4442 
Q 3956 4134 3956 3541 
Q 3956 3144 3739 2878 
Q 3522 2613 3097 2484 
Q 3572 2353 3814 2058 
Q 4056 1763 4056 1313 
Q 4056 619 3595 264 
Q 3134 -91 2228 -91 
Q 1319 -91 855 264 
Q 391 619 391 1313 
Q 391 1763 633 2058 
Q 875 2353 1350 2484 
z
M 1631 3419 
Q 1631 3141 1786 2991 
Q 1941 2841 2228 2841 
Q 2509 2841 2662 2991 
Q 2816 3141 2816 3419 
Q 2816 3697 2662 3845 
Q 2509 3994 2228 3994 
Q 1941 3994 1786 3844 
Q 1631 3694 1631 3419 
z
" transform="scale(0.015625)"/>
      <path id="DejaVuSans-Bold-1c" d="M 641 103 
L 641 966 
Q 928 831 1190 764 
Q 1453 697 1709 697 
Q 2247 697 2547 995 
Q 2847 1294 2900 1881 
Q 2688 1725 2447 1647 
Q 2206 1569 1925 1569 
Q 1209 1569 770 1986 
Q 331 2403 331 3084 
Q 331 3838 820 4291 
Q 1309 4744 2131 4744 
Q 3044 4744 3544 4128 
Q 4044 3513 4044 2388 
Q 4044 1231 3459 570 
Q 2875 -91 1856 -91 
Q 1528 -91 1228 -42 
Q 928 6 641 103 
z
M 2125 2350 
Q 2441 2350 2600 2554 
Q 2759 2759 2759 3169 
Q 2759 3575 2600 3781 
Q 2441 3988 2125 3988 
Q 1809 3988 1650 3781 
Q 1491 3575 1491 3169 
Q 1491 2759 1650 2554 
Q 1809 2350 2125 2350 
z
" transform="scale(0.015625)"/>
      <path id="DejaVuSans-Bold-8" d="M 4959 1925 
Q 4738 1925 4616 1733 
Q 4494 1541 4494 1184 
Q 4494 825 4614 633 
Q 4734 441 4959 441 
Q 5184 441 5303 633 
Q 5422 825 5422 1184 
Q 5422 1541 5301 1733 
Q 5181 1925 4959 1925 
z
M 4959 2450 
Q 5541 2450 5875 2112 
Q 6209 1775 6209 1184 
Q 6209 594 5875 251 
Q 5541 -91 4959 -91 
Q 4378 -91 4042 251 
Q 3706 594 3706 1184 
Q 3706 1772 4042 2111 
Q 4378 2450 4959 2450 
z
M 2094 -91 
L 1403 -91 
L 4319 4750 
L 5013 4750 
L 2094 -91 
z
M 1453 4750 
Q 2034 4750 2367 4411 
Q 2700 4072 2700 3481 
Q 2700 2891 2367 2550 
Q 2034 2209 1453 2209 
Q 872 2209 539 2550 
Q 206 2891 206 3481 
Q 206 4072 539 4411 
Q 872 4750 1453 4750 
z
M 1453 4225 
Q 1228 4225 1106 4031 
Q 984 3838 984 3481 
Q 984 3122 1106 2926 
Q 1228 2731 1453 2731 
Q 1678 2731 1798 2926 
Q 1919 3122 1919 3481 
Q 1919 3838 1797 4031 
Q 1675 4225 1453 4225 
z
" transform="scale(0.015625)"/>
     </defs>
     <use xlink:href="#DejaVuSans-Bold-32"/>
     <use xlink:href="#DejaVuSans-Bold-33" transform="translate(85.015625 0)"/>
     <use xlink:href="#DejaVuSans-Bold-28" transform="translate(158.3125 0)"/>
     <use xlink:href="#DejaVuSans-Bold-31" transform="translate(226.625 0)"/>
     <use xlink:href="#DejaVuSans-Bold-3a" transform="translate(310.3125 0)"/>
     <use xlink:href="#DejaVuSans-Bold-2c" transform="translate(420.609375 0)"/>
     <use xlink:href="#DejaVuSans-Bold-2e" transform="translate(457.8125 0)"/>
     <use xlink:href="#DejaVuSans-Bold-2c" transform="translate(535.296875 0)"/>
     <use xlink:href="#DejaVuSans-Bold-3" transform="translate(572.5 0)"/>
     <use xlink:href="#DejaVuSans-Bold-b" transform="translate(607.3125 0)"/>
     <use xlink:href="#DejaVuSans-Bold-4f" transform="translate(653.015625 0)"/>
     <use xlink:href="#DejaVuSans-Bold-44" transform="translate(687.296875 0)"/>
     <use xlink:href="#DejaVuSans-Bold-51" transform="translate(754.78125 0)"/>
     <use xlink:href="#DejaVuSans-Bold-4a" transform="translate(825.96875 0)"/>
     <use xlink:href="#DejaVuSans-Bold-46" transform="translate(897.546875 0)"/>
     <use xlink:href="#DejaVuSans-Bold-4b" transform="translate(956.828125 0)"/>
     <use xlink:href="#DejaVuSans-Bold-44" transform="translate(1028.015625 0)"/>
     <use xlink:href="#DejaVuSans-Bold-4c" transform="translate(1095.5 0)"/>
     <use xlink:href="#DejaVuSans-Bold-51" transform="translate(1129.78125 0)"/>
     <use xlink:href="#DejaVuSans-Bold-10" transform="translate(1200.96875 0)"/>
     <use xlink:href="#DejaVuSans-Bold-44" transform="translate(1242.46875 0)"/>
     <use xlink:href="#DejaVuSans-Bold-4c" transform="translate(1309.953125 0)"/>
     <use xlink:href="#DejaVuSans-Bold-12" transform="translate(1344.234375 0)"/>
     <use xlink:href="#DejaVuSans-Bold-52" transform="translate(1380.765625 0)"/>
     <use xlink:href="#DejaVuSans-Bold-53" transform="translate(1449.46875 0)"/>
     <use xlink:href="#DejaVuSans-Bold-48" transform="translate(1521.046875 0)"/>
     <use xlink:href="#DejaVuSans-Bold-51" transform="translate(1588.875 0)"/>
     <use xlink:href="#DejaVuSans-Bold-5a" transform="translate(1660.0625 0)"/>
     <use xlink:href="#DejaVuSans-Bold-4c" transform="translate(1752.453125 0)"/>
     <use xlink:href="#DejaVuSans-Bold-4e" transform="translate(1786.734375 0)"/>
     <use xlink:href="#DejaVuSans-Bold-4c" transform="translate(1853.234375 0)"/>
     <use xlink:href="#DejaVuSans-Bold-c" transform="translate(1887.515625 0)"/>
     <use xlink:href="#DejaVuSans-Bold-3" transform="translate(1933.21875 0)"/>
     <use xlink:href="#DejaVuSans-Bold-af6" transform="translate(1968.03125 0)"/>
     <use xlink:href="#DejaVuSans-Bold-3" transform="translate(2068.03125 0)"/>
     <use xlink:href="#DejaVuSans-Bold-7" transform="translate(2102.84375 0)"/>
     <use xlink:href="#DejaVuSans-Bold-15" transform="translate(2172.421875 0)"/>
     <use xlink:href="#DejaVuSans-Bold-14" transform="translate(2242 0)"/>
     <use xlink:href="#DejaVuSans-Bold-17" transform="translate(2311.578125 0)"/>
     <use xlink:href="#DejaVuSans-Bold-11" transform="translate(2381.15625 0)"/>
     <use xlink:href="#DejaVuSans-Bold-16" transform="translate(2419.140625 0)"/>
     <use xlink:href="#DejaVuSans-Bold-1a" transform="translate(2488.71875 0)"/>
     <use xlink:href="#DejaVuSans-Bold-3" transform="translate(2558.296875 0)"/>
     <use xlink:href="#DejaVuSans-Bold-b" transform="translate(2593.109375 0)"/>
     <use xlink:href="#DejaVuSans-Bold-e" transform="translate(2638.8125 0)"/>
     <use xlink:href="#DejaVuSans-Bold-1b" transform="translate(2722.609375 0)"/>
     <use xlink:href="#DejaVuSans-Bold-11" transform="translate(2792.1875 0)"/>
     <use xlink:href="#DejaVuSans-Bold-17" transform="translate(2830.171875 0)"/>
     <use xlink:href="#DejaVuSans-Bold-1c" transform="translate(2899.75 0)"/>
     <use xlink:href="#DejaVuSans-Bold-8" transform="translate(2969.328125 0)"/>
     <use xlink:href="#DejaVuSans-Bold-c" transform="translate(3069.53125 0)"/>
    </g>
   </g>
  </g>
 </g>
 <defs>
  <clipPath id="p93fed3f713">
   <rect x="34.56" y="21.558281" width="383.24" height="128.76"/>
  </clipPath>
 </defs>
</svg>
