<?xml version="1.0" encoding="utf-8" standalone="no"?>
<!DOCTYPE svg PUBLIC "-//W3C//DTD SVG 1.1//EN"
  "http://www.w3.org/Graphics/SVG/1.1/DTD/svg11.dtd">
<svg xmlns:xlink="http://www.w3.org/1999/xlink" width="425pt" height="172.518281pt" viewBox="0 0 425 172.518281" xmlns="http://www.w3.org/2000/svg" version="1.1">
 <metadata>
  <rdf:RDF xmlns:dc="http://purl.org/dc/elements/1.1/" xmlns:cc="http://creativecommons.org/ns#" xmlns:rdf="http://www.w3.org/1999/02/22-rdf-syntax-ns#">
   <cc:Work>
    <dc:type rdf:resource="http://purl.org/dc/dcmitype/StillImage"/>
    <dc:date>2026-08-21T23:04:47.248490</dc:date>
    <dc:format>image/svg+xml</dc:format>
    <dc:creator>
     <cc:Agent>
      <dc:title>Matplotlib v3.11.1, https://matplotlib.org/</dc:title>
     </cc:Agent>
    </dc:creator>
   </cc:Work>
  </rdf:RDF>
 </metadata>
 <defs>
  <style type="text/css">*{stroke-linejoin: round; stroke-linecap: butt}</style>
 </defs>
 <g id="figure_1">
  <g id="patch_1">
   <path d="M 0 172.518281 
L 425 172.518281 
L 425 0 
L 0 0 
z
" style="fill: #0d1117"/>
  </g>
  <g id="axes_1">
   <g id="patch_2">
    <path d="M 34.56 150.318281 
L 417.8 150.318281 
L 417.8 21.558281 
L 34.56 21.558281 
z
" style="fill: #0d1117"/>
   </g>
   <g id="FillBetweenPolyCollection_1">
    <defs>
     <path id="m81953f5de4" d="M 51.98 -28.052727 
L 51.98 -136.5542 
L 52.953184 -132.537528 
L 53.926369 -138.78711 
L 54.899553 -135.437745 
L 55.872737 -128.655601 
L 56.845922 -144.43355 
L 57.819106 -134.456034 
L 58.792291 -141.27026 
L 59.765475 -137.741235 
L 60.738659 -138.183968 
L 61.711844 -137.03543 
L 62.685028 -136.810856 
L 63.658212 -133.378077 
L 64.631397 -137.240756 
L 65.604581 -134.038968 
L 66.577765 -137.811816 
L 67.55095 -135.835562 
L 68.524134 -136.663279 
L 69.497318 -133.64115 
L 70.470503 -141.225345 
L 71.443687 -126.846173 
L 72.416872 -137.901646 
L 73.390056 -140.866027 
L 74.36324 -130.484277 
L 75.336425 -141.353674 
L 76.309609 -136.599115 
L 77.282793 -135.944641 
L 78.255978 -136.477203 
L 79.229162 -137.420415 
L 80.202346 -136.37454 
L 81.175531 -135.136173 
L 82.148715 -135.835562 
L 83.121899 -131.927969 
L 84.095084 -138.44704 
L 85.068268 -134.937265 
L 86.041453 -140.333465 
L 87.014637 -143.015523 
L 87.987821 -139.749571 
L 88.961006 -140.821112 
L 89.93419 -140.94944 
L 90.907374 -143.118186 
L 91.880559 -139.518581 
L 92.853743 -140.872443 
L 93.826927 -140.166638 
L 94.800112 -140.750531 
L 95.773296 -142.630539 
L 96.74648 -128.931506 
L 97.719665 -135.251669 
L 98.692849 -136.599115 
L 99.666034 -136.438704 
L 100.639218 -134.699858 
L 101.612402 -133.243333 
L 102.585587 -134.019718 
L 103.558771 -134.096715 
L 104.531955 -137.202257 
L 105.50514 -136.060136 
L 106.478324 -132.280872 
L 107.451508 -135.514742 
L 108.424693 -136.066553 
L 109.397877 -143.195183 
L 110.371061 -140.833944 
L 111.344246 -141.167598 
L 112.31743 -138.145469 
L 113.290615 -139.467249 
L 114.263799 -139.204177 
L 115.236983 -136.971266 
L 116.210168 -140.872443 
L 117.183352 -136.887853 
L 118.156536 -139.646909 
L 119.129721 -135.508325 
L 120.102905 -135.585322 
L 121.076089 -139.935647 
L 122.049274 -135.546824 
L 123.022458 -135.720067 
L 123.995642 -138.543287 
L 124.968827 -135.020678 
L 125.942011 -139.884316 
L 126.915196 -134.885934 
L 127.88838 -139.024517 
L 128.861564 -135.96389 
L 129.834749 -138.78711 
L 130.807933 -138.620283 
L 131.781117 -137.741235 
L 132.754302 -136.207714 
L 133.727486 -134.019718 
L 134.70067 -136.528534 
L 135.673855 -133.647567 
L 136.647039 -139.063016 
L 137.620223 -132.062714 
L 138.593408 -139.634076 
L 139.566592 -131.947218 
L 140.539777 -136.130717 
L 141.512961 -137.523078 
L 142.486145 -134.07105 
L 143.45933 -134.590779 
L 144.432514 -134.89235 
L 145.405698 -139.396669 
L 146.378883 -132.287288 
L 147.352067 -138.928271 
L 148.325251 -140.153805 
L 149.298436 -135.168256 
L 150.27162 -141.347257 
L 151.244804 -133.929889 
L 152.217989 -143.381259 
L 153.191173 -133.942721 
L 154.164358 -143.509587 
L 155.137542 -137.272838 
L 156.110726 -138.620283 
L 157.083911 -139.146429 
L 158.057095 -135.918975 
L 159.030279 -140.583705 
L 160.003464 -139.332505 
L 160.976648 -137.71557 
L 161.949832 -137.497412 
L 162.923017 -140.94944 
L 163.896201 -138.793526 
L 164.869385 -137.702737 
L 165.84257 -135.610988 
L 166.815754 -140.833944 
L 167.788939 -136.772358 
L 168.762123 -137.985059 
L 169.735307 -145.107273 
L 170.708492 -144.472048 
L 171.681676 -143.913821 
L 172.65486 -144.510547 
L 173.628045 -143.817575 
L 174.601229 -144.741537 
L 175.574413 -140.147389 
L 176.547598 -143.528836 
L 177.520782 -144.164061 
L 178.493966 -143.169517 
L 179.467151 -143.233681 
L 180.440335 -131.465988 
L 181.41352 -141.732242 
L 182.386704 -134.520198 
L 183.359888 -141.43067 
L 184.333073 -137.170175 
L 185.306257 -138.421375 
L 186.279441 -139.390253 
L 187.252626 -133.807977 
L 188.22581 -135.399246 
L 189.198994 -134.80252 
L 190.172179 -135.848395 
L 191.145363 -134.783271 
L 192.118547 -138.280214 
L 193.091732 -132.608108 
L 194.064916 -140.192304 
L 195.038101 -132.685105 
L 196.011285 -137.580825 
L 196.984469 -135.835562 
L 197.957654 -139.454417 
L 198.930838 -136.066553 
L 199.904022 -135.424912 
L 200.877207 -139.646909 
L 201.850391 -138.023557 
L 202.823575 -138.305879 
L 203.79676 -137.638573 
L 204.769944 -135.48266 
L 205.743128 -137.914478 
L 206.716313 -133.82081 
L 207.689497 -135.995972 
L 208.662682 -134.674192 
L 209.635866 -137.093178 
L 210.60905 -136.772358 
L 211.582235 -134.847435 
L 212.555419 -138.87694 
L 213.528603 -134.379037 
L 214.501788 -135.610988 
L 215.474972 -133.994053 
L 216.448156 -137.831065 
L 217.421341 -133.15992 
L 218.394525 -135.681568 
L 219.367709 -138.774277 
L 220.340894 -136.599115 
L 221.314078 -137.78615 
L 222.287263 -137.144509 
L 223.260447 -138.844858 
L 224.233631 -136.881437 
L 225.206816 -135.456994 
L 226.18 -137.587242 
L 227.153184 -133.609068 
L 228.126369 -138.767861 
L 229.099553 -135.938225 
L 230.072737 -138.100554 
L 231.045922 -135.931808 
L 232.019106 -133.698898 
L 232.992291 -136.759525 
L 233.965475 -133.2305 
L 234.938659 -137.195841 
L 235.911844 -137.30492 
L 236.885028 -137.195841 
L 237.858212 -136.855771 
L 238.831397 -137.952977 
L 239.804581 -138.864107 
L 240.777765 -133.018759 
L 241.75095 -135.412079 
L 242.724134 -135.155423 
L 243.697318 -134.488116 
L 244.670503 -139.884316 
L 245.643687 -136.71461 
L 246.616872 -137.086762 
L 247.590056 -135.604571 
L 248.56324 -137.952977 
L 249.536425 -137.093178 
L 250.509609 -135.546824 
L 251.482793 -136.631197 
L 252.455978 -137.940144 
L 253.429162 -136.028054 
L 254.402346 -135.48266 
L 255.375531 -137.657822 
L 256.348715 -135.87406 
L 257.321899 -138.305879 
L 258.295084 -138.004308 
L 259.268268 -139.12718 
L 260.241453 -136.87502 
L 261.214637 -135.405663 
L 262.187821 -134.853851 
L 263.161006 -140.102474 
L 264.13419 -131.947218 
L 265.107374 -135.687985 
L 266.080559 -133.512822 
L 267.053743 -138.53687 
L 268.026927 -137.843898 
L 269.000112 -137.170175 
L 269.973296 -137.073929 
L 270.94648 -134.924432 
L 271.919665 -134.764022 
L 272.892849 -135.405663 
L 273.866034 -135.270918 
L 274.839218 -138.267381 
L 275.812402 -137.163759 
L 276.785587 -136.926352 
L 277.758771 -135.694401 
L 278.731955 -139.12718 
L 279.70514 -136.592698 
L 280.678324 -134.520198 
L 281.651508 -136.862187 
L 282.624693 -137.824649 
L 283.597877 -132.973844 
L 284.571061 -140.314215 
L 285.544246 -135.970307 
L 286.51743 -138.171135 
L 287.490615 -133.788728 
L 288.463799 -138.03639 
L 289.436983 -134.635694 
L 290.410168 -134.622861 
L 291.383352 -138.472706 
L 292.356536 -137.272838 
L 293.329721 -135.559656 
L 294.302905 -134.013302 
L 295.276089 -138.055639 
L 296.249274 -135.572489 
L 297.222458 -131.440322 
L 298.195642 -138.010725 
L 299.168827 -136.348875 
L 300.142011 -132.030632 
L 301.115196 -138.735779 
L 302.08838 -131.703395 
L 303.061564 -131.427489 
L 304.034749 -139.319672 
L 305.007933 -137.279254 
L 305.981117 -137.112427 
L 306.954302 -138.421375 
L 307.927486 -126.243031 
L 308.90067 -142.778116 
L 309.873855 -135.508325 
L 310.847039 -126.903921 
L 311.820223 -139.249092 
L 312.793408 -135.508325 
L 313.766592 -127.160577 
L 314.739777 -137.721986 
L 315.712961 -132.492613 
L 316.686145 -135.033511 
L 317.65933 -134.667776 
L 318.632514 -137.773317 
L 319.605698 -132.486197 
L 320.578883 -135.014262 
L 321.552067 -137.3755 
L 322.525251 -125.306235 
L 323.498436 -139.922814 
L 324.47162 -133.775895 
L 325.444804 -125.935043 
L 326.417989 -141.141932 
L 327.391173 -135.354331 
L 328.364358 -125.838797 
L 329.337542 -141.321592 
L 330.310726 -135.21317 
L 331.283911 -136.579865 
L 332.257095 -138.254548 
L 333.230279 -136.368124 
L 334.203464 -136.727443 
L 335.176648 -135.238836 
L 336.149832 -134.969347 
L 337.123017 -136.637613 
L 338.096201 -135.880477 
L 339.069385 -137.195841 
L 340.04257 -131.517319 
L 341.015754 -138.203217 
L 341.988939 -136.522118 
L 342.962123 -138.370044 
L 343.935307 -137.356251 
L 344.908492 -136.028054 
L 345.881676 -140.140972 
L 346.85486 -133.185585 
L 347.828045 -138.017141 
L 348.801229 -136.952017 
L 349.774413 -139.78807 
L 350.747598 -140.635036 
L 351.720782 -136.894269 
L 352.693966 -142.149308 
L 353.667151 -139.107931 
L 354.640335 -138.722946 
L 355.61352 -137.959393 
L 356.586704 -136.547783 
L 357.559888 -134.80252 
L 358.533073 -137.972226 
L 359.506257 -135.55324 
L 360.479441 -137.439664 
L 361.452626 -133.795144 
L 362.42581 -137.433248 
L 363.398994 -131.337659 
L 364.372179 -137.022598 
L 365.345363 -137.30492 
L 366.318547 -135.290167 
L 367.291732 -134.379037 
L 368.264916 -138.883356 
L 369.238101 -131.947218 
L 370.211285 -138.588201 
L 371.184469 -136.823689 
L 372.157654 -132.235957 
L 373.130838 -134.32129 
L 374.104022 -134.23146 
L 375.077207 -133.268999 
L 376.050391 -138.511204 
L 377.023575 -135.71365 
L 377.99676 -135.21317 
L 378.969944 -138.902605 
L 379.943128 -133.807977 
L 380.916313 -136.201297 
L 381.889497 -136.284711 
L 382.862682 -137.978643 
L 383.835866 -138.183968 
L 384.80905 -137.311336 
L 385.782235 -136.502869 
L 386.755419 -137.381917 
L 387.728603 -134.584362 
L 388.701788 -140.179471 
L 389.674972 -131.761142 
L 390.648156 -141.571831 
L 391.621341 -131.08742 
L 392.594525 -128.08454 
L 393.567709 -137.401166 
L 394.540894 -137.46533 
L 395.514078 -127.141328 
L 396.487263 -143.02194 
L 397.460447 -131.56865 
L 398.433631 -137.099595 
L 399.406816 -133.397327 
L 400.38 -138.1968 
L 400.38 -28.052727 
L 400.38 -28.052727 
L 399.406816 -28.052727 
L 398.433631 -28.052727 
L 397.460447 -28.052727 
L 396.487263 -28.052727 
L 395.514078 -28.052727 
L 394.540894 -28.052727 
L 393.567709 -28.052727 
L 392.594525 -28.052727 
L 391.621341 -28.052727 
L 390.648156 -28.052727 
L 389.674972 -28.052727 
L 388.701788 -28.052727 
L 387.728603 -28.052727 
L 386.755419 -28.052727 
L 385.782235 -28.052727 
L 384.80905 -28.052727 
L 383.835866 -28.052727 
L 382.862682 -28.052727 
L 381.889497 -28.052727 
L 380.916313 -28.052727 
L 379.943128 -28.052727 
L 378.969944 -28.052727 
L 377.99676 -28.052727 
L 377.023575 -28.052727 
L 376.050391 -28.052727 
L 375.077207 -28.052727 
L 374.104022 -28.052727 
L 373.130838 -28.052727 
L 372.157654 -28.052727 
L 371.184469 -28.052727 
L 370.211285 -28.052727 
L 369.238101 -28.052727 
L 368.264916 -28.052727 
L 367.291732 -28.052727 
L 366.318547 -28.052727 
L 365.345363 -28.052727 
L 364.372179 -28.052727 
L 363.398994 -28.052727 
L 362.42581 -28.052727 
L 361.452626 -28.052727 
L 360.479441 -28.052727 
L 359.506257 -28.052727 
L 358.533073 -28.052727 
L 357.559888 -28.052727 
L 356.586704 -28.052727 
L 355.61352 -28.052727 
L 354.640335 -28.052727 
L 353.667151 -28.052727 
L 352.693966 -28.052727 
L 351.720782 -28.052727 
L 350.747598 -28.052727 
L 349.774413 -28.052727 
L 348.801229 -28.052727 
L 347.828045 -28.052727 
L 346.85486 -28.052727 
L 345.881676 -28.052727 
L 344.908492 -28.052727 
L 343.935307 -28.052727 
L 342.962123 -28.052727 
L 341.988939 -28.052727 
L 341.015754 -28.052727 
L 340.04257 -28.052727 
L 339.069385 -28.052727 
L 338.096201 -28.052727 
L 337.123017 -28.052727 
L 336.149832 -28.052727 
L 335.176648 -28.052727 
L 334.203464 -28.052727 
L 333.230279 -28.052727 
L 332.257095 -28.052727 
L 331.283911 -28.052727 
L 330.310726 -28.052727 
L 329.337542 -28.052727 
L 328.364358 -28.052727 
L 327.391173 -28.052727 
L 326.417989 -28.052727 
L 325.444804 -28.052727 
L 324.47162 -28.052727 
L 323.498436 -28.052727 
L 322.525251 -28.052727 
L 321.552067 -28.052727 
L 320.578883 -28.052727 
L 319.605698 -28.052727 
L 318.632514 -28.052727 
L 317.65933 -28.052727 
L 316.686145 -28.052727 
L 315.712961 -28.052727 
L 314.739777 -28.052727 
L 313.766592 -28.052727 
L 312.793408 -28.052727 
L 311.820223 -28.052727 
L 310.847039 -28.052727 
L 309.873855 -28.052727 
L 308.90067 -28.052727 
L 307.927486 -28.052727 
L 306.954302 -28.052727 
L 305.981117 -28.052727 
L 305.007933 -28.052727 
L 304.034749 -28.052727 
L 303.061564 -28.052727 
L 302.08838 -28.052727 
L 301.115196 -28.052727 
L 300.142011 -28.052727 
L 299.168827 -28.052727 
L 298.195642 -28.052727 
L 297.222458 -28.052727 
L 296.249274 -28.052727 
L 295.276089 -28.052727 
L 294.302905 -28.052727 
L 293.329721 -28.052727 
L 292.356536 -28.052727 
L 291.383352 -28.052727 
L 290.410168 -28.052727 
L 289.436983 -28.052727 
L 288.463799 -28.052727 
L 287.490615 -28.052727 
L 286.51743 -28.052727 
L 285.544246 -28.052727 
L 284.571061 -28.052727 
L 283.597877 -28.052727 
L 282.624693 -28.052727 
L 281.651508 -28.052727 
L 280.678324 -28.052727 
L 279.70514 -28.052727 
L 278.731955 -28.052727 
L 277.758771 -28.052727 
L 276.785587 -28.052727 
L 275.812402 -28.052727 
L 274.839218 -28.052727 
L 273.866034 -28.052727 
L 272.892849 -28.052727 
L 271.919665 -28.052727 
L 270.94648 -28.052727 
L 269.973296 -28.052727 
L 269.000112 -28.052727 
L 268.026927 -28.052727 
L 267.053743 -28.052727 
L 266.080559 -28.052727 
L 265.107374 -28.052727 
L 264.13419 -28.052727 
L 263.161006 -28.052727 
L 262.187821 -28.052727 
L 261.214637 -28.052727 
L 260.241453 -28.052727 
L 259.268268 -28.052727 
L 258.295084 -28.052727 
L 257.321899 -28.052727 
L 256.348715 -28.052727 
L 255.375531 -28.052727 
L 254.402346 -28.052727 
L 253.429162 -28.052727 
L 252.455978 -28.052727 
L 251.482793 -28.052727 
L 250.509609 -28.052727 
L 249.536425 -28.052727 
L 248.56324 -28.052727 
L 247.590056 -28.052727 
L 246.616872 -28.052727 
L 245.643687 -28.052727 
L 244.670503 -28.052727 
L 243.697318 -28.052727 
L 242.724134 -28.052727 
L 241.75095 -28.052727 
L 240.777765 -28.052727 
L 239.804581 -28.052727 
L 238.831397 -28.052727 
L 237.858212 -28.052727 
L 236.885028 -28.052727 
L 235.911844 -28.052727 
L 234.938659 -28.052727 
L 233.965475 -28.052727 
L 232.992291 -28.052727 
L 232.019106 -28.052727 
L 231.045922 -28.052727 
L 230.072737 -28.052727 
L 229.099553 -28.052727 
L 228.126369 -28.052727 
L 227.153184 -28.052727 
L 226.18 -28.052727 
L 225.206816 -28.052727 
L 224.233631 -28.052727 
L 223.260447 -28.052727 
L 222.287263 -28.052727 
L 221.314078 -28.052727 
L 220.340894 -28.052727 
L 219.367709 -28.052727 
L 218.394525 -28.052727 
L 217.421341 -28.052727 
L 216.448156 -28.052727 
L 215.474972 -28.052727 
L 214.501788 -28.052727 
L 213.528603 -28.052727 
L 212.555419 -28.052727 
L 211.582235 -28.052727 
L 210.60905 -28.052727 
L 209.635866 -28.052727 
L 208.662682 -28.052727 
L 207.689497 -28.052727 
L 206.716313 -28.052727 
L 205.743128 -28.052727 
L 204.769944 -28.052727 
L 203.79676 -28.052727 
L 202.823575 -28.052727 
L 201.850391 -28.052727 
L 200.877207 -28.052727 
L 199.904022 -28.052727 
L 198.930838 -28.052727 
L 197.957654 -28.052727 
L 196.984469 -28.052727 
L 196.011285 -28.052727 
L 195.038101 -28.052727 
L 194.064916 -28.052727 
L 193.091732 -28.052727 
L 192.118547 -28.052727 
L 191.145363 -28.052727 
L 190.172179 -28.052727 
L 189.198994 -28.052727 
L 188.22581 -28.052727 
L 187.252626 -28.052727 
L 186.279441 -28.052727 
L 185.306257 -28.052727 
L 184.333073 -28.052727 
L 183.359888 -28.052727 
L 182.386704 -28.052727 
L 181.41352 -28.052727 
L 180.440335 -28.052727 
L 179.467151 -28.052727 
L 178.493966 -28.052727 
L 177.520782 -28.052727 
L 176.547598 -28.052727 
L 175.574413 -28.052727 
L 174.601229 -28.052727 
L 173.628045 -28.052727 
L 172.65486 -28.052727 
L 171.681676 -28.052727 
L 170.708492 -28.052727 
L 169.735307 -28.052727 
L 168.762123 -28.052727 
L 167.788939 -28.052727 
L 166.815754 -28.052727 
L 165.84257 -28.052727 
L 164.869385 -28.052727 
L 163.896201 -28.052727 
L 162.923017 -28.052727 
L 161.949832 -28.052727 
L 160.976648 -28.052727 
L 160.003464 -28.052727 
L 159.030279 -28.052727 
L 158.057095 -28.052727 
L 157.083911 -28.052727 
L 156.110726 -28.052727 
L 155.137542 -28.052727 
L 154.164358 -28.052727 
L 153.191173 -28.052727 
L 152.217989 -28.052727 
L 151.244804 -28.052727 
L 150.27162 -28.052727 
L 149.298436 -28.052727 
L 148.325251 -28.052727 
L 147.352067 -28.052727 
L 146.378883 -28.052727 
L 145.405698 -28.052727 
L 144.432514 -28.052727 
L 143.45933 -28.052727 
L 142.486145 -28.052727 
L 141.512961 -28.052727 
L 140.539777 -28.052727 
L 139.566592 -28.052727 
L 138.593408 -28.052727 
L 137.620223 -28.052727 
L 136.647039 -28.052727 
L 135.673855 -28.052727 
L 134.70067 -28.052727 
L 133.727486 -28.052727 
L 132.754302 -28.052727 
L 131.781117 -28.052727 
L 130.807933 -28.052727 
L 129.834749 -28.052727 
L 128.861564 -28.052727 
L 127.88838 -28.052727 
L 126.915196 -28.052727 
L 125.942011 -28.052727 
L 124.968827 -28.052727 
L 123.995642 -28.052727 
L 123.022458 -28.052727 
L 122.049274 -28.052727 
L 121.076089 -28.052727 
L 120.102905 -28.052727 
L 119.129721 -28.052727 
L 118.156536 -28.052727 
L 117.183352 -28.052727 
L 116.210168 -28.052727 
L 115.236983 -28.052727 
L 114.263799 -28.052727 
L 113.290615 -28.052727 
L 112.31743 -28.052727 
L 111.344246 -28.052727 
L 110.371061 -28.052727 
L 109.397877 -28.052727 
L 108.424693 -28.052727 
L 107.451508 -28.052727 
L 106.478324 -28.052727 
L 105.50514 -28.052727 
L 104.531955 -28.052727 
L 103.558771 -28.052727 
L 102.585587 -28.052727 
L 101.612402 -28.052727 
L 100.639218 -28.052727 
L 99.666034 -28.052727 
L 98.692849 -28.052727 
L 97.719665 -28.052727 
L 96.74648 -28.052727 
L 95.773296 -28.052727 
L 94.800112 -28.052727 
L 93.826927 -28.052727 
L 92.853743 -28.052727 
L 91.880559 -28.052727 
L 90.907374 -28.052727 
L 89.93419 -28.052727 
L 88.961006 -28.052727 
L 87.987821 -28.052727 
L 87.014637 -28.052727 
L 86.041453 -28.052727 
L 85.068268 -28.052727 
L 84.095084 -28.052727 
L 83.121899 -28.052727 
L 82.148715 -28.052727 
L 81.175531 -28.052727 
L 80.202346 -28.052727 
L 79.229162 -28.052727 
L 78.255978 -28.052727 
L 77.282793 -28.052727 
L 76.309609 -28.052727 
L 75.336425 -28.052727 
L 74.36324 -28.052727 
L 73.390056 -28.052727 
L 72.416872 -28.052727 
L 71.443687 -28.052727 
L 70.470503 -28.052727 
L 69.497318 -28.052727 
L 68.524134 -28.052727 
L 67.55095 -28.052727 
L 66.577765 -28.052727 
L 65.604581 -28.052727 
L 64.631397 -28.052727 
L 63.658212 -28.052727 
L 62.685028 -28.052727 
L 61.711844 -28.052727 
L 60.738659 -28.052727 
L 59.765475 -28.052727 
L 58.792291 -28.052727 
L 57.819106 -28.052727 
L 56.845922 -28.052727 
L 55.872737 -28.052727 
L 54.899553 -28.052727 
L 53.926369 -28.052727 
L 52.953184 -28.052727 
L 51.98 -28.052727 
z
" style="stroke: #3fb950; stroke-opacity: 0.15"/>
    </defs>
    <g clip-path="url(#pa5c0669a79)">
     <use xlink:href="#m81953f5de4" x="0" y="172.518281" style="fill: #3fb950; fill-opacity: 0.15; stroke: #3fb950; stroke-opacity: 0.15"/>
    </g>
   </g>
   <g id="matplotlib.axis_1">
    <g id="xtick_1">
     <g id="line2d_1">
      <path d="M 51.98 150.318281 
L 51.98 21.558281 
" clip-path="url(#pa5c0669a79)" style="fill: none; stroke: #21262d; stroke-opacity: 0.5; stroke-width: 0.5; stroke-linecap: square"/>
     </g>
     <g id="line2d_2">
      <defs>
       <path id="m76020855f9" d="M 0 0 
L 0 3.5 
" style="stroke: #c9d1d9; stroke-width: 0.8"/>
      </defs>
      <g>
       <use xlink:href="#m76020855f9" x="51.98" y="150.318281" style="fill: #c9d1d9; stroke: #c9d1d9; stroke-width: 0.8"/>
      </g>
     </g>
     <g id="text_1">
      <!-- 0 -->
      <g style="fill: #c9d1d9" transform="translate(49.435 163.396406) scale(0.08 -0.08)">
       <defs>
        <path id="DejaVuSans-13" d="M 2034 4250 
Q 1547 4250 1301 3770 
Q 1056 3291 1056 2328 
Q 1056 1369 1301 889 
Q 1547 409 2034 409 
Q 2525 409 2770 889 
Q 3016 1369 3016 2328 
Q 3016 3291 2770 3770 
Q 2525 4250 2034 4250 
z
M 2034 4750 
Q 2819 4750 3233 4129 
Q 3647 3509 3647 2328 
Q 3647 1150 3233 529 
Q 2819 -91 2034 -91 
Q 1250 -91 836 529 
Q 422 1150 422 2328 
Q 422 3509 836 4129 
Q 1250 4750 2034 4750 
z
" transform="scale(0.015625)"/>
       </defs>
       <use xlink:href="#DejaVuSans-13"/>
      </g>
     </g>
    </g>
    <g id="xtick_2">
     <g id="line2d_3">
      <path d="M 100.639218 150.318281 
L 100.639218 21.558281 
" clip-path="url(#pa5c0669a79)" style="fill: none; stroke: #21262d; stroke-opacity: 0.5; stroke-width: 0.5; stroke-linecap: square"/>
     </g>
     <g id="line2d_4">
      <g>
       <use xlink:href="#m76020855f9" x="100.639218" y="150.318281" style="fill: #c9d1d9; stroke: #c9d1d9; stroke-width: 0.8"/>
      </g>
     </g>
     <g id="text_2">
      <!-- 50 -->
      <g style="fill: #c9d1d9" transform="translate(95.549218 163.396406) scale(0.08 -0.08)">
       <defs>
        <path id="DejaVuSans-18" d="M 691 4666 
L 3169 4666 
L 3169 4134 
L 1269 4134 
L 1269 2991 
Q 1406 3038 1543 3061 
Q 1681 3084 1819 3084 
Q 2600 3084 3056 2656 
Q 3513 2228 3513 1497 
Q 3513 744 3044 326 
Q 2575 -91 1722 -91 
Q 1428 -91 1123 -41 
Q 819 9 494 109 
L 494 744 
Q 775 591 1075 516 
Q 1375 441 1709 441 
Q 2250 441 2565 725 
Q 2881 1009 2881 1497 
Q 2881 1984 2565 2268 
Q 2250 2553 1709 2553 
Q 1456 2553 1204 2497 
Q 953 2441 691 2322 
L 691 4666 
z
" transform="scale(0.015625)"/>
       </defs>
       <use xlink:href="#DejaVuSans-18"/>
       <use xlink:href="#DejaVuSans-13" transform="translate(63.625 0)"/>
      </g>
     </g>
    </g>
    <g id="xtick_3">
     <g id="line2d_5">
      <path d="M 149.298436 150.318281 
L 149.298436 21.558281 
" clip-path="url(#pa5c0669a79)" style="fill: none; stroke: #21262d; stroke-opacity: 0.5; stroke-width: 0.5; stroke-linecap: square"/>
     </g>
     <g id="line2d_6">
      <g>
       <use xlink:href="#m76020855f9" x="149.298436" y="150.318281" style="fill: #c9d1d9; stroke: #c9d1d9; stroke-width: 0.8"/>
      </g>
     </g>
     <g id="text_3">
      <!-- 100 -->
      <g style="fill: #c9d1d9" transform="translate(141.663436 163.396406) scale(0.08 -0.08)">
       <defs>
        <path id="DejaVuSans-14" d="M 794 531 
L 1825 531 
L 1825 4091 
L 703 3866 
L 703 4441 
L 1819 4666 
L 2450 4666 
L 2450 531 
L 3481 531 
L 3481 0 
L 794 0 
L 794 531 
z
" transform="scale(0.015625)"/>
       </defs>
       <use xlink:href="#DejaVuSans-14"/>
       <use xlink:href="#DejaVuSans-13" transform="translate(63.625 0)"/>
       <use xlink:href="#DejaVuSans-13" transform="translate(127.25 0)"/>
      </g>
     </g>
    </g>
    <g id="xtick_4">
     <g id="line2d_7">
      <path d="M 197.957654 150.318281 
L 197.957654 21.558281 
" clip-path="url(#pa5c0669a79)" style="fill: none; stroke: #21262d; stroke-opacity: 0.5; stroke-width: 0.5; stroke-linecap: square"/>
     </g>
     <g id="line2d_8">
      <g>
       <use xlink:href="#m76020855f9" x="197.957654" y="150.318281" style="fill: #c9d1d9; stroke: #c9d1d9; stroke-width: 0.8"/>
      </g>
     </g>
     <g id="text_4">
      <!-- 150 -->
      <g style="fill: #c9d1d9" transform="translate(190.322654 163.396406) scale(0.08 -0.08)">
       <use xlink:href="#DejaVuSans-14"/>
       <use xlink:href="#DejaVuSans-18" transform="translate(63.625 0)"/>
       <use xlink:href="#DejaVuSans-13" transform="translate(127.25 0)"/>
      </g>
     </g>
    </g>
    <g id="xtick_5">
     <g id="line2d_9">
      <path d="M 246.616872 150.318281 
L 246.616872 21.558281 
" clip-path="url(#pa5c0669a79)" style="fill: none; stroke: #21262d; stroke-opacity: 0.5; stroke-width: 0.5; stroke-linecap: square"/>
     </g>
     <g id="line2d_10">
      <g>
       <use xlink:href="#m76020855f9" x="246.616872" y="150.318281" style="fill: #c9d1d9; stroke: #c9d1d9; stroke-width: 0.8"/>
      </g>
     </g>
     <g id="text_5">
      <!-- 200 -->
      <g style="fill: #c9d1d9" transform="translate(238.981872 163.396406) scale(0.08 -0.08)">
       <defs>
        <path id="DejaVuSans-15" d="M 1228 531 
L 3431 531 
L 3431 0 
L 469 0 
L 469 531 
Q 828 903 1448 1529 
Q 2069 2156 2228 2338 
Q 2531 2678 2651 2914 
Q 2772 3150 2772 3378 
Q 2772 3750 2511 3984 
Q 2250 4219 1831 4219 
Q 1534 4219 1204 4116 
Q 875 4013 500 3803 
L 500 4441 
Q 881 4594 1212 4672 
Q 1544 4750 1819 4750 
Q 2544 4750 2975 4387 
Q 3406 4025 3406 3419 
Q 3406 3131 3298 2873 
Q 3191 2616 2906 2266 
Q 2828 2175 2409 1742 
Q 1991 1309 1228 531 
z
" transform="scale(0.015625)"/>
       </defs>
       <use xlink:href="#DejaVuSans-15"/>
       <use xlink:href="#DejaVuSans-13" transform="translate(63.625 0)"/>
       <use xlink:href="#DejaVuSans-13" transform="translate(127.25 0)"/>
      </g>
     </g>
    </g>
    <g id="xtick_6">
     <g id="line2d_11">
      <path d="M 295.276089 150.318281 
L 295.276089 21.558281 
" clip-path="url(#pa5c0669a79)" style="fill: none; stroke: #21262d; stroke-opacity: 0.5; stroke-width: 0.5; stroke-linecap: square"/>
     </g>
     <g id="line2d_12">
      <g>
       <use xlink:href="#m76020855f9" x="295.276089" y="150.318281" style="fill: #c9d1d9; stroke: #c9d1d9; stroke-width: 0.8"/>
      </g>
     </g>
     <g id="text_6">
      <!-- 250 -->
      <g style="fill: #c9d1d9" transform="translate(287.641089 163.396406) scale(0.08 -0.08)">
       <use xlink:href="#DejaVuSans-15"/>
       <use xlink:href="#DejaVuSans-18" transform="translate(63.625 0)"/>
       <use xlink:href="#DejaVuSans-13" transform="translate(127.25 0)"/>
      </g>
     </g>
    </g>
    <g id="xtick_7">
     <g id="line2d_13">
      <path d="M 343.935307 150.318281 
L 343.935307 21.558281 
" clip-path="url(#pa5c0669a79)" style="fill: none; stroke: #21262d; stroke-opacity: 0.5; stroke-width: 0.5; stroke-linecap: square"/>
     </g>
     <g id="line2d_14">
      <g>
       <use xlink:href="#m76020855f9" x="343.935307" y="150.318281" style="fill: #c9d1d9; stroke: #c9d1d9; stroke-width: 0.8"/>
      </g>
     </g>
     <g id="text_7">
      <!-- 300 -->
      <g style="fill: #c9d1d9" transform="translate(336.300307 163.396406) scale(0.08 -0.08)">
       <defs>
        <path id="DejaVuSans-16" d="M 2597 2516 
Q 3050 2419 3304 2112 
Q 3559 1806 3559 1356 
Q 3559 666 3084 287 
Q 2609 -91 1734 -91 
Q 1441 -91 1130 -33 
Q 819 25 488 141 
L 488 750 
Q 750 597 1062 519 
Q 1375 441 1716 441 
Q 2309 441 2620 675 
Q 2931 909 2931 1356 
Q 2931 1769 2642 2001 
Q 2353 2234 1838 2234 
L 1294 2234 
L 1294 2753 
L 1863 2753 
Q 2328 2753 2575 2939 
Q 2822 3125 2822 3475 
Q 2822 3834 2567 4026 
Q 2313 4219 1838 4219 
Q 1578 4219 1281 4162 
Q 984 4106 628 3988 
L 628 4550 
Q 988 4650 1302 4700 
Q 1616 4750 1894 4750 
Q 2613 4750 3031 4423 
Q 3450 4097 3450 3541 
Q 3450 3153 3228 2886 
Q 3006 2619 2597 2516 
z
" transform="scale(0.015625)"/>
       </defs>
       <use xlink:href="#DejaVuSans-16"/>
       <use xlink:href="#DejaVuSans-13" transform="translate(63.625 0)"/>
       <use xlink:href="#DejaVuSans-13" transform="translate(127.25 0)"/>
      </g>
     </g>
    </g>
    <g id="xtick_8">
     <g id="line2d_15">
      <path d="M 392.594525 150.318281 
L 392.594525 21.558281 
" clip-path="url(#pa5c0669a79)" style="fill: none; stroke: #21262d; stroke-opacity: 0.5; stroke-width: 0.5; stroke-linecap: square"/>
     </g>
     <g id="line2d_16">
      <g>
       <use xlink:href="#m76020855f9" x="392.594525" y="150.318281" style="fill: #c9d1d9; stroke: #c9d1d9; stroke-width: 0.8"/>
      </g>
     </g>
     <g id="text_8">
      <!-- 350 -->
      <g style="fill: #c9d1d9" transform="translate(384.959525 163.396406) scale(0.08 -0.08)">
       <use xlink:href="#DejaVuSans-16"/>
       <use xlink:href="#DejaVuSans-18" transform="translate(63.625 0)"/>
       <use xlink:href="#DejaVuSans-13" transform="translate(127.25 0)"/>
      </g>
     </g>
    </g>
   </g>
   <g id="matplotlib.axis_2">
    <g id="ytick_1">
     <g id="line2d_17">
      <path d="M 34.56 144.465554 
L 417.8 144.465554 
" clip-path="url(#pa5c0669a79)" style="fill: none; stroke: #21262d; stroke-opacity: 0.5; stroke-width: 0.5; stroke-linecap: square"/>
     </g>
     <g id="line2d_18">
      <defs>
       <path id="med1013101c" d="M 0 0 
L -3.5 0 
" style="stroke: #c9d1d9; stroke-width: 0.8"/>
      </defs>
      <g>
       <use xlink:href="#med1013101c" x="34.56" y="144.465554" style="fill: #c9d1d9; stroke: #c9d1d9; stroke-width: 0.8"/>
      </g>
     </g>
     <g id="text_9">
      <!-- $0 -->
      <g style="fill: #c9d1d9" transform="translate(17.38 147.504929) scale(0.08 -0.08)">
       <defs>
        <path id="DejaVuSans-7" d="M 2163 -941 
L 1850 -941 
L 1847 0 
Q 1519 6 1191 76 
Q 863 147 531 288 
L 531 850 
Q 850 650 1176 548 
Q 1503 447 1850 444 
L 1850 1869 
Q 1159 1981 845 2250 
Q 531 2519 531 2988 
Q 531 3497 872 3790 
Q 1213 4084 1850 4128 
L 1850 4863 
L 2163 4863 
L 2163 4138 
Q 2453 4125 2725 4076 
Q 2997 4028 3256 3944 
L 3256 3397 
Q 2997 3528 2723 3600 
Q 2450 3672 2163 3684 
L 2163 2350 
Q 2872 2241 3206 1959 
Q 3541 1678 3541 1191 
Q 3541 663 3186 358 
Q 2831 53 2163 6 
L 2163 -941 
z
M 1850 2406 
L 1850 3688 
Q 1488 3647 1297 3481 
Q 1106 3316 1106 3041 
Q 1106 2772 1282 2622 
Q 1459 2472 1850 2406 
z
M 2163 1806 
L 2163 453 
Q 2559 506 2761 678 
Q 2963 850 2963 1131 
Q 2963 1406 2770 1568 
Q 2578 1731 2163 1806 
z
" transform="scale(0.015625)"/>
       </defs>
       <use xlink:href="#DejaVuSans-7"/>
       <use xlink:href="#DejaVuSans-13" transform="translate(63.625 0)"/>
      </g>
     </g>
    </g>
    <g id="ytick_2">
     <g id="line2d_19">
      <path d="M 34.56 112.38351 
L 417.8 112.38351 
" clip-path="url(#pa5c0669a79)" style="fill: none; stroke: #21262d; stroke-opacity: 0.5; stroke-width: 0.5; stroke-linecap: square"/>
     </g>
     <g id="line2d_20">
      <g>
       <use xlink:href="#med1013101c" x="34.56" y="112.38351" style="fill: #c9d1d9; stroke: #c9d1d9; stroke-width: 0.8"/>
      </g>
     </g>
     <g id="text_10">
      <!-- $50 -->
      <g style="fill: #c9d1d9" transform="translate(12.29 115.422885) scale(0.08 -0.08)">
       <use xlink:href="#DejaVuSans-7"/>
       <use xlink:href="#DejaVuSans-18" transform="translate(63.625 0)"/>
       <use xlink:href="#DejaVuSans-13" transform="translate(127.25 0)"/>
      </g>
     </g>
    </g>
    <g id="ytick_3">
     <g id="line2d_21">
      <path d="M 34.56 80.301466 
L 417.8 80.301466 
" clip-path="url(#pa5c0669a79)" style="fill: none; stroke: #21262d; stroke-opacity: 0.5; stroke-width: 0.5; stroke-linecap: square"/>
     </g>
     <g id="line2d_22">
      <g>
       <use xlink:href="#med1013101c" x="34.56" y="80.301466" style="fill: #c9d1d9; stroke: #c9d1d9; stroke-width: 0.8"/>
      </g>
     </g>
     <g id="text_11">
      <!-- $100 -->
      <g style="fill: #c9d1d9" transform="translate(7.2 83.340841) scale(0.08 -0.08)">
       <use xlink:href="#DejaVuSans-7"/>
       <use xlink:href="#DejaVuSans-14" transform="translate(63.625 0)"/>
       <use xlink:href="#DejaVuSans-13" transform="translate(127.25 0)"/>
       <use xlink:href="#DejaVuSans-13" transform="translate(190.875 0)"/>
      </g>
     </g>
    </g>
    <g id="ytick_4">
     <g id="line2d_23">
      <path d="M 34.56 48.219422 
L 417.8 48.219422 
" clip-path="url(#pa5c0669a79)" style="fill: none; stroke: #21262d; stroke-opacity: 0.5; stroke-width: 0.5; stroke-linecap: square"/>
     </g>
     <g id="line2d_24">
      <g>
       <use xlink:href="#med1013101c" x="34.56" y="48.219422" style="fill: #c9d1d9; stroke: #c9d1d9; stroke-width: 0.8"/>
      </g>
     </g>
     <g id="text_12">
      <!-- $150 -->
      <g style="fill: #c9d1d9" transform="translate(7.2 51.258797) scale(0.08 -0.08)">
       <use xlink:href="#DejaVuSans-7"/>
       <use xlink:href="#DejaVuSans-14" transform="translate(63.625 0)"/>
       <use xlink:href="#DejaVuSans-18" transform="translate(127.25 0)"/>
       <use xlink:href="#DejaVuSans-13" transform="translate(190.875 0)"/>
      </g>
     </g>
    </g>
   </g>
   <g id="line2d_25">
    <path d="M 51.98 35.964081 
L 52.953184 39.980753 
L 53.926369 33.731171 
L 54.899553 37.080537 
L 55.872737 43.862681 
L 56.845922 28.084731 
L 57.819106 38.062247 
L 58.792291 31.248021 
L 59.765475 34.777046 
L 60.738659 34.334314 
L 61.711844 35.482851 
L 62.685028 35.707425 
L 63.658212 39.140204 
L 64.631397 35.277526 
L 65.604581 38.479314 
L 66.577765 34.706465 
L 67.55095 36.682719 
L 68.524134 35.855002 
L 69.497318 38.877131 
L 70.470503 31.292936 
L 71.443687 45.672108 
L 72.416872 34.616636 
L 73.390056 31.652255 
L 74.36324 42.034004 
L 75.336425 31.164608 
L 76.309609 35.919167 
L 77.282793 36.57364 
L 78.255978 36.041078 
L 79.229162 35.097866 
L 80.202346 36.143741 
L 81.175531 37.382108 
L 82.148715 36.682719 
L 83.121899 40.590312 
L 84.095084 34.071241 
L 85.068268 37.581016 
L 86.041453 32.184817 
L 87.014637 29.502758 
L 87.987821 32.76871 
L 88.961006 31.69717 
L 89.93419 31.568841 
L 90.907374 29.400095 
L 91.880559 32.999701 
L 92.853743 31.645838 
L 93.826927 32.351643 
L 94.800112 31.76775 
L 95.773296 29.887742 
L 96.74648 43.586775 
L 97.719665 37.266612 
L 98.692849 35.919167 
L 99.666034 36.079577 
L 100.639218 37.818424 
L 101.612402 39.274948 
L 102.585587 38.498563 
L 103.558771 38.421566 
L 104.531955 35.316024 
L 105.50514 36.458145 
L 106.478324 40.23741 
L 107.451508 37.00354 
L 108.424693 36.451729 
L 109.397877 29.323098 
L 110.371061 31.684337 
L 111.344246 31.350684 
L 112.31743 34.372812 
L 113.290615 33.051032 
L 114.263799 33.314105 
L 115.236983 35.547015 
L 116.210168 31.645838 
L 117.183352 35.630428 
L 118.156536 32.871372 
L 119.129721 37.009956 
L 120.102905 36.932959 
L 121.076089 32.582634 
L 122.049274 36.971458 
L 123.022458 36.798215 
L 123.995642 33.974995 
L 124.968827 37.497603 
L 125.942011 32.633965 
L 126.915196 37.632348 
L 127.88838 33.493764 
L 128.861564 36.554391 
L 129.834749 33.731171 
L 130.807933 33.897998 
L 131.781117 34.777046 
L 132.754302 36.310568 
L 133.727486 38.498563 
L 134.70067 35.989747 
L 135.673855 38.870715 
L 136.647039 33.455266 
L 137.620223 40.455568 
L 138.593408 32.884205 
L 139.566592 40.571063 
L 140.539777 36.387564 
L 141.512961 34.995204 
L 142.486145 38.447232 
L 143.45933 37.927503 
L 144.432514 37.625931 
L 145.405698 33.121612 
L 146.378883 40.230993 
L 147.352067 33.59001 
L 148.325251 32.364476 
L 149.298436 37.350026 
L 150.27162 31.171024 
L 151.244804 38.588393 
L 152.217989 29.137022 
L 153.191173 38.57556 
L 154.164358 29.008694 
L 155.137542 35.245444 
L 156.110726 33.897998 
L 157.083911 33.371852 
L 158.057095 36.599306 
L 159.030279 31.934577 
L 160.003464 33.185776 
L 160.976648 34.802711 
L 161.949832 35.020869 
L 162.923017 31.568841 
L 163.896201 33.724755 
L 164.869385 34.815544 
L 165.84257 36.907294 
L 166.815754 31.684337 
L 167.788939 35.745924 
L 168.762123 34.533222 
L 169.735307 27.411009 
L 171.681676 28.604461 
L 172.65486 28.007735 
L 173.628045 28.700707 
L 174.601229 27.776744 
L 175.574413 32.370893 
L 176.547598 28.989445 
L 177.520782 28.354221 
L 178.493966 29.348764 
L 179.467151 29.2846 
L 180.440335 41.052294 
L 181.41352 30.78604 
L 182.386704 37.998083 
L 183.359888 31.087611 
L 184.333073 35.348106 
L 185.306257 34.096906 
L 186.279441 33.128029 
L 187.252626 38.710304 
L 188.22581 37.119035 
L 189.198994 37.715761 
L 190.172179 36.669886 
L 191.145363 37.73501 
L 192.118547 34.238067 
L 193.091732 39.910173 
L 194.064916 32.325978 
L 195.038101 39.833176 
L 196.011285 34.937456 
L 196.984469 36.682719 
L 197.957654 33.063865 
L 198.930838 36.451729 
L 199.904022 37.093369 
L 200.877207 32.871372 
L 201.850391 34.494724 
L 202.823575 34.212402 
L 203.79676 34.879708 
L 204.769944 37.035622 
L 205.743128 34.603803 
L 206.716313 38.697472 
L 207.689497 36.522309 
L 208.662682 37.844089 
L 209.635866 35.425103 
L 210.60905 35.745924 
L 211.582235 37.670846 
L 212.555419 33.641341 
L 213.528603 38.139244 
L 214.501788 36.907294 
L 215.474972 38.524229 
L 216.448156 34.687216 
L 217.421341 39.358362 
L 218.394525 36.836713 
L 219.367709 33.744004 
L 220.340894 35.919167 
L 221.314078 34.732131 
L 222.287263 35.373772 
L 223.260447 33.673423 
L 224.233631 35.636845 
L 225.206816 37.061287 
L 226.18 34.93104 
L 227.153184 38.909213 
L 228.126369 33.75042 
L 229.099553 36.580057 
L 230.072737 34.417727 
L 232.019106 38.819383 
L 232.992291 35.758756 
L 233.965475 39.287781 
L 234.938659 35.322441 
L 235.911844 35.213362 
L 236.885028 35.322441 
L 237.858212 35.66251 
L 238.831397 34.565304 
L 239.804581 33.654174 
L 240.777765 39.499523 
L 241.75095 37.106202 
L 242.724134 37.362859 
L 243.697318 38.030165 
L 244.670503 32.633965 
L 245.643687 35.803671 
L 246.616872 35.43152 
L 247.590056 36.91371 
L 248.56324 34.565304 
L 249.536425 35.425103 
L 250.509609 36.971458 
L 251.482793 35.887085 
L 252.455978 34.578137 
L 253.429162 36.490227 
L 254.402346 37.035622 
L 255.375531 34.860459 
L 256.348715 36.644221 
L 257.321899 34.212402 
L 258.295084 34.513973 
L 259.268268 33.391102 
L 260.241453 35.643261 
L 261.214637 37.112619 
L 262.187821 37.66443 
L 263.161006 32.415807 
L 264.13419 40.571063 
L 265.107374 36.830297 
L 266.080559 39.005459 
L 267.053743 33.981411 
L 269.000112 35.348106 
L 269.973296 35.444352 
L 270.94648 37.593849 
L 271.919665 37.754259 
L 272.892849 37.112619 
L 273.866034 37.247363 
L 274.839218 34.2509 
L 275.812402 35.354523 
L 276.785587 35.59193 
L 277.758771 36.82388 
L 278.731955 33.391102 
L 279.70514 35.925583 
L 280.678324 37.998083 
L 281.651508 35.656094 
L 282.624693 34.693632 
L 283.597877 39.544438 
L 284.571061 32.204066 
L 285.544246 36.547975 
L 286.51743 34.347146 
L 287.490615 38.729554 
L 288.463799 34.481891 
L 289.436983 37.882588 
L 290.410168 37.89542 
L 291.383352 34.045575 
L 292.356536 35.245444 
L 294.302905 38.504979 
L 295.276089 34.462642 
L 296.249274 36.945792 
L 297.222458 41.077959 
L 298.195642 34.507557 
L 299.168827 36.169407 
L 300.142011 40.48765 
L 301.115196 33.782502 
L 302.08838 40.814886 
L 303.061564 41.090792 
L 304.034749 33.198609 
L 305.007933 35.239027 
L 305.981117 35.405854 
L 306.954302 34.096906 
L 307.927486 46.27525 
L 308.90067 29.740165 
L 309.873855 37.009956 
L 310.847039 45.61436 
L 311.820223 33.26919 
L 312.793408 37.009956 
L 313.766592 45.357704 
L 314.739777 34.796295 
L 315.712961 40.025668 
L 316.686145 37.48477 
L 317.65933 37.850506 
L 318.632514 34.744964 
L 319.605698 40.032085 
L 321.552067 35.142781 
L 322.525251 47.212046 
L 323.498436 32.595467 
L 324.47162 38.742386 
L 325.444804 46.583238 
L 326.417989 31.376349 
L 327.391173 37.16395 
L 328.364358 46.679484 
L 329.337542 31.19669 
L 330.310726 37.305111 
L 331.283911 35.938416 
L 332.257095 34.263733 
L 333.230279 36.150157 
L 334.203464 35.790838 
L 335.176648 37.279445 
L 336.149832 37.548934 
L 337.123017 35.880668 
L 338.096201 36.637804 
L 339.069385 35.322441 
L 340.04257 41.000962 
L 341.015754 34.315064 
L 341.988939 35.996163 
L 342.962123 34.148238 
L 343.935307 35.16203 
L 344.908492 36.490227 
L 345.881676 32.377309 
L 346.85486 39.332696 
L 347.828045 34.50114 
L 348.801229 35.566264 
L 349.774413 32.730211 
L 350.747598 31.883245 
L 351.720782 35.624012 
L 352.693966 30.368973 
L 353.667151 33.410351 
L 354.640335 33.795335 
L 355.61352 34.558888 
L 356.586704 35.970498 
L 357.559888 37.715761 
L 358.533073 34.546055 
L 359.506257 36.965041 
L 360.479441 35.078617 
L 361.452626 38.723137 
L 362.42581 35.085033 
L 363.398994 41.180622 
L 364.372179 35.495684 
L 365.345363 35.213362 
L 366.318547 37.228114 
L 367.291732 38.139244 
L 368.264916 33.634925 
L 369.238101 40.571063 
L 370.211285 33.93008 
L 371.184469 35.694592 
L 372.157654 40.282325 
L 373.130838 38.196992 
L 374.104022 38.286821 
L 375.077207 39.249283 
L 376.050391 34.007077 
L 377.023575 36.804631 
L 377.99676 37.305111 
L 378.969944 33.615676 
L 379.943128 38.710304 
L 380.916313 36.316984 
L 381.889497 36.233571 
L 382.862682 34.539639 
L 383.835866 34.334314 
L 385.782235 36.015413 
L 386.755419 35.136365 
L 387.728603 37.933919 
L 388.701788 32.33881 
L 389.674972 40.757139 
L 390.648156 30.94645 
L 391.621341 41.430862 
L 392.594525 44.433741 
L 393.567709 35.117115 
L 394.540894 35.052951 
L 395.514078 45.376953 
L 396.487263 29.496341 
L 397.460447 40.949631 
L 398.433631 35.418687 
L 399.406816 39.120955 
L 400.38 34.321481 
L 400.38 34.321481 
" clip-path="url(#pa5c0669a79)" style="fill: none; stroke: #3fb950; stroke-width: 2; stroke-linecap: square"/>
   </g>
   <g id="patch_3">
    <path d="M 34.56 150.318281 
L 34.56 21.558281 
" style="fill: none; stroke: #21262d; stroke-width: 0.8; stroke-linejoin: miter; stroke-linecap: square"/>
   </g>
   <g id="patch_4">
    <path d="M 34.56 150.318281 
L 417.8 150.318281 
" style="fill: none; stroke: #21262d; stroke-width: 0.8; stroke-linejoin: miter; stroke-linecap: square"/>
   </g>
   <g id="text_13">
    <!-- T3MP3ST (elder-plinius/T3MP3ST) — $171.66 (+4.56%) -->
    <g style="fill: #c9d1d9" transform="translate(55.99625 15.558281) scale(0.11 -0.11)">
     <defs>
      <path id="DejaVuSans-Bold-37" d="M 31 4666 
L 4331 4666 
L 4331 3756 
L 2784 3756 
L 2784 0 
L 1581 0 
L 1581 3756 
L 31 3756 
L 31 4666 
z
" transform="scale(0.015625)"/>
      <path id="DejaVuSans-Bold-16" d="M 2981 2516 
Q 3453 2394 3698 2092 
Q 3944 1791 3944 1325 
Q 3944 631 3412 270 
Q 2881 -91 1863 -91 
Q 1503 -91 1142 -33 
Q 781 25 428 141 
L 428 1069 
Q 766 900 1098 814 
Q 1431 728 1753 728 
Q 2231 728 2486 893 
Q 2741 1059 2741 1369 
Q 2741 1688 2480 1852 
Q 2219 2016 1709 2016 
L 1228 2016 
L 1228 2791 
L 1734 2791 
Q 2188 2791 2409 2933 
Q 2631 3075 2631 3366 
Q 2631 3634 2415 3781 
Q 2200 3928 1806 3928 
Q 1516 3928 1219 3862 
Q 922 3797 628 3669 
L 628 4550 
Q 984 4650 1334 4700 
Q 1684 4750 2022 4750 
Q 2931 4750 3382 4451 
Q 3834 4153 3834 3553 
Q 3834 3144 3618 2883 
Q 3403 2622 2981 2516 
z
" transform="scale(0.015625)"/>
      <path id="DejaVuSans-Bold-30" d="M 588 4666 
L 2119 4666 
L 3181 2169 
L 4250 4666 
L 5778 4666 
L 5778 0 
L 4641 0 
L 4641 3413 
L 3566 897 
L 2803 897 
L 1728 3413 
L 1728 0 
L 588 0 
L 588 4666 
z
" transform="scale(0.015625)"/>
      <path id="DejaVuSans-Bold-33" d="M 588 4666 
L 2584 4666 
Q 3475 4666 3951 4270 
Q 4428 3875 4428 3144 
Q 4428 2409 3951 2014 
Q 3475 1619 2584 1619 
L 1791 1619 
L 1791 0 
L 588 0 
L 588 4666 
z
M 1791 3794 
L 1791 2491 
L 2456 2491 
Q 2806 2491 2997 2661 
Q 3188 2831 3188 3144 
Q 3188 3456 2997 3625 
Q 2806 3794 2456 3794 
L 1791 3794 
z
" transform="scale(0.015625)"/>
      <path id="DejaVuSans-Bold-36" d="M 3834 4519 
L 3834 3531 
Q 3450 3703 3084 3790 
Q 2719 3878 2394 3878 
Q 1963 3878 1756 3759 
Q 1550 3641 1550 3391 
Q 1550 3203 1689 3098 
Q 1828 2994 2194 2919 
L 2706 2816 
Q 3484 2659 3812 2340 
Q 4141 2022 4141 1434 
Q 4141 663 3683 286 
Q 3225 -91 2284 -91 
Q 1841 -91 1394 -6 
Q 947 78 500 244 
L 500 1259 
Q 947 1022 1364 901 
Q 1781 781 2169 781 
Q 2563 781 2772 912 
Q 2981 1044 2981 1288 
Q 2981 1506 2839 1625 
Q 2697 1744 2272 1838 
L 1806 1941 
Q 1106 2091 782 2419 
Q 459 2747 459 3303 
Q 459 4000 909 4375 
Q 1359 4750 2203 4750 
Q 2588 4750 2994 4692 
Q 3400 4634 3834 4519 
z
" transform="scale(0.015625)"/>
      <path id="DejaVuSans-Bold-3" transform="scale(0.015625)"/>
      <path id="DejaVuSans-Bold-b" d="M 2413 -844 
L 1484 -844 
Q 1006 -72 778 623 
Q 550 1319 550 2003 
Q 550 2688 779 3389 
Q 1009 4091 1484 4856 
L 2413 4856 
Q 2013 4116 1813 3408 
Q 1613 2700 1613 2009 
Q 1613 1319 1811 609 
Q 2009 -100 2413 -844 
z
" transform="scale(0.015625)"/>
      <path id="DejaVuSans-Bold-48" d="M 4031 1759 
L 4031 1441 
L 1416 1441 
Q 1456 1047 1700 850 
Q 1944 653 2381 653 
Q 2734 653 3104 758 
Q 3475 863 3866 1075 
L 3866 213 
Q 3469 63 3072 -14 
Q 2675 -91 2278 -91 
Q 1328 -91 801 392 
Q 275 875 275 1747 
Q 275 2603 792 3093 
Q 1309 3584 2216 3584 
Q 3041 3584 3536 3087 
Q 4031 2591 4031 1759 
z
M 2881 2131 
Q 2881 2450 2695 2645 
Q 2509 2841 2209 2841 
Q 1884 2841 1681 2658 
Q 1478 2475 1428 2131 
L 2881 2131 
z
" transform="scale(0.015625)"/>
      <path id="DejaVuSans-Bold-4f" d="M 538 4863 
L 1656 4863 
L 1656 0 
L 538 0 
L 538 4863 
z
" transform="scale(0.015625)"/>
      <path id="DejaVuSans-Bold-47" d="M 2919 2988 
L 2919 4863 
L 4044 4863 
L 4044 0 
L 2919 0 
L 2919 506 
Q 2688 197 2409 53 
Q 2131 -91 1766 -91 
Q 1119 -91 703 423 
Q 288 938 288 1747 
Q 288 2556 703 3070 
Q 1119 3584 1766 3584 
Q 2128 3584 2408 3439 
Q 2688 3294 2919 2988 
z
M 2181 722 
Q 2541 722 2730 984 
Q 2919 1247 2919 1747 
Q 2919 2247 2730 2509 
Q 2541 2772 2181 2772 
Q 1825 2772 1636 2509 
Q 1447 2247 1447 1747 
Q 1447 1247 1636 984 
Q 1825 722 2181 722 
z
" transform="scale(0.015625)"/>
      <path id="DejaVuSans-Bold-55" d="M 3138 2547 
Q 2991 2616 2845 2648 
Q 2700 2681 2553 2681 
Q 2122 2681 1889 2404 
Q 1656 2128 1656 1613 
L 1656 0 
L 538 0 
L 538 3500 
L 1656 3500 
L 1656 2925 
Q 1872 3269 2151 3426 
Q 2431 3584 2822 3584 
Q 2878 3584 2943 3579 
Q 3009 3575 3134 3559 
L 3138 2547 
z
" transform="scale(0.015625)"/>
      <path id="DejaVuSans-Bold-10" d="M 347 2297 
L 2309 2297 
L 2309 1388 
L 347 1388 
L 347 2297 
z
" transform="scale(0.015625)"/>
      <path id="DejaVuSans-Bold-53" d="M 1656 506 
L 1656 -1331 
L 538 -1331 
L 538 3500 
L 1656 3500 
L 1656 2988 
Q 1888 3294 2169 3439 
Q 2450 3584 2816 3584 
Q 3463 3584 3878 3070 
Q 4294 2556 4294 1747 
Q 4294 938 3878 423 
Q 3463 -91 2816 -91 
Q 2450 -91 2169 54 
Q 1888 200 1656 506 
z
M 2400 2772 
Q 2041 2772 1848 2508 
Q 1656 2244 1656 1747 
Q 1656 1250 1848 986 
Q 2041 722 2400 722 
Q 2759 722 2948 984 
Q 3138 1247 3138 1747 
Q 3138 2247 2948 2509 
Q 2759 2772 2400 2772 
z
" transform="scale(0.015625)"/>
      <path id="DejaVuSans-Bold-4c" d="M 538 3500 
L 1656 3500 
L 1656 0 
L 538 0 
L 538 3500 
z
M 538 4863 
L 1656 4863 
L 1656 3950 
L 538 3950 
L 538 4863 
z
" transform="scale(0.015625)"/>
      <path id="DejaVuSans-Bold-51" d="M 4056 2131 
L 4056 0 
L 2931 0 
L 2931 347 
L 2931 1631 
Q 2931 2084 2911 2256 
Q 2891 2428 2841 2509 
Q 2775 2619 2662 2680 
Q 2550 2741 2406 2741 
Q 2056 2741 1856 2470 
Q 1656 2200 1656 1722 
L 1656 0 
L 538 0 
L 538 3500 
L 1656 3500 
L 1656 2988 
Q 1909 3294 2193 3439 
Q 2478 3584 2822 3584 
Q 3428 3584 3742 3212 
Q 4056 2841 4056 2131 
z
" transform="scale(0.015625)"/>
      <path id="DejaVuSans-Bold-58" d="M 500 1363 
L 500 3500 
L 1625 3500 
L 1625 3150 
Q 1625 2866 1622 2436 
Q 1619 2006 1619 1863 
Q 1619 1441 1641 1255 
Q 1663 1069 1716 984 
Q 1784 875 1895 815 
Q 2006 756 2150 756 
Q 2500 756 2700 1025 
Q 2900 1294 2900 1772 
L 2900 3500 
L 4019 3500 
L 4019 0 
L 2900 0 
L 2900 506 
Q 2647 200 2364 54 
Q 2081 -91 1741 -91 
Q 1134 -91 817 281 
Q 500 653 500 1363 
z
" transform="scale(0.015625)"/>
      <path id="DejaVuSans-Bold-56" d="M 3272 3391 
L 3272 2541 
Q 2913 2691 2578 2766 
Q 2244 2841 1947 2841 
Q 1628 2841 1473 2761 
Q 1319 2681 1319 2516 
Q 1319 2381 1436 2309 
Q 1553 2238 1856 2203 
L 2053 2175 
Q 2913 2066 3209 1816 
Q 3506 1566 3506 1031 
Q 3506 472 3093 190 
Q 2681 -91 1863 -91 
Q 1516 -91 1145 -36 
Q 775 19 384 128 
L 384 978 
Q 719 816 1070 734 
Q 1422 653 1784 653 
Q 2113 653 2278 743 
Q 2444 834 2444 1013 
Q 2444 1163 2330 1236 
Q 2216 1309 1875 1350 
L 1678 1375 
Q 931 1469 631 1722 
Q 331 1975 331 2491 
Q 331 3047 712 3315 
Q 1094 3584 1881 3584 
Q 2191 3584 2531 3537 
Q 2872 3491 3272 3391 
z
" transform="scale(0.015625)"/>
      <path id="DejaVuSans-Bold-12" d="M 1644 4666 
L 2338 4666 
L 691 -594 
L 0 -594 
L 1644 4666 
z
" transform="scale(0.015625)"/>
      <path id="DejaVuSans-Bold-c" d="M 513 -844 
Q 913 -100 1113 609 
Q 1313 1319 1313 2009 
Q 1313 2700 1113 3408 
Q 913 4116 513 4856 
L 1441 4856 
Q 1916 4091 2145 3389 
Q 2375 2688 2375 2003 
Q 2375 1319 2147 623 
Q 1919 -72 1441 -844 
L 513 -844 
z
" transform="scale(0.015625)"/>
      <path id="DejaVuSans-Bold-af6" d="M 344 2156 
L 6056 2156 
L 6056 1350 
L 344 1350 
L 344 2156 
z
" transform="scale(0.015625)"/>
      <path id="DejaVuSans-Bold-7" d="M 2484 -941 
L 1978 -941 
L 1975 0 
Q 1584 16 1218 87 
Q 853 159 506 288 
L 506 1106 
Q 866 922 1233 823 
Q 1600 725 1978 713 
L 1978 1684 
L 1875 1703 
Q 1128 1834 814 2115 
Q 500 2397 500 2925 
Q 500 3484 883 3798 
Q 1266 4113 1975 4141 
L 1978 4863 
L 2484 4863 
L 2484 4153 
Q 2797 4128 3109 4075 
Q 3422 4022 3738 3938 
L 3738 3144 
Q 3425 3275 3112 3348 
Q 2800 3422 2484 3438 
L 2484 2541 
L 2584 2522 
Q 3378 2397 3698 2105 
Q 4019 1813 4019 1241 
Q 4019 666 3637 358 
Q 3256 50 2484 6 
L 2484 -941 
z
M 1978 2613 
L 1978 3428 
Q 1756 3416 1623 3308 
Q 1491 3200 1491 3034 
Q 1491 2850 1612 2745 
Q 1734 2641 1978 2613 
z
M 2484 1594 
L 2484 725 
Q 2756 728 2892 831 
Q 3028 934 3028 1141 
Q 3028 1353 2903 1458 
Q 2778 1563 2484 1594 
z
" transform="scale(0.015625)"/>
      <path id="DejaVuSans-Bold-14" d="M 750 831 
L 1813 831 
L 1813 3847 
L 722 3622 
L 722 4441 
L 1806 4666 
L 2950 4666 
L 2950 831 
L 4013 831 
L 4013 0 
L 750 0 
L 750 831 
z
" transform="scale(0.015625)"/>
      <path id="DejaVuSans-Bold-1a" d="M 428 4666 
L 3944 4666 
L 3944 3988 
L 2125 0 
L 953 0 
L 2675 3781 
L 428 3781 
L 428 4666 
z
" transform="scale(0.015625)"/>
      <path id="DejaVuSans-Bold-11" d="M 653 1209 
L 1778 1209 
L 1778 0 
L 653 0 
L 653 1209 
z
" transform="scale(0.015625)"/>
      <path id="DejaVuSans-Bold-19" d="M 2316 2303 
Q 2000 2303 1842 2098 
Q 1684 1894 1684 1484 
Q 1684 1075 1842 870 
Q 2000 666 2316 666 
Q 2634 666 2792 870 
Q 2950 1075 2950 1484 
Q 2950 1894 2792 2098 
Q 2634 2303 2316 2303 
z
M 3803 4544 
L 3803 3681 
Q 3506 3822 3243 3889 
Q 2981 3956 2731 3956 
Q 2194 3956 1894 3657 
Q 1594 3359 1544 2772 
Q 1750 2925 1990 3001 
Q 2231 3078 2516 3078 
Q 3231 3078 3670 2659 
Q 4109 2241 4109 1563 
Q 4109 813 3618 361 
Q 3128 -91 2303 -91 
Q 1394 -91 895 523 
Q 397 1138 397 2266 
Q 397 3422 980 4083 
Q 1563 4744 2578 4744 
Q 2900 4744 3203 4694 
Q 3506 4644 3803 4544 
z
" transform="scale(0.015625)"/>
      <path id="DejaVuSans-Bold-e" d="M 3053 4013 
L 3053 2375 
L 4684 2375 
L 4684 1638 
L 3053 1638 
L 3053 0 
L 2309 0 
L 2309 1638 
L 678 1638 
L 678 2375 
L 2309 2375 
L 2309 4013 
L 3053 4013 
z
" transform="scale(0.015625)"/>
      <path id="DejaVuSans-Bold-17" d="M 2356 3675 
L 1038 1722 
L 2356 1722 
L 2356 3675 
z
M 2156 4666 
L 3494 4666 
L 3494 1722 
L 4159 1722 
L 4159 850 
L 3494 850 
L 3494 0 
L 2356 0 
L 2356 850 
L 288 850 
L 288 1881 
L 2156 4666 
z
" transform="scale(0.015625)"/>
      <path id="DejaVuSans-Bold-18" d="M 678 4666 
L 3669 4666 
L 3669 3781 
L 1638 3781 
L 1638 3059 
Q 1775 3097 1914 3117 
Q 2053 3138 2203 3138 
Q 3056 3138 3531 2711 
Q 4006 2284 4006 1522 
Q 4006 766 3489 337 
Q 2972 -91 2053 -91 
Q 1656 -91 1267 -14 
Q 878 63 494 219 
L 494 1166 
Q 875 947 1217 837 
Q 1559 728 1863 728 
Q 2300 728 2551 942 
Q 2803 1156 2803 1522 
Q 2803 1891 2551 2103 
Q 2300 2316 1863 2316 
Q 1603 2316 1309 2248 
Q 1016 2181 678 2041 
L 678 4666 
z
" transform="scale(0.015625)"/>
      <path id="DejaVuSans-Bold-8" d="M 4959 1925 
Q 4738 1925 4616 1733 
Q 4494 1541 4494 1184 
Q 4494 825 4614 633 
Q 4734 441 4959 441 
Q 5184 441 5303 633 
Q 5422 825 5422 1184 
Q 5422 1541 5301 1733 
Q 5181 1925 4959 1925 
z
M 4959 2450 
Q 5541 2450 5875 2112 
Q 6209 1775 6209 1184 
Q 6209 594 5875 251 
Q 5541 -91 4959 -91 
Q 4378 -91 4042 251 
Q 3706 594 3706 1184 
Q 3706 1772 4042 2111 
Q 4378 2450 4959 2450 
z
M 2094 -91 
L 1403 -91 
L 4319 4750 
L 5013 4750 
L 2094 -91 
z
M 1453 4750 
Q 2034 4750 2367 4411 
Q 2700 4072 2700 3481 
Q 2700 2891 2367 2550 
Q 2034 2209 1453 2209 
Q 872 2209 539 2550 
Q 206 2891 206 3481 
Q 206 4072 539 4411 
Q 872 4750 1453 4750 
z
M 1453 4225 
Q 1228 4225 1106 4031 
Q 984 3838 984 3481 
Q 984 3122 1106 2926 
Q 1228 2731 1453 2731 
Q 1678 2731 1798 2926 
Q 1919 3122 1919 3481 
Q 1919 3838 1797 4031 
Q 1675 4225 1453 4225 
z
" transform="scale(0.015625)"/>
     </defs>
     <use xlink:href="#DejaVuSans-Bold-37"/>
     <use xlink:href="#DejaVuSans-Bold-16" transform="translate(68.21875 0)"/>
     <use xlink:href="#DejaVuSans-Bold-30" transform="translate(137.796875 0)"/>
     <use xlink:href="#DejaVuSans-Bold-33" transform="translate(237.3125 0)"/>
     <use xlink:href="#DejaVuSans-Bold-16" transform="translate(310.609375 0)"/>
     <use xlink:href="#DejaVuSans-Bold-36" transform="translate(380.1875 0)"/>
     <use xlink:href="#DejaVuSans-Bold-37" transform="translate(452.203125 0)"/>
     <use xlink:href="#DejaVuSans-Bold-3" transform="translate(520.421875 0)"/>
     <use xlink:href="#DejaVuSans-Bold-b" transform="translate(555.234375 0)"/>
     <use xlink:href="#DejaVuSans-Bold-48" transform="translate(600.9375 0)"/>
     <use xlink:href="#DejaVuSans-Bold-4f" transform="translate(668.765625 0)"/>
     <use xlink:href="#DejaVuSans-Bold-47" transform="translate(703.046875 0)"/>
     <use xlink:href="#DejaVuSans-Bold-48" transform="translate(774.625 0)"/>
     <use xlink:href="#DejaVuSans-Bold-55" transform="translate(842.453125 0)"/>
     <use xlink:href="#DejaVuSans-Bold-10" transform="translate(891.765625 0)"/>
     <use xlink:href="#DejaVuSans-Bold-53" transform="translate(933.265625 0)"/>
     <use xlink:href="#DejaVuSans-Bold-4f" transform="translate(1004.84375 0)"/>
     <use xlink:href="#DejaVuSans-Bold-4c" transform="translate(1039.125 0)"/>
     <use xlink:href="#DejaVuSans-Bold-51" transform="translate(1073.40625 0)"/>
     <use xlink:href="#DejaVuSans-Bold-4c" transform="translate(1144.59375 0)"/>
     <use xlink:href="#DejaVuSans-Bold-58" transform="translate(1178.875 0)"/>
     <use xlink:href="#DejaVuSans-Bold-56" transform="translate(1250.0625 0)"/>
     <use xlink:href="#DejaVuSans-Bold-12" transform="translate(1309.578125 0)"/>
     <use xlink:href="#DejaVuSans-Bold-37" transform="translate(1346.109375 0)"/>
     <use xlink:href="#DejaVuSans-Bold-16" transform="translate(1414.328125 0)"/>
     <use xlink:href="#DejaVuSans-Bold-30" transform="translate(1483.90625 0)"/>
     <use xlink:href="#DejaVuSans-Bold-33" transform="translate(1583.421875 0)"/>
     <use xlink:href="#DejaVuSans-Bold-16" transform="translate(1656.71875 0)"/>
     <use xlink:href="#DejaVuSans-Bold-36" transform="translate(1726.296875 0)"/>
     <use xlink:href="#DejaVuSans-Bold-37" transform="translate(1798.3125 0)"/>
     <use xlink:href="#DejaVuSans-Bold-c" transform="translate(1866.53125 0)"/>
     <use xlink:href="#DejaVuSans-Bold-3" transform="translate(1912.234375 0)"/>
     <use xlink:href="#DejaVuSans-Bold-af6" transform="translate(1947.046875 0)"/>
     <use xlink:href="#DejaVuSans-Bold-3" transform="translate(2047.046875 0)"/>
     <use xlink:href="#DejaVuSans-Bold-7" transform="translate(2081.859375 0)"/>
     <use xlink:href="#DejaVuSans-Bold-14" transform="translate(2151.4375 0)"/>
     <use xlink:href="#DejaVuSans-Bold-1a" transform="translate(2221.015625 0)"/>
     <use xlink:href="#DejaVuSans-Bold-14" transform="translate(2290.59375 0)"/>
     <use xlink:href="#DejaVuSans-Bold-11" transform="translate(2360.171875 0)"/>
     <use xlink:href="#DejaVuSans-Bold-19" transform="translate(2398.15625 0)"/>
     <use xlink:href="#DejaVuSans-Bold-19" transform="translate(2467.734375 0)"/>
     <use xlink:href="#DejaVuSans-Bold-3" transform="translate(2537.3125 0)"/>
     <use xlink:href="#DejaVuSans-Bold-b" transform="translate(2572.125 0)"/>
     <use xlink:href="#DejaVuSans-Bold-e" transform="translate(2617.828125 0)"/>
     <use xlink:href="#DejaVuSans-Bold-17" transform="translate(2701.625 0)"/>
     <use xlink:href="#DejaVuSans-Bold-11" transform="translate(2771.203125 0)"/>
     <use xlink:href="#DejaVuSans-Bold-18" transform="translate(2809.1875 0)"/>
     <use xlink:href="#DejaVuSans-Bold-19" transform="translate(2878.765625 0)"/>
     <use xlink:href="#DejaVuSans-Bold-8" transform="translate(2948.34375 0)"/>
     <use xlink:href="#DejaVuSans-Bold-c" transform="translate(3048.546875 0)"/>
    </g>
   </g>
  </g>
 </g>
 <defs>
  <clipPath id="pa5c0669a79">
   <rect x="34.56" y="21.558281" width="383.24" height="128.76"/>
  </clipPath>
 </defs>
</svg>
