<?xml version="1.0" encoding="utf-8" standalone="no"?>
<!DOCTYPE svg PUBLIC "-//W3C//DTD SVG 1.1//EN"
  "http://www.w3.org/Graphics/SVG/1.1/DTD/svg11.dtd">
<svg xmlns:xlink="http://www.w3.org/1999/xlink" width="425pt" height="172.518281pt" viewBox="0 0 425 172.518281" xmlns="http://www.w3.org/2000/svg" version="1.1">
 <metadata>
  <rdf:RDF xmlns:dc="http://purl.org/dc/elements/1.1/" xmlns:cc="http://creativecommons.org/ns#" xmlns:rdf="http://www.w3.org/1999/02/22-rdf-syntax-ns#">
   <cc:Work>
    <dc:type rdf:resource="http://purl.org/dc/dcmitype/StillImage"/>
    <dc:date>2026-06-24T21:14:42.565839</dc:date>
    <dc:format>image/svg+xml</dc:format>
    <dc:creator>
     <cc:Agent>
      <dc:title>Matplotlib v3.11.0, https://matplotlib.org/</dc:title>
     </cc:Agent>
    </dc:creator>
   </cc:Work>
  </rdf:RDF>
 </metadata>
 <defs>
  <style type="text/css">*{stroke-linejoin: round; stroke-linecap: butt}</style>
 </defs>
 <g id="figure_1">
  <g id="patch_1">
   <path d="M 0 172.518281 
L 425 172.518281 
L 425 0 
L 0 0 
z
" style="fill: #0d1117"/>
  </g>
  <g id="axes_1">
   <g id="patch_2">
    <path d="M 34.56 150.318281 
L 417.8 150.318281 
L 417.8 21.558281 
L 34.56 21.558281 
z
" style="fill: #0d1117"/>
   </g>
   <g id="FillBetweenPolyCollection_1">
    <defs>
     <path id="mdc0c792092" d="M 51.98 -28.052727 
L 51.98 -136.758637 
L 53.456271 -137.265667 
L 54.932542 -140.016133 
L 56.408814 -136.925332 
L 57.885085 -142.488774 
L 59.361356 -139.078474 
L 60.837627 -139.279897 
L 62.313898 -141.314964 
L 63.790169 -138.272782 
L 65.266441 -139.918894 
L 66.742712 -135.598718 
L 68.218983 -141.947015 
L 69.695254 -140.224501 
L 71.171525 -137.057298 
L 72.647797 -139.161821 
L 74.124068 -137.717132 
L 75.600339 -141.655299 
L 77.07661 -140.946846 
L 78.552881 -139.870275 
L 80.029153 -135.313948 
L 81.505424 -140.65513 
L 82.981695 -138.08525 
L 84.457966 -143.22501 
L 85.934237 -136.133531 
L 87.410508 -144.308526 
L 88.88678 -138.70341 
L 90.363051 -140.82877 
L 91.839322 -140.398142 
L 93.315593 -136.466921 
L 94.791864 -143.738985 
L 96.268136 -139.918894 
L 97.744407 -141.245508 
L 99.220678 -137.223993 
L 100.696949 -138.946507 
L 102.17322 -141.995635 
L 103.649492 -136.098803 
L 105.125763 -141.988689 
L 106.602034 -138.335293 
L 108.078305 -138.550607 
L 109.554576 -139.613287 
L 111.030847 -142.231786 
L 112.507119 -140.807934 
L 113.98339 -142.120656 
L 115.459661 -142.884674 
L 116.935932 -138.821486 
L 118.412203 -143.808442 
L 119.888475 -138.043576 
L 121.364746 -139.599396 
L 122.841017 -138.689519 
L 124.317288 -138.481151 
L 125.793559 -143.030532 
L 127.269831 -138.613117 
L 128.746102 -139.648015 
L 130.222373 -141.439985 
L 131.698644 -140.370359 
L 133.174915 -137.397634 
L 134.651186 -138.606172 
L 136.127458 -142.155384 
L 137.603729 -141.981743 
L 139.08 -136.578051 
L 140.556271 -140.106426 
L 142.032542 -139.189604 
L 143.508814 -138.272782 
L 144.985085 -142.95413 
L 146.461356 -138.328347 
L 147.937627 -139.960568 
L 149.413898 -143.252792 
L 150.890169 -140.745423 
L 152.366441 -141.474713 
L 153.842712 -136.612779 
L 155.318983 -140.21061 
L 156.795254 -138.522824 
L 158.271525 -143.488943 
L 159.747797 -141.16216 
L 161.224068 -136.18215 
L 162.700339 -144.759992 
L 164.17661 -139.911948 
L 165.652881 -141.821994 
L 167.129153 -135.716794 
L 168.605424 -143.989028 
L 170.081695 -134.94583 
L 171.557966 -145.107273 
L 173.034237 -138.175543 
L 174.510508 -139.773036 
L 175.98678 -140.516217 
L 177.463051 -136.62667 
L 178.939322 -139.314625 
L 180.415593 -139.286843 
L 181.891864 -142.933293 
L 183.368136 -139.418809 
L 184.844407 -139.015963 
L 186.320678 -141.27329 
L 187.796949 -138.349184 
L 189.27322 -141.238562 
L 190.749492 -139.606341 
L 192.225763 -142.023417 
L 193.702034 -139.939731 
L 195.178305 -141.280236 
L 196.654576 -136.835038 
L 198.130847 -143.9543 
L 199.607119 -139.689689 
L 201.08339 -141.523332 
L 202.559661 -137.161483 
L 204.035932 -138.071359 
L 205.512203 -143.169445 
L 206.988475 -141.460822 
L 208.464746 -139.377136 
L 209.941017 -141.398311 
L 211.417288 -141.995635 
L 212.893559 -137.119809 
L 214.369831 -143.322248 
L 215.846102 -141.808103 
L 217.322373 -138.168598 
L 218.798644 -140.439816 
L 220.274915 -141.995635 
L 221.751186 -136.126585 
L 223.227458 -141.370529 
L 224.703729 -136.855875 
L 226.18 -140.703749 
L 227.656271 -137.737969 
L 229.132542 -140.65513 
L 230.608814 -136.209933 
L 232.085085 -139.585504 
L 233.561356 -138.015794 
L 235.037627 -143.391704 
L 236.513898 -138.175543 
L 237.990169 -143.530617 
L 239.466441 -137.647676 
L 240.942712 -139.266006 
L 242.418983 -140.078643 
L 243.895254 -137.967175 
L 245.371525 -137.981066 
L 246.847797 -137.876882 
L 248.324068 -141.926178 
L 249.800339 -141.037139 
L 251.27661 -141.169106 
L 252.752881 -137.612948 
L 254.229153 -138.161652 
L 255.705424 -140.731532 
L 257.181695 -137.536546 
L 258.657966 -141.66919 
L 260.134237 -135.459806 
L 261.610508 -139.793873 
L 263.08678 -139.099311 
L 264.563051 -140.342577 
L 266.039322 -138.224163 
L 267.515593 -139.641069 
L 268.991864 -136.710017 
L 270.468136 -142.349861 
L 271.944407 -136.390519 
L 273.420678 -139.779982 
L 274.896949 -140.391196 
L 276.37322 -140.849607 
L 277.849492 -137.223993 
L 279.325763 -140.620402 
L 280.802034 -140.995465 
L 282.278305 -139.59245 
L 283.754576 -140.71764 
L 285.230847 -136.612779 
L 286.707119 -143.815387 
L 288.18339 -136.751691 
L 289.659661 -139.342408 
L 291.135932 -136.473866 
L 292.612203 -139.821655 
L 294.088475 -136.925332 
L 295.564746 -139.884166 
L 297.041017 -141.467767 
L 298.517288 -140.65513 
L 299.993559 -138.251945 
L 301.469831 -137.189265 
L 302.946102 -141.09965 
L 304.422373 -138.078305 
L 305.898644 -139.752199 
L 307.374915 -137.835208 
L 308.851186 -139.25906 
L 310.327458 -139.842492 
L 311.803729 -138.877051 
L 313.28 -141.342746 
L 314.756271 -136.779474 
L 316.232542 -139.509102 
L 317.708814 -141.127432 
L 319.185085 -139.140985 
L 320.661356 -136.855875 
L 322.137627 -141.009357 
L 323.613898 -141.196888 
L 325.090169 -136.140476 
L 326.566441 -138.300564 
L 328.042712 -142.384589 
L 329.518983 -138.342238 
L 330.995254 -141.724755 
L 332.471525 -139.092365 
L 333.947797 -139.98835 
L 335.424068 -137.272613 
L 336.900339 -141.960907 
L 338.37661 -136.001564 
L 339.852881 -141.821994 
L 341.329153 -141.460822 
L 342.805424 -139.995296 
L 344.281695 -139.946677 
L 345.757966 -140.328686 
L 347.234237 -138.932616 
L 348.710508 -136.612779 
L 350.18678 -143.197227 
L 351.663051 -136.084911 
L 353.139322 -138.432531 
L 354.615593 -138.904833 
L 356.091864 -137.64073 
L 357.568136 -139.675797 
L 359.044407 -140.412033 
L 360.520678 -137.731024 
L 361.996949 -141.953961 
L 363.47322 -140.280066 
L 364.949492 -138.592281 
L 366.425763 -142.099819 
L 367.902034 -141.294127 
L 369.378305 -135.654283 
L 370.854576 -139.391027 
L 372.330847 -140.273121 
L 373.807119 -141.558061 
L 375.28339 -141.030193 
L 376.759661 -140.870444 
L 378.235932 -136.168259 
L 379.712203 -141.016302 
L 381.188475 -140.995465 
L 382.664746 -140.821825 
L 384.141017 -139.134039 
L 385.617288 -142.204003 
L 387.093559 -136.710017 
L 388.569831 -143.141662 
L 390.046102 -138.036631 
L 391.522373 -137.265667 
L 392.998644 -138.147761 
L 394.474915 -141.738647 
L 395.951186 -136.362736 
L 397.427458 -138.335293 
L 398.903729 -138.029685 
L 400.38 -141.037139 
L 400.38 -28.052727 
L 400.38 -28.052727 
L 398.903729 -28.052727 
L 397.427458 -28.052727 
L 395.951186 -28.052727 
L 394.474915 -28.052727 
L 392.998644 -28.052727 
L 391.522373 -28.052727 
L 390.046102 -28.052727 
L 388.569831 -28.052727 
L 387.093559 -28.052727 
L 385.617288 -28.052727 
L 384.141017 -28.052727 
L 382.664746 -28.052727 
L 381.188475 -28.052727 
L 379.712203 -28.052727 
L 378.235932 -28.052727 
L 376.759661 -28.052727 
L 375.28339 -28.052727 
L 373.807119 -28.052727 
L 372.330847 -28.052727 
L 370.854576 -28.052727 
L 369.378305 -28.052727 
L 367.902034 -28.052727 
L 366.425763 -28.052727 
L 364.949492 -28.052727 
L 363.47322 -28.052727 
L 361.996949 -28.052727 
L 360.520678 -28.052727 
L 359.044407 -28.052727 
L 357.568136 -28.052727 
L 356.091864 -28.052727 
L 354.615593 -28.052727 
L 353.139322 -28.052727 
L 351.663051 -28.052727 
L 350.18678 -28.052727 
L 348.710508 -28.052727 
L 347.234237 -28.052727 
L 345.757966 -28.052727 
L 344.281695 -28.052727 
L 342.805424 -28.052727 
L 341.329153 -28.052727 
L 339.852881 -28.052727 
L 338.37661 -28.052727 
L 336.900339 -28.052727 
L 335.424068 -28.052727 
L 333.947797 -28.052727 
L 332.471525 -28.052727 
L 330.995254 -28.052727 
L 329.518983 -28.052727 
L 328.042712 -28.052727 
L 326.566441 -28.052727 
L 325.090169 -28.052727 
L 323.613898 -28.052727 
L 322.137627 -28.052727 
L 320.661356 -28.052727 
L 319.185085 -28.052727 
L 317.708814 -28.052727 
L 316.232542 -28.052727 
L 314.756271 -28.052727 
L 313.28 -28.052727 
L 311.803729 -28.052727 
L 310.327458 -28.052727 
L 308.851186 -28.052727 
L 307.374915 -28.052727 
L 305.898644 -28.052727 
L 304.422373 -28.052727 
L 302.946102 -28.052727 
L 301.469831 -28.052727 
L 299.993559 -28.052727 
L 298.517288 -28.052727 
L 297.041017 -28.052727 
L 295.564746 -28.052727 
L 294.088475 -28.052727 
L 292.612203 -28.052727 
L 291.135932 -28.052727 
L 289.659661 -28.052727 
L 288.18339 -28.052727 
L 286.707119 -28.052727 
L 285.230847 -28.052727 
L 283.754576 -28.052727 
L 282.278305 -28.052727 
L 280.802034 -28.052727 
L 279.325763 -28.052727 
L 277.849492 -28.052727 
L 276.37322 -28.052727 
L 274.896949 -28.052727 
L 273.420678 -28.052727 
L 271.944407 -28.052727 
L 270.468136 -28.052727 
L 268.991864 -28.052727 
L 267.515593 -28.052727 
L 266.039322 -28.052727 
L 264.563051 -28.052727 
L 263.08678 -28.052727 
L 261.610508 -28.052727 
L 260.134237 -28.052727 
L 258.657966 -28.052727 
L 257.181695 -28.052727 
L 255.705424 -28.052727 
L 254.229153 -28.052727 
L 252.752881 -28.052727 
L 251.27661 -28.052727 
L 249.800339 -28.052727 
L 248.324068 -28.052727 
L 246.847797 -28.052727 
L 245.371525 -28.052727 
L 243.895254 -28.052727 
L 242.418983 -28.052727 
L 240.942712 -28.052727 
L 239.466441 -28.052727 
L 237.990169 -28.052727 
L 236.513898 -28.052727 
L 235.037627 -28.052727 
L 233.561356 -28.052727 
L 232.085085 -28.052727 
L 230.608814 -28.052727 
L 229.132542 -28.052727 
L 227.656271 -28.052727 
L 226.18 -28.052727 
L 224.703729 -28.052727 
L 223.227458 -28.052727 
L 221.751186 -28.052727 
L 220.274915 -28.052727 
L 218.798644 -28.052727 
L 217.322373 -28.052727 
L 215.846102 -28.052727 
L 214.369831 -28.052727 
L 212.893559 -28.052727 
L 211.417288 -28.052727 
L 209.941017 -28.052727 
L 208.464746 -28.052727 
L 206.988475 -28.052727 
L 205.512203 -28.052727 
L 204.035932 -28.052727 
L 202.559661 -28.052727 
L 201.08339 -28.052727 
L 199.607119 -28.052727 
L 198.130847 -28.052727 
L 196.654576 -28.052727 
L 195.178305 -28.052727 
L 193.702034 -28.052727 
L 192.225763 -28.052727 
L 190.749492 -28.052727 
L 189.27322 -28.052727 
L 187.796949 -28.052727 
L 186.320678 -28.052727 
L 184.844407 -28.052727 
L 183.368136 -28.052727 
L 181.891864 -28.052727 
L 180.415593 -28.052727 
L 178.939322 -28.052727 
L 177.463051 -28.052727 
L 175.98678 -28.052727 
L 174.510508 -28.052727 
L 173.034237 -28.052727 
L 171.557966 -28.052727 
L 170.081695 -28.052727 
L 168.605424 -28.052727 
L 167.129153 -28.052727 
L 165.652881 -28.052727 
L 164.17661 -28.052727 
L 162.700339 -28.052727 
L 161.224068 -28.052727 
L 159.747797 -28.052727 
L 158.271525 -28.052727 
L 156.795254 -28.052727 
L 155.318983 -28.052727 
L 153.842712 -28.052727 
L 152.366441 -28.052727 
L 150.890169 -28.052727 
L 149.413898 -28.052727 
L 147.937627 -28.052727 
L 146.461356 -28.052727 
L 144.985085 -28.052727 
L 143.508814 -28.052727 
L 142.032542 -28.052727 
L 140.556271 -28.052727 
L 139.08 -28.052727 
L 137.603729 -28.052727 
L 136.127458 -28.052727 
L 134.651186 -28.052727 
L 133.174915 -28.052727 
L 131.698644 -28.052727 
L 130.222373 -28.052727 
L 128.746102 -28.052727 
L 127.269831 -28.052727 
L 125.793559 -28.052727 
L 124.317288 -28.052727 
L 122.841017 -28.052727 
L 121.364746 -28.052727 
L 119.888475 -28.052727 
L 118.412203 -28.052727 
L 116.935932 -28.052727 
L 115.459661 -28.052727 
L 113.98339 -28.052727 
L 112.507119 -28.052727 
L 111.030847 -28.052727 
L 109.554576 -28.052727 
L 108.078305 -28.052727 
L 106.602034 -28.052727 
L 105.125763 -28.052727 
L 103.649492 -28.052727 
L 102.17322 -28.052727 
L 100.696949 -28.052727 
L 99.220678 -28.052727 
L 97.744407 -28.052727 
L 96.268136 -28.052727 
L 94.791864 -28.052727 
L 93.315593 -28.052727 
L 91.839322 -28.052727 
L 90.363051 -28.052727 
L 88.88678 -28.052727 
L 87.410508 -28.052727 
L 85.934237 -28.052727 
L 84.457966 -28.052727 
L 82.981695 -28.052727 
L 81.505424 -28.052727 
L 80.029153 -28.052727 
L 78.552881 -28.052727 
L 77.07661 -28.052727 
L 75.600339 -28.052727 
L 74.124068 -28.052727 
L 72.647797 -28.052727 
L 71.171525 -28.052727 
L 69.695254 -28.052727 
L 68.218983 -28.052727 
L 66.742712 -28.052727 
L 65.266441 -28.052727 
L 63.790169 -28.052727 
L 62.313898 -28.052727 
L 60.837627 -28.052727 
L 59.361356 -28.052727 
L 57.885085 -28.052727 
L 56.408814 -28.052727 
L 54.932542 -28.052727 
L 53.456271 -28.052727 
L 51.98 -28.052727 
z
" style="stroke: #3fb950; stroke-opacity: 0.15"/>
    </defs>
    <g clip-path="url(#p534777df5f)">
     <use xlink:href="#mdc0c792092" x="0" y="172.518281" style="fill: #3fb950; fill-opacity: 0.15; stroke: #3fb950; stroke-opacity: 0.15"/>
    </g>
   </g>
   <g id="matplotlib.axis_1">
    <g id="xtick_1">
     <g id="line2d_1">
      <path d="M 51.98 150.318281 
L 51.98 21.558281 
" clip-path="url(#p534777df5f)" style="fill: none; stroke: #21262d; stroke-opacity: 0.5; stroke-width: 0.5; stroke-linecap: square"/>
     </g>
     <g id="line2d_2">
      <defs>
       <path id="m4ac1711db0" d="M 0 0 
L 0 3.5 
" style="stroke: #c9d1d9; stroke-width: 0.8"/>
      </defs>
      <g>
       <use xlink:href="#m4ac1711db0" x="51.98" y="150.318281" style="fill: #c9d1d9; stroke: #c9d1d9; stroke-width: 0.8"/>
      </g>
     </g>
     <g id="text_1">
      <!-- 0 -->
      <g style="fill: #c9d1d9" transform="translate(49.435 163.396406) scale(0.08 -0.08)">
       <defs>
        <path id="DejaVuSans-13" d="M 2034 4250 
Q 1547 4250 1301 3770 
Q 1056 3291 1056 2328 
Q 1056 1369 1301 889 
Q 1547 409 2034 409 
Q 2525 409 2770 889 
Q 3016 1369 3016 2328 
Q 3016 3291 2770 3770 
Q 2525 4250 2034 4250 
z
M 2034 4750 
Q 2819 4750 3233 4129 
Q 3647 3509 3647 2328 
Q 3647 1150 3233 529 
Q 2819 -91 2034 -91 
Q 1250 -91 836 529 
Q 422 1150 422 2328 
Q 422 3509 836 4129 
Q 1250 4750 2034 4750 
z
" transform="scale(0.015625)"/>
       </defs>
       <use xlink:href="#DejaVuSans-13"/>
      </g>
     </g>
    </g>
    <g id="xtick_2">
     <g id="line2d_3">
      <path d="M 125.793559 150.318281 
L 125.793559 21.558281 
" clip-path="url(#p534777df5f)" style="fill: none; stroke: #21262d; stroke-opacity: 0.5; stroke-width: 0.5; stroke-linecap: square"/>
     </g>
     <g id="line2d_4">
      <g>
       <use xlink:href="#m4ac1711db0" x="125.793559" y="150.318281" style="fill: #c9d1d9; stroke: #c9d1d9; stroke-width: 0.8"/>
      </g>
     </g>
     <g id="text_2">
      <!-- 50 -->
      <g style="fill: #c9d1d9" transform="translate(120.703559 163.396406) scale(0.08 -0.08)">
       <defs>
        <path id="DejaVuSans-18" d="M 691 4666 
L 3169 4666 
L 3169 4134 
L 1269 4134 
L 1269 2991 
Q 1406 3038 1543 3061 
Q 1681 3084 1819 3084 
Q 2600 3084 3056 2656 
Q 3513 2228 3513 1497 
Q 3513 744 3044 326 
Q 2575 -91 1722 -91 
Q 1428 -91 1123 -41 
Q 819 9 494 109 
L 494 744 
Q 775 591 1075 516 
Q 1375 441 1709 441 
Q 2250 441 2565 725 
Q 2881 1009 2881 1497 
Q 2881 1984 2565 2268 
Q 2250 2553 1709 2553 
Q 1456 2553 1204 2497 
Q 953 2441 691 2322 
L 691 4666 
z
" transform="scale(0.015625)"/>
       </defs>
       <use xlink:href="#DejaVuSans-18"/>
       <use xlink:href="#DejaVuSans-13" transform="translate(63.625 0)"/>
      </g>
     </g>
    </g>
    <g id="xtick_3">
     <g id="line2d_5">
      <path d="M 199.607119 150.318281 
L 199.607119 21.558281 
" clip-path="url(#p534777df5f)" style="fill: none; stroke: #21262d; stroke-opacity: 0.5; stroke-width: 0.5; stroke-linecap: square"/>
     </g>
     <g id="line2d_6">
      <g>
       <use xlink:href="#m4ac1711db0" x="199.607119" y="150.318281" style="fill: #c9d1d9; stroke: #c9d1d9; stroke-width: 0.8"/>
      </g>
     </g>
     <g id="text_3">
      <!-- 100 -->
      <g style="fill: #c9d1d9" transform="translate(191.972119 163.396406) scale(0.08 -0.08)">
       <defs>
        <path id="DejaVuSans-14" d="M 794 531 
L 1825 531 
L 1825 4091 
L 703 3866 
L 703 4441 
L 1819 4666 
L 2450 4666 
L 2450 531 
L 3481 531 
L 3481 0 
L 794 0 
L 794 531 
z
" transform="scale(0.015625)"/>
       </defs>
       <use xlink:href="#DejaVuSans-14"/>
       <use xlink:href="#DejaVuSans-13" transform="translate(63.625 0)"/>
       <use xlink:href="#DejaVuSans-13" transform="translate(127.25 0)"/>
      </g>
     </g>
    </g>
    <g id="xtick_4">
     <g id="line2d_7">
      <path d="M 273.420678 150.318281 
L 273.420678 21.558281 
" clip-path="url(#p534777df5f)" style="fill: none; stroke: #21262d; stroke-opacity: 0.5; stroke-width: 0.5; stroke-linecap: square"/>
     </g>
     <g id="line2d_8">
      <g>
       <use xlink:href="#m4ac1711db0" x="273.420678" y="150.318281" style="fill: #c9d1d9; stroke: #c9d1d9; stroke-width: 0.8"/>
      </g>
     </g>
     <g id="text_4">
      <!-- 150 -->
      <g style="fill: #c9d1d9" transform="translate(265.785678 163.396406) scale(0.08 -0.08)">
       <use xlink:href="#DejaVuSans-14"/>
       <use xlink:href="#DejaVuSans-18" transform="translate(63.625 0)"/>
       <use xlink:href="#DejaVuSans-13" transform="translate(127.25 0)"/>
      </g>
     </g>
    </g>
    <g id="xtick_5">
     <g id="line2d_9">
      <path d="M 347.234237 150.318281 
L 347.234237 21.558281 
" clip-path="url(#p534777df5f)" style="fill: none; stroke: #21262d; stroke-opacity: 0.5; stroke-width: 0.5; stroke-linecap: square"/>
     </g>
     <g id="line2d_10">
      <g>
       <use xlink:href="#m4ac1711db0" x="347.234237" y="150.318281" style="fill: #c9d1d9; stroke: #c9d1d9; stroke-width: 0.8"/>
      </g>
     </g>
     <g id="text_5">
      <!-- 200 -->
      <g style="fill: #c9d1d9" transform="translate(339.599237 163.396406) scale(0.08 -0.08)">
       <defs>
        <path id="DejaVuSans-15" d="M 1228 531 
L 3431 531 
L 3431 0 
L 469 0 
L 469 531 
Q 828 903 1448 1529 
Q 2069 2156 2228 2338 
Q 2531 2678 2651 2914 
Q 2772 3150 2772 3378 
Q 2772 3750 2511 3984 
Q 2250 4219 1831 4219 
Q 1534 4219 1204 4116 
Q 875 4013 500 3803 
L 500 4441 
Q 881 4594 1212 4672 
Q 1544 4750 1819 4750 
Q 2544 4750 2975 4387 
Q 3406 4025 3406 3419 
Q 3406 3131 3298 2873 
Q 3191 2616 2906 2266 
Q 2828 2175 2409 1742 
Q 1991 1309 1228 531 
z
" transform="scale(0.015625)"/>
       </defs>
       <use xlink:href="#DejaVuSans-15"/>
       <use xlink:href="#DejaVuSans-13" transform="translate(63.625 0)"/>
       <use xlink:href="#DejaVuSans-13" transform="translate(127.25 0)"/>
      </g>
     </g>
    </g>
   </g>
   <g id="matplotlib.axis_2">
    <g id="ytick_1">
     <g id="line2d_11">
      <path d="M 34.56 144.465554 
L 417.8 144.465554 
" clip-path="url(#p534777df5f)" style="fill: none; stroke: #21262d; stroke-opacity: 0.5; stroke-width: 0.5; stroke-linecap: square"/>
     </g>
     <g id="line2d_12">
      <defs>
       <path id="m804bc61945" d="M 0 0 
L -3.5 0 
" style="stroke: #c9d1d9; stroke-width: 0.8"/>
      </defs>
      <g>
       <use xlink:href="#m804bc61945" x="34.56" y="144.465554" style="fill: #c9d1d9; stroke: #c9d1d9; stroke-width: 0.8"/>
      </g>
     </g>
     <g id="text_6">
      <!-- $0 -->
      <g style="fill: #c9d1d9" transform="translate(17.38 147.504929) scale(0.08 -0.08)">
       <defs>
        <path id="DejaVuSans-7" d="M 2163 -941 
L 1850 -941 
L 1847 0 
Q 1519 6 1191 76 
Q 863 147 531 288 
L 531 850 
Q 850 650 1176 548 
Q 1503 447 1850 444 
L 1850 1869 
Q 1159 1981 845 2250 
Q 531 2519 531 2988 
Q 531 3497 872 3790 
Q 1213 4084 1850 4128 
L 1850 4863 
L 2163 4863 
L 2163 4138 
Q 2453 4125 2725 4076 
Q 2997 4028 3256 3944 
L 3256 3397 
Q 2997 3528 2723 3600 
Q 2450 3672 2163 3684 
L 2163 2350 
Q 2872 2241 3206 1959 
Q 3541 1678 3541 1191 
Q 3541 663 3186 358 
Q 2831 53 2163 6 
L 2163 -941 
z
M 1850 2406 
L 1850 3688 
Q 1488 3647 1297 3481 
Q 1106 3316 1106 3041 
Q 1106 2772 1282 2622 
Q 1459 2472 1850 2406 
z
M 2163 1806 
L 2163 453 
Q 2559 506 2761 678 
Q 2963 850 2963 1131 
Q 2963 1406 2770 1568 
Q 2578 1731 2163 1806 
z
" transform="scale(0.015625)"/>
       </defs>
       <use xlink:href="#DejaVuSans-7"/>
       <use xlink:href="#DejaVuSans-13" transform="translate(63.625 0)"/>
      </g>
     </g>
    </g>
    <g id="ytick_2">
     <g id="line2d_13">
      <path d="M 34.56 127.101502 
L 417.8 127.101502 
" clip-path="url(#p534777df5f)" style="fill: none; stroke: #21262d; stroke-opacity: 0.5; stroke-width: 0.5; stroke-linecap: square"/>
     </g>
     <g id="line2d_14">
      <g>
       <use xlink:href="#m804bc61945" x="34.56" y="127.101502" style="fill: #c9d1d9; stroke: #c9d1d9; stroke-width: 0.8"/>
      </g>
     </g>
     <g id="text_7">
      <!-- $25 -->
      <g style="fill: #c9d1d9" transform="translate(12.29 130.140877) scale(0.08 -0.08)">
       <use xlink:href="#DejaVuSans-7"/>
       <use xlink:href="#DejaVuSans-15" transform="translate(63.625 0)"/>
       <use xlink:href="#DejaVuSans-18" transform="translate(127.25 0)"/>
      </g>
     </g>
    </g>
    <g id="ytick_3">
     <g id="line2d_15">
      <path d="M 34.56 109.737451 
L 417.8 109.737451 
" clip-path="url(#p534777df5f)" style="fill: none; stroke: #21262d; stroke-opacity: 0.5; stroke-width: 0.5; stroke-linecap: square"/>
     </g>
     <g id="line2d_16">
      <g>
       <use xlink:href="#m804bc61945" x="34.56" y="109.737451" style="fill: #c9d1d9; stroke: #c9d1d9; stroke-width: 0.8"/>
      </g>
     </g>
     <g id="text_8">
      <!-- $50 -->
      <g style="fill: #c9d1d9" transform="translate(12.29 112.776826) scale(0.08 -0.08)">
       <use xlink:href="#DejaVuSans-7"/>
       <use xlink:href="#DejaVuSans-18" transform="translate(63.625 0)"/>
       <use xlink:href="#DejaVuSans-13" transform="translate(127.25 0)"/>
      </g>
     </g>
    </g>
    <g id="ytick_4">
     <g id="line2d_17">
      <path d="M 34.56 92.373399 
L 417.8 92.373399 
" clip-path="url(#p534777df5f)" style="fill: none; stroke: #21262d; stroke-opacity: 0.5; stroke-width: 0.5; stroke-linecap: square"/>
     </g>
     <g id="line2d_18">
      <g>
       <use xlink:href="#m804bc61945" x="34.56" y="92.373399" style="fill: #c9d1d9; stroke: #c9d1d9; stroke-width: 0.8"/>
      </g>
     </g>
     <g id="text_9">
      <!-- $75 -->
      <g style="fill: #c9d1d9" transform="translate(12.29 95.412774) scale(0.08 -0.08)">
       <defs>
        <path id="DejaVuSans-1a" d="M 525 4666 
L 3525 4666 
L 3525 4397 
L 1831 0 
L 1172 0 
L 2766 4134 
L 525 4134 
L 525 4666 
z
" transform="scale(0.015625)"/>
       </defs>
       <use xlink:href="#DejaVuSans-7"/>
       <use xlink:href="#DejaVuSans-1a" transform="translate(63.625 0)"/>
       <use xlink:href="#DejaVuSans-18" transform="translate(127.25 0)"/>
      </g>
     </g>
    </g>
    <g id="ytick_5">
     <g id="line2d_19">
      <path d="M 34.56 75.009347 
L 417.8 75.009347 
" clip-path="url(#p534777df5f)" style="fill: none; stroke: #21262d; stroke-opacity: 0.5; stroke-width: 0.5; stroke-linecap: square"/>
     </g>
     <g id="line2d_20">
      <g>
       <use xlink:href="#m804bc61945" x="34.56" y="75.009347" style="fill: #c9d1d9; stroke: #c9d1d9; stroke-width: 0.8"/>
      </g>
     </g>
     <g id="text_10">
      <!-- $100 -->
      <g style="fill: #c9d1d9" transform="translate(7.2 78.048722) scale(0.08 -0.08)">
       <use xlink:href="#DejaVuSans-7"/>
       <use xlink:href="#DejaVuSans-14" transform="translate(63.625 0)"/>
       <use xlink:href="#DejaVuSans-13" transform="translate(127.25 0)"/>
       <use xlink:href="#DejaVuSans-13" transform="translate(190.875 0)"/>
      </g>
     </g>
    </g>
    <g id="ytick_6">
     <g id="line2d_21">
      <path d="M 34.56 57.645295 
L 417.8 57.645295 
" clip-path="url(#p534777df5f)" style="fill: none; stroke: #21262d; stroke-opacity: 0.5; stroke-width: 0.5; stroke-linecap: square"/>
     </g>
     <g id="line2d_22">
      <g>
       <use xlink:href="#m804bc61945" x="34.56" y="57.645295" style="fill: #c9d1d9; stroke: #c9d1d9; stroke-width: 0.8"/>
      </g>
     </g>
     <g id="text_11">
      <!-- $125 -->
      <g style="fill: #c9d1d9" transform="translate(7.2 60.68467) scale(0.08 -0.08)">
       <use xlink:href="#DejaVuSans-7"/>
       <use xlink:href="#DejaVuSans-14" transform="translate(63.625 0)"/>
       <use xlink:href="#DejaVuSans-15" transform="translate(127.25 0)"/>
       <use xlink:href="#DejaVuSans-18" transform="translate(190.875 0)"/>
      </g>
     </g>
    </g>
    <g id="ytick_7">
     <g id="line2d_23">
      <path d="M 34.56 40.281244 
L 417.8 40.281244 
" clip-path="url(#p534777df5f)" style="fill: none; stroke: #21262d; stroke-opacity: 0.5; stroke-width: 0.5; stroke-linecap: square"/>
     </g>
     <g id="line2d_24">
      <g>
       <use xlink:href="#m804bc61945" x="34.56" y="40.281244" style="fill: #c9d1d9; stroke: #c9d1d9; stroke-width: 0.8"/>
      </g>
     </g>
     <g id="text_12">
      <!-- $150 -->
      <g style="fill: #c9d1d9" transform="translate(7.2 43.320619) scale(0.08 -0.08)">
       <use xlink:href="#DejaVuSans-7"/>
       <use xlink:href="#DejaVuSans-14" transform="translate(63.625 0)"/>
       <use xlink:href="#DejaVuSans-18" transform="translate(127.25 0)"/>
       <use xlink:href="#DejaVuSans-13" transform="translate(190.875 0)"/>
      </g>
     </g>
    </g>
    <g id="ytick_8">
     <g id="line2d_25">
      <path d="M 34.56 22.917192 
L 417.8 22.917192 
" clip-path="url(#p534777df5f)" style="fill: none; stroke: #21262d; stroke-opacity: 0.5; stroke-width: 0.5; stroke-linecap: square"/>
     </g>
     <g id="line2d_26">
      <g>
       <use xlink:href="#m804bc61945" x="34.56" y="22.917192" style="fill: #c9d1d9; stroke: #c9d1d9; stroke-width: 0.8"/>
      </g>
     </g>
     <g id="text_13">
      <!-- $175 -->
      <g style="fill: #c9d1d9" transform="translate(7.2 25.956567) scale(0.08 -0.08)">
       <use xlink:href="#DejaVuSans-7"/>
       <use xlink:href="#DejaVuSans-14" transform="translate(63.625 0)"/>
       <use xlink:href="#DejaVuSans-1a" transform="translate(127.25 0)"/>
       <use xlink:href="#DejaVuSans-18" transform="translate(190.875 0)"/>
      </g>
     </g>
    </g>
   </g>
   <g id="line2d_27">
    <path d="M 51.98 35.759645 
L 53.456271 35.252614 
L 54.932542 32.502148 
L 56.408814 35.59295 
L 57.885085 30.029508 
L 59.361356 33.439807 
L 60.837627 33.238384 
L 62.313898 31.203317 
L 63.790169 34.245499 
L 65.266441 32.599387 
L 66.742712 36.919563 
L 68.218983 30.571266 
L 69.695254 32.29378 
L 71.171525 35.460983 
L 72.647797 33.35646 
L 74.124068 34.801149 
L 75.600339 30.862982 
L 77.07661 31.571435 
L 78.552881 32.648007 
L 80.029153 37.204334 
L 81.505424 31.863151 
L 82.981695 34.433031 
L 84.457966 29.293272 
L 85.934237 36.38475 
L 87.410508 28.209755 
L 88.88678 33.814871 
L 90.363051 31.689511 
L 91.839322 32.120139 
L 93.315593 36.051361 
L 94.791864 28.779296 
L 96.268136 32.599387 
L 97.744407 31.272774 
L 99.220678 35.294288 
L 100.696949 33.571774 
L 102.17322 30.522647 
L 103.649492 36.419479 
L 105.125763 30.529592 
L 106.602034 34.182989 
L 108.078305 33.967674 
L 109.554576 32.904994 
L 111.030847 30.286495 
L 112.507119 31.710348 
L 113.98339 30.397625 
L 115.459661 29.633607 
L 116.935932 33.696795 
L 118.412203 28.70984 
L 119.888475 34.474705 
L 121.364746 32.918886 
L 122.841017 33.828762 
L 124.317288 34.037131 
L 125.793559 29.487749 
L 127.269831 33.905164 
L 128.746102 32.870266 
L 130.222373 31.078296 
L 131.698644 32.147922 
L 133.174915 35.120647 
L 134.651186 33.912109 
L 136.127458 30.362897 
L 137.603729 30.536538 
L 139.08 35.940231 
L 140.556271 32.411855 
L 143.508814 34.245499 
L 144.985085 29.564151 
L 146.461356 34.189934 
L 147.937627 32.557713 
L 149.413898 29.265489 
L 150.890169 31.772858 
L 152.366441 31.043568 
L 153.842712 35.905503 
L 155.318983 32.307671 
L 156.795254 33.995457 
L 158.271525 29.029338 
L 159.747797 31.356121 
L 161.224068 36.336131 
L 162.700339 27.75829 
L 164.17661 32.606333 
L 165.652881 30.696287 
L 167.129153 36.801488 
L 168.605424 28.529253 
L 170.081695 37.572452 
L 171.557966 27.411009 
L 173.034237 34.342738 
L 174.510508 32.745245 
L 175.98678 32.002064 
L 177.463051 35.891611 
L 178.939322 33.203656 
L 180.415593 33.231439 
L 181.891864 29.584988 
L 183.368136 33.099472 
L 184.844407 33.502318 
L 186.320678 31.244991 
L 187.796949 34.169097 
L 189.27322 31.279719 
L 190.749492 32.91194 
L 192.225763 30.494864 
L 193.702034 32.57855 
L 195.178305 31.238046 
L 196.654576 35.683243 
L 198.130847 28.563982 
L 199.607119 32.828593 
L 201.08339 30.994949 
L 202.559661 35.356799 
L 204.035932 34.446922 
L 205.512203 29.348837 
L 206.988475 31.057459 
L 208.464746 33.141146 
L 209.941017 31.11997 
L 211.417288 30.522647 
L 212.893559 35.398472 
L 214.369831 29.196033 
L 215.846102 30.710178 
L 217.322373 34.349684 
L 218.798644 32.078466 
L 220.274915 30.522647 
L 221.751186 36.391696 
L 223.227458 31.147752 
L 224.703729 35.662406 
L 226.18 31.814532 
L 227.656271 34.780312 
L 229.132542 31.863151 
L 230.608814 36.308349 
L 232.085085 32.932777 
L 233.561356 34.502487 
L 235.037627 29.126577 
L 236.513898 34.342738 
L 237.990169 28.987664 
L 239.466441 34.870605 
L 240.942712 33.252276 
L 242.418983 32.439638 
L 243.895254 34.551107 
L 245.371525 34.537215 
L 246.847797 34.6414 
L 248.324068 30.592103 
L 249.800339 31.481142 
L 251.27661 31.349175 
L 252.752881 34.905333 
L 254.229153 34.356629 
L 255.705424 31.78675 
L 257.181695 34.981735 
L 258.657966 30.849091 
L 260.134237 37.058476 
L 261.610508 32.724408 
L 263.08678 33.41897 
L 264.563051 32.175704 
L 266.039322 34.294119 
L 267.515593 32.877212 
L 268.991864 35.808264 
L 270.468136 30.16842 
L 271.944407 36.127762 
L 273.420678 32.7383 
L 274.896949 32.127085 
L 276.37322 31.668674 
L 277.849492 35.294288 
L 279.325763 31.897879 
L 280.802034 31.522816 
L 282.278305 32.925831 
L 283.754576 31.800641 
L 285.230847 35.905503 
L 286.707119 28.702894 
L 288.18339 35.76659 
L 289.659661 33.175874 
L 291.135932 36.044415 
L 292.612203 32.696626 
L 294.088475 35.59295 
L 295.564746 32.634115 
L 297.041017 31.050514 
L 298.517288 31.863151 
L 299.993559 34.266336 
L 301.469831 35.329016 
L 302.946102 31.418632 
L 304.422373 34.439977 
L 305.898644 32.766082 
L 307.374915 34.683073 
L 308.851186 33.259221 
L 310.327458 32.675789 
L 311.803729 33.64123 
L 313.28 31.175535 
L 314.756271 35.738808 
L 316.232542 33.009179 
L 317.708814 31.390849 
L 319.185085 33.377297 
L 320.661356 35.662406 
L 322.137627 31.508925 
L 323.613898 31.321393 
L 325.090169 36.377805 
L 326.566441 34.217717 
L 328.042712 30.133692 
L 329.518983 34.176043 
L 330.995254 30.793526 
L 332.471525 33.425916 
L 333.947797 32.529931 
L 335.424068 35.245669 
L 336.900339 30.557375 
L 338.37661 36.516717 
L 339.852881 30.696287 
L 341.329153 31.057459 
L 342.805424 32.522985 
L 344.281695 32.571605 
L 345.757966 32.189596 
L 347.234237 33.585665 
L 348.710508 35.905503 
L 350.18678 29.321054 
L 351.663051 36.43337 
L 353.139322 34.08575 
L 354.615593 33.613448 
L 356.091864 34.877551 
L 357.568136 32.842484 
L 359.044407 32.106248 
L 360.520678 34.787258 
L 361.996949 30.56432 
L 364.949492 33.926001 
L 366.425763 30.418462 
L 367.902034 31.224154 
L 369.378305 36.863998 
L 370.854576 33.127254 
L 372.330847 32.245161 
L 373.807119 30.960221 
L 375.28339 31.488088 
L 376.759661 31.647837 
L 378.235932 36.350022 
L 379.712203 31.501979 
L 381.188475 31.522816 
L 382.664746 31.696456 
L 384.141017 33.384242 
L 385.617288 30.314278 
L 387.093559 35.808264 
L 388.569831 29.376619 
L 390.046102 34.48165 
L 391.522373 35.252614 
L 392.998644 34.37052 
L 394.474915 30.779635 
L 395.951186 36.155545 
L 397.427458 34.182989 
L 398.903729 34.488596 
L 400.38 31.481142 
L 400.38 31.481142 
" clip-path="url(#p534777df5f)" style="fill: none; stroke: #3fb950; stroke-width: 2; stroke-linecap: square"/>
   </g>
   <g id="patch_3">
    <path d="M 34.56 150.318281 
L 34.56 21.558281 
" style="fill: none; stroke: #21262d; stroke-width: 0.8; stroke-linejoin: miter; stroke-linecap: square"/>
   </g>
   <g id="patch_4">
    <path d="M 34.56 150.318281 
L 417.8 150.318281 
" style="fill: none; stroke: #21262d; stroke-width: 0.8; stroke-linejoin: miter; stroke-linecap: square"/>
   </g>
   <g id="text_14">
    <!-- SDKJS (unicity-astrid/sdk-js) — $162.67 (+2.73%) -->
    <g style="fill: #c9d1d9" transform="translate(73.606562 15.558281) scale(0.11 -0.11)">
     <defs>
      <path id="DejaVuSans-Bold-36" d="M 3834 4519 
L 3834 3531 
Q 3450 3703 3084 3790 
Q 2719 3878 2394 3878 
Q 1963 3878 1756 3759 
Q 1550 3641 1550 3391 
Q 1550 3203 1689 3098 
Q 1828 2994 2194 2919 
L 2706 2816 
Q 3484 2659 3812 2340 
Q 4141 2022 4141 1434 
Q 4141 663 3683 286 
Q 3225 -91 2284 -91 
Q 1841 -91 1394 -6 
Q 947 78 500 244 
L 500 1259 
Q 947 1022 1364 901 
Q 1781 781 2169 781 
Q 2563 781 2772 912 
Q 2981 1044 2981 1288 
Q 2981 1506 2839 1625 
Q 2697 1744 2272 1838 
L 1806 1941 
Q 1106 2091 782 2419 
Q 459 2747 459 3303 
Q 459 4000 909 4375 
Q 1359 4750 2203 4750 
Q 2588 4750 2994 4692 
Q 3400 4634 3834 4519 
z
" transform="scale(0.015625)"/>
      <path id="DejaVuSans-Bold-27" d="M 1791 3756 
L 1791 909 
L 2222 909 
Q 2959 909 3348 1275 
Q 3738 1641 3738 2338 
Q 3738 3031 3350 3393 
Q 2963 3756 2222 3756 
L 1791 3756 
z
M 588 4666 
L 1856 4666 
Q 2919 4666 3439 4514 
Q 3959 4363 4331 4000 
Q 4659 3684 4818 3271 
Q 4978 2859 4978 2338 
Q 4978 1809 4818 1395 
Q 4659 981 4331 666 
Q 3956 303 3431 151 
Q 2906 0 1856 0 
L 588 0 
L 588 4666 
z
" transform="scale(0.015625)"/>
      <path id="DejaVuSans-Bold-2e" d="M 588 4666 
L 1791 4666 
L 1791 2963 
L 3525 4666 
L 4922 4666 
L 2675 2456 
L 5153 0 
L 3647 0 
L 1791 1838 
L 1791 0 
L 588 0 
L 588 4666 
z
" transform="scale(0.015625)"/>
      <path id="DejaVuSans-Bold-2d" d="M 588 4666 
L 1791 4666 
L 1791 453 
Q 1791 -419 1317 -850 
Q 844 -1281 -116 -1281 
L -359 -1281 
L -359 -372 
L -172 -372 
Q 203 -372 395 -162 
Q 588 47 588 453 
L 588 4666 
z
" transform="scale(0.015625)"/>
      <path id="DejaVuSans-Bold-3" transform="scale(0.015625)"/>
      <path id="DejaVuSans-Bold-b" d="M 2413 -844 
L 1484 -844 
Q 1006 -72 778 623 
Q 550 1319 550 2003 
Q 550 2688 779 3389 
Q 1009 4091 1484 4856 
L 2413 4856 
Q 2013 4116 1813 3408 
Q 1613 2700 1613 2009 
Q 1613 1319 1811 609 
Q 2009 -100 2413 -844 
z
" transform="scale(0.015625)"/>
      <path id="DejaVuSans-Bold-58" d="M 500 1363 
L 500 3500 
L 1625 3500 
L 1625 3150 
Q 1625 2866 1622 2436 
Q 1619 2006 1619 1863 
Q 1619 1441 1641 1255 
Q 1663 1069 1716 984 
Q 1784 875 1895 815 
Q 2006 756 2150 756 
Q 2500 756 2700 1025 
Q 2900 1294 2900 1772 
L 2900 3500 
L 4019 3500 
L 4019 0 
L 2900 0 
L 2900 506 
Q 2647 200 2364 54 
Q 2081 -91 1741 -91 
Q 1134 -91 817 281 
Q 500 653 500 1363 
z
" transform="scale(0.015625)"/>
      <path id="DejaVuSans-Bold-51" d="M 4056 2131 
L 4056 0 
L 2931 0 
L 2931 347 
L 2931 1631 
Q 2931 2084 2911 2256 
Q 2891 2428 2841 2509 
Q 2775 2619 2662 2680 
Q 2550 2741 2406 2741 
Q 2056 2741 1856 2470 
Q 1656 2200 1656 1722 
L 1656 0 
L 538 0 
L 538 3500 
L 1656 3500 
L 1656 2988 
Q 1909 3294 2193 3439 
Q 2478 3584 2822 3584 
Q 3428 3584 3742 3212 
Q 4056 2841 4056 2131 
z
" transform="scale(0.015625)"/>
      <path id="DejaVuSans-Bold-4c" d="M 538 3500 
L 1656 3500 
L 1656 0 
L 538 0 
L 538 3500 
z
M 538 4863 
L 1656 4863 
L 1656 3950 
L 538 3950 
L 538 4863 
z
" transform="scale(0.015625)"/>
      <path id="DejaVuSans-Bold-46" d="M 3366 3391 
L 3366 2478 
Q 3138 2634 2908 2709 
Q 2678 2784 2431 2784 
Q 1963 2784 1702 2511 
Q 1441 2238 1441 1747 
Q 1441 1256 1702 982 
Q 1963 709 2431 709 
Q 2694 709 2930 787 
Q 3166 866 3366 1019 
L 3366 103 
Q 3103 6 2833 -42 
Q 2563 -91 2291 -91 
Q 1344 -91 809 395 
Q 275 881 275 1747 
Q 275 2613 809 3098 
Q 1344 3584 2291 3584 
Q 2566 3584 2833 3536 
Q 3100 3488 3366 3391 
z
" transform="scale(0.015625)"/>
      <path id="DejaVuSans-Bold-57" d="M 1759 4494 
L 1759 3500 
L 2913 3500 
L 2913 2700 
L 1759 2700 
L 1759 1216 
Q 1759 972 1856 886 
Q 1953 800 2241 800 
L 2816 800 
L 2816 0 
L 1856 0 
Q 1194 0 917 276 
Q 641 553 641 1216 
L 641 2700 
L 84 2700 
L 84 3500 
L 641 3500 
L 641 4494 
L 1759 4494 
z
" transform="scale(0.015625)"/>
      <path id="DejaVuSans-Bold-5c" d="M 78 3500 
L 1197 3500 
L 2138 1125 
L 2938 3500 
L 4056 3500 
L 2584 -331 
Q 2363 -916 2067 -1148 
Q 1772 -1381 1288 -1381 
L 641 -1381 
L 641 -647 
L 991 -647 
Q 1275 -647 1404 -556 
Q 1534 -466 1606 -231 
L 1638 -134 
L 78 3500 
z
" transform="scale(0.015625)"/>
      <path id="DejaVuSans-Bold-10" d="M 347 2297 
L 2309 2297 
L 2309 1388 
L 347 1388 
L 347 2297 
z
" transform="scale(0.015625)"/>
      <path id="DejaVuSans-Bold-44" d="M 2106 1575 
Q 1756 1575 1579 1456 
Q 1403 1338 1403 1106 
Q 1403 894 1545 773 
Q 1688 653 1941 653 
Q 2256 653 2472 879 
Q 2688 1106 2688 1447 
L 2688 1575 
L 2106 1575 
z
M 3816 1997 
L 3816 0 
L 2688 0 
L 2688 519 
Q 2463 200 2181 54 
Q 1900 -91 1497 -91 
Q 953 -91 614 226 
Q 275 544 275 1050 
Q 275 1666 698 1953 
Q 1122 2241 2028 2241 
L 2688 2241 
L 2688 2328 
Q 2688 2594 2478 2717 
Q 2269 2841 1825 2841 
Q 1466 2841 1156 2769 
Q 847 2697 581 2553 
L 581 3406 
Q 941 3494 1303 3539 
Q 1666 3584 2028 3584 
Q 2975 3584 3395 3211 
Q 3816 2838 3816 1997 
z
" transform="scale(0.015625)"/>
      <path id="DejaVuSans-Bold-56" d="M 3272 3391 
L 3272 2541 
Q 2913 2691 2578 2766 
Q 2244 2841 1947 2841 
Q 1628 2841 1473 2761 
Q 1319 2681 1319 2516 
Q 1319 2381 1436 2309 
Q 1553 2238 1856 2203 
L 2053 2175 
Q 2913 2066 3209 1816 
Q 3506 1566 3506 1031 
Q 3506 472 3093 190 
Q 2681 -91 1863 -91 
Q 1516 -91 1145 -36 
Q 775 19 384 128 
L 384 978 
Q 719 816 1070 734 
Q 1422 653 1784 653 
Q 2113 653 2278 743 
Q 2444 834 2444 1013 
Q 2444 1163 2330 1236 
Q 2216 1309 1875 1350 
L 1678 1375 
Q 931 1469 631 1722 
Q 331 1975 331 2491 
Q 331 3047 712 3315 
Q 1094 3584 1881 3584 
Q 2191 3584 2531 3537 
Q 2872 3491 3272 3391 
z
" transform="scale(0.015625)"/>
      <path id="DejaVuSans-Bold-55" d="M 3138 2547 
Q 2991 2616 2845 2648 
Q 2700 2681 2553 2681 
Q 2122 2681 1889 2404 
Q 1656 2128 1656 1613 
L 1656 0 
L 538 0 
L 538 3500 
L 1656 3500 
L 1656 2925 
Q 1872 3269 2151 3426 
Q 2431 3584 2822 3584 
Q 2878 3584 2943 3579 
Q 3009 3575 3134 3559 
L 3138 2547 
z
" transform="scale(0.015625)"/>
      <path id="DejaVuSans-Bold-47" d="M 2919 2988 
L 2919 4863 
L 4044 4863 
L 4044 0 
L 2919 0 
L 2919 506 
Q 2688 197 2409 53 
Q 2131 -91 1766 -91 
Q 1119 -91 703 423 
Q 288 938 288 1747 
Q 288 2556 703 3070 
Q 1119 3584 1766 3584 
Q 2128 3584 2408 3439 
Q 2688 3294 2919 2988 
z
M 2181 722 
Q 2541 722 2730 984 
Q 2919 1247 2919 1747 
Q 2919 2247 2730 2509 
Q 2541 2772 2181 2772 
Q 1825 2772 1636 2509 
Q 1447 2247 1447 1747 
Q 1447 1247 1636 984 
Q 1825 722 2181 722 
z
" transform="scale(0.015625)"/>
      <path id="DejaVuSans-Bold-12" d="M 1644 4666 
L 2338 4666 
L 691 -594 
L 0 -594 
L 1644 4666 
z
" transform="scale(0.015625)"/>
      <path id="DejaVuSans-Bold-4e" d="M 538 4863 
L 1656 4863 
L 1656 2216 
L 2944 3500 
L 4244 3500 
L 2534 1894 
L 4378 0 
L 3022 0 
L 1656 1459 
L 1656 0 
L 538 0 
L 538 4863 
z
" transform="scale(0.015625)"/>
      <path id="DejaVuSans-Bold-4d" d="M 538 3500 
L 1656 3500 
L 1656 63 
Q 1656 -641 1318 -1011 
Q 981 -1381 341 -1381 
L -213 -1381 
L -213 -647 
L -19 -647 
Q 300 -647 419 -503 
Q 538 -359 538 63 
L 538 3500 
z
M 538 4863 
L 1656 4863 
L 1656 3950 
L 538 3950 
L 538 4863 
z
" transform="scale(0.015625)"/>
      <path id="DejaVuSans-Bold-c" d="M 513 -844 
Q 913 -100 1113 609 
Q 1313 1319 1313 2009 
Q 1313 2700 1113 3408 
Q 913 4116 513 4856 
L 1441 4856 
Q 1916 4091 2145 3389 
Q 2375 2688 2375 2003 
Q 2375 1319 2147 623 
Q 1919 -72 1441 -844 
L 513 -844 
z
" transform="scale(0.015625)"/>
      <path id="DejaVuSans-Bold-af6" d="M 344 2156 
L 6056 2156 
L 6056 1350 
L 344 1350 
L 344 2156 
z
" transform="scale(0.015625)"/>
      <path id="DejaVuSans-Bold-7" d="M 2484 -941 
L 1978 -941 
L 1975 0 
Q 1584 16 1218 87 
Q 853 159 506 288 
L 506 1106 
Q 866 922 1233 823 
Q 1600 725 1978 713 
L 1978 1684 
L 1875 1703 
Q 1128 1834 814 2115 
Q 500 2397 500 2925 
Q 500 3484 883 3798 
Q 1266 4113 1975 4141 
L 1978 4863 
L 2484 4863 
L 2484 4153 
Q 2797 4128 3109 4075 
Q 3422 4022 3738 3938 
L 3738 3144 
Q 3425 3275 3112 3348 
Q 2800 3422 2484 3438 
L 2484 2541 
L 2584 2522 
Q 3378 2397 3698 2105 
Q 4019 1813 4019 1241 
Q 4019 666 3637 358 
Q 3256 50 2484 6 
L 2484 -941 
z
M 1978 2613 
L 1978 3428 
Q 1756 3416 1623 3308 
Q 1491 3200 1491 3034 
Q 1491 2850 1612 2745 
Q 1734 2641 1978 2613 
z
M 2484 1594 
L 2484 725 
Q 2756 728 2892 831 
Q 3028 934 3028 1141 
Q 3028 1353 2903 1458 
Q 2778 1563 2484 1594 
z
" transform="scale(0.015625)"/>
      <path id="DejaVuSans-Bold-14" d="M 750 831 
L 1813 831 
L 1813 3847 
L 722 3622 
L 722 4441 
L 1806 4666 
L 2950 4666 
L 2950 831 
L 4013 831 
L 4013 0 
L 750 0 
L 750 831 
z
" transform="scale(0.015625)"/>
      <path id="DejaVuSans-Bold-19" d="M 2316 2303 
Q 2000 2303 1842 2098 
Q 1684 1894 1684 1484 
Q 1684 1075 1842 870 
Q 2000 666 2316 666 
Q 2634 666 2792 870 
Q 2950 1075 2950 1484 
Q 2950 1894 2792 2098 
Q 2634 2303 2316 2303 
z
M 3803 4544 
L 3803 3681 
Q 3506 3822 3243 3889 
Q 2981 3956 2731 3956 
Q 2194 3956 1894 3657 
Q 1594 3359 1544 2772 
Q 1750 2925 1990 3001 
Q 2231 3078 2516 3078 
Q 3231 3078 3670 2659 
Q 4109 2241 4109 1563 
Q 4109 813 3618 361 
Q 3128 -91 2303 -91 
Q 1394 -91 895 523 
Q 397 1138 397 2266 
Q 397 3422 980 4083 
Q 1563 4744 2578 4744 
Q 2900 4744 3203 4694 
Q 3506 4644 3803 4544 
z
" transform="scale(0.015625)"/>
      <path id="DejaVuSans-Bold-15" d="M 1844 884 
L 3897 884 
L 3897 0 
L 506 0 
L 506 884 
L 2209 2388 
Q 2438 2594 2547 2791 
Q 2656 2988 2656 3200 
Q 2656 3528 2436 3728 
Q 2216 3928 1850 3928 
Q 1569 3928 1234 3808 
Q 900 3688 519 3450 
L 519 4475 
Q 925 4609 1322 4679 
Q 1719 4750 2100 4750 
Q 2938 4750 3402 4381 
Q 3866 4013 3866 3353 
Q 3866 2972 3669 2642 
Q 3472 2313 2841 1759 
L 1844 884 
z
" transform="scale(0.015625)"/>
      <path id="DejaVuSans-Bold-11" d="M 653 1209 
L 1778 1209 
L 1778 0 
L 653 0 
L 653 1209 
z
" transform="scale(0.015625)"/>
      <path id="DejaVuSans-Bold-1a" d="M 428 4666 
L 3944 4666 
L 3944 3988 
L 2125 0 
L 953 0 
L 2675 3781 
L 428 3781 
L 428 4666 
z
" transform="scale(0.015625)"/>
      <path id="DejaVuSans-Bold-e" d="M 3053 4013 
L 3053 2375 
L 4684 2375 
L 4684 1638 
L 3053 1638 
L 3053 0 
L 2309 0 
L 2309 1638 
L 678 1638 
L 678 2375 
L 2309 2375 
L 2309 4013 
L 3053 4013 
z
" transform="scale(0.015625)"/>
      <path id="DejaVuSans-Bold-16" d="M 2981 2516 
Q 3453 2394 3698 2092 
Q 3944 1791 3944 1325 
Q 3944 631 3412 270 
Q 2881 -91 1863 -91 
Q 1503 -91 1142 -33 
Q 781 25 428 141 
L 428 1069 
Q 766 900 1098 814 
Q 1431 728 1753 728 
Q 2231 728 2486 893 
Q 2741 1059 2741 1369 
Q 2741 1688 2480 1852 
Q 2219 2016 1709 2016 
L 1228 2016 
L 1228 2791 
L 1734 2791 
Q 2188 2791 2409 2933 
Q 2631 3075 2631 3366 
Q 2631 3634 2415 3781 
Q 2200 3928 1806 3928 
Q 1516 3928 1219 3862 
Q 922 3797 628 3669 
L 628 4550 
Q 984 4650 1334 4700 
Q 1684 4750 2022 4750 
Q 2931 4750 3382 4451 
Q 3834 4153 3834 3553 
Q 3834 3144 3618 2883 
Q 3403 2622 2981 2516 
z
" transform="scale(0.015625)"/>
      <path id="DejaVuSans-Bold-8" d="M 4959 1925 
Q 4738 1925 4616 1733 
Q 4494 1541 4494 1184 
Q 4494 825 4614 633 
Q 4734 441 4959 441 
Q 5184 441 5303 633 
Q 5422 825 5422 1184 
Q 5422 1541 5301 1733 
Q 5181 1925 4959 1925 
z
M 4959 2450 
Q 5541 2450 5875 2112 
Q 6209 1775 6209 1184 
Q 6209 594 5875 251 
Q 5541 -91 4959 -91 
Q 4378 -91 4042 251 
Q 3706 594 3706 1184 
Q 3706 1772 4042 2111 
Q 4378 2450 4959 2450 
z
M 2094 -91 
L 1403 -91 
L 4319 4750 
L 5013 4750 
L 2094 -91 
z
M 1453 4750 
Q 2034 4750 2367 4411 
Q 2700 4072 2700 3481 
Q 2700 2891 2367 2550 
Q 2034 2209 1453 2209 
Q 872 2209 539 2550 
Q 206 2891 206 3481 
Q 206 4072 539 4411 
Q 872 4750 1453 4750 
z
M 1453 4225 
Q 1228 4225 1106 4031 
Q 984 3838 984 3481 
Q 984 3122 1106 2926 
Q 1228 2731 1453 2731 
Q 1678 2731 1798 2926 
Q 1919 3122 1919 3481 
Q 1919 3838 1797 4031 
Q 1675 4225 1453 4225 
z
" transform="scale(0.015625)"/>
     </defs>
     <use xlink:href="#DejaVuSans-Bold-36"/>
     <use xlink:href="#DejaVuSans-Bold-27" transform="translate(72.015625 0)"/>
     <use xlink:href="#DejaVuSans-Bold-2e" transform="translate(155.03125 0)"/>
     <use xlink:href="#DejaVuSans-Bold-2d" transform="translate(232.515625 0)"/>
     <use xlink:href="#DejaVuSans-Bold-36" transform="translate(269.71875 0)"/>
     <use xlink:href="#DejaVuSans-Bold-3" transform="translate(341.734375 0)"/>
     <use xlink:href="#DejaVuSans-Bold-b" transform="translate(376.546875 0)"/>
     <use xlink:href="#DejaVuSans-Bold-58" transform="translate(422.25 0)"/>
     <use xlink:href="#DejaVuSans-Bold-51" transform="translate(493.4375 0)"/>
     <use xlink:href="#DejaVuSans-Bold-4c" transform="translate(564.625 0)"/>
     <use xlink:href="#DejaVuSans-Bold-46" transform="translate(598.90625 0)"/>
     <use xlink:href="#DejaVuSans-Bold-4c" transform="translate(658.1875 0)"/>
     <use xlink:href="#DejaVuSans-Bold-57" transform="translate(692.46875 0)"/>
     <use xlink:href="#DejaVuSans-Bold-5c" transform="translate(740.265625 0)"/>
     <use xlink:href="#DejaVuSans-Bold-10" transform="translate(805.453125 0)"/>
     <use xlink:href="#DejaVuSans-Bold-44" transform="translate(846.953125 0)"/>
     <use xlink:href="#DejaVuSans-Bold-56" transform="translate(914.4375 0)"/>
     <use xlink:href="#DejaVuSans-Bold-57" transform="translate(973.953125 0)"/>
     <use xlink:href="#DejaVuSans-Bold-55" transform="translate(1021.75 0)"/>
     <use xlink:href="#DejaVuSans-Bold-4c" transform="translate(1071.0625 0)"/>
     <use xlink:href="#DejaVuSans-Bold-47" transform="translate(1105.34375 0)"/>
     <use xlink:href="#DejaVuSans-Bold-12" transform="translate(1176.921875 0)"/>
     <use xlink:href="#DejaVuSans-Bold-56" transform="translate(1213.453125 0)"/>
     <use xlink:href="#DejaVuSans-Bold-47" transform="translate(1272.96875 0)"/>
     <use xlink:href="#DejaVuSans-Bold-4e" transform="translate(1344.546875 0)"/>
     <use xlink:href="#DejaVuSans-Bold-10" transform="translate(1411.046875 0)"/>
     <use xlink:href="#DejaVuSans-Bold-4d" transform="translate(1452.546875 0)"/>
     <use xlink:href="#DejaVuSans-Bold-56" transform="translate(1486.828125 0)"/>
     <use xlink:href="#DejaVuSans-Bold-c" transform="translate(1546.34375 0)"/>
     <use xlink:href="#DejaVuSans-Bold-3" transform="translate(1592.046875 0)"/>
     <use xlink:href="#DejaVuSans-Bold-af6" transform="translate(1626.859375 0)"/>
     <use xlink:href="#DejaVuSans-Bold-3" transform="translate(1726.859375 0)"/>
     <use xlink:href="#DejaVuSans-Bold-7" transform="translate(1761.671875 0)"/>
     <use xlink:href="#DejaVuSans-Bold-14" transform="translate(1831.25 0)"/>
     <use xlink:href="#DejaVuSans-Bold-19" transform="translate(1900.828125 0)"/>
     <use xlink:href="#DejaVuSans-Bold-15" transform="translate(1970.40625 0)"/>
     <use xlink:href="#DejaVuSans-Bold-11" transform="translate(2039.984375 0)"/>
     <use xlink:href="#DejaVuSans-Bold-19" transform="translate(2077.96875 0)"/>
     <use xlink:href="#DejaVuSans-Bold-1a" transform="translate(2147.546875 0)"/>
     <use xlink:href="#DejaVuSans-Bold-3" transform="translate(2217.125 0)"/>
     <use xlink:href="#DejaVuSans-Bold-b" transform="translate(2251.9375 0)"/>
     <use xlink:href="#DejaVuSans-Bold-e" transform="translate(2297.640625 0)"/>
     <use xlink:href="#DejaVuSans-Bold-15" transform="translate(2381.4375 0)"/>
     <use xlink:href="#DejaVuSans-Bold-11" transform="translate(2451.015625 0)"/>
     <use xlink:href="#DejaVuSans-Bold-1a" transform="translate(2489 0)"/>
     <use xlink:href="#DejaVuSans-Bold-16" transform="translate(2558.578125 0)"/>
     <use xlink:href="#DejaVuSans-Bold-8" transform="translate(2628.15625 0)"/>
     <use xlink:href="#DejaVuSans-Bold-c" transform="translate(2728.359375 0)"/>
    </g>
   </g>
  </g>
 </g>
 <defs>
  <clipPath id="p534777df5f">
   <rect x="34.56" y="21.558281" width="383.24" height="128.76"/>
  </clipPath>
 </defs>
</svg>
