<?xml version="1.0" encoding="utf-8" standalone="no"?>
<!DOCTYPE svg PUBLIC "-//W3C//DTD SVG 1.1//EN"
  "http://www.w3.org/Graphics/SVG/1.1/DTD/svg11.dtd">
<svg xmlns:xlink="http://www.w3.org/1999/xlink" width="434.105937pt" height="172.518281pt" viewBox="0 0 434.105937 172.518281" xmlns="http://www.w3.org/2000/svg" version="1.1">
 <metadata>
  <rdf:RDF xmlns:dc="http://purl.org/dc/elements/1.1/" xmlns:cc="http://creativecommons.org/ns#" xmlns:rdf="http://www.w3.org/1999/02/22-rdf-syntax-ns#">
   <cc:Work>
    <dc:type rdf:resource="http://purl.org/dc/dcmitype/StillImage"/>
    <dc:date>2026-07-04T00:51:29.506189</dc:date>
    <dc:format>image/svg+xml</dc:format>
    <dc:creator>
     <cc:Agent>
      <dc:title>Matplotlib v3.11.0, https://matplotlib.org/</dc:title>
     </cc:Agent>
    </dc:creator>
   </cc:Work>
  </rdf:RDF>
 </metadata>
 <defs>
  <style type="text/css">*{stroke-linejoin: round; stroke-linecap: butt}</style>
 </defs>
 <g id="figure_1">
  <g id="patch_1">
   <path d="M 0 172.518281 
L 434.105937 172.518281 
L 434.105937 0 
L 0 0 
z
" style="fill: #0d1117"/>
  </g>
  <g id="axes_1">
   <g id="patch_2">
    <path d="M 34.56 150.318281 
L 417.8 150.318281 
L 417.8 21.558281 
L 34.56 21.558281 
z
" style="fill: #0d1117"/>
   </g>
   <g id="FillBetweenPolyCollection_1">
    <defs>
     <path id="mb74c4198fa" d="M 51.98 -28.052727 
L 51.98 -125.782993 
L 52.981149 -127.117096 
L 53.982299 -126.094861 
L 54.983448 -126.67817 
L 55.984598 -127.61955 
L 56.985747 -119.609157 
L 57.986897 -128.272163 
L 58.988046 -122.964628 
L 59.989195 -127.729281 
L 60.990345 -131.962604 
L 61.991494 -124.772309 
L 62.992644 -130.512994 
L 63.993793 -129.606266 
L 64.994943 -128.976754 
L 65.996092 -132.366878 
L 66.997241 -126.614641 
L 67.998391 -130.449466 
L 68.99954 -131.338868 
L 70.00069 -127.065118 
L 71.001839 -132.961737 
L 72.002989 -134.012849 
L 73.004138 -133.521945 
L 74.005287 -137.466501 
L 75.006437 -133.111896 
L 76.007586 -137.709065 
L 77.008736 -131.026999 
L 78.009885 -139.505195 
L 79.011034 -136.299883 
L 80.012184 -137.668638 
L 81.013333 -135.641494 
L 82.014483 -136.808112 
L 83.015632 -134.45755 
L 84.016782 -138.789053 
L 85.017931 -135.768552 
L 86.01908 -142.052119 
L 87.02023 -137.264364 
L 88.021379 -140.694915 
L 89.022529 -136.282557 
L 90.023678 -142.629653 
L 91.024828 -137.056452 
L 92.025977 -136.369187 
L 93.027126 -144.240972 
L 94.028276 -144.194769 
L 95.029425 -141.55544 
L 96.030575 -143.391997 
L 97.031724 -137.928528 
L 98.032874 -145.107273 
L 99.034023 -138.90456 
L 100.035172 -144.171668 
L 101.036322 -141.590092 
L 102.037471 -144.125465 
L 103.038621 -137.911202 
L 104.03977 -138.338577 
L 105.04092 -142.208053 
L 106.042069 -139.93257 
L 107.043218 -135.803204 
L 108.044368 -132.106987 
L 109.045517 -138.332802 
L 110.046667 -134.486427 
L 111.047816 -133.845364 
L 112.048966 -138.269273 
L 113.050115 -134.925352 
L 114.051264 -137.131531 
L 115.052414 -133.545047 
L 116.053563 -136.6002 
L 117.054713 -134.526854 
L 118.055862 -139.303058 
L 119.057011 -129.161565 
L 120.058161 -137.662862 
L 121.05931 -135.185242 
L 122.06046 -130.772884 
L 123.061609 -135.179467 
L 124.062759 -133.741408 
L 125.063908 -132.973288 
L 126.065057 -137.859224 
L 127.066207 -130.686254 
L 128.067356 -139.707332 
L 129.068506 -132.83468 
L 130.069655 -134.80407 
L 131.070805 -134.590383 
L 132.071954 -129.253971 
L 133.073103 -137.056452 
L 134.074253 -131.673837 
L 135.075402 -133.210077 
L 136.076552 -129.50231 
L 137.077701 -132.522812 
L 138.078851 -127.382761 
L 139.08 -129.565839 
L 140.081149 -132.465058 
L 141.082299 -134.832947 
L 142.083448 -125.65016 
L 143.084598 -132.130089 
L 144.085747 -128.763067 
L 145.086897 -130.61695 
L 146.088046 -126.025557 
L 147.089195 -135.676146 
L 148.090345 -122.618108 
L 149.091494 -132.280248 
L 150.092644 -131.8933 
L 151.093793 -129.288623 
L 152.094943 -128.347243 
L 153.096092 -131.500577 
L 154.097241 -128.641785 
L 155.098391 -126.279672 
L 156.09954 -132.372653 
L 157.10069 -127.475167 
L 158.101839 -130.206901 
L 159.102989 -129.126913 
L 160.104138 -127.671528 
L 161.105287 -130.230003 
L 162.106437 -130.755558 
L 163.107586 -126.961162 
L 164.108736 -129.022957 
L 165.109885 -128.277939 
L 166.111034 -130.374386 
L 167.112184 -131.639185 
L 168.113333 -128.122004 
L 169.114483 -132.753825 
L 170.115632 -131.055876 
L 171.116782 -129.479209 
L 172.117931 -133.908893 
L 173.11908 -132.060785 
L 174.12023 -131.246462 
L 175.121379 -132.3149 
L 176.122529 -132.072335 
L 177.123678 -128.404996 
L 178.124828 -136.733033 
L 179.125977 -129.767976 
L 180.127126 -131.962604 
L 181.128276 -131.512128 
L 182.129425 -130.050967 
L 183.130575 -135.48556 
L 184.131724 -125.846521 
L 185.132874 -130.934594 
L 186.134023 -132.805803 
L 187.135172 -131.177158 
L 188.136322 -127.070893 
L 189.137471 -135.404705 
L 190.138621 -129.438781 
L 191.13977 -130.322408 
L 192.14092 -128.318366 
L 193.142069 -130.495668 
L 194.143218 -132.424631 
L 195.144368 -125.48845 
L 196.145517 -133.215852 
L 197.146667 -132.072335 
L 198.147816 -131.448599 
L 199.148966 -129.7622 
L 200.150115 -128.208634 
L 201.151264 -129.560064 
L 202.152414 -132.101212 
L 203.153563 -131.691163 
L 204.154713 -131.610308 
L 205.155862 -129.612042 
L 206.157011 -131.592982 
L 207.158161 -132.297574 
L 208.15931 -128.283714 
L 209.16046 -128.791944 
L 210.161609 -129.184667 
L 211.162759 -133.521945 
L 212.163908 -128.335692 
L 213.165057 -127.480942 
L 214.166207 -129.427231 
L 215.167356 -134.266964 
L 216.168506 -124.275629 
L 217.169655 -131.252237 
L 218.170805 -133.054143 
L 219.171954 -126.493359 
L 220.173103 -131.206035 
L 221.174253 -132.424631 
L 222.175402 -128.630234 
L 223.176552 -129.710222 
L 224.177701 -127.480942 
L 225.178851 -131.662286 
L 226.18 -129.652469 
L 227.181149 -127.498268 
L 228.182299 -130.819087 
L 229.183448 -128.38767 
L 230.184598 -127.163298 
L 231.185747 -128.618683 
L 232.186897 -127.313457 
L 233.188046 -133.955096 
L 234.189195 -126.568439 
L 235.190345 -129.207768 
L 236.191494 -131.673837 
L 237.192644 -126.85143 
L 238.193793 -132.055009 
L 239.194943 -127.815912 
L 240.196092 -127.700405 
L 241.197241 -128.046925 
L 242.198391 -133.458416 
L 243.19954 -125.459574 
L 244.20069 -134.925352 
L 245.201839 -128.797719 
L 246.202989 -131.437048 
L 247.204138 -128.168207 
L 248.205287 -133.897342 
L 249.206437 -127.521369 
L 250.207586 -129.357927 
L 251.208736 -130.126047 
L 252.209885 -133.146548 
L 253.211034 -124.830062 
L 254.212184 -133.666329 
L 255.213333 -126.943836 
L 256.214483 -130.53032 
L 257.215632 -126.886082 
L 258.216782 -131.073202 
L 259.217931 -126.320099 
L 260.21908 -131.97993 
L 261.22023 -127.607999 
L 262.221379 -127.44629 
L 263.222529 -130.062518 
L 264.223678 -126.516461 
L 265.224828 -130.634276 
L 266.225977 -132.3149 
L 267.227126 -124.939793 
L 268.228276 -128.046925 
L 269.229425 -132.730724 
L 270.230575 -125.372944 
L 271.231724 -131.783569 
L 272.232874 -132.15319 
L 273.234023 -127.371211 
L 274.235172 -128.283714 
L 275.236322 -129.375253 
L 276.237471 -130.645827 
L 277.238621 -129.369477 
L 278.23977 -129.964337 
L 279.24092 -126.233469 
L 280.242069 -130.957695 
L 281.243218 -129.623592 
L 282.244368 -128.185533 
L 283.245517 -129.15579 
L 284.246667 -128.21441 
L 285.247816 -131.165607 
L 286.248966 -129.392579 
L 287.250115 -130.957695 
L 288.251264 -125.049525 
L 289.252414 -131.350418 
L 290.253563 -129.854606 
L 291.254713 -129.612042 
L 292.255862 -118.823711 
L 293.257011 -133.025266 
L 294.258161 -119.736214 
L 295.25931 -132.106987 
L 296.26046 -129.173116 
L 297.261609 -128.433873 
L 298.262759 -116.75614 
L 299.263908 -136.34031 
L 300.265057 -114.001304 
L 301.266207 -120.937484 
L 302.267356 -135.560639 
L 303.268506 -118.667777 
L 304.269655 -123.484408 
L 305.270805 -131.904851 
L 306.271954 -115.808984 
L 307.273103 -121.434163 
L 308.274253 -134.018624 
L 309.275402 -119.516751 
L 310.276552 -124.691454 
L 311.277701 -132.545913 
L 312.278851 -120.354175 
L 313.28 -122.935751 
L 314.281149 -135.560639 
L 315.282299 -118.407886 
L 316.283448 -124.887815 
L 317.284598 -130.149148 
L 318.285747 -120.319523 
L 319.286897 -126.568439 
L 320.288046 -133.891567 
L 321.289195 -121.578547 
L 322.290345 -123.536386 
L 323.291494 -132.49971 
L 324.292644 -117.460731 
L 325.293793 -127.925643 
L 326.294943 -131.564106 
L 327.296092 -127.371211 
L 328.297241 -129.132689 
L 329.298391 -122.184957 
L 330.29954 -134.417123 
L 331.30069 -119.510976 
L 332.301839 -121.740256 
L 333.302989 -138.061361 
L 334.304138 -123.628792 
L 335.305287 -125.436472 
L 336.306437 -134.365145 
L 337.307586 -124.137021 
L 338.308736 -125.534653 
L 339.309885 -134.007074 
L 340.311034 -124.183224 
L 341.312184 -127.042016 
L 342.313333 -124.160123 
L 343.314483 -134.619259 
L 344.315632 -129.271297 
L 345.316782 -130.570748 
L 346.317931 -133.735633 
L 347.31908 -119.880597 
L 348.32023 -131.54678 
L 349.321379 -130.420589 
L 350.322529 -124.137021 
L 351.323678 -125.638609 
L 352.324828 -135.058185 
L 353.325977 -121.647851 
L 354.327126 -127.781259 
L 355.328276 -129.84883 
L 356.329425 -122.82602 
L 357.330575 -126.909183 
L 358.331724 -130.715131 
L 359.332874 -126.631967 
L 360.334023 -127.96607 
L 361.335172 -131.182933 
L 362.336322 -125.771442 
L 363.337471 -126.551113 
L 364.338621 -134.324717 
L 365.33977 -126.649293 
L 366.34092 -128.104678 
L 367.342069 -133.695205 
L 368.343218 -124.021515 
L 369.344368 -129.190442 
L 370.345517 -135.156366 
L 371.346667 -126.019781 
L 372.347816 -135.762776 
L 373.348966 -129.433006 
L 374.350115 -129.831504 
L 375.351264 -130.437915 
L 376.352414 -130.888391 
L 377.353563 -124.44889 
L 378.354713 -125.419146 
L 379.355862 -127.717731 
L 380.357011 -124.864714 
L 381.358161 -127.221052 
L 382.35931 -106.626197 
L 383.36046 -129.825729 
L 384.361609 -131.37352 
L 385.362759 -131.881749 
L 386.363908 -132.078111 
L 387.365057 -129.998989 
L 388.366207 -130.501444 
L 389.367356 -128.791944 
L 390.368506 -131.54678 
L 391.369655 -128.197084 
L 392.370805 -130.95192 
L 393.371954 -132.447732 
L 394.373103 -125.990905 
L 395.374253 -135.491335 
L 396.375402 -128.404996 
L 397.376552 -116.663734 
L 398.377701 -136.634852 
L 399.378851 -125.719464 
L 400.38 -132.164741 
L 400.38 -28.052727 
L 400.38 -28.052727 
L 399.378851 -28.052727 
L 398.377701 -28.052727 
L 397.376552 -28.052727 
L 396.375402 -28.052727 
L 395.374253 -28.052727 
L 394.373103 -28.052727 
L 393.371954 -28.052727 
L 392.370805 -28.052727 
L 391.369655 -28.052727 
L 390.368506 -28.052727 
L 389.367356 -28.052727 
L 388.366207 -28.052727 
L 387.365057 -28.052727 
L 386.363908 -28.052727 
L 385.362759 -28.052727 
L 384.361609 -28.052727 
L 383.36046 -28.052727 
L 382.35931 -28.052727 
L 381.358161 -28.052727 
L 380.357011 -28.052727 
L 379.355862 -28.052727 
L 378.354713 -28.052727 
L 377.353563 -28.052727 
L 376.352414 -28.052727 
L 375.351264 -28.052727 
L 374.350115 -28.052727 
L 373.348966 -28.052727 
L 372.347816 -28.052727 
L 371.346667 -28.052727 
L 370.345517 -28.052727 
L 369.344368 -28.052727 
L 368.343218 -28.052727 
L 367.342069 -28.052727 
L 366.34092 -28.052727 
L 365.33977 -28.052727 
L 364.338621 -28.052727 
L 363.337471 -28.052727 
L 362.336322 -28.052727 
L 361.335172 -28.052727 
L 360.334023 -28.052727 
L 359.332874 -28.052727 
L 358.331724 -28.052727 
L 357.330575 -28.052727 
L 356.329425 -28.052727 
L 355.328276 -28.052727 
L 354.327126 -28.052727 
L 353.325977 -28.052727 
L 352.324828 -28.052727 
L 351.323678 -28.052727 
L 350.322529 -28.052727 
L 349.321379 -28.052727 
L 348.32023 -28.052727 
L 347.31908 -28.052727 
L 346.317931 -28.052727 
L 345.316782 -28.052727 
L 344.315632 -28.052727 
L 343.314483 -28.052727 
L 342.313333 -28.052727 
L 341.312184 -28.052727 
L 340.311034 -28.052727 
L 339.309885 -28.052727 
L 338.308736 -28.052727 
L 337.307586 -28.052727 
L 336.306437 -28.052727 
L 335.305287 -28.052727 
L 334.304138 -28.052727 
L 333.302989 -28.052727 
L 332.301839 -28.052727 
L 331.30069 -28.052727 
L 330.29954 -28.052727 
L 329.298391 -28.052727 
L 328.297241 -28.052727 
L 327.296092 -28.052727 
L 326.294943 -28.052727 
L 325.293793 -28.052727 
L 324.292644 -28.052727 
L 323.291494 -28.052727 
L 322.290345 -28.052727 
L 321.289195 -28.052727 
L 320.288046 -28.052727 
L 319.286897 -28.052727 
L 318.285747 -28.052727 
L 317.284598 -28.052727 
L 316.283448 -28.052727 
L 315.282299 -28.052727 
L 314.281149 -28.052727 
L 313.28 -28.052727 
L 312.278851 -28.052727 
L 311.277701 -28.052727 
L 310.276552 -28.052727 
L 309.275402 -28.052727 
L 308.274253 -28.052727 
L 307.273103 -28.052727 
L 306.271954 -28.052727 
L 305.270805 -28.052727 
L 304.269655 -28.052727 
L 303.268506 -28.052727 
L 302.267356 -28.052727 
L 301.266207 -28.052727 
L 300.265057 -28.052727 
L 299.263908 -28.052727 
L 298.262759 -28.052727 
L 297.261609 -28.052727 
L 296.26046 -28.052727 
L 295.25931 -28.052727 
L 294.258161 -28.052727 
L 293.257011 -28.052727 
L 292.255862 -28.052727 
L 291.254713 -28.052727 
L 290.253563 -28.052727 
L 289.252414 -28.052727 
L 288.251264 -28.052727 
L 287.250115 -28.052727 
L 286.248966 -28.052727 
L 285.247816 -28.052727 
L 284.246667 -28.052727 
L 283.245517 -28.052727 
L 282.244368 -28.052727 
L 281.243218 -28.052727 
L 280.242069 -28.052727 
L 279.24092 -28.052727 
L 278.23977 -28.052727 
L 277.238621 -28.052727 
L 276.237471 -28.052727 
L 275.236322 -28.052727 
L 274.235172 -28.052727 
L 273.234023 -28.052727 
L 272.232874 -28.052727 
L 271.231724 -28.052727 
L 270.230575 -28.052727 
L 269.229425 -28.052727 
L 268.228276 -28.052727 
L 267.227126 -28.052727 
L 266.225977 -28.052727 
L 265.224828 -28.052727 
L 264.223678 -28.052727 
L 263.222529 -28.052727 
L 262.221379 -28.052727 
L 261.22023 -28.052727 
L 260.21908 -28.052727 
L 259.217931 -28.052727 
L 258.216782 -28.052727 
L 257.215632 -28.052727 
L 256.214483 -28.052727 
L 255.213333 -28.052727 
L 254.212184 -28.052727 
L 253.211034 -28.052727 
L 252.209885 -28.052727 
L 251.208736 -28.052727 
L 250.207586 -28.052727 
L 249.206437 -28.052727 
L 248.205287 -28.052727 
L 247.204138 -28.052727 
L 246.202989 -28.052727 
L 245.201839 -28.052727 
L 244.20069 -28.052727 
L 243.19954 -28.052727 
L 242.198391 -28.052727 
L 241.197241 -28.052727 
L 240.196092 -28.052727 
L 239.194943 -28.052727 
L 238.193793 -28.052727 
L 237.192644 -28.052727 
L 236.191494 -28.052727 
L 235.190345 -28.052727 
L 234.189195 -28.052727 
L 233.188046 -28.052727 
L 232.186897 -28.052727 
L 231.185747 -28.052727 
L 230.184598 -28.052727 
L 229.183448 -28.052727 
L 228.182299 -28.052727 
L 227.181149 -28.052727 
L 226.18 -28.052727 
L 225.178851 -28.052727 
L 224.177701 -28.052727 
L 223.176552 -28.052727 
L 222.175402 -28.052727 
L 221.174253 -28.052727 
L 220.173103 -28.052727 
L 219.171954 -28.052727 
L 218.170805 -28.052727 
L 217.169655 -28.052727 
L 216.168506 -28.052727 
L 215.167356 -28.052727 
L 214.166207 -28.052727 
L 213.165057 -28.052727 
L 212.163908 -28.052727 
L 211.162759 -28.052727 
L 210.161609 -28.052727 
L 209.16046 -28.052727 
L 208.15931 -28.052727 
L 207.158161 -28.052727 
L 206.157011 -28.052727 
L 205.155862 -28.052727 
L 204.154713 -28.052727 
L 203.153563 -28.052727 
L 202.152414 -28.052727 
L 201.151264 -28.052727 
L 200.150115 -28.052727 
L 199.148966 -28.052727 
L 198.147816 -28.052727 
L 197.146667 -28.052727 
L 196.145517 -28.052727 
L 195.144368 -28.052727 
L 194.143218 -28.052727 
L 193.142069 -28.052727 
L 192.14092 -28.052727 
L 191.13977 -28.052727 
L 190.138621 -28.052727 
L 189.137471 -28.052727 
L 188.136322 -28.052727 
L 187.135172 -28.052727 
L 186.134023 -28.052727 
L 185.132874 -28.052727 
L 184.131724 -28.052727 
L 183.130575 -28.052727 
L 182.129425 -28.052727 
L 181.128276 -28.052727 
L 180.127126 -28.052727 
L 179.125977 -28.052727 
L 178.124828 -28.052727 
L 177.123678 -28.052727 
L 176.122529 -28.052727 
L 175.121379 -28.052727 
L 174.12023 -28.052727 
L 173.11908 -28.052727 
L 172.117931 -28.052727 
L 171.116782 -28.052727 
L 170.115632 -28.052727 
L 169.114483 -28.052727 
L 168.113333 -28.052727 
L 167.112184 -28.052727 
L 166.111034 -28.052727 
L 165.109885 -28.052727 
L 164.108736 -28.052727 
L 163.107586 -28.052727 
L 162.106437 -28.052727 
L 161.105287 -28.052727 
L 160.104138 -28.052727 
L 159.102989 -28.052727 
L 158.101839 -28.052727 
L 157.10069 -28.052727 
L 156.09954 -28.052727 
L 155.098391 -28.052727 
L 154.097241 -28.052727 
L 153.096092 -28.052727 
L 152.094943 -28.052727 
L 151.093793 -28.052727 
L 150.092644 -28.052727 
L 149.091494 -28.052727 
L 148.090345 -28.052727 
L 147.089195 -28.052727 
L 146.088046 -28.052727 
L 145.086897 -28.052727 
L 144.085747 -28.052727 
L 143.084598 -28.052727 
L 142.083448 -28.052727 
L 141.082299 -28.052727 
L 140.081149 -28.052727 
L 139.08 -28.052727 
L 138.078851 -28.052727 
L 137.077701 -28.052727 
L 136.076552 -28.052727 
L 135.075402 -28.052727 
L 134.074253 -28.052727 
L 133.073103 -28.052727 
L 132.071954 -28.052727 
L 131.070805 -28.052727 
L 130.069655 -28.052727 
L 129.068506 -28.052727 
L 128.067356 -28.052727 
L 127.066207 -28.052727 
L 126.065057 -28.052727 
L 125.063908 -28.052727 
L 124.062759 -28.052727 
L 123.061609 -28.052727 
L 122.06046 -28.052727 
L 121.05931 -28.052727 
L 120.058161 -28.052727 
L 119.057011 -28.052727 
L 118.055862 -28.052727 
L 117.054713 -28.052727 
L 116.053563 -28.052727 
L 115.052414 -28.052727 
L 114.051264 -28.052727 
L 113.050115 -28.052727 
L 112.048966 -28.052727 
L 111.047816 -28.052727 
L 110.046667 -28.052727 
L 109.045517 -28.052727 
L 108.044368 -28.052727 
L 107.043218 -28.052727 
L 106.042069 -28.052727 
L 105.04092 -28.052727 
L 104.03977 -28.052727 
L 103.038621 -28.052727 
L 102.037471 -28.052727 
L 101.036322 -28.052727 
L 100.035172 -28.052727 
L 99.034023 -28.052727 
L 98.032874 -28.052727 
L 97.031724 -28.052727 
L 96.030575 -28.052727 
L 95.029425 -28.052727 
L 94.028276 -28.052727 
L 93.027126 -28.052727 
L 92.025977 -28.052727 
L 91.024828 -28.052727 
L 90.023678 -28.052727 
L 89.022529 -28.052727 
L 88.021379 -28.052727 
L 87.02023 -28.052727 
L 86.01908 -28.052727 
L 85.017931 -28.052727 
L 84.016782 -28.052727 
L 83.015632 -28.052727 
L 82.014483 -28.052727 
L 81.013333 -28.052727 
L 80.012184 -28.052727 
L 79.011034 -28.052727 
L 78.009885 -28.052727 
L 77.008736 -28.052727 
L 76.007586 -28.052727 
L 75.006437 -28.052727 
L 74.005287 -28.052727 
L 73.004138 -28.052727 
L 72.002989 -28.052727 
L 71.001839 -28.052727 
L 70.00069 -28.052727 
L 68.99954 -28.052727 
L 67.998391 -28.052727 
L 66.997241 -28.052727 
L 65.996092 -28.052727 
L 64.994943 -28.052727 
L 63.993793 -28.052727 
L 62.992644 -28.052727 
L 61.991494 -28.052727 
L 60.990345 -28.052727 
L 59.989195 -28.052727 
L 58.988046 -28.052727 
L 57.986897 -28.052727 
L 56.985747 -28.052727 
L 55.984598 -28.052727 
L 54.983448 -28.052727 
L 53.982299 -28.052727 
L 52.981149 -28.052727 
L 51.98 -28.052727 
z
" style="stroke: #3fb950; stroke-opacity: 0.15"/>
    </defs>
    <g clip-path="url(#p2b7404a366)">
     <use xlink:href="#mb74c4198fa" x="0" y="172.518281" style="fill: #3fb950; fill-opacity: 0.15; stroke: #3fb950; stroke-opacity: 0.15"/>
    </g>
   </g>
   <g id="matplotlib.axis_1">
    <g id="xtick_1">
     <g id="line2d_1">
      <path d="M 51.98 150.318281 
L 51.98 21.558281 
" clip-path="url(#p2b7404a366)" style="fill: none; stroke: #21262d; stroke-opacity: 0.5; stroke-width: 0.5; stroke-linecap: square"/>
     </g>
     <g id="line2d_2">
      <defs>
       <path id="m600415c522" d="M 0 0 
L 0 3.5 
" style="stroke: #c9d1d9; stroke-width: 0.8"/>
      </defs>
      <g>
       <use xlink:href="#m600415c522" x="51.98" y="150.318281" style="fill: #c9d1d9; stroke: #c9d1d9; stroke-width: 0.8"/>
      </g>
     </g>
     <g id="text_1">
      <!-- 0 -->
      <g style="fill: #c9d1d9" transform="translate(49.435 163.396406) scale(0.08 -0.08)">
       <defs>
        <path id="DejaVuSans-13" d="M 2034 4250 
Q 1547 4250 1301 3770 
Q 1056 3291 1056 2328 
Q 1056 1369 1301 889 
Q 1547 409 2034 409 
Q 2525 409 2770 889 
Q 3016 1369 3016 2328 
Q 3016 3291 2770 3770 
Q 2525 4250 2034 4250 
z
M 2034 4750 
Q 2819 4750 3233 4129 
Q 3647 3509 3647 2328 
Q 3647 1150 3233 529 
Q 2819 -91 2034 -91 
Q 1250 -91 836 529 
Q 422 1150 422 2328 
Q 422 3509 836 4129 
Q 1250 4750 2034 4750 
z
" transform="scale(0.015625)"/>
       </defs>
       <use xlink:href="#DejaVuSans-13"/>
      </g>
     </g>
    </g>
    <g id="xtick_2">
     <g id="line2d_3">
      <path d="M 102.037471 150.318281 
L 102.037471 21.558281 
" clip-path="url(#p2b7404a366)" style="fill: none; stroke: #21262d; stroke-opacity: 0.5; stroke-width: 0.5; stroke-linecap: square"/>
     </g>
     <g id="line2d_4">
      <g>
       <use xlink:href="#m600415c522" x="102.037471" y="150.318281" style="fill: #c9d1d9; stroke: #c9d1d9; stroke-width: 0.8"/>
      </g>
     </g>
     <g id="text_2">
      <!-- 50 -->
      <g style="fill: #c9d1d9" transform="translate(96.947471 163.396406) scale(0.08 -0.08)">
       <defs>
        <path id="DejaVuSans-18" d="M 691 4666 
L 3169 4666 
L 3169 4134 
L 1269 4134 
L 1269 2991 
Q 1406 3038 1543 3061 
Q 1681 3084 1819 3084 
Q 2600 3084 3056 2656 
Q 3513 2228 3513 1497 
Q 3513 744 3044 326 
Q 2575 -91 1722 -91 
Q 1428 -91 1123 -41 
Q 819 9 494 109 
L 494 744 
Q 775 591 1075 516 
Q 1375 441 1709 441 
Q 2250 441 2565 725 
Q 2881 1009 2881 1497 
Q 2881 1984 2565 2268 
Q 2250 2553 1709 2553 
Q 1456 2553 1204 2497 
Q 953 2441 691 2322 
L 691 4666 
z
" transform="scale(0.015625)"/>
       </defs>
       <use xlink:href="#DejaVuSans-18"/>
       <use xlink:href="#DejaVuSans-13" transform="translate(63.625 0)"/>
      </g>
     </g>
    </g>
    <g id="xtick_3">
     <g id="line2d_5">
      <path d="M 152.094943 150.318281 
L 152.094943 21.558281 
" clip-path="url(#p2b7404a366)" style="fill: none; stroke: #21262d; stroke-opacity: 0.5; stroke-width: 0.5; stroke-linecap: square"/>
     </g>
     <g id="line2d_6">
      <g>
       <use xlink:href="#m600415c522" x="152.094943" y="150.318281" style="fill: #c9d1d9; stroke: #c9d1d9; stroke-width: 0.8"/>
      </g>
     </g>
     <g id="text_3">
      <!-- 100 -->
      <g style="fill: #c9d1d9" transform="translate(144.459943 163.396406) scale(0.08 -0.08)">
       <defs>
        <path id="DejaVuSans-14" d="M 794 531 
L 1825 531 
L 1825 4091 
L 703 3866 
L 703 4441 
L 1819 4666 
L 2450 4666 
L 2450 531 
L 3481 531 
L 3481 0 
L 794 0 
L 794 531 
z
" transform="scale(0.015625)"/>
       </defs>
       <use xlink:href="#DejaVuSans-14"/>
       <use xlink:href="#DejaVuSans-13" transform="translate(63.625 0)"/>
       <use xlink:href="#DejaVuSans-13" transform="translate(127.25 0)"/>
      </g>
     </g>
    </g>
    <g id="xtick_4">
     <g id="line2d_7">
      <path d="M 202.152414 150.318281 
L 202.152414 21.558281 
" clip-path="url(#p2b7404a366)" style="fill: none; stroke: #21262d; stroke-opacity: 0.5; stroke-width: 0.5; stroke-linecap: square"/>
     </g>
     <g id="line2d_8">
      <g>
       <use xlink:href="#m600415c522" x="202.152414" y="150.318281" style="fill: #c9d1d9; stroke: #c9d1d9; stroke-width: 0.8"/>
      </g>
     </g>
     <g id="text_4">
      <!-- 150 -->
      <g style="fill: #c9d1d9" transform="translate(194.517414 163.396406) scale(0.08 -0.08)">
       <use xlink:href="#DejaVuSans-14"/>
       <use xlink:href="#DejaVuSans-18" transform="translate(63.625 0)"/>
       <use xlink:href="#DejaVuSans-13" transform="translate(127.25 0)"/>
      </g>
     </g>
    </g>
    <g id="xtick_5">
     <g id="line2d_9">
      <path d="M 252.209885 150.318281 
L 252.209885 21.558281 
" clip-path="url(#p2b7404a366)" style="fill: none; stroke: #21262d; stroke-opacity: 0.5; stroke-width: 0.5; stroke-linecap: square"/>
     </g>
     <g id="line2d_10">
      <g>
       <use xlink:href="#m600415c522" x="252.209885" y="150.318281" style="fill: #c9d1d9; stroke: #c9d1d9; stroke-width: 0.8"/>
      </g>
     </g>
     <g id="text_5">
      <!-- 200 -->
      <g style="fill: #c9d1d9" transform="translate(244.574885 163.396406) scale(0.08 -0.08)">
       <defs>
        <path id="DejaVuSans-15" d="M 1228 531 
L 3431 531 
L 3431 0 
L 469 0 
L 469 531 
Q 828 903 1448 1529 
Q 2069 2156 2228 2338 
Q 2531 2678 2651 2914 
Q 2772 3150 2772 3378 
Q 2772 3750 2511 3984 
Q 2250 4219 1831 4219 
Q 1534 4219 1204 4116 
Q 875 4013 500 3803 
L 500 4441 
Q 881 4594 1212 4672 
Q 1544 4750 1819 4750 
Q 2544 4750 2975 4387 
Q 3406 4025 3406 3419 
Q 3406 3131 3298 2873 
Q 3191 2616 2906 2266 
Q 2828 2175 2409 1742 
Q 1991 1309 1228 531 
z
" transform="scale(0.015625)"/>
       </defs>
       <use xlink:href="#DejaVuSans-15"/>
       <use xlink:href="#DejaVuSans-13" transform="translate(63.625 0)"/>
       <use xlink:href="#DejaVuSans-13" transform="translate(127.25 0)"/>
      </g>
     </g>
    </g>
    <g id="xtick_6">
     <g id="line2d_11">
      <path d="M 302.267356 150.318281 
L 302.267356 21.558281 
" clip-path="url(#p2b7404a366)" style="fill: none; stroke: #21262d; stroke-opacity: 0.5; stroke-width: 0.5; stroke-linecap: square"/>
     </g>
     <g id="line2d_12">
      <g>
       <use xlink:href="#m600415c522" x="302.267356" y="150.318281" style="fill: #c9d1d9; stroke: #c9d1d9; stroke-width: 0.8"/>
      </g>
     </g>
     <g id="text_6">
      <!-- 250 -->
      <g style="fill: #c9d1d9" transform="translate(294.632356 163.396406) scale(0.08 -0.08)">
       <use xlink:href="#DejaVuSans-15"/>
       <use xlink:href="#DejaVuSans-18" transform="translate(63.625 0)"/>
       <use xlink:href="#DejaVuSans-13" transform="translate(127.25 0)"/>
      </g>
     </g>
    </g>
    <g id="xtick_7">
     <g id="line2d_13">
      <path d="M 352.324828 150.318281 
L 352.324828 21.558281 
" clip-path="url(#p2b7404a366)" style="fill: none; stroke: #21262d; stroke-opacity: 0.5; stroke-width: 0.5; stroke-linecap: square"/>
     </g>
     <g id="line2d_14">
      <g>
       <use xlink:href="#m600415c522" x="352.324828" y="150.318281" style="fill: #c9d1d9; stroke: #c9d1d9; stroke-width: 0.8"/>
      </g>
     </g>
     <g id="text_7">
      <!-- 300 -->
      <g style="fill: #c9d1d9" transform="translate(344.689828 163.396406) scale(0.08 -0.08)">
       <defs>
        <path id="DejaVuSans-16" d="M 2597 2516 
Q 3050 2419 3304 2112 
Q 3559 1806 3559 1356 
Q 3559 666 3084 287 
Q 2609 -91 1734 -91 
Q 1441 -91 1130 -33 
Q 819 25 488 141 
L 488 750 
Q 750 597 1062 519 
Q 1375 441 1716 441 
Q 2309 441 2620 675 
Q 2931 909 2931 1356 
Q 2931 1769 2642 2001 
Q 2353 2234 1838 2234 
L 1294 2234 
L 1294 2753 
L 1863 2753 
Q 2328 2753 2575 2939 
Q 2822 3125 2822 3475 
Q 2822 3834 2567 4026 
Q 2313 4219 1838 4219 
Q 1578 4219 1281 4162 
Q 984 4106 628 3988 
L 628 4550 
Q 988 4650 1302 4700 
Q 1616 4750 1894 4750 
Q 2613 4750 3031 4423 
Q 3450 4097 3450 3541 
Q 3450 3153 3228 2886 
Q 3006 2619 2597 2516 
z
" transform="scale(0.015625)"/>
       </defs>
       <use xlink:href="#DejaVuSans-16"/>
       <use xlink:href="#DejaVuSans-13" transform="translate(63.625 0)"/>
       <use xlink:href="#DejaVuSans-13" transform="translate(127.25 0)"/>
      </g>
     </g>
    </g>
    <g id="xtick_8">
     <g id="line2d_15">
      <path d="M 402.382299 150.318281 
L 402.382299 21.558281 
" clip-path="url(#p2b7404a366)" style="fill: none; stroke: #21262d; stroke-opacity: 0.5; stroke-width: 0.5; stroke-linecap: square"/>
     </g>
     <g id="line2d_16">
      <g>
       <use xlink:href="#m600415c522" x="402.382299" y="150.318281" style="fill: #c9d1d9; stroke: #c9d1d9; stroke-width: 0.8"/>
      </g>
     </g>
     <g id="text_8">
      <!-- 350 -->
      <g style="fill: #c9d1d9" transform="translate(394.747299 163.396406) scale(0.08 -0.08)">
       <use xlink:href="#DejaVuSans-16"/>
       <use xlink:href="#DejaVuSans-18" transform="translate(63.625 0)"/>
       <use xlink:href="#DejaVuSans-13" transform="translate(127.25 0)"/>
      </g>
     </g>
    </g>
   </g>
   <g id="matplotlib.axis_2">
    <g id="ytick_1">
     <g id="line2d_17">
      <path d="M 34.56 144.465554 
L 417.8 144.465554 
" clip-path="url(#p2b7404a366)" style="fill: none; stroke: #21262d; stroke-opacity: 0.5; stroke-width: 0.5; stroke-linecap: square"/>
     </g>
     <g id="line2d_18">
      <defs>
       <path id="mde81e1335f" d="M 0 0 
L -3.5 0 
" style="stroke: #c9d1d9; stroke-width: 0.8"/>
      </defs>
      <g>
       <use xlink:href="#mde81e1335f" x="34.56" y="144.465554" style="fill: #c9d1d9; stroke: #c9d1d9; stroke-width: 0.8"/>
      </g>
     </g>
     <g id="text_9">
      <!-- $0 -->
      <g style="fill: #c9d1d9" transform="translate(17.38 147.504929) scale(0.08 -0.08)">
       <defs>
        <path id="DejaVuSans-7" d="M 2163 -941 
L 1850 -941 
L 1847 0 
Q 1519 6 1191 76 
Q 863 147 531 288 
L 531 850 
Q 850 650 1176 548 
Q 1503 447 1850 444 
L 1850 1869 
Q 1159 1981 845 2250 
Q 531 2519 531 2988 
Q 531 3497 872 3790 
Q 1213 4084 1850 4128 
L 1850 4863 
L 2163 4863 
L 2163 4138 
Q 2453 4125 2725 4076 
Q 2997 4028 3256 3944 
L 3256 3397 
Q 2997 3528 2723 3600 
Q 2450 3672 2163 3684 
L 2163 2350 
Q 2872 2241 3206 1959 
Q 3541 1678 3541 1191 
Q 3541 663 3186 358 
Q 2831 53 2163 6 
L 2163 -941 
z
M 1850 2406 
L 1850 3688 
Q 1488 3647 1297 3481 
Q 1106 3316 1106 3041 
Q 1106 2772 1282 2622 
Q 1459 2472 1850 2406 
z
M 2163 1806 
L 2163 453 
Q 2559 506 2761 678 
Q 2963 850 2963 1131 
Q 2963 1406 2770 1568 
Q 2578 1731 2163 1806 
z
" transform="scale(0.015625)"/>
       </defs>
       <use xlink:href="#DejaVuSans-7"/>
       <use xlink:href="#DejaVuSans-13" transform="translate(63.625 0)"/>
      </g>
     </g>
    </g>
    <g id="ytick_2">
     <g id="line2d_19">
      <path d="M 34.56 115.588865 
L 417.8 115.588865 
" clip-path="url(#p2b7404a366)" style="fill: none; stroke: #21262d; stroke-opacity: 0.5; stroke-width: 0.5; stroke-linecap: square"/>
     </g>
     <g id="line2d_20">
      <g>
       <use xlink:href="#mde81e1335f" x="34.56" y="115.588865" style="fill: #c9d1d9; stroke: #c9d1d9; stroke-width: 0.8"/>
      </g>
     </g>
     <g id="text_10">
      <!-- $50 -->
      <g style="fill: #c9d1d9" transform="translate(12.29 118.62824) scale(0.08 -0.08)">
       <use xlink:href="#DejaVuSans-7"/>
       <use xlink:href="#DejaVuSans-18" transform="translate(63.625 0)"/>
       <use xlink:href="#DejaVuSans-13" transform="translate(127.25 0)"/>
      </g>
     </g>
    </g>
    <g id="ytick_3">
     <g id="line2d_21">
      <path d="M 34.56 86.712177 
L 417.8 86.712177 
" clip-path="url(#p2b7404a366)" style="fill: none; stroke: #21262d; stroke-opacity: 0.5; stroke-width: 0.5; stroke-linecap: square"/>
     </g>
     <g id="line2d_22">
      <g>
       <use xlink:href="#mde81e1335f" x="34.56" y="86.712177" style="fill: #c9d1d9; stroke: #c9d1d9; stroke-width: 0.8"/>
      </g>
     </g>
     <g id="text_11">
      <!-- $100 -->
      <g style="fill: #c9d1d9" transform="translate(7.2 89.751552) scale(0.08 -0.08)">
       <use xlink:href="#DejaVuSans-7"/>
       <use xlink:href="#DejaVuSans-14" transform="translate(63.625 0)"/>
       <use xlink:href="#DejaVuSans-13" transform="translate(127.25 0)"/>
       <use xlink:href="#DejaVuSans-13" transform="translate(190.875 0)"/>
      </g>
     </g>
    </g>
    <g id="ytick_4">
     <g id="line2d_23">
      <path d="M 34.56 57.835488 
L 417.8 57.835488 
" clip-path="url(#p2b7404a366)" style="fill: none; stroke: #21262d; stroke-opacity: 0.5; stroke-width: 0.5; stroke-linecap: square"/>
     </g>
     <g id="line2d_24">
      <g>
       <use xlink:href="#mde81e1335f" x="34.56" y="57.835488" style="fill: #c9d1d9; stroke: #c9d1d9; stroke-width: 0.8"/>
      </g>
     </g>
     <g id="text_12">
      <!-- $150 -->
      <g style="fill: #c9d1d9" transform="translate(7.2 60.874863) scale(0.08 -0.08)">
       <use xlink:href="#DejaVuSans-7"/>
       <use xlink:href="#DejaVuSans-14" transform="translate(63.625 0)"/>
       <use xlink:href="#DejaVuSans-18" transform="translate(127.25 0)"/>
       <use xlink:href="#DejaVuSans-13" transform="translate(190.875 0)"/>
      </g>
     </g>
    </g>
    <g id="ytick_5">
     <g id="line2d_25">
      <path d="M 34.56 28.958799 
L 417.8 28.958799 
" clip-path="url(#p2b7404a366)" style="fill: none; stroke: #21262d; stroke-opacity: 0.5; stroke-width: 0.5; stroke-linecap: square"/>
     </g>
     <g id="line2d_26">
      <g>
       <use xlink:href="#mde81e1335f" x="34.56" y="28.958799" style="fill: #c9d1d9; stroke: #c9d1d9; stroke-width: 0.8"/>
      </g>
     </g>
     <g id="text_13">
      <!-- $200 -->
      <g style="fill: #c9d1d9" transform="translate(7.2 31.998174) scale(0.08 -0.08)">
       <use xlink:href="#DejaVuSans-7"/>
       <use xlink:href="#DejaVuSans-15" transform="translate(63.625 0)"/>
       <use xlink:href="#DejaVuSans-13" transform="translate(127.25 0)"/>
       <use xlink:href="#DejaVuSans-13" transform="translate(190.875 0)"/>
      </g>
     </g>
    </g>
   </g>
   <g id="line2d_27">
    <path d="M 51.98 46.735289 
L 52.981149 45.401186 
L 53.982299 46.42342 
L 54.983448 45.840111 
L 55.984598 44.898731 
L 56.985747 52.909125 
L 57.986897 44.246118 
L 58.988046 49.553653 
L 60.990345 40.555677 
L 61.991494 47.745973 
L 62.992644 42.005287 
L 63.993793 42.912015 
L 64.994943 43.541527 
L 65.996092 40.151404 
L 66.997241 45.90364 
L 67.998391 42.068816 
L 68.99954 41.179414 
L 70.00069 45.453164 
L 71.001839 39.556544 
L 72.002989 38.505432 
L 73.004138 38.996336 
L 74.005287 35.05178 
L 75.006437 39.406385 
L 76.007586 34.809216 
L 77.008736 41.491282 
L 78.009885 33.013086 
L 79.011034 36.218399 
L 80.012184 34.849644 
L 81.013333 36.876787 
L 82.014483 35.710169 
L 83.015632 38.060731 
L 84.016782 33.729228 
L 85.017931 36.74973 
L 86.01908 30.466162 
L 87.02023 35.253917 
L 88.021379 31.823367 
L 89.022529 36.235725 
L 90.023678 29.888628 
L 91.024828 35.461829 
L 92.025977 36.149095 
L 93.027126 28.277309 
L 94.028276 28.323512 
L 95.029425 30.962841 
L 96.030575 29.126284 
L 97.031724 34.589753 
L 98.032874 27.411009 
L 99.034023 33.613721 
L 100.035172 28.346613 
L 101.036322 30.928189 
L 102.037471 28.392816 
L 103.038621 34.607079 
L 104.03977 34.179704 
L 105.04092 30.310228 
L 106.042069 32.585711 
L 108.044368 40.411294 
L 109.045517 34.18548 
L 110.046667 38.031855 
L 111.047816 38.672917 
L 112.048966 34.249008 
L 113.050115 37.592929 
L 114.051264 35.38675 
L 115.052414 38.973235 
L 116.053563 35.918081 
L 117.054713 37.991427 
L 118.055862 33.215223 
L 119.057011 43.356716 
L 120.058161 34.855419 
L 121.05931 37.333039 
L 122.06046 41.745397 
L 123.061609 37.338814 
L 124.062759 38.776873 
L 125.063908 39.544993 
L 126.065057 34.659057 
L 127.066207 41.832027 
L 128.067356 32.810949 
L 129.068506 39.683601 
L 130.069655 37.714211 
L 131.070805 37.927899 
L 132.071954 43.264311 
L 133.073103 35.461829 
L 134.074253 40.844444 
L 135.075402 39.308204 
L 136.076552 43.015971 
L 137.077701 39.995469 
L 138.078851 45.13552 
L 139.08 42.952442 
L 140.081149 40.053223 
L 141.082299 37.685334 
L 142.083448 46.868121 
L 143.084598 40.388192 
L 144.085747 43.755214 
L 145.086897 41.901331 
L 146.088046 46.492724 
L 147.089195 36.842135 
L 148.090345 49.900174 
L 149.091494 40.238034 
L 150.092644 40.624981 
L 151.093793 43.229659 
L 152.094943 44.171039 
L 153.096092 41.017704 
L 154.097241 43.876496 
L 155.098391 46.23861 
L 156.09954 40.145628 
L 157.10069 45.043115 
L 158.101839 42.31138 
L 159.102989 43.391368 
L 160.104138 44.846753 
L 161.105287 42.288279 
L 162.106437 41.762723 
L 163.107586 45.55712 
L 164.108736 43.495324 
L 165.109885 44.240343 
L 166.111034 42.143895 
L 167.112184 40.879096 
L 168.113333 44.396277 
L 169.114483 39.764456 
L 171.116782 43.039072 
L 172.117931 38.609388 
L 173.11908 40.457496 
L 174.12023 41.271819 
L 175.121379 40.203382 
L 176.122529 40.445946 
L 177.123678 44.113285 
L 178.124828 35.785248 
L 179.125977 42.750306 
L 180.127126 40.555677 
L 181.128276 41.006154 
L 182.129425 42.467314 
L 183.130575 37.032721 
L 184.131724 46.67176 
L 185.132874 41.583687 
L 186.134023 39.712478 
L 187.135172 41.341123 
L 188.136322 45.447388 
L 189.137471 37.113576 
L 190.138621 43.0795 
L 191.13977 42.195873 
L 192.14092 44.199915 
L 194.143218 40.09365 
L 195.144368 47.029831 
L 196.145517 39.302429 
L 197.146667 40.445946 
L 198.147816 41.069682 
L 200.150115 44.309647 
L 201.151264 42.958218 
L 202.152414 40.417069 
L 203.153563 40.827118 
L 204.154713 40.907973 
L 205.155862 42.90624 
L 206.157011 40.925299 
L 207.158161 40.220708 
L 208.15931 44.234567 
L 210.161609 43.333615 
L 211.162759 38.996336 
L 212.163908 44.182589 
L 213.165057 45.037339 
L 214.166207 43.091051 
L 215.167356 38.251317 
L 216.168506 48.242652 
L 217.169655 41.266044 
L 218.170805 39.464138 
L 219.171954 46.024922 
L 220.173103 41.312246 
L 221.174253 40.09365 
L 222.175402 43.888047 
L 223.176552 42.808059 
L 224.177701 45.037339 
L 225.178851 40.855995 
L 227.181149 45.020013 
L 228.182299 41.699194 
L 229.183448 44.130611 
L 230.184598 45.354983 
L 231.185747 43.899598 
L 232.186897 45.204824 
L 233.188046 38.563186 
L 234.189195 45.949843 
L 236.191494 40.844444 
L 237.192644 45.666851 
L 238.193793 40.463272 
L 239.194943 44.70237 
L 240.196092 44.817876 
L 241.197241 44.471356 
L 242.198391 39.059865 
L 243.19954 47.058708 
L 244.20069 37.592929 
L 245.201839 43.720562 
L 246.202989 41.081233 
L 247.204138 44.350074 
L 248.205287 38.620939 
L 249.206437 44.996912 
L 250.207586 43.160355 
L 251.208736 42.392235 
L 252.209885 39.371733 
L 253.211034 47.688219 
L 254.212184 38.851953 
L 255.213333 45.574446 
L 256.214483 41.987961 
L 257.215632 45.632199 
L 258.216782 41.445079 
L 259.217931 46.198182 
L 260.21908 40.538351 
L 261.22023 44.910282 
L 262.221379 45.071991 
L 263.222529 42.455763 
L 264.223678 46.001821 
L 265.224828 41.884005 
L 266.225977 40.203382 
L 267.227126 47.578488 
L 268.228276 44.471356 
L 269.229425 39.787557 
L 270.230575 47.145338 
L 271.231724 40.734713 
L 272.232874 40.365091 
L 273.234023 45.147071 
L 274.235172 44.234567 
L 275.236322 43.143029 
L 276.237471 41.872454 
L 277.238621 43.148804 
L 278.23977 42.553944 
L 279.24092 46.284812 
L 280.242069 41.560586 
L 282.244368 44.332748 
L 283.245517 43.362491 
L 284.246667 44.303871 
L 285.247816 41.352674 
L 286.248966 43.125703 
L 287.250115 41.560586 
L 288.251264 47.468757 
L 289.252414 41.167863 
L 290.253563 42.663676 
L 291.254713 42.90624 
L 292.255862 53.694571 
L 293.257011 39.493015 
L 294.258161 52.782067 
L 295.25931 40.411294 
L 296.26046 43.345165 
L 297.261609 44.084409 
L 298.262759 55.762142 
L 299.263908 36.177971 
L 300.265057 58.516978 
L 301.266207 51.580797 
L 302.267356 36.957642 
L 303.268506 53.850505 
L 304.269655 49.033873 
L 305.270805 40.613431 
L 306.271954 56.709297 
L 307.273103 51.084118 
L 308.274253 38.499657 
L 309.275402 53.00153 
L 310.276552 47.826827 
L 311.277701 39.972368 
L 312.278851 52.164106 
L 313.28 49.58253 
L 314.281149 36.957642 
L 315.282299 54.110395 
L 316.283448 47.630466 
L 317.284598 42.369133 
L 318.285747 52.198758 
L 319.286897 45.949843 
L 320.288046 38.626714 
L 321.289195 50.939735 
L 322.290345 48.981895 
L 323.291494 40.018571 
L 324.292644 55.05755 
L 325.293793 44.592638 
L 326.294943 40.954176 
L 327.296092 45.147071 
L 328.297241 43.385593 
L 329.298391 50.333324 
L 330.29954 38.101159 
L 331.30069 53.007305 
L 332.301839 50.778025 
L 333.302989 34.456921 
L 334.304138 48.88949 
L 335.305287 47.081809 
L 336.306437 38.153137 
L 337.307586 48.38126 
L 338.308736 46.983628 
L 339.309885 38.511208 
L 340.311034 48.335057 
L 341.312184 45.476265 
L 342.313333 48.358159 
L 343.314483 37.899022 
L 344.315632 43.246985 
L 345.316782 41.947534 
L 346.317931 38.782649 
L 347.31908 52.637684 
L 348.32023 40.971502 
L 349.321379 42.097692 
L 350.322529 48.38126 
L 351.323678 46.879672 
L 352.324828 37.460096 
L 353.325977 50.87043 
L 354.327126 44.737022 
L 355.328276 42.669451 
L 356.329425 49.692262 
L 358.331724 41.80315 
L 359.332874 45.886314 
L 360.334023 44.552211 
L 361.335172 41.335348 
L 362.336322 46.746839 
L 363.337471 45.967169 
L 364.338621 38.193564 
L 365.33977 45.868988 
L 366.34092 44.413603 
L 367.342069 38.823076 
L 368.343218 48.496767 
L 369.344368 43.327839 
L 370.345517 37.361915 
L 371.346667 46.4985 
L 372.347816 36.755505 
L 373.348966 43.085275 
L 374.350115 42.686777 
L 375.351264 42.080366 
L 376.352414 41.62989 
L 377.353563 48.069392 
L 378.354713 47.099135 
L 379.355862 44.80055 
L 380.357011 47.653567 
L 381.358161 45.29723 
L 382.35931 65.892084 
L 383.36046 42.692552 
L 384.361609 41.144762 
L 385.362759 40.636532 
L 386.363908 40.44017 
L 387.365057 42.519292 
L 388.366207 42.016838 
L 389.367356 43.726338 
L 390.368506 40.971502 
L 391.369655 44.321197 
L 392.370805 41.566361 
L 393.371954 40.070549 
L 394.373103 46.527376 
L 395.374253 37.026946 
L 396.375402 44.113285 
L 397.376552 55.854547 
L 398.377701 35.883429 
L 399.378851 46.798817 
L 400.38 40.35354 
L 400.38 40.35354 
" clip-path="url(#p2b7404a366)" style="fill: none; stroke: #3fb950; stroke-width: 2; stroke-linecap: square"/>
   </g>
   <g id="patch_3">
    <path d="M 34.56 150.318281 
L 34.56 21.558281 
" style="fill: none; stroke: #21262d; stroke-width: 0.8; stroke-linejoin: miter; stroke-linecap: square"/>
   </g>
   <g id="patch_4">
    <path d="M 34.56 150.318281 
L 417.8 150.318281 
" style="fill: none; stroke: #21262d; stroke-width: 0.8; stroke-linejoin: miter; stroke-linecap: square"/>
   </g>
   <g id="text_14">
    <!-- HUASHUDESIGN (alchaincyf/huashu-design) — $180.27 (+6.60%) -->
    <g style="fill: #c9d1d9" transform="translate(25.454062 15.558281) scale(0.11 -0.11)">
     <defs>
      <path id="DejaVuSans-Bold-2b" d="M 588 4666 
L 1791 4666 
L 1791 2888 
L 3566 2888 
L 3566 4666 
L 4769 4666 
L 4769 0 
L 3566 0 
L 3566 1978 
L 1791 1978 
L 1791 0 
L 588 0 
L 588 4666 
z
" transform="scale(0.015625)"/>
      <path id="DejaVuSans-Bold-38" d="M 588 4666 
L 1791 4666 
L 1791 1869 
Q 1791 1291 1980 1042 
Q 2169 794 2597 794 
Q 3028 794 3217 1042 
Q 3406 1291 3406 1869 
L 3406 4666 
L 4609 4666 
L 4609 1869 
Q 4609 878 4112 393 
Q 3616 -91 2597 -91 
Q 1581 -91 1084 393 
Q 588 878 588 1869 
L 588 4666 
z
" transform="scale(0.015625)"/>
      <path id="DejaVuSans-Bold-24" d="M 3419 850 
L 1538 850 
L 1241 0 
L 31 0 
L 1759 4666 
L 3194 4666 
L 4922 0 
L 3713 0 
L 3419 850 
z
M 1838 1716 
L 3116 1716 
L 2478 3572 
L 1838 1716 
z
" transform="scale(0.015625)"/>
      <path id="DejaVuSans-Bold-36" d="M 3834 4519 
L 3834 3531 
Q 3450 3703 3084 3790 
Q 2719 3878 2394 3878 
Q 1963 3878 1756 3759 
Q 1550 3641 1550 3391 
Q 1550 3203 1689 3098 
Q 1828 2994 2194 2919 
L 2706 2816 
Q 3484 2659 3812 2340 
Q 4141 2022 4141 1434 
Q 4141 663 3683 286 
Q 3225 -91 2284 -91 
Q 1841 -91 1394 -6 
Q 947 78 500 244 
L 500 1259 
Q 947 1022 1364 901 
Q 1781 781 2169 781 
Q 2563 781 2772 912 
Q 2981 1044 2981 1288 
Q 2981 1506 2839 1625 
Q 2697 1744 2272 1838 
L 1806 1941 
Q 1106 2091 782 2419 
Q 459 2747 459 3303 
Q 459 4000 909 4375 
Q 1359 4750 2203 4750 
Q 2588 4750 2994 4692 
Q 3400 4634 3834 4519 
z
" transform="scale(0.015625)"/>
      <path id="DejaVuSans-Bold-27" d="M 1791 3756 
L 1791 909 
L 2222 909 
Q 2959 909 3348 1275 
Q 3738 1641 3738 2338 
Q 3738 3031 3350 3393 
Q 2963 3756 2222 3756 
L 1791 3756 
z
M 588 4666 
L 1856 4666 
Q 2919 4666 3439 4514 
Q 3959 4363 4331 4000 
Q 4659 3684 4818 3271 
Q 4978 2859 4978 2338 
Q 4978 1809 4818 1395 
Q 4659 981 4331 666 
Q 3956 303 3431 151 
Q 2906 0 1856 0 
L 588 0 
L 588 4666 
z
" transform="scale(0.015625)"/>
      <path id="DejaVuSans-Bold-28" d="M 588 4666 
L 3834 4666 
L 3834 3756 
L 1791 3756 
L 1791 2888 
L 3713 2888 
L 3713 1978 
L 1791 1978 
L 1791 909 
L 3903 909 
L 3903 0 
L 588 0 
L 588 4666 
z
" transform="scale(0.015625)"/>
      <path id="DejaVuSans-Bold-2c" d="M 588 4666 
L 1791 4666 
L 1791 0 
L 588 0 
L 588 4666 
z
" transform="scale(0.015625)"/>
      <path id="DejaVuSans-Bold-2a" d="M 4781 347 
Q 4331 128 3847 18 
Q 3363 -91 2847 -91 
Q 1681 -91 1000 561 
Q 319 1213 319 2328 
Q 319 3456 1012 4103 
Q 1706 4750 2913 4750 
Q 3378 4750 3804 4662 
Q 4231 4575 4609 4403 
L 4609 3438 
Q 4219 3659 3833 3768 
Q 3447 3878 3059 3878 
Q 2341 3878 1952 3476 
Q 1563 3075 1563 2328 
Q 1563 1588 1938 1184 
Q 2313 781 3003 781 
Q 3191 781 3352 804 
Q 3513 828 3641 878 
L 3641 1784 
L 2906 1784 
L 2906 2591 
L 4781 2591 
L 4781 347 
z
" transform="scale(0.015625)"/>
      <path id="DejaVuSans-Bold-31" d="M 588 4666 
L 1931 4666 
L 3628 1466 
L 3628 4666 
L 4769 4666 
L 4769 0 
L 3425 0 
L 1728 3200 
L 1728 0 
L 588 0 
L 588 4666 
z
" transform="scale(0.015625)"/>
      <path id="DejaVuSans-Bold-3" transform="scale(0.015625)"/>
      <path id="DejaVuSans-Bold-b" d="M 2413 -844 
L 1484 -844 
Q 1006 -72 778 623 
Q 550 1319 550 2003 
Q 550 2688 779 3389 
Q 1009 4091 1484 4856 
L 2413 4856 
Q 2013 4116 1813 3408 
Q 1613 2700 1613 2009 
Q 1613 1319 1811 609 
Q 2009 -100 2413 -844 
z
" transform="scale(0.015625)"/>
      <path id="DejaVuSans-Bold-44" d="M 2106 1575 
Q 1756 1575 1579 1456 
Q 1403 1338 1403 1106 
Q 1403 894 1545 773 
Q 1688 653 1941 653 
Q 2256 653 2472 879 
Q 2688 1106 2688 1447 
L 2688 1575 
L 2106 1575 
z
M 3816 1997 
L 3816 0 
L 2688 0 
L 2688 519 
Q 2463 200 2181 54 
Q 1900 -91 1497 -91 
Q 953 -91 614 226 
Q 275 544 275 1050 
Q 275 1666 698 1953 
Q 1122 2241 2028 2241 
L 2688 2241 
L 2688 2328 
Q 2688 2594 2478 2717 
Q 2269 2841 1825 2841 
Q 1466 2841 1156 2769 
Q 847 2697 581 2553 
L 581 3406 
Q 941 3494 1303 3539 
Q 1666 3584 2028 3584 
Q 2975 3584 3395 3211 
Q 3816 2838 3816 1997 
z
" transform="scale(0.015625)"/>
      <path id="DejaVuSans-Bold-4f" d="M 538 4863 
L 1656 4863 
L 1656 0 
L 538 0 
L 538 4863 
z
" transform="scale(0.015625)"/>
      <path id="DejaVuSans-Bold-46" d="M 3366 3391 
L 3366 2478 
Q 3138 2634 2908 2709 
Q 2678 2784 2431 2784 
Q 1963 2784 1702 2511 
Q 1441 2238 1441 1747 
Q 1441 1256 1702 982 
Q 1963 709 2431 709 
Q 2694 709 2930 787 
Q 3166 866 3366 1019 
L 3366 103 
Q 3103 6 2833 -42 
Q 2563 -91 2291 -91 
Q 1344 -91 809 395 
Q 275 881 275 1747 
Q 275 2613 809 3098 
Q 1344 3584 2291 3584 
Q 2566 3584 2833 3536 
Q 3100 3488 3366 3391 
z
" transform="scale(0.015625)"/>
      <path id="DejaVuSans-Bold-4b" d="M 4056 2131 
L 4056 0 
L 2931 0 
L 2931 347 
L 2931 1625 
Q 2931 2084 2911 2256 
Q 2891 2428 2841 2509 
Q 2775 2619 2662 2680 
Q 2550 2741 2406 2741 
Q 2056 2741 1856 2470 
Q 1656 2200 1656 1722 
L 1656 0 
L 538 0 
L 538 4863 
L 1656 4863 
L 1656 2988 
Q 1909 3294 2193 3439 
Q 2478 3584 2822 3584 
Q 3428 3584 3742 3212 
Q 4056 2841 4056 2131 
z
" transform="scale(0.015625)"/>
      <path id="DejaVuSans-Bold-4c" d="M 538 3500 
L 1656 3500 
L 1656 0 
L 538 0 
L 538 3500 
z
M 538 4863 
L 1656 4863 
L 1656 3950 
L 538 3950 
L 538 4863 
z
" transform="scale(0.015625)"/>
      <path id="DejaVuSans-Bold-51" d="M 4056 2131 
L 4056 0 
L 2931 0 
L 2931 347 
L 2931 1631 
Q 2931 2084 2911 2256 
Q 2891 2428 2841 2509 
Q 2775 2619 2662 2680 
Q 2550 2741 2406 2741 
Q 2056 2741 1856 2470 
Q 1656 2200 1656 1722 
L 1656 0 
L 538 0 
L 538 3500 
L 1656 3500 
L 1656 2988 
Q 1909 3294 2193 3439 
Q 2478 3584 2822 3584 
Q 3428 3584 3742 3212 
Q 4056 2841 4056 2131 
z
" transform="scale(0.015625)"/>
      <path id="DejaVuSans-Bold-5c" d="M 78 3500 
L 1197 3500 
L 2138 1125 
L 2938 3500 
L 4056 3500 
L 2584 -331 
Q 2363 -916 2067 -1148 
Q 1772 -1381 1288 -1381 
L 641 -1381 
L 641 -647 
L 991 -647 
Q 1275 -647 1404 -556 
Q 1534 -466 1606 -231 
L 1638 -134 
L 78 3500 
z
" transform="scale(0.015625)"/>
      <path id="DejaVuSans-Bold-49" d="M 2841 4863 
L 2841 4128 
L 2222 4128 
Q 1984 4128 1890 4042 
Q 1797 3956 1797 3744 
L 1797 3500 
L 2753 3500 
L 2753 2700 
L 1797 2700 
L 1797 0 
L 678 0 
L 678 2700 
L 122 2700 
L 122 3500 
L 678 3500 
L 678 3744 
Q 678 4316 997 4589 
Q 1316 4863 1984 4863 
L 2841 4863 
z
" transform="scale(0.015625)"/>
      <path id="DejaVuSans-Bold-12" d="M 1644 4666 
L 2338 4666 
L 691 -594 
L 0 -594 
L 1644 4666 
z
" transform="scale(0.015625)"/>
      <path id="DejaVuSans-Bold-58" d="M 500 1363 
L 500 3500 
L 1625 3500 
L 1625 3150 
Q 1625 2866 1622 2436 
Q 1619 2006 1619 1863 
Q 1619 1441 1641 1255 
Q 1663 1069 1716 984 
Q 1784 875 1895 815 
Q 2006 756 2150 756 
Q 2500 756 2700 1025 
Q 2900 1294 2900 1772 
L 2900 3500 
L 4019 3500 
L 4019 0 
L 2900 0 
L 2900 506 
Q 2647 200 2364 54 
Q 2081 -91 1741 -91 
Q 1134 -91 817 281 
Q 500 653 500 1363 
z
" transform="scale(0.015625)"/>
      <path id="DejaVuSans-Bold-56" d="M 3272 3391 
L 3272 2541 
Q 2913 2691 2578 2766 
Q 2244 2841 1947 2841 
Q 1628 2841 1473 2761 
Q 1319 2681 1319 2516 
Q 1319 2381 1436 2309 
Q 1553 2238 1856 2203 
L 2053 2175 
Q 2913 2066 3209 1816 
Q 3506 1566 3506 1031 
Q 3506 472 3093 190 
Q 2681 -91 1863 -91 
Q 1516 -91 1145 -36 
Q 775 19 384 128 
L 384 978 
Q 719 816 1070 734 
Q 1422 653 1784 653 
Q 2113 653 2278 743 
Q 2444 834 2444 1013 
Q 2444 1163 2330 1236 
Q 2216 1309 1875 1350 
L 1678 1375 
Q 931 1469 631 1722 
Q 331 1975 331 2491 
Q 331 3047 712 3315 
Q 1094 3584 1881 3584 
Q 2191 3584 2531 3537 
Q 2872 3491 3272 3391 
z
" transform="scale(0.015625)"/>
      <path id="DejaVuSans-Bold-10" d="M 347 2297 
L 2309 2297 
L 2309 1388 
L 347 1388 
L 347 2297 
z
" transform="scale(0.015625)"/>
      <path id="DejaVuSans-Bold-47" d="M 2919 2988 
L 2919 4863 
L 4044 4863 
L 4044 0 
L 2919 0 
L 2919 506 
Q 2688 197 2409 53 
Q 2131 -91 1766 -91 
Q 1119 -91 703 423 
Q 288 938 288 1747 
Q 288 2556 703 3070 
Q 1119 3584 1766 3584 
Q 2128 3584 2408 3439 
Q 2688 3294 2919 2988 
z
M 2181 722 
Q 2541 722 2730 984 
Q 2919 1247 2919 1747 
Q 2919 2247 2730 2509 
Q 2541 2772 2181 2772 
Q 1825 2772 1636 2509 
Q 1447 2247 1447 1747 
Q 1447 1247 1636 984 
Q 1825 722 2181 722 
z
" transform="scale(0.015625)"/>
      <path id="DejaVuSans-Bold-48" d="M 4031 1759 
L 4031 1441 
L 1416 1441 
Q 1456 1047 1700 850 
Q 1944 653 2381 653 
Q 2734 653 3104 758 
Q 3475 863 3866 1075 
L 3866 213 
Q 3469 63 3072 -14 
Q 2675 -91 2278 -91 
Q 1328 -91 801 392 
Q 275 875 275 1747 
Q 275 2603 792 3093 
Q 1309 3584 2216 3584 
Q 3041 3584 3536 3087 
Q 4031 2591 4031 1759 
z
M 2881 2131 
Q 2881 2450 2695 2645 
Q 2509 2841 2209 2841 
Q 1884 2841 1681 2658 
Q 1478 2475 1428 2131 
L 2881 2131 
z
" transform="scale(0.015625)"/>
      <path id="DejaVuSans-Bold-4a" d="M 2919 594 
Q 2688 288 2409 144 
Q 2131 0 1766 0 
Q 1125 0 706 504 
Q 288 1009 288 1791 
Q 288 2575 706 3076 
Q 1125 3578 1766 3578 
Q 2131 3578 2409 3434 
Q 2688 3291 2919 2981 
L 2919 3500 
L 4044 3500 
L 4044 353 
Q 4044 -491 3511 -936 
Q 2978 -1381 1966 -1381 
Q 1638 -1381 1331 -1331 
Q 1025 -1281 716 -1178 
L 716 -306 
Q 1009 -475 1290 -558 
Q 1572 -641 1856 -641 
Q 2406 -641 2662 -400 
Q 2919 -159 2919 353 
L 2919 594 
z
M 2181 2772 
Q 1834 2772 1640 2515 
Q 1447 2259 1447 1791 
Q 1447 1309 1634 1061 
Q 1822 813 2181 813 
Q 2531 813 2725 1069 
Q 2919 1325 2919 1791 
Q 2919 2259 2725 2515 
Q 2531 2772 2181 2772 
z
" transform="scale(0.015625)"/>
      <path id="DejaVuSans-Bold-c" d="M 513 -844 
Q 913 -100 1113 609 
Q 1313 1319 1313 2009 
Q 1313 2700 1113 3408 
Q 913 4116 513 4856 
L 1441 4856 
Q 1916 4091 2145 3389 
Q 2375 2688 2375 2003 
Q 2375 1319 2147 623 
Q 1919 -72 1441 -844 
L 513 -844 
z
" transform="scale(0.015625)"/>
      <path id="DejaVuSans-Bold-af6" d="M 344 2156 
L 6056 2156 
L 6056 1350 
L 344 1350 
L 344 2156 
z
" transform="scale(0.015625)"/>
      <path id="DejaVuSans-Bold-7" d="M 2484 -941 
L 1978 -941 
L 1975 0 
Q 1584 16 1218 87 
Q 853 159 506 288 
L 506 1106 
Q 866 922 1233 823 
Q 1600 725 1978 713 
L 1978 1684 
L 1875 1703 
Q 1128 1834 814 2115 
Q 500 2397 500 2925 
Q 500 3484 883 3798 
Q 1266 4113 1975 4141 
L 1978 4863 
L 2484 4863 
L 2484 4153 
Q 2797 4128 3109 4075 
Q 3422 4022 3738 3938 
L 3738 3144 
Q 3425 3275 3112 3348 
Q 2800 3422 2484 3438 
L 2484 2541 
L 2584 2522 
Q 3378 2397 3698 2105 
Q 4019 1813 4019 1241 
Q 4019 666 3637 358 
Q 3256 50 2484 6 
L 2484 -941 
z
M 1978 2613 
L 1978 3428 
Q 1756 3416 1623 3308 
Q 1491 3200 1491 3034 
Q 1491 2850 1612 2745 
Q 1734 2641 1978 2613 
z
M 2484 1594 
L 2484 725 
Q 2756 728 2892 831 
Q 3028 934 3028 1141 
Q 3028 1353 2903 1458 
Q 2778 1563 2484 1594 
z
" transform="scale(0.015625)"/>
      <path id="DejaVuSans-Bold-14" d="M 750 831 
L 1813 831 
L 1813 3847 
L 722 3622 
L 722 4441 
L 1806 4666 
L 2950 4666 
L 2950 831 
L 4013 831 
L 4013 0 
L 750 0 
L 750 831 
z
" transform="scale(0.015625)"/>
      <path id="DejaVuSans-Bold-1b" d="M 2228 2088 
Q 1891 2088 1709 1903 
Q 1528 1719 1528 1375 
Q 1528 1031 1709 848 
Q 1891 666 2228 666 
Q 2563 666 2741 848 
Q 2919 1031 2919 1375 
Q 2919 1722 2741 1905 
Q 2563 2088 2228 2088 
z
M 1350 2484 
Q 925 2613 709 2878 
Q 494 3144 494 3541 
Q 494 4131 934 4440 
Q 1375 4750 2228 4750 
Q 3075 4750 3515 4442 
Q 3956 4134 3956 3541 
Q 3956 3144 3739 2878 
Q 3522 2613 3097 2484 
Q 3572 2353 3814 2058 
Q 4056 1763 4056 1313 
Q 4056 619 3595 264 
Q 3134 -91 2228 -91 
Q 1319 -91 855 264 
Q 391 619 391 1313 
Q 391 1763 633 2058 
Q 875 2353 1350 2484 
z
M 1631 3419 
Q 1631 3141 1786 2991 
Q 1941 2841 2228 2841 
Q 2509 2841 2662 2991 
Q 2816 3141 2816 3419 
Q 2816 3697 2662 3845 
Q 2509 3994 2228 3994 
Q 1941 3994 1786 3844 
Q 1631 3694 1631 3419 
z
" transform="scale(0.015625)"/>
      <path id="DejaVuSans-Bold-13" d="M 2944 2338 
Q 2944 3213 2780 3570 
Q 2616 3928 2228 3928 
Q 1841 3928 1675 3570 
Q 1509 3213 1509 2338 
Q 1509 1453 1675 1090 
Q 1841 728 2228 728 
Q 2613 728 2778 1090 
Q 2944 1453 2944 2338 
z
M 4147 2328 
Q 4147 1169 3647 539 
Q 3147 -91 2228 -91 
Q 1306 -91 806 539 
Q 306 1169 306 2328 
Q 306 3491 806 4120 
Q 1306 4750 2228 4750 
Q 3147 4750 3647 4120 
Q 4147 3491 4147 2328 
z
" transform="scale(0.015625)"/>
      <path id="DejaVuSans-Bold-11" d="M 653 1209 
L 1778 1209 
L 1778 0 
L 653 0 
L 653 1209 
z
" transform="scale(0.015625)"/>
      <path id="DejaVuSans-Bold-15" d="M 1844 884 
L 3897 884 
L 3897 0 
L 506 0 
L 506 884 
L 2209 2388 
Q 2438 2594 2547 2791 
Q 2656 2988 2656 3200 
Q 2656 3528 2436 3728 
Q 2216 3928 1850 3928 
Q 1569 3928 1234 3808 
Q 900 3688 519 3450 
L 519 4475 
Q 925 4609 1322 4679 
Q 1719 4750 2100 4750 
Q 2938 4750 3402 4381 
Q 3866 4013 3866 3353 
Q 3866 2972 3669 2642 
Q 3472 2313 2841 1759 
L 1844 884 
z
" transform="scale(0.015625)"/>
      <path id="DejaVuSans-Bold-1a" d="M 428 4666 
L 3944 4666 
L 3944 3988 
L 2125 0 
L 953 0 
L 2675 3781 
L 428 3781 
L 428 4666 
z
" transform="scale(0.015625)"/>
      <path id="DejaVuSans-Bold-e" d="M 3053 4013 
L 3053 2375 
L 4684 2375 
L 4684 1638 
L 3053 1638 
L 3053 0 
L 2309 0 
L 2309 1638 
L 678 1638 
L 678 2375 
L 2309 2375 
L 2309 4013 
L 3053 4013 
z
" transform="scale(0.015625)"/>
      <path id="DejaVuSans-Bold-19" d="M 2316 2303 
Q 2000 2303 1842 2098 
Q 1684 1894 1684 1484 
Q 1684 1075 1842 870 
Q 2000 666 2316 666 
Q 2634 666 2792 870 
Q 2950 1075 2950 1484 
Q 2950 1894 2792 2098 
Q 2634 2303 2316 2303 
z
M 3803 4544 
L 3803 3681 
Q 3506 3822 3243 3889 
Q 2981 3956 2731 3956 
Q 2194 3956 1894 3657 
Q 1594 3359 1544 2772 
Q 1750 2925 1990 3001 
Q 2231 3078 2516 3078 
Q 3231 3078 3670 2659 
Q 4109 2241 4109 1563 
Q 4109 813 3618 361 
Q 3128 -91 2303 -91 
Q 1394 -91 895 523 
Q 397 1138 397 2266 
Q 397 3422 980 4083 
Q 1563 4744 2578 4744 
Q 2900 4744 3203 4694 
Q 3506 4644 3803 4544 
z
" transform="scale(0.015625)"/>
      <path id="DejaVuSans-Bold-8" d="M 4959 1925 
Q 4738 1925 4616 1733 
Q 4494 1541 4494 1184 
Q 4494 825 4614 633 
Q 4734 441 4959 441 
Q 5184 441 5303 633 
Q 5422 825 5422 1184 
Q 5422 1541 5301 1733 
Q 5181 1925 4959 1925 
z
M 4959 2450 
Q 5541 2450 5875 2112 
Q 6209 1775 6209 1184 
Q 6209 594 5875 251 
Q 5541 -91 4959 -91 
Q 4378 -91 4042 251 
Q 3706 594 3706 1184 
Q 3706 1772 4042 2111 
Q 4378 2450 4959 2450 
z
M 2094 -91 
L 1403 -91 
L 4319 4750 
L 5013 4750 
L 2094 -91 
z
M 1453 4750 
Q 2034 4750 2367 4411 
Q 2700 4072 2700 3481 
Q 2700 2891 2367 2550 
Q 2034 2209 1453 2209 
Q 872 2209 539 2550 
Q 206 2891 206 3481 
Q 206 4072 539 4411 
Q 872 4750 1453 4750 
z
M 1453 4225 
Q 1228 4225 1106 4031 
Q 984 3838 984 3481 
Q 984 3122 1106 2926 
Q 1228 2731 1453 2731 
Q 1678 2731 1798 2926 
Q 1919 3122 1919 3481 
Q 1919 3838 1797 4031 
Q 1675 4225 1453 4225 
z
" transform="scale(0.015625)"/>
     </defs>
     <use xlink:href="#DejaVuSans-Bold-2b"/>
     <use xlink:href="#DejaVuSans-Bold-38" transform="translate(83.6875 0)"/>
     <use xlink:href="#DejaVuSans-Bold-24" transform="translate(161.8125 0)"/>
     <use xlink:href="#DejaVuSans-Bold-36" transform="translate(239.203125 0)"/>
     <use xlink:href="#DejaVuSans-Bold-2b" transform="translate(311.21875 0)"/>
     <use xlink:href="#DejaVuSans-Bold-38" transform="translate(394.90625 0)"/>
     <use xlink:href="#DejaVuSans-Bold-27" transform="translate(476.109375 0)"/>
     <use xlink:href="#DejaVuSans-Bold-28" transform="translate(559.125 0)"/>
     <use xlink:href="#DejaVuSans-Bold-36" transform="translate(627.4375 0)"/>
     <use xlink:href="#DejaVuSans-Bold-2c" transform="translate(699.453125 0)"/>
     <use xlink:href="#DejaVuSans-Bold-2a" transform="translate(736.65625 0)"/>
     <use xlink:href="#DejaVuSans-Bold-31" transform="translate(818.734375 0)"/>
     <use xlink:href="#DejaVuSans-Bold-3" transform="translate(902.421875 0)"/>
     <use xlink:href="#DejaVuSans-Bold-b" transform="translate(937.234375 0)"/>
     <use xlink:href="#DejaVuSans-Bold-44" transform="translate(982.9375 0)"/>
     <use xlink:href="#DejaVuSans-Bold-4f" transform="translate(1050.421875 0)"/>
     <use xlink:href="#DejaVuSans-Bold-46" transform="translate(1084.703125 0)"/>
     <use xlink:href="#DejaVuSans-Bold-4b" transform="translate(1143.984375 0)"/>
     <use xlink:href="#DejaVuSans-Bold-44" transform="translate(1215.171875 0)"/>
     <use xlink:href="#DejaVuSans-Bold-4c" transform="translate(1282.65625 0)"/>
     <use xlink:href="#DejaVuSans-Bold-51" transform="translate(1316.9375 0)"/>
     <use xlink:href="#DejaVuSans-Bold-46" transform="translate(1388.125 0)"/>
     <use xlink:href="#DejaVuSans-Bold-5c" transform="translate(1447.40625 0)"/>
     <use xlink:href="#DejaVuSans-Bold-49" transform="translate(1512.59375 0)"/>
     <use xlink:href="#DejaVuSans-Bold-12" transform="translate(1556.09375 0)"/>
     <use xlink:href="#DejaVuSans-Bold-4b" transform="translate(1592.625 0)"/>
     <use xlink:href="#DejaVuSans-Bold-58" transform="translate(1663.8125 0)"/>
     <use xlink:href="#DejaVuSans-Bold-44" transform="translate(1735 0)"/>
     <use xlink:href="#DejaVuSans-Bold-56" transform="translate(1802.484375 0)"/>
     <use xlink:href="#DejaVuSans-Bold-4b" transform="translate(1862 0)"/>
     <use xlink:href="#DejaVuSans-Bold-58" transform="translate(1933.1875 0)"/>
     <use xlink:href="#DejaVuSans-Bold-10" transform="translate(2004.375 0)"/>
     <use xlink:href="#DejaVuSans-Bold-47" transform="translate(2045.875 0)"/>
     <use xlink:href="#DejaVuSans-Bold-48" transform="translate(2117.453125 0)"/>
     <use xlink:href="#DejaVuSans-Bold-56" transform="translate(2185.28125 0)"/>
     <use xlink:href="#DejaVuSans-Bold-4c" transform="translate(2244.796875 0)"/>
     <use xlink:href="#DejaVuSans-Bold-4a" transform="translate(2279.078125 0)"/>
     <use xlink:href="#DejaVuSans-Bold-51" transform="translate(2350.65625 0)"/>
     <use xlink:href="#DejaVuSans-Bold-c" transform="translate(2421.84375 0)"/>
     <use xlink:href="#DejaVuSans-Bold-3" transform="translate(2467.546875 0)"/>
     <use xlink:href="#DejaVuSans-Bold-af6" transform="translate(2502.359375 0)"/>
     <use xlink:href="#DejaVuSans-Bold-3" transform="translate(2602.359375 0)"/>
     <use xlink:href="#DejaVuSans-Bold-7" transform="translate(2637.171875 0)"/>
     <use xlink:href="#DejaVuSans-Bold-14" transform="translate(2706.75 0)"/>
     <use xlink:href="#DejaVuSans-Bold-1b" transform="translate(2776.328125 0)"/>
     <use xlink:href="#DejaVuSans-Bold-13" transform="translate(2845.90625 0)"/>
     <use xlink:href="#DejaVuSans-Bold-11" transform="translate(2915.484375 0)"/>
     <use xlink:href="#DejaVuSans-Bold-15" transform="translate(2953.46875 0)"/>
     <use xlink:href="#DejaVuSans-Bold-1a" transform="translate(3023.046875 0)"/>
     <use xlink:href="#DejaVuSans-Bold-3" transform="translate(3092.625 0)"/>
     <use xlink:href="#DejaVuSans-Bold-b" transform="translate(3127.4375 0)"/>
     <use xlink:href="#DejaVuSans-Bold-e" transform="translate(3173.140625 0)"/>
     <use xlink:href="#DejaVuSans-Bold-19" transform="translate(3256.9375 0)"/>
     <use xlink:href="#DejaVuSans-Bold-11" transform="translate(3326.515625 0)"/>
     <use xlink:href="#DejaVuSans-Bold-19" transform="translate(3364.5 0)"/>
     <use xlink:href="#DejaVuSans-Bold-13" transform="translate(3434.078125 0)"/>
     <use xlink:href="#DejaVuSans-Bold-8" transform="translate(3503.65625 0)"/>
     <use xlink:href="#DejaVuSans-Bold-c" transform="translate(3603.859375 0)"/>
    </g>
   </g>
  </g>
 </g>
 <defs>
  <clipPath id="p2b7404a366">
   <rect x="34.56" y="21.558281" width="383.24" height="128.76"/>
  </clipPath>
 </defs>
</svg>
