<?xml version="1.0" encoding="utf-8" standalone="no"?>
<!DOCTYPE svg PUBLIC "-//W3C//DTD SVG 1.1//EN"
  "http://www.w3.org/Graphics/SVG/1.1/DTD/svg11.dtd">
<svg xmlns:xlink="http://www.w3.org/1999/xlink" width="427.604766pt" height="172.518281pt" viewBox="0 0 427.604766 172.518281" xmlns="http://www.w3.org/2000/svg" version="1.1">
 <metadata>
  <rdf:RDF xmlns:dc="http://purl.org/dc/elements/1.1/" xmlns:cc="http://creativecommons.org/ns#" xmlns:rdf="http://www.w3.org/1999/02/22-rdf-syntax-ns#">
   <cc:Work>
    <dc:type rdf:resource="http://purl.org/dc/dcmitype/StillImage"/>
    <dc:date>2026-09-23T04:43:48.052608</dc:date>
    <dc:format>image/svg+xml</dc:format>
    <dc:creator>
     <cc:Agent>
      <dc:title>Matplotlib v3.11.2, https://matplotlib.org/</dc:title>
     </cc:Agent>
    </dc:creator>
   </cc:Work>
  </rdf:RDF>
 </metadata>
 <defs>
  <style type="text/css">*{stroke-linejoin: round; stroke-linecap: butt}</style>
 </defs>
 <g id="figure_1">
  <g id="patch_1">
   <path d="M 0 172.518281 
L 427.604766 172.518281 
L 427.604766 0 
L 0 0 
z
" style="fill: #0d1117"/>
  </g>
  <g id="axes_1">
   <g id="patch_2">
    <path d="M 34.56 150.318281 
L 417.8 150.318281 
L 417.8 21.558281 
L 34.56 21.558281 
z
" style="fill: #0d1117"/>
   </g>
   <g id="FillBetweenPolyCollection_1">
    <defs>
     <path id="mc78e9cb282" d="M 51.98 -28.052727 
L 51.98 -136.18935 
L 53.086032 -134.456392 
L 54.192063 -137.42384 
L 55.298095 -129.565164 
L 56.404127 -139.705894 
L 57.510159 -137.700335 
L 58.61619 -135.231355 
L 59.722222 -140.952066 
L 60.828254 -135.718141 
L 61.934286 -141.357072 
L 63.040317 -134.230523 
L 64.146349 -139.565699 
L 65.252381 -137.665286 
L 66.358413 -136.434691 
L 67.464444 -141.065001 
L 68.570476 -135.079478 
L 69.676508 -138.366258 
L 70.78254 -136.707291 
L 71.888571 -136.208822 
L 72.994603 -140.142054 
L 74.100635 -138.019666 
L 75.206667 -135.729824 
L 76.312698 -139.413822 
L 77.41873 -139.137327 
L 78.524762 -133.303682 
L 79.630794 -140.648312 
L 80.736825 -132.485881 
L 81.842857 -141.006586 
L 82.948889 -132.844156 
L 84.054921 -119.53737 
L 85.160952 -143.97014 
L 86.266984 -115.600243 
L 87.373016 -144.316732 
L 88.479048 -119.198567 
L 89.585079 -138.288372 
L 90.691111 -122.98771 
L 91.797143 -144.157066 
L 92.903175 -127.5635 
L 94.009206 -123.599113 
L 95.115238 -140.087534 
L 96.22127 -129.140687 
L 97.327302 -136.683925 
L 98.433333 -137.252491 
L 99.539365 -132.446938 
L 100.645397 -138.409095 
L 101.751429 -133.182959 
L 102.85746 -136.715079 
L 103.963492 -139.503391 
L 105.069524 -137.653603 
L 106.175556 -135.044429 
L 107.281587 -139.433293 
L 108.387619 -131.777121 
L 109.493651 -139.03997 
L 110.599683 -138.140389 
L 111.705714 -136.804648 
L 112.811746 -137.049988 
L 113.917778 -136.10757 
L 115.02381 -139.032182 
L 116.129841 -127.489508 
L 117.235873 -139.184059 
L 118.341905 -136.185456 
L 119.447937 -129.814399 
L 120.553968 -142.21771 
L 121.66 -135.26251 
L 122.766032 -136.321756 
L 123.872063 -131.42274 
L 124.978095 -131.087832 
L 126.084127 -128.459186 
L 127.190159 -129.802716 
L 128.29619 -137.431629 
L 129.402222 -137.046094 
L 130.508254 -135.246932 
L 131.614286 -134.974332 
L 132.720317 -141.730924 
L 133.826349 -138.105341 
L 134.932381 -132.980456 
L 136.038413 -137.088931 
L 137.144444 -139.635796 
L 138.250476 -138.338998 
L 139.356508 -134.390189 
L 140.46254 -138.226064 
L 141.568571 -137.279751 
L 142.674603 -132.154867 
L 143.780635 -137.731489 
L 144.886667 -135.951799 
L 145.992698 -132.809107 
L 147.09873 -140.543166 
L 148.204762 -138.175438 
L 149.310794 -129.238044 
L 150.416825 -138.720638 
L 151.522857 -134.5187 
L 152.628889 -131.309806 
L 153.734921 -141.621884 
L 154.840952 -134.608269 
L 155.946984 -132.349581 
L 157.053016 -142.10867 
L 158.159048 -133.202431 
L 159.265079 -142.833008 
L 160.371111 -134.631635 
L 161.477143 -142.322856 
L 162.583175 -133.315365 
L 163.689206 -139.577382 
L 164.795238 -140.239411 
L 165.90127 -139.090596 
L 167.007302 -139.351513 
L 168.113333 -138.023561 
L 169.219365 -130.460851 
L 170.325397 -139.577382 
L 171.431429 -135.036641 
L 172.53746 -141.742607 
L 173.643492 -133.373779 
L 174.749524 -133.67364 
L 175.855556 -139.382668 
L 176.961587 -135.021064 
L 178.067619 -137.739278 
L 179.173651 -139.904502 
L 180.279683 -133.202431 
L 181.385714 -140.212151 
L 182.491746 -137.427734 
L 183.597778 -141.399909 
L 184.70381 -129.880602 
L 185.809841 -141.789338 
L 186.915873 -136.438585 
L 188.021905 -135.087267 
L 189.127937 -139.846088 
L 190.233968 -136.477528 
L 191.34 -131.1774 
L 192.446032 -144.020766 
L 193.552063 -136.859168 
L 194.658095 -135.912856 
L 195.764127 -139.721471 
L 196.870159 -134.740675 
L 197.97619 -135.31703 
L 199.082222 -140.800189 
L 200.188254 -135.733719 
L 201.294286 -132.544296 
L 202.400317 -142.24497 
L 203.506349 -135.811604 
L 204.612381 -131.169612 
L 205.718413 -141.255821 
L 206.824444 -131.348749 
L 207.930476 -138.132601 
L 209.036508 -130.098682 
L 210.14254 -133.015505 
L 211.248571 -136.532048 
L 212.354603 -133.965711 
L 213.460635 -131.23192 
L 214.566667 -137.676969 
L 215.672698 -134.662789 
L 216.77873 -134.417449 
L 217.884762 -134.043597 
L 218.990794 -130.429697 
L 220.096825 -140.772929 
L 221.202857 -129.051118 
L 222.308889 -134.697838 
L 223.414921 -130.807443 
L 224.520952 -134.939284 
L 225.626984 -133.151805 
L 226.733016 -134.604375 
L 227.839048 -135.137892 
L 228.945079 -142.256653 
L 230.051111 -134.207157 
L 231.157143 -136.02579 
L 232.263175 -141.968476 
L 233.369206 -136.929265 
L 234.475238 -130.589363 
L 235.58127 -139.06723 
L 236.687302 -136.609934 
L 237.793333 -130.351811 
L 238.899365 -145.107273 
L 240.005397 -134.666683 
L 241.111429 -131.827746 
L 242.21746 -139.016604 
L 243.323492 -136.711185 
L 244.429524 -137.454994 
L 245.535556 -137.12398 
L 246.641587 -138.856939 
L 247.747619 -141.524527 
L 248.853651 -137.980723 
L 249.959683 -139.616325 
L 251.065714 -139.690316 
L 252.171746 -135.628573 
L 253.277778 -135.531216 
L 254.38381 -139.152905 
L 255.489841 -139.900608 
L 256.595873 -135.831076 
L 257.701905 -138.790736 
L 258.807937 -136.609934 
L 259.913968 -137.676969 
L 261.02 -128.050286 
L 262.126032 -142.40853 
L 263.232063 -134.791301 
L 264.338095 -120.063099 
L 265.444127 -137.388791 
L 266.550159 -136.820225 
L 267.65619 -124.206622 
L 268.762222 -142.132036 
L 269.868254 -134.869186 
L 270.974286 -139.857771 
L 272.080317 -137.353743 
L 273.186349 -135.56237 
L 274.292381 -128.252789 
L 275.398413 -142.708391 
L 276.504444 -132.92983 
L 277.610476 -123.09675 
L 278.716508 -132.131501 
L 279.82254 -127.793263 
L 280.928571 -129.327613 
L 282.034603 -135.352078 
L 283.140635 -133.128439 
L 284.246667 -124.9037 
L 285.352698 -140.963749 
L 286.45873 -132.583239 
L 287.564762 -120.884794 
L 288.670794 -139.951234 
L 289.776825 -137.579612 
L 290.882857 -138.198804 
L 291.988889 -136.13483 
L 293.094921 -137.700335 
L 294.200952 -127.100079 
L 295.306984 -143.662491 
L 296.413016 -134.557643 
L 297.519048 -127.649174 
L 298.625079 -142.482522 
L 299.731111 -136.882534 
L 300.837143 -124.265037 
L 301.943175 -138.533713 
L 303.049206 -138.039138 
L 304.155238 -120.125407 
L 305.26127 -139.44887 
L 306.367302 -139.923974 
L 307.473333 -129.09785 
L 308.579365 -139.900608 
L 309.685397 -136.792965 
L 310.791429 -119.112892 
L 311.89746 -138.374047 
L 313.003492 -132.318427 
L 314.109524 -141.649144 
L 315.215556 -139.406033 
L 316.321587 -138.592127 
L 317.427619 -134.320092 
L 318.533651 -136.458056 
L 319.639683 -134.658895 
L 320.745714 -143.035511 
L 321.851746 -134.908129 
L 322.957778 -139.133433 
L 324.06381 -135.542898 
L 325.169841 -140.60158 
L 326.275873 -136.442479 
L 327.381905 -139.164587 
L 328.487937 -137.988512 
L 329.593968 -136.255553 
L 330.7 -140.161525 
L 331.806032 -126.017467 
L 332.912063 -139.920079 
L 334.018095 -134.526489 
L 335.124127 -119.163518 
L 336.230159 -135.799921 
L 337.33619 -128.887558 
L 338.442222 -139.818828 
L 339.548254 -123.400505 
L 340.654286 -144.947607 
L 341.760317 -123.018864 
L 342.866349 -141.987947 
L 343.972381 -129.639156 
L 345.078413 -141.022163 
L 346.184444 -132.010778 
L 347.290476 -136.948737 
L 348.396508 -135.823287 
L 349.50254 -137.556246 
L 350.608571 -135.001592 
L 351.714603 -137.295329 
L 352.820635 -140.32898 
L 353.926667 -133.058342 
L 355.032698 -142.852479 
L 356.13873 -136.177668 
L 357.244762 -138.035243 
L 358.350794 -135.180729 
L 359.456825 -138.798524 
L 360.562857 -135.702564 
L 361.668889 -138.459721 
L 362.774921 -140.613263 
L 363.880952 -135.686987 
L 364.986984 -136.695608 
L 366.093016 -138.786841 
L 367.199048 -138.599915 
L 368.305079 -137.256386 
L 369.411111 -137.147346 
L 370.517143 -125.503421 
L 371.623175 -140.30172 
L 372.729206 -133.833305 
L 373.835238 -124.120948 
L 374.94127 -140.079745 
L 376.047302 -133.455559 
L 377.153333 -123.517333 
L 378.259365 -138.724533 
L 379.365397 -139.207425 
L 380.471429 -121.324848 
L 381.57746 -138.296161 
L 382.683492 -139.032182 
L 383.789524 -123.945705 
L 384.895556 -142.49031 
L 386.001587 -133.12065 
L 387.107619 -133.206325 
L 388.213651 -137.038305 
L 389.319683 -133.062236 
L 390.425714 -129.160158 
L 391.531746 -135.990742 
L 392.637778 -133.268633 
L 393.74381 -120.510942 
L 394.849841 -142.459156 
L 395.955873 -119.070055 
L 397.061905 -142.482522 
L 398.167937 -134.947072 
L 399.273968 -142.649976 
L 400.38 -130.316762 
L 400.38 -28.052727 
L 400.38 -28.052727 
L 399.273968 -28.052727 
L 398.167937 -28.052727 
L 397.061905 -28.052727 
L 395.955873 -28.052727 
L 394.849841 -28.052727 
L 393.74381 -28.052727 
L 392.637778 -28.052727 
L 391.531746 -28.052727 
L 390.425714 -28.052727 
L 389.319683 -28.052727 
L 388.213651 -28.052727 
L 387.107619 -28.052727 
L 386.001587 -28.052727 
L 384.895556 -28.052727 
L 383.789524 -28.052727 
L 382.683492 -28.052727 
L 381.57746 -28.052727 
L 380.471429 -28.052727 
L 379.365397 -28.052727 
L 378.259365 -28.052727 
L 377.153333 -28.052727 
L 376.047302 -28.052727 
L 374.94127 -28.052727 
L 373.835238 -28.052727 
L 372.729206 -28.052727 
L 371.623175 -28.052727 
L 370.517143 -28.052727 
L 369.411111 -28.052727 
L 368.305079 -28.052727 
L 367.199048 -28.052727 
L 366.093016 -28.052727 
L 364.986984 -28.052727 
L 363.880952 -28.052727 
L 362.774921 -28.052727 
L 361.668889 -28.052727 
L 360.562857 -28.052727 
L 359.456825 -28.052727 
L 358.350794 -28.052727 
L 357.244762 -28.052727 
L 356.13873 -28.052727 
L 355.032698 -28.052727 
L 353.926667 -28.052727 
L 352.820635 -28.052727 
L 351.714603 -28.052727 
L 350.608571 -28.052727 
L 349.50254 -28.052727 
L 348.396508 -28.052727 
L 347.290476 -28.052727 
L 346.184444 -28.052727 
L 345.078413 -28.052727 
L 343.972381 -28.052727 
L 342.866349 -28.052727 
L 341.760317 -28.052727 
L 340.654286 -28.052727 
L 339.548254 -28.052727 
L 338.442222 -28.052727 
L 337.33619 -28.052727 
L 336.230159 -28.052727 
L 335.124127 -28.052727 
L 334.018095 -28.052727 
L 332.912063 -28.052727 
L 331.806032 -28.052727 
L 330.7 -28.052727 
L 329.593968 -28.052727 
L 328.487937 -28.052727 
L 327.381905 -28.052727 
L 326.275873 -28.052727 
L 325.169841 -28.052727 
L 324.06381 -28.052727 
L 322.957778 -28.052727 
L 321.851746 -28.052727 
L 320.745714 -28.052727 
L 319.639683 -28.052727 
L 318.533651 -28.052727 
L 317.427619 -28.052727 
L 316.321587 -28.052727 
L 315.215556 -28.052727 
L 314.109524 -28.052727 
L 313.003492 -28.052727 
L 311.89746 -28.052727 
L 310.791429 -28.052727 
L 309.685397 -28.052727 
L 308.579365 -28.052727 
L 307.473333 -28.052727 
L 306.367302 -28.052727 
L 305.26127 -28.052727 
L 304.155238 -28.052727 
L 303.049206 -28.052727 
L 301.943175 -28.052727 
L 300.837143 -28.052727 
L 299.731111 -28.052727 
L 298.625079 -28.052727 
L 297.519048 -28.052727 
L 296.413016 -28.052727 
L 295.306984 -28.052727 
L 294.200952 -28.052727 
L 293.094921 -28.052727 
L 291.988889 -28.052727 
L 290.882857 -28.052727 
L 289.776825 -28.052727 
L 288.670794 -28.052727 
L 287.564762 -28.052727 
L 286.45873 -28.052727 
L 285.352698 -28.052727 
L 284.246667 -28.052727 
L 283.140635 -28.052727 
L 282.034603 -28.052727 
L 280.928571 -28.052727 
L 279.82254 -28.052727 
L 278.716508 -28.052727 
L 277.610476 -28.052727 
L 276.504444 -28.052727 
L 275.398413 -28.052727 
L 274.292381 -28.052727 
L 273.186349 -28.052727 
L 272.080317 -28.052727 
L 270.974286 -28.052727 
L 269.868254 -28.052727 
L 268.762222 -28.052727 
L 267.65619 -28.052727 
L 266.550159 -28.052727 
L 265.444127 -28.052727 
L 264.338095 -28.052727 
L 263.232063 -28.052727 
L 262.126032 -28.052727 
L 261.02 -28.052727 
L 259.913968 -28.052727 
L 258.807937 -28.052727 
L 257.701905 -28.052727 
L 256.595873 -28.052727 
L 255.489841 -28.052727 
L 254.38381 -28.052727 
L 253.277778 -28.052727 
L 252.171746 -28.052727 
L 251.065714 -28.052727 
L 249.959683 -28.052727 
L 248.853651 -28.052727 
L 247.747619 -28.052727 
L 246.641587 -28.052727 
L 245.535556 -28.052727 
L 244.429524 -28.052727 
L 243.323492 -28.052727 
L 242.21746 -28.052727 
L 241.111429 -28.052727 
L 240.005397 -28.052727 
L 238.899365 -28.052727 
L 237.793333 -28.052727 
L 236.687302 -28.052727 
L 235.58127 -28.052727 
L 234.475238 -28.052727 
L 233.369206 -28.052727 
L 232.263175 -28.052727 
L 231.157143 -28.052727 
L 230.051111 -28.052727 
L 228.945079 -28.052727 
L 227.839048 -28.052727 
L 226.733016 -28.052727 
L 225.626984 -28.052727 
L 224.520952 -28.052727 
L 223.414921 -28.052727 
L 222.308889 -28.052727 
L 221.202857 -28.052727 
L 220.096825 -28.052727 
L 218.990794 -28.052727 
L 217.884762 -28.052727 
L 216.77873 -28.052727 
L 215.672698 -28.052727 
L 214.566667 -28.052727 
L 213.460635 -28.052727 
L 212.354603 -28.052727 
L 211.248571 -28.052727 
L 210.14254 -28.052727 
L 209.036508 -28.052727 
L 207.930476 -28.052727 
L 206.824444 -28.052727 
L 205.718413 -28.052727 
L 204.612381 -28.052727 
L 203.506349 -28.052727 
L 202.400317 -28.052727 
L 201.294286 -28.052727 
L 200.188254 -28.052727 
L 199.082222 -28.052727 
L 197.97619 -28.052727 
L 196.870159 -28.052727 
L 195.764127 -28.052727 
L 194.658095 -28.052727 
L 193.552063 -28.052727 
L 192.446032 -28.052727 
L 191.34 -28.052727 
L 190.233968 -28.052727 
L 189.127937 -28.052727 
L 188.021905 -28.052727 
L 186.915873 -28.052727 
L 185.809841 -28.052727 
L 184.70381 -28.052727 
L 183.597778 -28.052727 
L 182.491746 -28.052727 
L 181.385714 -28.052727 
L 180.279683 -28.052727 
L 179.173651 -28.052727 
L 178.067619 -28.052727 
L 176.961587 -28.052727 
L 175.855556 -28.052727 
L 174.749524 -28.052727 
L 173.643492 -28.052727 
L 172.53746 -28.052727 
L 171.431429 -28.052727 
L 170.325397 -28.052727 
L 169.219365 -28.052727 
L 168.113333 -28.052727 
L 167.007302 -28.052727 
L 165.90127 -28.052727 
L 164.795238 -28.052727 
L 163.689206 -28.052727 
L 162.583175 -28.052727 
L 161.477143 -28.052727 
L 160.371111 -28.052727 
L 159.265079 -28.052727 
L 158.159048 -28.052727 
L 157.053016 -28.052727 
L 155.946984 -28.052727 
L 154.840952 -28.052727 
L 153.734921 -28.052727 
L 152.628889 -28.052727 
L 151.522857 -28.052727 
L 150.416825 -28.052727 
L 149.310794 -28.052727 
L 148.204762 -28.052727 
L 147.09873 -28.052727 
L 145.992698 -28.052727 
L 144.886667 -28.052727 
L 143.780635 -28.052727 
L 142.674603 -28.052727 
L 141.568571 -28.052727 
L 140.46254 -28.052727 
L 139.356508 -28.052727 
L 138.250476 -28.052727 
L 137.144444 -28.052727 
L 136.038413 -28.052727 
L 134.932381 -28.052727 
L 133.826349 -28.052727 
L 132.720317 -28.052727 
L 131.614286 -28.052727 
L 130.508254 -28.052727 
L 129.402222 -28.052727 
L 128.29619 -28.052727 
L 127.190159 -28.052727 
L 126.084127 -28.052727 
L 124.978095 -28.052727 
L 123.872063 -28.052727 
L 122.766032 -28.052727 
L 121.66 -28.052727 
L 120.553968 -28.052727 
L 119.447937 -28.052727 
L 118.341905 -28.052727 
L 117.235873 -28.052727 
L 116.129841 -28.052727 
L 115.02381 -28.052727 
L 113.917778 -28.052727 
L 112.811746 -28.052727 
L 111.705714 -28.052727 
L 110.599683 -28.052727 
L 109.493651 -28.052727 
L 108.387619 -28.052727 
L 107.281587 -28.052727 
L 106.175556 -28.052727 
L 105.069524 -28.052727 
L 103.963492 -28.052727 
L 102.85746 -28.052727 
L 101.751429 -28.052727 
L 100.645397 -28.052727 
L 99.539365 -28.052727 
L 98.433333 -28.052727 
L 97.327302 -28.052727 
L 96.22127 -28.052727 
L 95.115238 -28.052727 
L 94.009206 -28.052727 
L 92.903175 -28.052727 
L 91.797143 -28.052727 
L 90.691111 -28.052727 
L 89.585079 -28.052727 
L 88.479048 -28.052727 
L 87.373016 -28.052727 
L 86.266984 -28.052727 
L 85.160952 -28.052727 
L 84.054921 -28.052727 
L 82.948889 -28.052727 
L 81.842857 -28.052727 
L 80.736825 -28.052727 
L 79.630794 -28.052727 
L 78.524762 -28.052727 
L 77.41873 -28.052727 
L 76.312698 -28.052727 
L 75.206667 -28.052727 
L 74.100635 -28.052727 
L 72.994603 -28.052727 
L 71.888571 -28.052727 
L 70.78254 -28.052727 
L 69.676508 -28.052727 
L 68.570476 -28.052727 
L 67.464444 -28.052727 
L 66.358413 -28.052727 
L 65.252381 -28.052727 
L 64.146349 -28.052727 
L 63.040317 -28.052727 
L 61.934286 -28.052727 
L 60.828254 -28.052727 
L 59.722222 -28.052727 
L 58.61619 -28.052727 
L 57.510159 -28.052727 
L 56.404127 -28.052727 
L 55.298095 -28.052727 
L 54.192063 -28.052727 
L 53.086032 -28.052727 
L 51.98 -28.052727 
z
" style="stroke: #f85149; stroke-opacity: 0.15"/>
    </defs>
    <g clip-path="url(#p399e47ed11)">
     <use xlink:href="#mc78e9cb282" x="0" y="172.518281" style="fill: #f85149; fill-opacity: 0.15; stroke: #f85149; stroke-opacity: 0.15"/>
    </g>
   </g>
   <g id="matplotlib.axis_1">
    <g id="xtick_1">
     <g id="line2d_1">
      <path d="M 51.98 150.318281 
L 51.98 21.558281 
" clip-path="url(#p399e47ed11)" style="fill: none; stroke: #21262d; stroke-opacity: 0.5; stroke-width: 0.5; stroke-linecap: square"/>
     </g>
     <g id="line2d_2">
      <defs>
       <path id="mf05a1b678d" d="M 0 0 
L 0 3.5 
" style="stroke: #c9d1d9; stroke-width: 0.8"/>
      </defs>
      <g>
       <use xlink:href="#mf05a1b678d" x="51.98" y="150.318281" style="fill: #c9d1d9; stroke: #c9d1d9; stroke-width: 0.8"/>
      </g>
     </g>
     <g id="text_1">
      <!-- 0 -->
      <g style="fill: #c9d1d9" transform="translate(49.435 163.396406) scale(0.08 -0.08)">
       <defs>
        <path id="DejaVuSans-13" d="M 2034 4250 
Q 1547 4250 1301 3770 
Q 1056 3291 1056 2328 
Q 1056 1369 1301 889 
Q 1547 409 2034 409 
Q 2525 409 2770 889 
Q 3016 1369 3016 2328 
Q 3016 3291 2770 3770 
Q 2525 4250 2034 4250 
z
M 2034 4750 
Q 2819 4750 3233 4129 
Q 3647 3509 3647 2328 
Q 3647 1150 3233 529 
Q 2819 -91 2034 -91 
Q 1250 -91 836 529 
Q 422 1150 422 2328 
Q 422 3509 836 4129 
Q 1250 4750 2034 4750 
z
" transform="scale(0.015625)"/>
       </defs>
       <use xlink:href="#DejaVuSans-13"/>
      </g>
     </g>
    </g>
    <g id="xtick_2">
     <g id="line2d_3">
      <path d="M 107.281587 150.318281 
L 107.281587 21.558281 
" clip-path="url(#p399e47ed11)" style="fill: none; stroke: #21262d; stroke-opacity: 0.5; stroke-width: 0.5; stroke-linecap: square"/>
     </g>
     <g id="line2d_4">
      <g>
       <use xlink:href="#mf05a1b678d" x="107.281587" y="150.318281" style="fill: #c9d1d9; stroke: #c9d1d9; stroke-width: 0.8"/>
      </g>
     </g>
     <g id="text_2">
      <!-- 50 -->
      <g style="fill: #c9d1d9" transform="translate(102.191587 163.396406) scale(0.08 -0.08)">
       <defs>
        <path id="DejaVuSans-18" d="M 691 4666 
L 3169 4666 
L 3169 4134 
L 1269 4134 
L 1269 2991 
Q 1406 3038 1543 3061 
Q 1681 3084 1819 3084 
Q 2600 3084 3056 2656 
Q 3513 2228 3513 1497 
Q 3513 744 3044 326 
Q 2575 -91 1722 -91 
Q 1428 -91 1123 -41 
Q 819 9 494 109 
L 494 744 
Q 775 591 1075 516 
Q 1375 441 1709 441 
Q 2250 441 2565 725 
Q 2881 1009 2881 1497 
Q 2881 1984 2565 2268 
Q 2250 2553 1709 2553 
Q 1456 2553 1204 2497 
Q 953 2441 691 2322 
L 691 4666 
z
" transform="scale(0.015625)"/>
       </defs>
       <use xlink:href="#DejaVuSans-18"/>
       <use xlink:href="#DejaVuSans-13" transform="translate(63.625 0)"/>
      </g>
     </g>
    </g>
    <g id="xtick_3">
     <g id="line2d_5">
      <path d="M 162.583175 150.318281 
L 162.583175 21.558281 
" clip-path="url(#p399e47ed11)" style="fill: none; stroke: #21262d; stroke-opacity: 0.5; stroke-width: 0.5; stroke-linecap: square"/>
     </g>
     <g id="line2d_6">
      <g>
       <use xlink:href="#mf05a1b678d" x="162.583175" y="150.318281" style="fill: #c9d1d9; stroke: #c9d1d9; stroke-width: 0.8"/>
      </g>
     </g>
     <g id="text_3">
      <!-- 100 -->
      <g style="fill: #c9d1d9" transform="translate(154.948175 163.396406) scale(0.08 -0.08)">
       <defs>
        <path id="DejaVuSans-14" d="M 794 531 
L 1825 531 
L 1825 4091 
L 703 3866 
L 703 4441 
L 1819 4666 
L 2450 4666 
L 2450 531 
L 3481 531 
L 3481 0 
L 794 0 
L 794 531 
z
" transform="scale(0.015625)"/>
       </defs>
       <use xlink:href="#DejaVuSans-14"/>
       <use xlink:href="#DejaVuSans-13" transform="translate(63.625 0)"/>
       <use xlink:href="#DejaVuSans-13" transform="translate(127.25 0)"/>
      </g>
     </g>
    </g>
    <g id="xtick_4">
     <g id="line2d_7">
      <path d="M 217.884762 150.318281 
L 217.884762 21.558281 
" clip-path="url(#p399e47ed11)" style="fill: none; stroke: #21262d; stroke-opacity: 0.5; stroke-width: 0.5; stroke-linecap: square"/>
     </g>
     <g id="line2d_8">
      <g>
       <use xlink:href="#mf05a1b678d" x="217.884762" y="150.318281" style="fill: #c9d1d9; stroke: #c9d1d9; stroke-width: 0.8"/>
      </g>
     </g>
     <g id="text_4">
      <!-- 150 -->
      <g style="fill: #c9d1d9" transform="translate(210.249762 163.396406) scale(0.08 -0.08)">
       <use xlink:href="#DejaVuSans-14"/>
       <use xlink:href="#DejaVuSans-18" transform="translate(63.625 0)"/>
       <use xlink:href="#DejaVuSans-13" transform="translate(127.25 0)"/>
      </g>
     </g>
    </g>
    <g id="xtick_5">
     <g id="line2d_9">
      <path d="M 273.186349 150.318281 
L 273.186349 21.558281 
" clip-path="url(#p399e47ed11)" style="fill: none; stroke: #21262d; stroke-opacity: 0.5; stroke-width: 0.5; stroke-linecap: square"/>
     </g>
     <g id="line2d_10">
      <g>
       <use xlink:href="#mf05a1b678d" x="273.186349" y="150.318281" style="fill: #c9d1d9; stroke: #c9d1d9; stroke-width: 0.8"/>
      </g>
     </g>
     <g id="text_5">
      <!-- 200 -->
      <g style="fill: #c9d1d9" transform="translate(265.551349 163.396406) scale(0.08 -0.08)">
       <defs>
        <path id="DejaVuSans-15" d="M 1228 531 
L 3431 531 
L 3431 0 
L 469 0 
L 469 531 
Q 828 903 1448 1529 
Q 2069 2156 2228 2338 
Q 2531 2678 2651 2914 
Q 2772 3150 2772 3378 
Q 2772 3750 2511 3984 
Q 2250 4219 1831 4219 
Q 1534 4219 1204 4116 
Q 875 4013 500 3803 
L 500 4441 
Q 881 4594 1212 4672 
Q 1544 4750 1819 4750 
Q 2544 4750 2975 4387 
Q 3406 4025 3406 3419 
Q 3406 3131 3298 2873 
Q 3191 2616 2906 2266 
Q 2828 2175 2409 1742 
Q 1991 1309 1228 531 
z
" transform="scale(0.015625)"/>
       </defs>
       <use xlink:href="#DejaVuSans-15"/>
       <use xlink:href="#DejaVuSans-13" transform="translate(63.625 0)"/>
       <use xlink:href="#DejaVuSans-13" transform="translate(127.25 0)"/>
      </g>
     </g>
    </g>
    <g id="xtick_6">
     <g id="line2d_11">
      <path d="M 328.487937 150.318281 
L 328.487937 21.558281 
" clip-path="url(#p399e47ed11)" style="fill: none; stroke: #21262d; stroke-opacity: 0.5; stroke-width: 0.5; stroke-linecap: square"/>
     </g>
     <g id="line2d_12">
      <g>
       <use xlink:href="#mf05a1b678d" x="328.487937" y="150.318281" style="fill: #c9d1d9; stroke: #c9d1d9; stroke-width: 0.8"/>
      </g>
     </g>
     <g id="text_6">
      <!-- 250 -->
      <g style="fill: #c9d1d9" transform="translate(320.852937 163.396406) scale(0.08 -0.08)">
       <use xlink:href="#DejaVuSans-15"/>
       <use xlink:href="#DejaVuSans-18" transform="translate(63.625 0)"/>
       <use xlink:href="#DejaVuSans-13" transform="translate(127.25 0)"/>
      </g>
     </g>
    </g>
    <g id="xtick_7">
     <g id="line2d_13">
      <path d="M 383.789524 150.318281 
L 383.789524 21.558281 
" clip-path="url(#p399e47ed11)" style="fill: none; stroke: #21262d; stroke-opacity: 0.5; stroke-width: 0.5; stroke-linecap: square"/>
     </g>
     <g id="line2d_14">
      <g>
       <use xlink:href="#mf05a1b678d" x="383.789524" y="150.318281" style="fill: #c9d1d9; stroke: #c9d1d9; stroke-width: 0.8"/>
      </g>
     </g>
     <g id="text_7">
      <!-- 300 -->
      <g style="fill: #c9d1d9" transform="translate(376.154524 163.396406) scale(0.08 -0.08)">
       <defs>
        <path id="DejaVuSans-16" d="M 2597 2516 
Q 3050 2419 3304 2112 
Q 3559 1806 3559 1356 
Q 3559 666 3084 287 
Q 2609 -91 1734 -91 
Q 1441 -91 1130 -33 
Q 819 25 488 141 
L 488 750 
Q 750 597 1062 519 
Q 1375 441 1716 441 
Q 2309 441 2620 675 
Q 2931 909 2931 1356 
Q 2931 1769 2642 2001 
Q 2353 2234 1838 2234 
L 1294 2234 
L 1294 2753 
L 1863 2753 
Q 2328 2753 2575 2939 
Q 2822 3125 2822 3475 
Q 2822 3834 2567 4026 
Q 2313 4219 1838 4219 
Q 1578 4219 1281 4162 
Q 984 4106 628 3988 
L 628 4550 
Q 988 4650 1302 4700 
Q 1616 4750 1894 4750 
Q 2613 4750 3031 4423 
Q 3450 4097 3450 3541 
Q 3450 3153 3228 2886 
Q 3006 2619 2597 2516 
z
" transform="scale(0.015625)"/>
       </defs>
       <use xlink:href="#DejaVuSans-16"/>
       <use xlink:href="#DejaVuSans-13" transform="translate(63.625 0)"/>
       <use xlink:href="#DejaVuSans-13" transform="translate(127.25 0)"/>
      </g>
     </g>
    </g>
   </g>
   <g id="matplotlib.axis_2">
    <g id="ytick_1">
     <g id="line2d_15">
      <path d="M 34.56 144.465554 
L 417.8 144.465554 
" clip-path="url(#p399e47ed11)" style="fill: none; stroke: #21262d; stroke-opacity: 0.5; stroke-width: 0.5; stroke-linecap: square"/>
     </g>
     <g id="line2d_16">
      <defs>
       <path id="m60d6e81af0" d="M 0 0 
L -3.5 0 
" style="stroke: #c9d1d9; stroke-width: 0.8"/>
      </defs>
      <g>
       <use xlink:href="#m60d6e81af0" x="34.56" y="144.465554" style="fill: #c9d1d9; stroke: #c9d1d9; stroke-width: 0.8"/>
      </g>
     </g>
     <g id="text_8">
      <!-- $0 -->
      <g style="fill: #c9d1d9" transform="translate(17.38 147.504929) scale(0.08 -0.08)">
       <defs>
        <path id="DejaVuSans-7" d="M 2163 -941 
L 1850 -941 
L 1847 0 
Q 1519 6 1191 76 
Q 863 147 531 288 
L 531 850 
Q 850 650 1176 548 
Q 1503 447 1850 444 
L 1850 1869 
Q 1159 1981 845 2250 
Q 531 2519 531 2988 
Q 531 3497 872 3790 
Q 1213 4084 1850 4128 
L 1850 4863 
L 2163 4863 
L 2163 4138 
Q 2453 4125 2725 4076 
Q 2997 4028 3256 3944 
L 3256 3397 
Q 2997 3528 2723 3600 
Q 2450 3672 2163 3684 
L 2163 2350 
Q 2872 2241 3206 1959 
Q 3541 1678 3541 1191 
Q 3541 663 3186 358 
Q 2831 53 2163 6 
L 2163 -941 
z
M 1850 2406 
L 1850 3688 
Q 1488 3647 1297 3481 
Q 1106 3316 1106 3041 
Q 1106 2772 1282 2622 
Q 1459 2472 1850 2406 
z
M 2163 1806 
L 2163 453 
Q 2559 506 2761 678 
Q 2963 850 2963 1131 
Q 2963 1406 2770 1568 
Q 2578 1731 2163 1806 
z
" transform="scale(0.015625)"/>
       </defs>
       <use xlink:href="#DejaVuSans-7"/>
       <use xlink:href="#DejaVuSans-13" transform="translate(63.625 0)"/>
      </g>
     </g>
    </g>
    <g id="ytick_2">
     <g id="line2d_17">
      <path d="M 34.56 124.994108 
L 417.8 124.994108 
" clip-path="url(#p399e47ed11)" style="fill: none; stroke: #21262d; stroke-opacity: 0.5; stroke-width: 0.5; stroke-linecap: square"/>
     </g>
     <g id="line2d_18">
      <g>
       <use xlink:href="#m60d6e81af0" x="34.56" y="124.994108" style="fill: #c9d1d9; stroke: #c9d1d9; stroke-width: 0.8"/>
      </g>
     </g>
     <g id="text_9">
      <!-- $50 -->
      <g style="fill: #c9d1d9" transform="translate(12.29 128.033483) scale(0.08 -0.08)">
       <use xlink:href="#DejaVuSans-7"/>
       <use xlink:href="#DejaVuSans-18" transform="translate(63.625 0)"/>
       <use xlink:href="#DejaVuSans-13" transform="translate(127.25 0)"/>
      </g>
     </g>
    </g>
    <g id="ytick_3">
     <g id="line2d_19">
      <path d="M 34.56 105.522662 
L 417.8 105.522662 
" clip-path="url(#p399e47ed11)" style="fill: none; stroke: #21262d; stroke-opacity: 0.5; stroke-width: 0.5; stroke-linecap: square"/>
     </g>
     <g id="line2d_20">
      <g>
       <use xlink:href="#m60d6e81af0" x="34.56" y="105.522662" style="fill: #c9d1d9; stroke: #c9d1d9; stroke-width: 0.8"/>
      </g>
     </g>
     <g id="text_10">
      <!-- $100 -->
      <g style="fill: #c9d1d9" transform="translate(7.2 108.562037) scale(0.08 -0.08)">
       <use xlink:href="#DejaVuSans-7"/>
       <use xlink:href="#DejaVuSans-14" transform="translate(63.625 0)"/>
       <use xlink:href="#DejaVuSans-13" transform="translate(127.25 0)"/>
       <use xlink:href="#DejaVuSans-13" transform="translate(190.875 0)"/>
      </g>
     </g>
    </g>
    <g id="ytick_4">
     <g id="line2d_21">
      <path d="M 34.56 86.051216 
L 417.8 86.051216 
" clip-path="url(#p399e47ed11)" style="fill: none; stroke: #21262d; stroke-opacity: 0.5; stroke-width: 0.5; stroke-linecap: square"/>
     </g>
     <g id="line2d_22">
      <g>
       <use xlink:href="#m60d6e81af0" x="34.56" y="86.051216" style="fill: #c9d1d9; stroke: #c9d1d9; stroke-width: 0.8"/>
      </g>
     </g>
     <g id="text_11">
      <!-- $150 -->
      <g style="fill: #c9d1d9" transform="translate(7.2 89.090591) scale(0.08 -0.08)">
       <use xlink:href="#DejaVuSans-7"/>
       <use xlink:href="#DejaVuSans-14" transform="translate(63.625 0)"/>
       <use xlink:href="#DejaVuSans-18" transform="translate(127.25 0)"/>
       <use xlink:href="#DejaVuSans-13" transform="translate(190.875 0)"/>
      </g>
     </g>
    </g>
    <g id="ytick_5">
     <g id="line2d_23">
      <path d="M 34.56 66.57977 
L 417.8 66.57977 
" clip-path="url(#p399e47ed11)" style="fill: none; stroke: #21262d; stroke-opacity: 0.5; stroke-width: 0.5; stroke-linecap: square"/>
     </g>
     <g id="line2d_24">
      <g>
       <use xlink:href="#m60d6e81af0" x="34.56" y="66.57977" style="fill: #c9d1d9; stroke: #c9d1d9; stroke-width: 0.8"/>
      </g>
     </g>
     <g id="text_12">
      <!-- $200 -->
      <g style="fill: #c9d1d9" transform="translate(7.2 69.619145) scale(0.08 -0.08)">
       <use xlink:href="#DejaVuSans-7"/>
       <use xlink:href="#DejaVuSans-15" transform="translate(63.625 0)"/>
       <use xlink:href="#DejaVuSans-13" transform="translate(127.25 0)"/>
       <use xlink:href="#DejaVuSans-13" transform="translate(190.875 0)"/>
      </g>
     </g>
    </g>
    <g id="ytick_6">
     <g id="line2d_25">
      <path d="M 34.56 47.108323 
L 417.8 47.108323 
" clip-path="url(#p399e47ed11)" style="fill: none; stroke: #21262d; stroke-opacity: 0.5; stroke-width: 0.5; stroke-linecap: square"/>
     </g>
     <g id="line2d_26">
      <g>
       <use xlink:href="#m60d6e81af0" x="34.56" y="47.108323" style="fill: #c9d1d9; stroke: #c9d1d9; stroke-width: 0.8"/>
      </g>
     </g>
     <g id="text_13">
      <!-- $250 -->
      <g style="fill: #c9d1d9" transform="translate(7.2 50.147698) scale(0.08 -0.08)">
       <use xlink:href="#DejaVuSans-7"/>
       <use xlink:href="#DejaVuSans-15" transform="translate(63.625 0)"/>
       <use xlink:href="#DejaVuSans-18" transform="translate(127.25 0)"/>
       <use xlink:href="#DejaVuSans-13" transform="translate(190.875 0)"/>
      </g>
     </g>
    </g>
    <g id="ytick_7">
     <g id="line2d_27">
      <path d="M 34.56 27.636877 
L 417.8 27.636877 
" clip-path="url(#p399e47ed11)" style="fill: none; stroke: #21262d; stroke-opacity: 0.5; stroke-width: 0.5; stroke-linecap: square"/>
     </g>
     <g id="line2d_28">
      <g>
       <use xlink:href="#m60d6e81af0" x="34.56" y="27.636877" style="fill: #c9d1d9; stroke: #c9d1d9; stroke-width: 0.8"/>
      </g>
     </g>
     <g id="text_14">
      <!-- $300 -->
      <g style="fill: #c9d1d9" transform="translate(7.2 30.676252) scale(0.08 -0.08)">
       <use xlink:href="#DejaVuSans-7"/>
       <use xlink:href="#DejaVuSans-16" transform="translate(63.625 0)"/>
       <use xlink:href="#DejaVuSans-13" transform="translate(127.25 0)"/>
       <use xlink:href="#DejaVuSans-13" transform="translate(190.875 0)"/>
      </g>
     </g>
    </g>
   </g>
   <g id="line2d_29">
    <path d="M 51.98 36.328931 
L 53.086032 38.06189 
L 54.192063 35.094441 
L 55.298095 42.953117 
L 56.404127 32.812388 
L 57.510159 34.817947 
L 58.61619 37.286926 
L 59.722222 31.566215 
L 60.828254 36.80014 
L 61.934286 31.161209 
L 63.040317 38.287758 
L 64.146349 32.952582 
L 65.252381 34.852995 
L 66.358413 36.083591 
L 67.464444 31.453281 
L 68.570476 37.438803 
L 69.676508 34.152023 
L 70.78254 35.81099 
L 71.888571 36.309459 
L 72.994603 32.376227 
L 75.206667 36.788457 
L 76.312698 33.104459 
L 77.41873 33.380954 
L 78.524762 39.214599 
L 79.630794 31.86997 
L 80.736825 40.0324 
L 81.842857 31.511695 
L 82.948889 39.674125 
L 84.054921 52.980912 
L 85.160952 28.548141 
L 86.266984 56.918038 
L 87.373016 28.201549 
L 88.479048 53.319715 
L 89.585079 34.229909 
L 90.691111 49.530571 
L 91.797143 28.361215 
L 92.903175 44.954781 
L 94.009206 48.919168 
L 95.115238 32.430747 
L 96.22127 43.377594 
L 97.327302 35.834356 
L 98.433333 35.26579 
L 99.539365 40.071343 
L 100.645397 34.109186 
L 101.751429 39.335322 
L 102.85746 35.803202 
L 103.963492 33.014891 
L 105.069524 34.864678 
L 106.175556 37.473852 
L 107.281587 33.084988 
L 108.387619 40.741161 
L 109.493651 33.478311 
L 110.599683 34.377892 
L 111.705714 35.713633 
L 112.811746 35.468293 
L 113.917778 36.410711 
L 115.02381 33.4861 
L 116.129841 45.028773 
L 117.235873 33.334222 
L 118.341905 36.332825 
L 119.447937 42.703882 
L 120.553968 30.300571 
L 121.66 37.255772 
L 122.766032 36.196525 
L 123.872063 41.095541 
L 124.978095 41.43045 
L 126.084127 44.059095 
L 127.190159 42.715565 
L 128.29619 35.086653 
L 129.402222 35.472187 
L 130.508254 37.271349 
L 131.614286 37.543949 
L 132.720317 30.787357 
L 133.826349 34.412941 
L 134.932381 39.537825 
L 136.038413 35.42935 
L 137.144444 32.882485 
L 138.250476 34.179283 
L 139.356508 38.128092 
L 140.46254 34.292218 
L 141.568571 35.23853 
L 142.674603 40.363414 
L 143.780635 34.786792 
L 144.886667 36.566482 
L 145.992698 39.709174 
L 147.09873 31.975115 
L 148.204762 34.342843 
L 149.310794 43.280237 
L 150.416825 33.797643 
L 151.522857 37.999581 
L 152.628889 41.208475 
L 153.734921 30.896397 
L 154.840952 37.910012 
L 155.946984 40.1687 
L 157.053016 30.409611 
L 158.159048 39.315851 
L 159.265079 29.685273 
L 160.371111 37.886647 
L 161.477143 30.195425 
L 162.583175 39.202916 
L 163.689206 32.940899 
L 164.795238 32.27887 
L 165.90127 33.427685 
L 167.007302 33.166768 
L 168.113333 34.494721 
L 169.219365 42.05743 
L 170.325397 32.940899 
L 171.431429 37.48164 
L 172.53746 30.775674 
L 173.643492 39.144502 
L 174.749524 38.844642 
L 175.855556 33.135614 
L 176.961587 37.497218 
L 178.067619 34.779004 
L 179.173651 32.613779 
L 180.279683 39.315851 
L 181.385714 32.30613 
L 182.491746 35.090547 
L 183.597778 31.118372 
L 184.70381 42.637679 
L 185.809841 30.728943 
L 186.915873 36.079696 
L 188.021905 37.431015 
L 189.127937 32.672193 
L 190.233968 36.040753 
L 191.34 41.340881 
L 192.446032 28.497515 
L 193.552063 35.659113 
L 194.658095 36.605425 
L 195.764127 32.796811 
L 196.870159 37.777606 
L 197.97619 37.201252 
L 199.082222 31.718092 
L 200.188254 36.784563 
L 201.294286 39.973986 
L 202.400317 30.273311 
L 203.506349 36.706677 
L 204.612381 41.34867 
L 205.718413 31.262461 
L 206.824444 41.169532 
L 207.930476 34.385681 
L 209.036508 42.419599 
L 210.14254 39.502777 
L 211.248571 35.986233 
L 213.460635 41.286361 
L 214.566667 34.841312 
L 215.672698 37.855492 
L 216.77873 38.100832 
L 217.884762 38.474684 
L 218.990794 42.088585 
L 220.096825 31.745352 
L 221.202857 43.467163 
L 222.308889 37.820444 
L 223.414921 41.710839 
L 224.520952 37.578998 
L 225.626984 39.366476 
L 226.733016 37.913907 
L 227.839048 37.380389 
L 228.945079 30.261628 
L 230.051111 38.311124 
L 231.157143 36.492491 
L 232.263175 30.549806 
L 233.369206 35.589016 
L 234.475238 41.928919 
L 235.58127 33.451051 
L 236.687302 35.908348 
L 237.793333 42.16647 
L 238.899365 27.411009 
L 240.005397 37.851598 
L 241.111429 40.690535 
L 242.21746 33.501677 
L 243.323492 35.807096 
L 244.429524 35.063287 
L 245.535556 35.394301 
L 246.641587 33.661343 
L 247.747619 30.993755 
L 248.853651 34.537558 
L 249.959683 32.901956 
L 251.065714 32.827965 
L 252.171746 36.889708 
L 253.277778 36.987066 
L 254.38381 33.365377 
L 255.489841 32.617673 
L 256.595873 36.687205 
L 257.701905 33.727546 
L 258.807937 35.908348 
L 259.913968 34.841312 
L 261.02 44.467995 
L 262.126032 30.109751 
L 263.232063 37.726981 
L 264.338095 52.455183 
L 265.444127 35.12949 
L 266.550159 35.698056 
L 267.65619 48.311659 
L 268.762222 30.386245 
L 269.868254 37.649095 
L 270.974286 32.66051 
L 272.080317 35.164538 
L 273.186349 36.955911 
L 274.292381 44.265492 
L 275.398413 29.809891 
L 277.610476 49.421531 
L 278.716508 40.38678 
L 279.82254 44.725018 
L 280.928571 43.190668 
L 282.034603 37.166203 
L 283.140635 39.389842 
L 284.246667 47.614581 
L 285.352698 31.554532 
L 286.45873 39.935043 
L 287.564762 51.633487 
L 288.670794 32.567047 
L 289.776825 34.93867 
L 290.882857 34.319478 
L 291.988889 36.383451 
L 293.094921 34.817947 
L 294.200952 45.418202 
L 295.306984 28.85579 
L 296.413016 37.960638 
L 297.519048 44.869107 
L 298.625079 30.035759 
L 299.731111 35.635747 
L 300.837143 48.253244 
L 301.943175 33.984569 
L 303.049206 34.479143 
L 304.155238 52.392874 
L 305.26127 33.069411 
L 306.367302 32.594307 
L 307.473333 43.420432 
L 308.579365 32.617673 
L 309.685397 35.725316 
L 310.791429 53.405389 
L 311.89746 34.144235 
L 313.003492 40.199854 
L 314.109524 30.869137 
L 315.215556 33.112248 
L 316.321587 33.926154 
L 317.427619 38.19819 
L 318.533651 36.060225 
L 319.639683 37.859387 
L 320.745714 29.48277 
L 321.851746 37.610152 
L 322.957778 33.384848 
L 324.06381 36.975383 
L 325.169841 31.916701 
L 326.275873 36.075802 
L 327.381905 33.353694 
L 328.487937 34.529769 
L 329.593968 36.262728 
L 330.7 32.356756 
L 331.806032 46.500814 
L 332.912063 32.598202 
L 334.018095 37.991792 
L 335.124127 53.354763 
L 336.230159 36.71836 
L 337.33619 43.630723 
L 338.442222 32.699453 
L 339.548254 49.117777 
L 340.654286 27.570674 
L 341.760317 49.499417 
L 342.866349 30.530334 
L 343.972381 42.879125 
L 345.078413 31.496118 
L 346.184444 40.507503 
L 347.290476 35.569544 
L 348.396508 36.694994 
L 349.50254 34.962035 
L 350.608571 37.516689 
L 351.714603 35.222953 
L 352.820635 32.189301 
L 353.926667 39.459939 
L 355.032698 29.665802 
L 356.13873 36.340614 
L 357.244762 34.483038 
L 358.350794 37.337552 
L 359.456825 33.719757 
L 360.562857 36.815717 
L 361.668889 34.05856 
L 362.774921 31.905018 
L 363.880952 36.831294 
L 364.986984 35.822673 
L 366.093016 33.73144 
L 367.199048 33.918366 
L 368.305079 35.261896 
L 369.411111 35.370936 
L 370.517143 47.01486 
L 371.623175 32.216561 
L 372.729206 38.684976 
L 373.835238 48.397333 
L 374.94127 32.438536 
L 376.047302 39.062722 
L 377.153333 49.000948 
L 378.259365 33.793749 
L 379.365397 33.310857 
L 380.471429 51.193433 
L 381.57746 34.22212 
L 382.683492 33.4861 
L 383.789524 48.572576 
L 384.895556 30.027971 
L 386.001587 39.397631 
L 387.107619 39.311956 
L 388.213651 35.479976 
L 390.425714 43.358123 
L 391.531746 36.52754 
L 392.637778 39.249648 
L 393.74381 52.007339 
L 394.849841 30.059125 
L 395.955873 53.448226 
L 397.061905 30.035759 
L 398.167937 37.571209 
L 399.273968 29.868305 
L 400.38 42.201519 
L 400.38 42.201519 
" clip-path="url(#p399e47ed11)" style="fill: none; stroke: #f85149; stroke-width: 2; stroke-linecap: square"/>
   </g>
   <g id="patch_3">
    <path d="M 34.56 150.318281 
L 34.56 21.558281 
" style="fill: none; stroke: #21262d; stroke-width: 0.8; stroke-linejoin: miter; stroke-linecap: square"/>
   </g>
   <g id="patch_4">
    <path d="M 34.56 150.318281 
L 417.8 150.318281 
" style="fill: none; stroke: #21262d; stroke-width: 0.8; stroke-linejoin: miter; stroke-linecap: square"/>
   </g>
   <g id="text_15">
    <!-- AUTORESEARCH (karpathy/autoresearch) — $262.60 (-10.76%) -->
    <g style="fill: #c9d1d9" transform="translate(31.955234 15.558281) scale(0.11 -0.11)">
     <defs>
      <path id="DejaVuSans-Bold-24" d="M 3419 850 
L 1538 850 
L 1241 0 
L 31 0 
L 1759 4666 
L 3194 4666 
L 4922 0 
L 3713 0 
L 3419 850 
z
M 1838 1716 
L 3116 1716 
L 2478 3572 
L 1838 1716 
z
" transform="scale(0.015625)"/>
      <path id="DejaVuSans-Bold-38" d="M 588 4666 
L 1791 4666 
L 1791 1869 
Q 1791 1291 1980 1042 
Q 2169 794 2597 794 
Q 3028 794 3217 1042 
Q 3406 1291 3406 1869 
L 3406 4666 
L 4609 4666 
L 4609 1869 
Q 4609 878 4112 393 
Q 3616 -91 2597 -91 
Q 1581 -91 1084 393 
Q 588 878 588 1869 
L 588 4666 
z
" transform="scale(0.015625)"/>
      <path id="DejaVuSans-Bold-37" d="M 31 4666 
L 4331 4666 
L 4331 3756 
L 2784 3756 
L 2784 0 
L 1581 0 
L 1581 3756 
L 31 3756 
L 31 4666 
z
" transform="scale(0.015625)"/>
      <path id="DejaVuSans-Bold-32" d="M 2719 3878 
Q 2169 3878 1866 3472 
Q 1563 3066 1563 2328 
Q 1563 1594 1866 1187 
Q 2169 781 2719 781 
Q 3272 781 3575 1187 
Q 3878 1594 3878 2328 
Q 3878 3066 3575 3472 
Q 3272 3878 2719 3878 
z
M 2719 4750 
Q 3844 4750 4481 4106 
Q 5119 3463 5119 2328 
Q 5119 1197 4481 553 
Q 3844 -91 2719 -91 
Q 1597 -91 958 553 
Q 319 1197 319 2328 
Q 319 3463 958 4106 
Q 1597 4750 2719 4750 
z
" transform="scale(0.015625)"/>
      <path id="DejaVuSans-Bold-35" d="M 2297 2597 
Q 2675 2597 2839 2737 
Q 3003 2878 3003 3200 
Q 3003 3519 2839 3656 
Q 2675 3794 2297 3794 
L 1791 3794 
L 1791 2597 
L 2297 2597 
z
M 1791 1766 
L 1791 0 
L 588 0 
L 588 4666 
L 2425 4666 
Q 3347 4666 3776 4356 
Q 4206 4047 4206 3378 
Q 4206 2916 3982 2619 
Q 3759 2322 3309 2181 
Q 3556 2125 3751 1926 
Q 3947 1728 4147 1325 
L 4800 0 
L 3519 0 
L 2950 1159 
Q 2778 1509 2601 1637 
Q 2425 1766 2131 1766 
L 1791 1766 
z
" transform="scale(0.015625)"/>
      <path id="DejaVuSans-Bold-28" d="M 588 4666 
L 3834 4666 
L 3834 3756 
L 1791 3756 
L 1791 2888 
L 3713 2888 
L 3713 1978 
L 1791 1978 
L 1791 909 
L 3903 909 
L 3903 0 
L 588 0 
L 588 4666 
z
" transform="scale(0.015625)"/>
      <path id="DejaVuSans-Bold-36" d="M 3834 4519 
L 3834 3531 
Q 3450 3703 3084 3790 
Q 2719 3878 2394 3878 
Q 1963 3878 1756 3759 
Q 1550 3641 1550 3391 
Q 1550 3203 1689 3098 
Q 1828 2994 2194 2919 
L 2706 2816 
Q 3484 2659 3812 2340 
Q 4141 2022 4141 1434 
Q 4141 663 3683 286 
Q 3225 -91 2284 -91 
Q 1841 -91 1394 -6 
Q 947 78 500 244 
L 500 1259 
Q 947 1022 1364 901 
Q 1781 781 2169 781 
Q 2563 781 2772 912 
Q 2981 1044 2981 1288 
Q 2981 1506 2839 1625 
Q 2697 1744 2272 1838 
L 1806 1941 
Q 1106 2091 782 2419 
Q 459 2747 459 3303 
Q 459 4000 909 4375 
Q 1359 4750 2203 4750 
Q 2588 4750 2994 4692 
Q 3400 4634 3834 4519 
z
" transform="scale(0.015625)"/>
      <path id="DejaVuSans-Bold-26" d="M 4288 256 
Q 3956 84 3597 -3 
Q 3238 -91 2847 -91 
Q 1681 -91 1000 561 
Q 319 1213 319 2328 
Q 319 3447 1000 4098 
Q 1681 4750 2847 4750 
Q 3238 4750 3597 4662 
Q 3956 4575 4288 4403 
L 4288 3438 
Q 3953 3666 3628 3772 
Q 3303 3878 2944 3878 
Q 2300 3878 1931 3465 
Q 1563 3053 1563 2328 
Q 1563 1606 1931 1193 
Q 2300 781 2944 781 
Q 3303 781 3628 887 
Q 3953 994 4288 1222 
L 4288 256 
z
" transform="scale(0.015625)"/>
      <path id="DejaVuSans-Bold-2b" d="M 588 4666 
L 1791 4666 
L 1791 2888 
L 3566 2888 
L 3566 4666 
L 4769 4666 
L 4769 0 
L 3566 0 
L 3566 1978 
L 1791 1978 
L 1791 0 
L 588 0 
L 588 4666 
z
" transform="scale(0.015625)"/>
      <path id="DejaVuSans-Bold-3" transform="scale(0.015625)"/>
      <path id="DejaVuSans-Bold-b" d="M 2413 -844 
L 1484 -844 
Q 1006 -72 778 623 
Q 550 1319 550 2003 
Q 550 2688 779 3389 
Q 1009 4091 1484 4856 
L 2413 4856 
Q 2013 4116 1813 3408 
Q 1613 2700 1613 2009 
Q 1613 1319 1811 609 
Q 2009 -100 2413 -844 
z
" transform="scale(0.015625)"/>
      <path id="DejaVuSans-Bold-4e" d="M 538 4863 
L 1656 4863 
L 1656 2216 
L 2944 3500 
L 4244 3500 
L 2534 1894 
L 4378 0 
L 3022 0 
L 1656 1459 
L 1656 0 
L 538 0 
L 538 4863 
z
" transform="scale(0.015625)"/>
      <path id="DejaVuSans-Bold-44" d="M 2106 1575 
Q 1756 1575 1579 1456 
Q 1403 1338 1403 1106 
Q 1403 894 1545 773 
Q 1688 653 1941 653 
Q 2256 653 2472 879 
Q 2688 1106 2688 1447 
L 2688 1575 
L 2106 1575 
z
M 3816 1997 
L 3816 0 
L 2688 0 
L 2688 519 
Q 2463 200 2181 54 
Q 1900 -91 1497 -91 
Q 953 -91 614 226 
Q 275 544 275 1050 
Q 275 1666 698 1953 
Q 1122 2241 2028 2241 
L 2688 2241 
L 2688 2328 
Q 2688 2594 2478 2717 
Q 2269 2841 1825 2841 
Q 1466 2841 1156 2769 
Q 847 2697 581 2553 
L 581 3406 
Q 941 3494 1303 3539 
Q 1666 3584 2028 3584 
Q 2975 3584 3395 3211 
Q 3816 2838 3816 1997 
z
" transform="scale(0.015625)"/>
      <path id="DejaVuSans-Bold-55" d="M 3138 2547 
Q 2991 2616 2845 2648 
Q 2700 2681 2553 2681 
Q 2122 2681 1889 2404 
Q 1656 2128 1656 1613 
L 1656 0 
L 538 0 
L 538 3500 
L 1656 3500 
L 1656 2925 
Q 1872 3269 2151 3426 
Q 2431 3584 2822 3584 
Q 2878 3584 2943 3579 
Q 3009 3575 3134 3559 
L 3138 2547 
z
" transform="scale(0.015625)"/>
      <path id="DejaVuSans-Bold-53" d="M 1656 506 
L 1656 -1331 
L 538 -1331 
L 538 3500 
L 1656 3500 
L 1656 2988 
Q 1888 3294 2169 3439 
Q 2450 3584 2816 3584 
Q 3463 3584 3878 3070 
Q 4294 2556 4294 1747 
Q 4294 938 3878 423 
Q 3463 -91 2816 -91 
Q 2450 -91 2169 54 
Q 1888 200 1656 506 
z
M 2400 2772 
Q 2041 2772 1848 2508 
Q 1656 2244 1656 1747 
Q 1656 1250 1848 986 
Q 2041 722 2400 722 
Q 2759 722 2948 984 
Q 3138 1247 3138 1747 
Q 3138 2247 2948 2509 
Q 2759 2772 2400 2772 
z
" transform="scale(0.015625)"/>
      <path id="DejaVuSans-Bold-57" d="M 1759 4494 
L 1759 3500 
L 2913 3500 
L 2913 2700 
L 1759 2700 
L 1759 1216 
Q 1759 972 1856 886 
Q 1953 800 2241 800 
L 2816 800 
L 2816 0 
L 1856 0 
Q 1194 0 917 276 
Q 641 553 641 1216 
L 641 2700 
L 84 2700 
L 84 3500 
L 641 3500 
L 641 4494 
L 1759 4494 
z
" transform="scale(0.015625)"/>
      <path id="DejaVuSans-Bold-4b" d="M 4056 2131 
L 4056 0 
L 2931 0 
L 2931 347 
L 2931 1625 
Q 2931 2084 2911 2256 
Q 2891 2428 2841 2509 
Q 2775 2619 2662 2680 
Q 2550 2741 2406 2741 
Q 2056 2741 1856 2470 
Q 1656 2200 1656 1722 
L 1656 0 
L 538 0 
L 538 4863 
L 1656 4863 
L 1656 2988 
Q 1909 3294 2193 3439 
Q 2478 3584 2822 3584 
Q 3428 3584 3742 3212 
Q 4056 2841 4056 2131 
z
" transform="scale(0.015625)"/>
      <path id="DejaVuSans-Bold-5c" d="M 78 3500 
L 1197 3500 
L 2138 1125 
L 2938 3500 
L 4056 3500 
L 2584 -331 
Q 2363 -916 2067 -1148 
Q 1772 -1381 1288 -1381 
L 641 -1381 
L 641 -647 
L 991 -647 
Q 1275 -647 1404 -556 
Q 1534 -466 1606 -231 
L 1638 -134 
L 78 3500 
z
" transform="scale(0.015625)"/>
      <path id="DejaVuSans-Bold-12" d="M 1644 4666 
L 2338 4666 
L 691 -594 
L 0 -594 
L 1644 4666 
z
" transform="scale(0.015625)"/>
      <path id="DejaVuSans-Bold-58" d="M 500 1363 
L 500 3500 
L 1625 3500 
L 1625 3150 
Q 1625 2866 1622 2436 
Q 1619 2006 1619 1863 
Q 1619 1441 1641 1255 
Q 1663 1069 1716 984 
Q 1784 875 1895 815 
Q 2006 756 2150 756 
Q 2500 756 2700 1025 
Q 2900 1294 2900 1772 
L 2900 3500 
L 4019 3500 
L 4019 0 
L 2900 0 
L 2900 506 
Q 2647 200 2364 54 
Q 2081 -91 1741 -91 
Q 1134 -91 817 281 
Q 500 653 500 1363 
z
" transform="scale(0.015625)"/>
      <path id="DejaVuSans-Bold-52" d="M 2203 2784 
Q 1831 2784 1636 2517 
Q 1441 2250 1441 1747 
Q 1441 1244 1636 976 
Q 1831 709 2203 709 
Q 2569 709 2762 976 
Q 2956 1244 2956 1747 
Q 2956 2250 2762 2517 
Q 2569 2784 2203 2784 
z
M 2203 3584 
Q 3106 3584 3614 3096 
Q 4122 2609 4122 1747 
Q 4122 884 3614 396 
Q 3106 -91 2203 -91 
Q 1297 -91 786 396 
Q 275 884 275 1747 
Q 275 2609 786 3096 
Q 1297 3584 2203 3584 
z
" transform="scale(0.015625)"/>
      <path id="DejaVuSans-Bold-48" d="M 4031 1759 
L 4031 1441 
L 1416 1441 
Q 1456 1047 1700 850 
Q 1944 653 2381 653 
Q 2734 653 3104 758 
Q 3475 863 3866 1075 
L 3866 213 
Q 3469 63 3072 -14 
Q 2675 -91 2278 -91 
Q 1328 -91 801 392 
Q 275 875 275 1747 
Q 275 2603 792 3093 
Q 1309 3584 2216 3584 
Q 3041 3584 3536 3087 
Q 4031 2591 4031 1759 
z
M 2881 2131 
Q 2881 2450 2695 2645 
Q 2509 2841 2209 2841 
Q 1884 2841 1681 2658 
Q 1478 2475 1428 2131 
L 2881 2131 
z
" transform="scale(0.015625)"/>
      <path id="DejaVuSans-Bold-56" d="M 3272 3391 
L 3272 2541 
Q 2913 2691 2578 2766 
Q 2244 2841 1947 2841 
Q 1628 2841 1473 2761 
Q 1319 2681 1319 2516 
Q 1319 2381 1436 2309 
Q 1553 2238 1856 2203 
L 2053 2175 
Q 2913 2066 3209 1816 
Q 3506 1566 3506 1031 
Q 3506 472 3093 190 
Q 2681 -91 1863 -91 
Q 1516 -91 1145 -36 
Q 775 19 384 128 
L 384 978 
Q 719 816 1070 734 
Q 1422 653 1784 653 
Q 2113 653 2278 743 
Q 2444 834 2444 1013 
Q 2444 1163 2330 1236 
Q 2216 1309 1875 1350 
L 1678 1375 
Q 931 1469 631 1722 
Q 331 1975 331 2491 
Q 331 3047 712 3315 
Q 1094 3584 1881 3584 
Q 2191 3584 2531 3537 
Q 2872 3491 3272 3391 
z
" transform="scale(0.015625)"/>
      <path id="DejaVuSans-Bold-46" d="M 3366 3391 
L 3366 2478 
Q 3138 2634 2908 2709 
Q 2678 2784 2431 2784 
Q 1963 2784 1702 2511 
Q 1441 2238 1441 1747 
Q 1441 1256 1702 982 
Q 1963 709 2431 709 
Q 2694 709 2930 787 
Q 3166 866 3366 1019 
L 3366 103 
Q 3103 6 2833 -42 
Q 2563 -91 2291 -91 
Q 1344 -91 809 395 
Q 275 881 275 1747 
Q 275 2613 809 3098 
Q 1344 3584 2291 3584 
Q 2566 3584 2833 3536 
Q 3100 3488 3366 3391 
z
" transform="scale(0.015625)"/>
      <path id="DejaVuSans-Bold-c" d="M 513 -844 
Q 913 -100 1113 609 
Q 1313 1319 1313 2009 
Q 1313 2700 1113 3408 
Q 913 4116 513 4856 
L 1441 4856 
Q 1916 4091 2145 3389 
Q 2375 2688 2375 2003 
Q 2375 1319 2147 623 
Q 1919 -72 1441 -844 
L 513 -844 
z
" transform="scale(0.015625)"/>
      <path id="DejaVuSans-Bold-af6" d="M 344 2156 
L 6056 2156 
L 6056 1350 
L 344 1350 
L 344 2156 
z
" transform="scale(0.015625)"/>
      <path id="DejaVuSans-Bold-7" d="M 2484 -941 
L 1978 -941 
L 1975 0 
Q 1584 16 1218 87 
Q 853 159 506 288 
L 506 1106 
Q 866 922 1233 823 
Q 1600 725 1978 713 
L 1978 1684 
L 1875 1703 
Q 1128 1834 814 2115 
Q 500 2397 500 2925 
Q 500 3484 883 3798 
Q 1266 4113 1975 4141 
L 1978 4863 
L 2484 4863 
L 2484 4153 
Q 2797 4128 3109 4075 
Q 3422 4022 3738 3938 
L 3738 3144 
Q 3425 3275 3112 3348 
Q 2800 3422 2484 3438 
L 2484 2541 
L 2584 2522 
Q 3378 2397 3698 2105 
Q 4019 1813 4019 1241 
Q 4019 666 3637 358 
Q 3256 50 2484 6 
L 2484 -941 
z
M 1978 2613 
L 1978 3428 
Q 1756 3416 1623 3308 
Q 1491 3200 1491 3034 
Q 1491 2850 1612 2745 
Q 1734 2641 1978 2613 
z
M 2484 1594 
L 2484 725 
Q 2756 728 2892 831 
Q 3028 934 3028 1141 
Q 3028 1353 2903 1458 
Q 2778 1563 2484 1594 
z
" transform="scale(0.015625)"/>
      <path id="DejaVuSans-Bold-15" d="M 1844 884 
L 3897 884 
L 3897 0 
L 506 0 
L 506 884 
L 2209 2388 
Q 2438 2594 2547 2791 
Q 2656 2988 2656 3200 
Q 2656 3528 2436 3728 
Q 2216 3928 1850 3928 
Q 1569 3928 1234 3808 
Q 900 3688 519 3450 
L 519 4475 
Q 925 4609 1322 4679 
Q 1719 4750 2100 4750 
Q 2938 4750 3402 4381 
Q 3866 4013 3866 3353 
Q 3866 2972 3669 2642 
Q 3472 2313 2841 1759 
L 1844 884 
z
" transform="scale(0.015625)"/>
      <path id="DejaVuSans-Bold-19" d="M 2316 2303 
Q 2000 2303 1842 2098 
Q 1684 1894 1684 1484 
Q 1684 1075 1842 870 
Q 2000 666 2316 666 
Q 2634 666 2792 870 
Q 2950 1075 2950 1484 
Q 2950 1894 2792 2098 
Q 2634 2303 2316 2303 
z
M 3803 4544 
L 3803 3681 
Q 3506 3822 3243 3889 
Q 2981 3956 2731 3956 
Q 2194 3956 1894 3657 
Q 1594 3359 1544 2772 
Q 1750 2925 1990 3001 
Q 2231 3078 2516 3078 
Q 3231 3078 3670 2659 
Q 4109 2241 4109 1563 
Q 4109 813 3618 361 
Q 3128 -91 2303 -91 
Q 1394 -91 895 523 
Q 397 1138 397 2266 
Q 397 3422 980 4083 
Q 1563 4744 2578 4744 
Q 2900 4744 3203 4694 
Q 3506 4644 3803 4544 
z
" transform="scale(0.015625)"/>
      <path id="DejaVuSans-Bold-11" d="M 653 1209 
L 1778 1209 
L 1778 0 
L 653 0 
L 653 1209 
z
" transform="scale(0.015625)"/>
      <path id="DejaVuSans-Bold-13" d="M 2944 2338 
Q 2944 3213 2780 3570 
Q 2616 3928 2228 3928 
Q 1841 3928 1675 3570 
Q 1509 3213 1509 2338 
Q 1509 1453 1675 1090 
Q 1841 728 2228 728 
Q 2613 728 2778 1090 
Q 2944 1453 2944 2338 
z
M 4147 2328 
Q 4147 1169 3647 539 
Q 3147 -91 2228 -91 
Q 1306 -91 806 539 
Q 306 1169 306 2328 
Q 306 3491 806 4120 
Q 1306 4750 2228 4750 
Q 3147 4750 3647 4120 
Q 4147 3491 4147 2328 
z
" transform="scale(0.015625)"/>
      <path id="DejaVuSans-Bold-10" d="M 347 2297 
L 2309 2297 
L 2309 1388 
L 347 1388 
L 347 2297 
z
" transform="scale(0.015625)"/>
      <path id="DejaVuSans-Bold-14" d="M 750 831 
L 1813 831 
L 1813 3847 
L 722 3622 
L 722 4441 
L 1806 4666 
L 2950 4666 
L 2950 831 
L 4013 831 
L 4013 0 
L 750 0 
L 750 831 
z
" transform="scale(0.015625)"/>
      <path id="DejaVuSans-Bold-1a" d="M 428 4666 
L 3944 4666 
L 3944 3988 
L 2125 0 
L 953 0 
L 2675 3781 
L 428 3781 
L 428 4666 
z
" transform="scale(0.015625)"/>
      <path id="DejaVuSans-Bold-8" d="M 4959 1925 
Q 4738 1925 4616 1733 
Q 4494 1541 4494 1184 
Q 4494 825 4614 633 
Q 4734 441 4959 441 
Q 5184 441 5303 633 
Q 5422 825 5422 1184 
Q 5422 1541 5301 1733 
Q 5181 1925 4959 1925 
z
M 4959 2450 
Q 5541 2450 5875 2112 
Q 6209 1775 6209 1184 
Q 6209 594 5875 251 
Q 5541 -91 4959 -91 
Q 4378 -91 4042 251 
Q 3706 594 3706 1184 
Q 3706 1772 4042 2111 
Q 4378 2450 4959 2450 
z
M 2094 -91 
L 1403 -91 
L 4319 4750 
L 5013 4750 
L 2094 -91 
z
M 1453 4750 
Q 2034 4750 2367 4411 
Q 2700 4072 2700 3481 
Q 2700 2891 2367 2550 
Q 2034 2209 1453 2209 
Q 872 2209 539 2550 
Q 206 2891 206 3481 
Q 206 4072 539 4411 
Q 872 4750 1453 4750 
z
M 1453 4225 
Q 1228 4225 1106 4031 
Q 984 3838 984 3481 
Q 984 3122 1106 2926 
Q 1228 2731 1453 2731 
Q 1678 2731 1798 2926 
Q 1919 3122 1919 3481 
Q 1919 3838 1797 4031 
Q 1675 4225 1453 4225 
z
" transform="scale(0.015625)"/>
     </defs>
     <use xlink:href="#DejaVuSans-Bold-24"/>
     <use xlink:href="#DejaVuSans-Bold-38" transform="translate(74.3125 0)"/>
     <use xlink:href="#DejaVuSans-Bold-37" transform="translate(155.515625 0)"/>
     <use xlink:href="#DejaVuSans-Bold-32" transform="translate(223.734375 0)"/>
     <use xlink:href="#DejaVuSans-Bold-35" transform="translate(308.75 0)"/>
     <use xlink:href="#DejaVuSans-Bold-28" transform="translate(385.75 0)"/>
     <use xlink:href="#DejaVuSans-Bold-36" transform="translate(454.0625 0)"/>
     <use xlink:href="#DejaVuSans-Bold-28" transform="translate(526.078125 0)"/>
     <use xlink:href="#DejaVuSans-Bold-24" transform="translate(594.390625 0)"/>
     <use xlink:href="#DejaVuSans-Bold-35" transform="translate(671.78125 0)"/>
     <use xlink:href="#DejaVuSans-Bold-26" transform="translate(748.78125 0)"/>
     <use xlink:href="#DejaVuSans-Bold-2b" transform="translate(822.171875 0)"/>
     <use xlink:href="#DejaVuSans-Bold-3" transform="translate(905.859375 0)"/>
     <use xlink:href="#DejaVuSans-Bold-b" transform="translate(940.671875 0)"/>
     <use xlink:href="#DejaVuSans-Bold-4e" transform="translate(986.375 0)"/>
     <use xlink:href="#DejaVuSans-Bold-44" transform="translate(1052.875 0)"/>
     <use xlink:href="#DejaVuSans-Bold-55" transform="translate(1120.359375 0)"/>
     <use xlink:href="#DejaVuSans-Bold-53" transform="translate(1169.671875 0)"/>
     <use xlink:href="#DejaVuSans-Bold-44" transform="translate(1241.25 0)"/>
     <use xlink:href="#DejaVuSans-Bold-57" transform="translate(1308.734375 0)"/>
     <use xlink:href="#DejaVuSans-Bold-4b" transform="translate(1356.53125 0)"/>
     <use xlink:href="#DejaVuSans-Bold-5c" transform="translate(1427.71875 0)"/>
     <use xlink:href="#DejaVuSans-Bold-12" transform="translate(1492.90625 0)"/>
     <use xlink:href="#DejaVuSans-Bold-44" transform="translate(1529.4375 0)"/>
     <use xlink:href="#DejaVuSans-Bold-58" transform="translate(1596.921875 0)"/>
     <use xlink:href="#DejaVuSans-Bold-57" transform="translate(1668.109375 0)"/>
     <use xlink:href="#DejaVuSans-Bold-52" transform="translate(1715.90625 0)"/>
     <use xlink:href="#DejaVuSans-Bold-55" transform="translate(1784.609375 0)"/>
     <use xlink:href="#DejaVuSans-Bold-48" transform="translate(1833.921875 0)"/>
     <use xlink:href="#DejaVuSans-Bold-56" transform="translate(1901.75 0)"/>
     <use xlink:href="#DejaVuSans-Bold-48" transform="translate(1961.265625 0)"/>
     <use xlink:href="#DejaVuSans-Bold-44" transform="translate(2029.09375 0)"/>
     <use xlink:href="#DejaVuSans-Bold-55" transform="translate(2096.578125 0)"/>
     <use xlink:href="#DejaVuSans-Bold-46" transform="translate(2145.890625 0)"/>
     <use xlink:href="#DejaVuSans-Bold-4b" transform="translate(2205.171875 0)"/>
     <use xlink:href="#DejaVuSans-Bold-c" transform="translate(2276.359375 0)"/>
     <use xlink:href="#DejaVuSans-Bold-3" transform="translate(2322.0625 0)"/>
     <use xlink:href="#DejaVuSans-Bold-af6" transform="translate(2356.875 0)"/>
     <use xlink:href="#DejaVuSans-Bold-3" transform="translate(2456.875 0)"/>
     <use xlink:href="#DejaVuSans-Bold-7" transform="translate(2491.6875 0)"/>
     <use xlink:href="#DejaVuSans-Bold-15" transform="translate(2561.265625 0)"/>
     <use xlink:href="#DejaVuSans-Bold-19" transform="translate(2630.84375 0)"/>
     <use xlink:href="#DejaVuSans-Bold-15" transform="translate(2700.421875 0)"/>
     <use xlink:href="#DejaVuSans-Bold-11" transform="translate(2770 0)"/>
     <use xlink:href="#DejaVuSans-Bold-19" transform="translate(2807.984375 0)"/>
     <use xlink:href="#DejaVuSans-Bold-13" transform="translate(2877.5625 0)"/>
     <use xlink:href="#DejaVuSans-Bold-3" transform="translate(2947.140625 0)"/>
     <use xlink:href="#DejaVuSans-Bold-b" transform="translate(2981.953125 0)"/>
     <use xlink:href="#DejaVuSans-Bold-10" transform="translate(3027.65625 0)"/>
     <use xlink:href="#DejaVuSans-Bold-14" transform="translate(3069.15625 0)"/>
     <use xlink:href="#DejaVuSans-Bold-13" transform="translate(3138.734375 0)"/>
     <use xlink:href="#DejaVuSans-Bold-11" transform="translate(3208.3125 0)"/>
     <use xlink:href="#DejaVuSans-Bold-1a" transform="translate(3246.296875 0)"/>
     <use xlink:href="#DejaVuSans-Bold-19" transform="translate(3315.875 0)"/>
     <use xlink:href="#DejaVuSans-Bold-8" transform="translate(3385.453125 0)"/>
     <use xlink:href="#DejaVuSans-Bold-c" transform="translate(3485.65625 0)"/>
    </g>
   </g>
  </g>
 </g>
 <defs>
  <clipPath id="p399e47ed11">
   <rect x="34.56" y="21.558281" width="383.24" height="128.76"/>
  </clipPath>
 </defs>
</svg>
